<?xml version="1.0" encoding="utf-8"?>
<!-- Generator: Adobe Illustrator 14.0.0, SVG Export Plug-In . SVG Version: 6.00 Build 43363)  -->
<!DOCTYPE svg PUBLIC "-//W3C//DTD SVG 1.1//EN" "http://www.w3.org/Graphics/SVG/1.1/DTD/svg11.dtd">
<svg version="1.1" id="Layer_1" xmlns="http://www.w3.org/2000/svg" xmlns:xlink="http://www.w3.org/1999/xlink" x="0px" y="0px"
	 width="632px" height="32px" viewBox="0 16 632 32" enable-background="new 0 16 632 32" xml:space="preserve">
<g>
	<g>
		<g>
			<path fill="#E6E7E8" d="M610.896,38.609c-1.787,0-3.256-0.588-4.361-1.746c-1.102-1.148-1.652-2.771-1.652-4.821
				c0-1.304,0.23-2.468,0.684-3.462c0.477-1.063,1.23-1.876,2.23-2.416c0.953-0.512,2-0.771,3.111-0.771
				c1.414,0,2.607,0.368,3.545,1.091c0.953,0.729,1.563,1.775,1.828,3.098l0.195,0.968l-3.668,0.544l-0.207-0.838
				c-0.125-0.52-0.324-0.899-0.615-1.136c-0.279-0.227-0.604-0.336-1.018-0.336c-0.688,0-1.205,0.218-1.623,0.684
				c-0.426,0.475-0.65,1.349-0.65,2.524c0,1.199,0.219,2.082,0.631,2.559c0.393,0.455,0.885,0.664,1.541,0.664
				c0.508,0,0.91-0.141,1.234-0.426c0.32-0.289,0.535-0.787,0.635-1.473l0.135-0.914l3.742,0.472l-0.16,0.962
				c-0.238,1.469-0.877,2.646-1.881,3.494C613.582,38.178,612.338,38.609,610.896,38.609L610.896,38.609z"/>
		</g>
		<g>
			<path fill="#E6E7E8" d="M621.65,38.609c-1.787,0-3.254-0.588-4.361-1.746c-1.094-1.152-1.652-2.775-1.652-4.821
				c0-1.294,0.23-2.46,0.686-3.46c0.482-1.068,1.232-1.88,2.229-2.418c0.957-0.512,2.004-0.771,3.113-0.771
				c1.414,0,2.609,0.368,3.547,1.091c0.953,0.729,1.566,1.775,1.828,3.098l0.195,0.968l-3.676,0.544l-0.199-0.84
				c-0.127-0.518-0.328-0.9-0.615-1.13c-0.283-0.23-0.598-0.34-1.016-0.34c-0.693,0-1.205,0.216-1.619,0.684
				c-0.438,0.48-0.656,1.328-0.656,2.524c0,1.199,0.217,2.082,0.629,2.559c0.395,0.455,0.883,0.664,1.539,0.664
				c0.508,0,0.914-0.135,1.23-0.422c0.328-0.293,0.543-0.791,0.641-1.477l0.133-0.914l3.742,0.472l-0.156,0.96
				c-0.238,1.467-0.877,2.648-1.883,3.494C624.34,38.176,623.096,38.609,621.65,38.609L621.65,38.609z"/>
		</g>
		<g>
			<path fill="#E6E7E8" d="M632,45.49h-32V18.51h32V45.49L632,45.49z M604.035,41.516h23.93V22.484h-23.93V41.516L604.035,41.516z"
				/>
		</g>
	</g>
	<g>
		<path fill="#FFFFFF" d="M613.682,33.453l1.857,0.232c-0.203,1.246-0.717,2.221-1.553,2.924c-0.842,0.707-1.873,1.059-3.084,1.059
			c-1.531,0-2.756-0.484-3.684-1.453c-0.93-0.973-1.389-2.369-1.389-4.177c0-1.168,0.205-2.196,0.598-3.07
			c0.396-0.878,1.006-1.54,1.822-1.979c0.814-0.438,1.707-0.656,2.664-0.656c1.207,0,2.203,0.296,2.965,0.894
			c0.775,0.595,1.27,1.44,1.484,2.54l-1.84,0.272c-0.174-0.724-0.484-1.274-0.932-1.638c-0.443-0.37-0.982-0.551-1.611-0.551
			c-0.959,0-1.727,0.33-2.324,0.994c-0.594,0.66-0.891,1.712-0.891,3.15c0,1.455,0.289,2.516,0.863,3.176
			c0.574,0.656,1.324,0.988,2.25,0.988c0.742,0,1.365-0.217,1.863-0.66C613.23,35.051,613.547,34.371,613.682,33.453z"/>
		<path fill="#FFFFFF" d="M624.438,33.453l1.859,0.232c-0.203,1.246-0.721,2.221-1.557,2.924c-0.834,0.707-1.869,1.059-3.084,1.059
			c-1.527,0-2.752-0.484-3.684-1.453c-0.926-0.973-1.389-2.369-1.389-4.177c0-1.168,0.209-2.196,0.598-3.07
			c0.402-0.878,1.014-1.54,1.824-1.979c0.816-0.438,1.709-0.656,2.664-0.656c1.209,0,2.205,0.296,2.967,0.894
			c0.777,0.595,1.268,1.44,1.484,2.54l-1.844,0.272c-0.174-0.724-0.48-1.274-0.93-1.638c-0.443-0.37-0.98-0.551-1.613-0.551
			c-0.953,0-1.725,0.33-2.318,0.994c-0.598,0.66-0.893,1.712-0.893,3.15c0,1.455,0.291,2.516,0.859,3.176
			c0.578,0.656,1.324,0.988,2.25,0.988c0.738,0,1.369-0.217,1.861-0.66C623.988,35.051,624.301,34.371,624.438,33.453z"/>
	</g>
	<g>
		
			<linearGradient id="SVGID_1_" gradientUnits="userSpaceOnUse" x1="1078" y1="640.5508" x2="1078" y2="615.4521" gradientTransform="matrix(1 0 0 1 -462 -596)">
			<stop  offset="0" style="stop-color:#DEDEDE"/>
			<stop  offset="0.5028" style="stop-color:#FFFFFF"/>
		</linearGradient>
		<path fill="url(#SVGID_1_)" d="M603.094,21.542h25.813v20.915h-25.813V21.542z M600.941,19.452v25.099h30.117V19.452H600.941z"/>
	</g>
</g>
<g>
	<g>
		<path fill="#E6E7E8" d="M0,48V16l32,16L0,48L0,48z"/>
	</g>
	
		<linearGradient id="SVGID_2_" gradientUnits="userSpaceOnUse" x1="477.4375" y1="642.666" x2="477.4375" y2="613.6025" gradientTransform="matrix(1 0 0 1 -462 -596)">
		<stop  offset="0" style="stop-color:#DEDEDE"/>
		<stop  offset="0.5028" style="stop-color:#FFFFFF"/>
	</linearGradient>
	<polygon fill="url(#SVGID_2_)" points="29.968,32.002 0.908,46.531 0.908,17.468 	"/>
</g>
<g>
	<g>
		<g>
			<path fill="#E6E7E8" d="M69.412,48H60V16h9.412V48L69.412,48z"/>
		</g>
		<g>
			<path fill="#E6E7E8" d="M86.98,48h-9.412V16h9.412V48L86.98,48z"/>
		</g>
	</g>
	<g>
		
			<linearGradient id="SVGID_3_" gradientUnits="userSpaceOnUse" x1="526.707" y1="643.0586" x2="526.707" y2="612.9424" gradientTransform="matrix(1 0 0 1 -462 -596)">
			<stop  offset="0" style="stop-color:#DEDEDE"/>
			<stop  offset="0.5028" style="stop-color:#FFFFFF"/>
		</linearGradient>
		<rect x="60.942" y="16.942" fill="url(#SVGID_3_)" width="7.529" height="30.116"/>
		
			<linearGradient id="SVGID_4_" gradientUnits="userSpaceOnUse" x1="544.2734" y1="643.0586" x2="544.2734" y2="612.9424" gradientTransform="matrix(1 0 0 1 -462 -596)">
			<stop  offset="0" style="stop-color:#DEDEDE"/>
			<stop  offset="0.5028" style="stop-color:#FFFFFF"/>
		</linearGradient>
		<rect x="78.508" y="16.942" fill="url(#SVGID_4_)" width="7.53" height="30.116"/>
	</g>
</g>
<g>
	<g>
		<g>
			<path fill="#E6E7E8" d="M452,48h-15.762l6.328-6.33l-5.236-5.234l3.105-3.104l5.236,5.234l6.328-6.33V48L452,48z"/>
		</g>
		<g>
			<path fill="#E6E7E8" d="M435.762,48H420V32.236l6.328,6.33l5.236-5.234l3.105,3.104l-5.234,5.234L435.762,48L435.762,48z"/>
		</g>
		<g>
			<path fill="#E6E7E8" d="M420,31.764V16h15.762l-6.33,6.332l5.24,5.234l-3.109,3.102l-5.236-5.232L420,31.764L420,31.764z"/>
		</g>
		<g>
			<path fill="#E6E7E8" d="M452,31.764l-6.326-6.328l-5.236,5.234l-3.107-3.104l5.238-5.234L436.238,16H452V31.764L452,31.764z"/>
		</g>
	</g>
	<g>
		
			<linearGradient id="SVGID_5_" gradientUnits="userSpaceOnUse" x1="906.7842" y1="643.0586" x2="906.7842" y2="630.5098" gradientTransform="matrix(1 0 0 1 -462 -596)">
			<stop  offset="0" style="stop-color:#DEDEDE"/>
			<stop  offset="0.5028" style="stop-color:#FFFFFF"/>
		</linearGradient>
		<polygon fill="url(#SVGID_5_)" points="440.436,34.664 438.664,36.436 443.896,41.67 438.51,47.059 451.059,47.059 451.059,34.51 
			445.672,39.896 		"/>
		
			<linearGradient id="SVGID_6_" gradientUnits="userSpaceOnUse" x1="889.2148" y1="643.0586" x2="889.2148" y2="630.5098" gradientTransform="matrix(1 0 0 1 -462 -596)">
			<stop  offset="0" style="stop-color:#DEDEDE"/>
			<stop  offset="0.5028" style="stop-color:#FFFFFF"/>
		</linearGradient>
		<polygon fill="url(#SVGID_6_)" points="433.338,36.436 431.564,34.664 426.328,39.896 420.941,34.51 420.941,47.059 
			433.488,47.059 428.105,41.67 		"/>
		
			<linearGradient id="SVGID_7_" gradientUnits="userSpaceOnUse" x1="889.2148" y1="625.4902" x2="889.2148" y2="612.9424" gradientTransform="matrix(1 0 0 1 -462 -596)">
			<stop  offset="0" style="stop-color:#DEDEDE"/>
			<stop  offset="0.5028" style="stop-color:#FFFFFF"/>
		</linearGradient>
		<polygon fill="url(#SVGID_7_)" points="420.941,29.49 426.326,24.106 431.563,29.338 433.338,27.566 428.1,22.332 433.488,16.942 
			420.941,16.942 		"/>
		
			<linearGradient id="SVGID_8_" gradientUnits="userSpaceOnUse" x1="906.7842" y1="625.4902" x2="906.7842" y2="612.9424" gradientTransform="matrix(1 0 0 1 -462 -596)">
			<stop  offset="0" style="stop-color:#DEDEDE"/>
			<stop  offset="0.5028" style="stop-color:#FFFFFF"/>
		</linearGradient>
		<polygon fill="url(#SVGID_8_)" points="438.51,16.942 443.9,22.332 438.664,27.566 440.438,29.338 445.674,24.106 451.059,29.49 
			451.059,16.942 		"/>
	</g>
</g>
<g>
	<g>
		<path fill="#E6E7E8" d="M152,48h-32V16h32V48L152,48z"/>
	</g>
	
		<linearGradient id="SVGID_9_" gradientUnits="userSpaceOnUse" x1="597.999" y1="643.0586" x2="597.999" y2="612.9424" gradientTransform="matrix(1 0 0 1 -462 -596)">
		<stop  offset="0" style="stop-color:#DEDEDE"/>
		<stop  offset="0.5028" style="stop-color:#FFFFFF"/>
	</linearGradient>
	<rect x="120.94" y="16.942" fill="url(#SVGID_9_)" width="30.117" height="30.116"/>
</g>
<g>
	<g>
		<g>
			<path fill="#E6E7E8" d="M564.604,46.41h-17.207c-4.078,0-7.395-3.316-7.395-7.395v-8.604c0-4.078,3.316-7.395,7.395-7.395h4.17
				v6.187h-4.17c-0.67,0-1.211,0.542-1.211,1.208v8.604c0,0.668,0.541,1.211,1.211,1.211h17.207c0.666,0,1.213-0.543,1.213-1.211
				v-8.604c0-0.668-0.547-1.208-1.213-1.208h-1.564v5.36l-10.004-8.486l10.004-8.488v5.43h1.564c4.078,0,7.396,3.316,7.396,7.395
				v8.605C572,43.094,568.682,46.41,564.604,46.41L564.604,46.41z"/>
		</g>
	</g>
	<g>
		
			<linearGradient id="SVGID_10_" gradientUnits="userSpaceOnUse" x1="1018" y1="641.4375" x2="1018" y2="615.5859" gradientTransform="matrix(1 0 0 1 -462 -596)">
			<stop  offset="0" style="stop-color:#DEDEDE"/>
			<stop  offset="0.5028" style="stop-color:#FFFFFF"/>
		</linearGradient>
		<path fill="url(#SVGID_10_)" d="M564.604,23.92h-2.508v-4.334l-7.605,6.456l7.605,6.456v-4.276h2.508
			c1.186,0,2.154,0.962,2.154,2.152v8.606c0,1.184-0.969,2.152-2.154,2.152h-17.207c-1.186,0-2.152-0.969-2.152-2.152v-8.606
			c0-1.188,0.967-2.152,2.152-2.152h3.229v-4.3h-3.229c-3.559,0-6.455,2.893-6.455,6.456v8.606c0,3.559,2.891,6.453,6.455,6.453
			h17.207c3.559,0,6.455-2.891,6.455-6.453v-8.61C571.059,26.816,568.162,23.92,564.604,23.92z"/>
	</g>
</g>
<g>
	<g>
		<g>
			<polygon fill="#E6E7E8" points="272,32 249.782,18.118 249.782,24.23 240,18.118 240,45.883 249.782,39.77 249.782,45.883 			"/>
		</g>
	</g>
	<g>
		<g>
			
				<linearGradient id="SVGID_11_" gradientUnits="userSpaceOnUse" x1="712.7002" y1="640.2305" x2="712.7002" y2="615.7695" gradientTransform="matrix(1 0 0 1 -462 -596)">
				<stop  offset="0" style="stop-color:#DEDEDE"/>
				<stop  offset="0.5028" style="stop-color:#FFFFFF"/>
			</linearGradient>
			<polygon fill="url(#SVGID_11_)" points="260.484,32 240.916,44.23 240.916,19.77 			"/>
		</g>
		<g>
			
				<linearGradient id="SVGID_12_" gradientUnits="userSpaceOnUse" x1="722.4844" y1="640.2305" x2="722.4844" y2="615.7695" gradientTransform="matrix(1 0 0 1 -462 -596)">
				<stop  offset="0" style="stop-color:#DEDEDE"/>
				<stop  offset="0.5028" style="stop-color:#FFFFFF"/>
			</linearGradient>
			<polygon fill="url(#SVGID_12_)" points="270.27,32 250.7,44.23 250.7,19.77 			"/>
		</g>
	</g>
</g>
<g>
	<g>
		<g>
			<path fill="#E6E7E8" d="M212,18.114l-9.784,6.118v-6.118L180,32l22.216,13.887V39.77L212,45.887V18.114z"/>
		</g>
	</g>
	<g>
		<g>
			
				<linearGradient id="SVGID_13_" gradientUnits="userSpaceOnUse" x1="663.2979" y1="640.2305" x2="663.2979" y2="615.7695" gradientTransform="matrix(1 0 0 1 -462 -596)">
				<stop  offset="0" style="stop-color:#DEDEDE"/>
				<stop  offset="0.5028" style="stop-color:#FFFFFF"/>
			</linearGradient>
			<polygon fill="url(#SVGID_13_)" points="211.082,19.77 211.082,44.23 191.514,32 			"/>
		</g>
		<g>
			
				<linearGradient id="SVGID_14_" gradientUnits="userSpaceOnUse" x1="653.5137" y1="640.2305" x2="653.5137" y2="615.7695" gradientTransform="matrix(1 0 0 1 -462 -596)">
				<stop  offset="0" style="stop-color:#DEDEDE"/>
				<stop  offset="0.5028" style="stop-color:#FFFFFF"/>
			</linearGradient>
			<polygon fill="url(#SVGID_14_)" points="201.298,19.77 201.298,44.23 181.73,32 			"/>
		</g>
	</g>
</g>
<g>
	<g>
		<g>
			<path fill="#E6E7E8" d="M494.551,30.552H480l5.846-5.844l-4.838-4.832l2.871-2.866l4.836,4.83l5.84-5.84v14.552H494.551z"/>
		</g>
		<g>
			<path fill="#E6E7E8" d="M494.551,48l-5.844-5.844l-4.832,4.832l-2.871-2.867l4.834-4.832L480,33.449h14.551V48L494.551,48z"/>
		</g>
		<g>
			<path fill="#E6E7E8" d="M512,30.552h-14.551V16l5.84,5.84l4.836-4.83l2.873,2.866l-4.836,4.832L512,30.552L512,30.552z"/>
		</g>
		<g>
			<path fill="#E6E7E8" d="M497.449,48V33.449H512l-5.842,5.844l4.834,4.832l-2.871,2.869l-4.832-4.832L497.449,48L497.449,48z"/>
		</g>
	</g>
	<g>
		
			<linearGradient id="SVGID_15_" gradientUnits="userSpaceOnUse" x1="949.8906" y1="625.6836" x2="949.8906" y2="614.0977" gradientTransform="matrix(1 0 0 1 -462 -596)">
			<stop  offset="0" style="stop-color:#DEDEDE"/>
			<stop  offset="0.5028" style="stop-color:#FFFFFF"/>
		</linearGradient>
		<polygon fill="url(#SVGID_15_)" points="483.879,18.238 482.238,19.876 487.074,24.708 482.098,29.684 493.684,29.684 
			493.684,18.098 488.711,23.068 		"/>
		
			<linearGradient id="SVGID_16_" gradientUnits="userSpaceOnUse" x1="949.8906" y1="641.9023" x2="949.8906" y2="630.3164" gradientTransform="matrix(1 0 0 1 -462 -596)">
			<stop  offset="0" style="stop-color:#DEDEDE"/>
			<stop  offset="0.5028" style="stop-color:#FFFFFF"/>
		</linearGradient>
		<polygon fill="url(#SVGID_16_)" points="487.072,39.293 482.238,44.125 483.875,45.76 488.707,40.928 493.684,45.902 
			493.684,34.316 482.098,34.316 		"/>
		
			<linearGradient id="SVGID_17_" gradientUnits="userSpaceOnUse" x1="966.1104" y1="625.6836" x2="966.1104" y2="614.0977" gradientTransform="matrix(1 0 0 1 -462 -596)">
			<stop  offset="0" style="stop-color:#DEDEDE"/>
			<stop  offset="0.5028" style="stop-color:#FFFFFF"/>
		</linearGradient>
		<polygon fill="url(#SVGID_17_)" points="504.926,24.708 509.764,19.876 508.125,18.238 503.289,23.068 498.318,18.098 
			498.318,29.684 509.902,29.684 		"/>
		
			<linearGradient id="SVGID_18_" gradientUnits="userSpaceOnUse" x1="966.1104" y1="641.9023" x2="966.1104" y2="630.3164" gradientTransform="matrix(1 0 0 1 -462 -596)">
			<stop  offset="0" style="stop-color:#DEDEDE"/>
			<stop  offset="0.5028" style="stop-color:#FFFFFF"/>
		</linearGradient>
		<polygon fill="url(#SVGID_18_)" points="498.318,34.316 498.318,45.902 503.293,40.928 508.125,45.76 509.764,44.125 
			504.93,39.293 509.902,34.316 		"/>
	</g>
</g>
<g>
	<g>
		<polygon fill="#E6E7E8" points="320.754,16 310.084,24.006 300,24.006 300,40.018 309.884,40.018 320.754,48 		"/>
		<g>
			
				<linearGradient id="SVGID_19_" gradientUnits="userSpaceOnUse" x1="767.0273" y1="635.1211" x2="767.0273" y2="620.8857" gradientTransform="matrix(1 0 0 1 -462 -596)">
				<stop  offset="0" style="stop-color:#DEDEDE"/>
				<stop  offset="0.5028" style="stop-color:#FFFFFF"/>
			</linearGradient>
			<rect x="300.888" y="24.886" fill="url(#SVGID_19_)" width="8.28" height="14.235"/>
			
				<linearGradient id="SVGID_20_" gradientUnits="userSpaceOnUse" x1="777.1221" y1="642.2324" x2="777.1221" y2="613.7676" gradientTransform="matrix(1 0 0 1 -462 -596)">
				<stop  offset="0" style="stop-color:#DEDEDE"/>
				<stop  offset="0.5028" style="stop-color:#FFFFFF"/>
			</linearGradient>
			<path fill="url(#SVGID_20_)" d="M310.378,24.888l9.488-7.12v28.465l-9.488-6.965V24.888z"/>
		</g>
	</g>
	<g>
		<g>
			
				<linearGradient id="SVGID_21_" gradientUnits="userSpaceOnUse" x1="1017.9482" y1="-877.9995" x2="1025" y2="-877.9995" gradientTransform="matrix(1 0 0 -1 -693 -846)">
				<stop  offset="0" style="stop-color:#DEDEDE"/>
				<stop  offset="0.5028" style="stop-color:#FFFFFF"/>
			</linearGradient>
			<path fill="url(#SVGID_21_)" d="M325.916,42.875l-0.968-1.75C328.066,39.398,330,35.902,330,32s-1.936-7.398-5.052-9.126
				l0.968-1.75C329.668,23.204,332,27.372,332,32C332,36.629,329.668,40.797,325.916,42.875L325.916,42.875z"/>
		</g>
		<g>
			
				<linearGradient id="SVGID_22_" gradientUnits="userSpaceOnUse" x1="1015.9502" y1="-877.9995" x2="1020.3477" y2="-877.9995" gradientTransform="matrix(1 0 0 -1 -693 -846)">
				<stop  offset="0" style="stop-color:#DEDEDE"/>
				<stop  offset="0.5028" style="stop-color:#FFFFFF"/>
			</linearGradient>
			<path fill="url(#SVGID_22_)" d="M323.916,38.109l-0.964-1.75c1.456-0.805,2.396-2.514,2.396-4.357c0-1.87-0.92-3.542-2.397-4.362
				l0.968-1.75c2.116,1.173,3.43,3.515,3.43,6.112C327.346,34.602,326.032,36.941,323.916,38.109L323.916,38.109z"/>
		</g>
	</g>
</g>
<g>
	<g>
		<polygon fill="#DF1000" points="384.828,36.695 382.613,34.473 385.088,32 382.613,29.521 384.826,27.306 387.305,29.784 
			389.777,27.306 391.998,29.521 389.52,32 392,34.473 389.781,36.695 387.305,34.215 		"/>
	</g>
	<g>
		<polygon fill="#E6E7E8" points="380.754,16 370.082,24.006 360,24.006 360,40.02 369.883,40.02 380.754,48 		"/>
		<g>
			
				<linearGradient id="SVGID_23_" gradientUnits="userSpaceOnUse" x1="827.0273" y1="635.1211" x2="827.0273" y2="620.8857" gradientTransform="matrix(1 0 0 1 -462 -596)">
				<stop  offset="0" style="stop-color:#DEDEDE"/>
				<stop  offset="0.5028" style="stop-color:#FFFFFF"/>
			</linearGradient>
			<rect x="360.887" y="24.886" fill="url(#SVGID_23_)" width="8.281" height="14.235"/>
			
				<linearGradient id="SVGID_24_" gradientUnits="userSpaceOnUse" x1="837.123" y1="642.2324" x2="837.123" y2="613.7656" gradientTransform="matrix(1 0 0 1 -462 -596)">
				<stop  offset="0" style="stop-color:#DEDEDE"/>
				<stop  offset="0.5028" style="stop-color:#FFFFFF"/>
			</linearGradient>
			<path fill="url(#SVGID_24_)" d="M370.379,24.886l9.488-7.12v28.467l-9.488-6.965V24.886z"/>
		</g>
	</g>
</g>
</svg>
