<?xml version="1.0" encoding="utf-8"?>
<!-- Generator: Adobe Illustrator 14.0.0, SVG Export Plug-In . SVG Version: 6.00 Build 43363)  -->
<!DOCTYPE svg PUBLIC "-//W3C//DTD SVG 1.1//EN" "http://www.w3.org/Graphics/SVG/1.1/DTD/svg11.dtd">
<svg version="1.1" id="Layer_1" xmlns="http://www.w3.org/2000/svg" xmlns:xlink="http://www.w3.org/1999/xlink" x="0px" y="0px"
	 width="72px" height="172px" viewBox="0 0 72 172" enable-background="new 0 0 72 172" xml:space="preserve">
<path fill="#E6E6E6" d="M36,0C16.118,0,0,16.118,0,36s16.118,36,36,36c19.881,0,36-16.118,36-36S55.881,0,36,0z M36,66
	C19.432,66,6,52.568,6,36S19.432,6,36,6s30,13.432,30,30S52.567,66,36,66z"/>
<polygon fill="#E6E6E6" points="19.75,15.75 19.75,55.75 59.75,35.75 "/>
<path fill="#E6E6E6" d="M36,100c-19.882,0-36,16.117-36,36s16.118,36,36,36c19.881,0,36-16.117,36-36S55.881,100,36,100z M36,166
	c-16.568,0-30-13.432-30-30s13.432-30,30-30s30,13.432,30,30S52.567,166,36,166z"/>
<path fill="#FFFFFF" d="M35.999,101c-19.329,0-35,15.67-35,35s15.67,35,35,35S71,155.33,71,136S55.328,101,35.999,101z M35.999,167
	c-17.12,0-31-13.879-31-31s13.879-31,31-31S67,118.879,67,136S53.119,167,35.999,167z"/>
<polygon fill="#E6E6E6" points="19.75,115.75 19.75,155.75 59.75,135.75 "/>
<polygon fill="#FFFFFF" points="20.75,117.75 20.75,153.75 56.75,135.75 "/>
</svg>
