<?xml version="1.0" encoding="utf-8"?>
<!-- Generator: Adobe Illustrator 14.0.0, SVG Export Plug-In . SVG Version: 6.00 Build 43363)  -->
<!DOCTYPE svg PUBLIC "-//W3C//DTD SVG 1.1//EN" "http://www.w3.org/Graphics/SVG/1.1/DTD/svg11.dtd">
<svg version="1.1" id="Layer_1" xmlns="http://www.w3.org/2000/svg" xmlns:xlink="http://www.w3.org/1999/xlink" x="0px" y="0px"
	 width="632px" height="32px" viewBox="0 0 632 32" enable-background="new 0 0 632 32" xml:space="preserve">
<g>
	<g>
		<g>
			<path fill="#FFFFFF" d="M604.035,25.516V6.484h23.93v19.031H604.035z"/>
			<path fill="#E6E7E8" d="M623.621,16.4l-0.131,0.914c-0.1,0.688-0.313,1.186-0.641,1.475c-0.314,0.293-0.721,0.422-1.229,0.422
				c-0.656,0-1.145-0.205-1.541-0.664c-0.412-0.475-0.627-1.359-0.627-2.557c0-1.196,0.217-2.042,0.656-2.524
				c0.414-0.466,0.926-0.684,1.621-0.684c0.418,0,0.73,0.109,1.016,0.34c0.289,0.229,0.49,0.614,0.617,1.13l0.201,0.84l3.676-0.544
				l-0.201-0.968c-0.262-1.322-0.875-2.368-1.828-3.098c-0.938-0.723-2.131-1.091-3.545-1.091c-1.111,0-2.156,0.259-3.115,0.771
				c-0.996,0.538-1.746,1.35-2.227,2.418c-0.076,0.166-0.109,0.364-0.17,0.54c-0.309-1.101-0.865-1.996-1.701-2.636
				c-0.938-0.723-2.129-1.091-3.543-1.091c-1.113,0-2.158,0.259-3.113,0.771c-1,0.54-1.754,1.354-2.229,2.416
				c-0.455,0.994-0.686,2.158-0.686,3.462c0,2.05,0.549,3.673,1.652,4.821c1.105,1.158,2.574,1.746,4.363,1.746
				c1.441,0,2.686-0.432,3.672-1.279c0.723-0.611,1.248-1.396,1.58-2.336c0.273,0.713,0.643,1.346,1.139,1.869
				c1.109,1.158,2.574,1.746,4.363,1.746c1.445,0,2.689-0.434,3.674-1.281c1.006-0.846,1.643-2.027,1.881-3.494l0.156-0.96
				L623.621,16.4z M612.867,16.4l-0.135,0.914c-0.1,0.688-0.313,1.186-0.633,1.471c-0.322,0.287-0.725,0.426-1.232,0.426
				c-0.656,0-1.148-0.205-1.543-0.664c-0.412-0.475-0.629-1.361-0.629-2.557c0-1.176,0.223-2.048,0.648-2.524
				c0.418-0.464,0.938-0.684,1.625-0.684c0.414,0,0.738,0.109,1.02,0.336c0.293,0.235,0.488,0.618,0.617,1.136l0.207,0.838
				l2.957-0.439c-0.063,0.449-0.127,0.897-0.127,1.386c0,0.25,0.035,0.476,0.049,0.716L612.867,16.4z"/>
			<path fill="#E6E7E8" d="M600,2.51v26.98h32V2.51H600z M604.035,25.516V6.484h23.93v19.031H604.035z"/>
		</g>
		<g>
			
				<linearGradient id="SVGID_1_" gradientUnits="userSpaceOnUse" x1="1765.6865" y1="-1477.3828" x2="1765.6865" y2="-1502.4844" gradientTransform="matrix(1 0 0 -1 -1155 -1474)">
				<stop  offset="0" style="stop-color:#6D6E71"/>
				<stop  offset="1" style="stop-color:#3C3C3C"/>
			</linearGradient>
			<path fill="url(#SVGID_1_)" d="M613.682,17.453l1.857,0.232c-0.203,1.246-0.713,2.221-1.549,2.924
				c-0.842,0.707-1.877,1.059-3.084,1.059c-1.535,0-2.756-0.484-3.688-1.453c-0.93-0.973-1.385-2.373-1.385-4.177
				c0-1.168,0.209-2.196,0.598-3.07c0.396-0.878,1.006-1.54,1.822-1.979c0.814-0.438,1.707-0.656,2.664-0.656
				c1.207,0,2.207,0.296,2.961,0.894c0.779,0.595,1.273,1.44,1.484,2.54l-1.84,0.272c-0.174-0.724-0.484-1.274-0.932-1.638
				c-0.443-0.37-0.982-0.551-1.611-0.551c-0.957,0-1.727,0.33-2.324,0.994c-0.594,0.66-0.891,1.712-0.891,3.15
				c0,1.455,0.289,2.516,0.863,3.176c0.574,0.656,1.324,0.988,2.25,0.988c0.742,0,1.369-0.217,1.867-0.66
				C613.23,19.051,613.547,18.371,613.682,17.453z"/>
			
				<linearGradient id="SVGID_2_" gradientUnits="userSpaceOnUse" x1="1776.4424" y1="-1477.3828" x2="1776.4424" y2="-1502.4844" gradientTransform="matrix(1 0 0 -1 -1155 -1474)">
				<stop  offset="0" style="stop-color:#6D6E71"/>
				<stop  offset="1" style="stop-color:#3C3C3C"/>
			</linearGradient>
			<path fill="url(#SVGID_2_)" d="M624.438,17.453l1.859,0.232c-0.203,1.246-0.717,2.221-1.553,2.924
				c-0.834,0.707-1.873,1.059-3.084,1.059c-1.531,0-2.752-0.484-3.688-1.453c-0.926-0.973-1.385-2.373-1.385-4.177
				c0-1.168,0.209-2.196,0.598-3.07c0.402-0.878,1.018-1.54,1.824-1.979c0.816-0.438,1.709-0.656,2.664-0.656
				c1.209,0,2.209,0.296,2.963,0.894c0.781,0.595,1.271,1.44,1.484,2.54l-1.844,0.272c-0.174-0.724-0.48-1.274-0.93-1.638
				c-0.443-0.37-0.98-0.551-1.613-0.551c-0.953,0-1.725,0.33-2.318,0.994c-0.598,0.66-0.893,1.712-0.893,3.15
				c0,1.455,0.293,2.516,0.859,3.176c0.578,0.656,1.324,0.988,2.25,0.988c0.738,0,1.373-0.217,1.865-0.66
				C623.988,19.051,624.301,18.371,624.438,17.453z"/>
		</g>
		<g>
			
				<linearGradient id="SVGID_3_" gradientUnits="userSpaceOnUse" x1="1771" y1="-1477.4521" x2="1771" y2="-1502.5508" gradientTransform="matrix(1 0 0 -1 -1155 -1474)">
				<stop  offset="0" style="stop-color:#6D6E71"/>
				<stop  offset="1" style="stop-color:#3C3C3C"/>
			</linearGradient>
			<path fill="url(#SVGID_3_)" d="M603.094,5.542h25.813v20.915h-25.813V5.542z M600.941,3.452v25.099h30.117V3.452H600.941z"/>
		</g>
	</g>
	<g>
		<g>
			<path fill="#E6E7E8" d="M0,32V0l32,16L0,32L0,32z"/>
		</g>
		
			<linearGradient id="SVGID_4_" gradientUnits="userSpaceOnUse" x1="1170.4375" y1="-1475.4697" x2="1170.4375" y2="-1504.5313" gradientTransform="matrix(1 0 0 -1 -1155 -1474)">
			<stop  offset="0" style="stop-color:#6D6E71"/>
			<stop  offset="1" style="stop-color:#3C3C3C"/>
		</linearGradient>
		<polygon fill="url(#SVGID_4_)" points="29.968,16.002 0.908,30.531 0.908,1.47 		"/>
	</g>
	<g>
		<g>
			<g>
				<path fill="#E6E7E8" d="M69.412,32H60V0h9.412V32L69.412,32z"/>
			</g>
			<g>
				<path fill="#E6E7E8" d="M86.98,32h-9.412V0h9.412V32L86.98,32z"/>
			</g>
		</g>
		<g>
			
				<linearGradient id="SVGID_5_" gradientUnits="userSpaceOnUse" x1="1219.707" y1="-1474.9424" x2="1219.707" y2="-1505.0586" gradientTransform="matrix(1 0 0 -1 -1155 -1474)">
				<stop  offset="0" style="stop-color:#6D6E71"/>
				<stop  offset="1" style="stop-color:#3C3C3C"/>
			</linearGradient>
			<rect x="60.942" y="0.942" fill="url(#SVGID_5_)" width="7.529" height="30.116"/>
			
				<linearGradient id="SVGID_6_" gradientUnits="userSpaceOnUse" x1="1237.2734" y1="-1474.9424" x2="1237.2734" y2="-1505.0586" gradientTransform="matrix(1 0 0 -1 -1155 -1474)">
				<stop  offset="0" style="stop-color:#6D6E71"/>
				<stop  offset="1" style="stop-color:#3C3C3C"/>
			</linearGradient>
			<rect x="78.508" y="0.942" fill="url(#SVGID_6_)" width="7.53" height="30.116"/>
		</g>
	</g>
	<g>
		<g>
			<g>
				<path fill="#E6E7E8" d="M452,32h-15.762l6.328-6.33l-5.236-5.234l3.105-3.104l5.236,5.234l6.328-6.33V32L452,32z"/>
			</g>
			<g>
				<path fill="#E6E7E8" d="M435.762,32H420V16.236l6.328,6.33l5.236-5.234l3.105,3.104l-5.234,5.234L435.762,32L435.762,32z"/>
			</g>
			<g>
				<path fill="#E6E7E8" d="M420,15.764V0h15.762l-6.33,6.332l5.24,5.234l-3.109,3.102l-5.236-5.232L420,15.764L420,15.764z"/>
			</g>
			<g>
				<path fill="#E6E7E8" d="M452,15.764l-6.326-6.328l-5.236,5.234l-3.107-3.104l5.238-5.234L436.238,0H452V15.764L452,15.764z"/>
			</g>
		</g>
		<g>
			
				<linearGradient id="SVGID_7_" gradientUnits="userSpaceOnUse" x1="1599.7842" y1="-1474.938" x2="1599.7842" y2="-1505.0707" gradientTransform="matrix(1 0 0 -1 -1155 -1474)">
				<stop  offset="0" style="stop-color:#6D6E71"/>
				<stop  offset="1" style="stop-color:#3C3C3C"/>
			</linearGradient>
			<polygon fill="url(#SVGID_7_)" points="440.436,18.664 438.664,20.436 443.896,25.67 438.51,31.059 451.059,31.059 
				451.059,18.51 445.672,23.896 			"/>
			
				<linearGradient id="SVGID_8_" gradientUnits="userSpaceOnUse" x1="1582.2148" y1="-1474.938" x2="1582.2148" y2="-1505.0707" gradientTransform="matrix(1 0 0 -1 -1155 -1474)">
				<stop  offset="0" style="stop-color:#6D6E71"/>
				<stop  offset="1" style="stop-color:#3C3C3C"/>
			</linearGradient>
			<polygon fill="url(#SVGID_8_)" points="433.338,20.436 431.564,18.664 426.328,23.896 420.941,18.51 420.941,31.059 
				433.488,31.059 428.105,25.67 			"/>
			
				<linearGradient id="SVGID_9_" gradientUnits="userSpaceOnUse" x1="1582.2148" y1="-1474.9424" x2="1582.2148" y2="-1505.0566" gradientTransform="matrix(1 0 0 -1 -1155 -1474)">
				<stop  offset="0" style="stop-color:#6D6E71"/>
				<stop  offset="1" style="stop-color:#3C3C3C"/>
			</linearGradient>
			<polygon fill="url(#SVGID_9_)" points="420.941,13.49 426.326,8.106 431.563,13.338 433.338,11.566 428.1,6.332 433.488,0.942 
				420.941,0.942 			"/>
			
				<linearGradient id="SVGID_10_" gradientUnits="userSpaceOnUse" x1="1599.7842" y1="-1474.9424" x2="1599.7842" y2="-1505.0566" gradientTransform="matrix(1 0 0 -1 -1155 -1474)">
				<stop  offset="0" style="stop-color:#6D6E71"/>
				<stop  offset="1" style="stop-color:#3C3C3C"/>
			</linearGradient>
			<polygon fill="url(#SVGID_10_)" points="438.51,0.942 443.9,6.332 438.664,11.566 440.438,13.338 445.674,8.106 451.059,13.49 
				451.059,0.942 			"/>
		</g>
	</g>
	<g>
		<g>
			<path fill="#E6E7E8" d="M152,32h-32V0h32V32L152,32z"/>
		</g>
		
			<linearGradient id="SVGID_11_" gradientUnits="userSpaceOnUse" x1="1290.999" y1="-1474.9424" x2="1290.999" y2="-1505.0586" gradientTransform="matrix(1 0 0 -1 -1155 -1474)">
			<stop  offset="0" style="stop-color:#6D6E71"/>
			<stop  offset="1" style="stop-color:#3C3C3C"/>
		</linearGradient>
		<rect x="120.94" y="0.942" fill="url(#SVGID_11_)" width="30.117" height="30.116"/>
	</g>
	<g>
		<g>
			<g>
				<path fill="#E6E7E8" d="M564.604,30.41h-17.207c-4.078,0-7.395-3.316-7.395-7.395v-8.604c0-4.078,3.316-7.395,7.395-7.395h4.17
					v6.187h-4.17c-0.67,0-1.211,0.542-1.211,1.208v8.604c0,0.668,0.541,1.211,1.211,1.211h17.207c0.666,0,1.213-0.543,1.213-1.211
					v-8.604c0-0.668-0.547-1.208-1.213-1.208h-1.564v5.36l-10.004-8.486l10.004-8.488v5.43h1.564c4.078,0,7.396,3.316,7.396,7.395
					v8.605C572,27.094,568.682,30.41,564.604,30.41L564.604,30.41z"/>
			</g>
		</g>
		<g>
			
				<linearGradient id="SVGID_12_" gradientUnits="userSpaceOnUse" x1="1711" y1="-1477.624" x2="1711" y2="-1503.4727" gradientTransform="matrix(1 0 0 -1 -1155 -1474)">
				<stop  offset="0" style="stop-color:#6D6E71"/>
				<stop  offset="1" style="stop-color:#3C3C3C"/>
			</linearGradient>
			<path fill="url(#SVGID_12_)" d="M564.604,7.956h-2.508V3.624l-7.605,6.454l7.605,6.454v-4.274h2.508
				c1.186,0,2.154,0.962,2.154,2.152v8.604c0,1.189-0.969,2.152-2.154,2.152h-17.207c-1.186,0-2.152-0.963-2.152-2.152v-8.602
				c0-1.19,0.967-2.152,2.152-2.152h3.229v-4.3h-3.229c-3.559,0-6.455,2.892-6.455,6.454v8.605c0,3.559,2.887,6.453,6.455,6.453
				h17.207c3.559,0,6.455-2.885,6.455-6.453v-8.607C571.059,10.852,568.162,7.956,564.604,7.956z"/>
		</g>
	</g>
	<g>
		<g>
			<g>
				<polygon fill="#E6E7E8" points="272,16 249.782,2.118 249.782,8.23 240,2.118 240,29.883 249.782,23.77 249.782,29.883 				"/>
			</g>
		</g>
		<g>
			<g>
				
					<linearGradient id="SVGID_13_" gradientUnits="userSpaceOnUse" x1="1405.7002" y1="-1477.7695" x2="1405.7002" y2="-1502.2285" gradientTransform="matrix(1 0 0 -1 -1155 -1474)">
					<stop  offset="0" style="stop-color:#6D6E71"/>
					<stop  offset="1" style="stop-color:#3C3C3C"/>
				</linearGradient>
				<polygon fill="url(#SVGID_13_)" points="260.484,16 240.916,28.229 240.916,3.77 				"/>
			</g>
			<g>
				
					<linearGradient id="SVGID_14_" gradientUnits="userSpaceOnUse" x1="1415.4844" y1="-1477.7695" x2="1415.4844" y2="-1502.2285" gradientTransform="matrix(1 0 0 -1 -1155 -1474)">
					<stop  offset="0" style="stop-color:#6D6E71"/>
					<stop  offset="1" style="stop-color:#3C3C3C"/>
				</linearGradient>
				<polygon fill="url(#SVGID_14_)" points="270.27,16 250.7,28.229 250.7,3.77 				"/>
			</g>
		</g>
	</g>
	<g>
		<g>
			<g>
				<polygon fill="#E6E7E8" points="212,2.114 202.216,8.23 202.216,2.114 180,16 202.216,29.887 202.216,23.771 212,29.887 				"/>
			</g>
		</g>
		<g>
			<g>
				
					<linearGradient id="SVGID_15_" gradientUnits="userSpaceOnUse" x1="1356.2979" y1="-1477.7715" x2="1356.2979" y2="-1502.2305" gradientTransform="matrix(1 0 0 -1 -1155 -1474)">
					<stop  offset="0" style="stop-color:#6D6E71"/>
					<stop  offset="1" style="stop-color:#3C3C3C"/>
				</linearGradient>
				<polygon fill="url(#SVGID_15_)" points="211.082,3.771 211.082,28.23 191.514,16.002 				"/>
			</g>
			<g>
				
					<linearGradient id="SVGID_16_" gradientUnits="userSpaceOnUse" x1="1346.5137" y1="-1477.7715" x2="1346.5137" y2="-1502.2305" gradientTransform="matrix(1 0 0 -1 -1155 -1474)">
					<stop  offset="0" style="stop-color:#6D6E71"/>
					<stop  offset="1" style="stop-color:#3C3C3C"/>
				</linearGradient>
				<polygon fill="url(#SVGID_16_)" points="201.298,3.771 201.298,28.23 181.73,16.002 				"/>
			</g>
		</g>
	</g>
	<g>
		<g>
			<g>
				<path fill="#E6E7E8" d="M494.551,14.552H480l5.846-5.844l-4.838-4.832l2.871-2.866l4.836,4.83l5.84-5.84v14.552H494.551z"/>
			</g>
			<g>
				<path fill="#E6E7E8" d="M494.551,32l-5.844-5.844l-4.832,4.832L481,28.121l4.834-4.832L480,17.449h14.551V32L494.551,32z"/>
			</g>
			<g>
				<path fill="#E6E7E8" d="M512,14.552h-14.551V0l5.84,5.84l4.836-4.83l2.877,2.866l-4.836,4.832L512,14.552L512,14.552z"/>
			</g>
			<g>
				<path fill="#E6E7E8" d="M497.449,32V17.449H512l-5.842,5.844l4.834,4.832l-2.871,2.873l-4.832-4.832L497.449,32L497.449,32z"/>
			</g>
		</g>
		<g>
			
				<linearGradient id="SVGID_17_" gradientUnits="userSpaceOnUse" x1="1642.8906" y1="-1476.0977" x2="1642.8906" y2="-1503.9033" gradientTransform="matrix(1 0 0 -1 -1155 -1474)">
				<stop  offset="0" style="stop-color:#6D6E71"/>
				<stop  offset="1" style="stop-color:#3C3C3C"/>
			</linearGradient>
			<polygon fill="url(#SVGID_17_)" points="483.879,2.238 482.238,3.876 487.074,8.708 482.098,13.684 493.684,13.684 
				493.684,2.098 488.711,7.068 			"/>
			
				<linearGradient id="SVGID_18_" gradientUnits="userSpaceOnUse" x1="1642.8906" y1="-1476.0977" x2="1642.8906" y2="-1503.9036" gradientTransform="matrix(1 0 0 -1 -1155 -1474)">
				<stop  offset="0" style="stop-color:#6D6E71"/>
				<stop  offset="1" style="stop-color:#3C3C3C"/>
			</linearGradient>
			<polygon fill="url(#SVGID_18_)" points="487.072,23.293 482.238,28.125 483.875,29.76 488.707,24.928 493.684,29.902 
				493.684,18.316 482.098,18.316 			"/>
			
				<linearGradient id="SVGID_19_" gradientUnits="userSpaceOnUse" x1="1659.1104" y1="-1476.0977" x2="1659.1104" y2="-1503.9033" gradientTransform="matrix(1 0 0 -1 -1155 -1474)">
				<stop  offset="0" style="stop-color:#6D6E71"/>
				<stop  offset="1" style="stop-color:#3C3C3C"/>
			</linearGradient>
			<polygon fill="url(#SVGID_19_)" points="504.926,8.708 509.764,3.876 508.125,2.238 503.289,7.068 498.318,2.098 498.318,13.684 
				509.902,13.684 			"/>
			
				<linearGradient id="SVGID_20_" gradientUnits="userSpaceOnUse" x1="1659.1104" y1="-1476.0977" x2="1659.1104" y2="-1503.9036" gradientTransform="matrix(1 0 0 -1 -1155 -1474)">
				<stop  offset="0" style="stop-color:#6D6E71"/>
				<stop  offset="1" style="stop-color:#3C3C3C"/>
			</linearGradient>
			<polygon fill="url(#SVGID_20_)" points="498.318,18.316 498.318,29.902 503.293,24.928 508.125,29.76 509.764,28.125 
				504.93,23.293 509.902,18.316 			"/>
		</g>
	</g>
	<g>
		<g>
			<polygon fill="#E6E7E8" points="320.754,0 310.084,8.006 300,8.006 300,24.018 309.884,24.018 320.754,32 			"/>
			<g>
				
					<linearGradient id="SVGID_21_" gradientUnits="userSpaceOnUse" x1="1460.4023" y1="-1475.77" x2="1460.4023" y2="-1504.2329" gradientTransform="matrix(1 0 0 -1 -1155 -1474)">
					<stop  offset="0" style="stop-color:#6D6E71"/>
					<stop  offset="1" style="stop-color:#3C3C3C"/>
				</linearGradient>
				<rect x="300.888" y="8.886" fill="url(#SVGID_21_)" width="9.03" height="14.231"/>
				
					<linearGradient id="SVGID_22_" gradientUnits="userSpaceOnUse" x1="1470.1221" y1="-1475.7656" x2="1470.1221" y2="-1504.2305" gradientTransform="matrix(1 0 0 -1 -1155 -1474)">
					<stop  offset="0" style="stop-color:#6D6E71"/>
					<stop  offset="1" style="stop-color:#3C3C3C"/>
				</linearGradient>
				<path fill="url(#SVGID_22_)" d="M310.378,8.886l9.488-7.12V30.23l-9.488-6.965V8.886z"/>
			</g>
		</g>
		<g>
			<g>
				
					<linearGradient id="SVGID_23_" gradientUnits="userSpaceOnUse" x1="1479.9482" y1="-1489.9995" x2="1487" y2="-1489.9995" gradientTransform="matrix(1 0 0 -1 -1155 -1474)">
					<stop  offset="0" style="stop-color:#6D6E71"/>
					<stop  offset="1" style="stop-color:#3C3C3C"/>
				</linearGradient>
				<path fill="url(#SVGID_23_)" d="M325.916,26.875l-0.968-1.75C328.066,23.398,330,19.902,330,16s-1.936-7.398-5.052-9.126
					l0.968-1.75C329.668,7.204,332,11.372,332,16C332,20.629,329.668,24.797,325.916,26.875L325.916,26.875z"/>
			</g>
			<g>
				
					<linearGradient id="SVGID_24_" gradientUnits="userSpaceOnUse" x1="1477.9502" y1="-1489.9995" x2="1482.3477" y2="-1489.9995" gradientTransform="matrix(1 0 0 -1 -1155 -1474)">
					<stop  offset="0" style="stop-color:#6D6E71"/>
					<stop  offset="1" style="stop-color:#3C3C3C"/>
				</linearGradient>
				<path fill="url(#SVGID_24_)" d="M323.916,22.109l-0.964-1.75c1.456-0.805,2.396-2.514,2.396-4.357
					c0-1.87-0.92-3.542-2.397-4.362l0.968-1.75c2.116,1.173,3.43,3.515,3.43,6.112C327.346,18.602,326.032,20.941,323.916,22.109
					L323.916,22.109z"/>
			</g>
		</g>
	</g>
	<g>
		<g>
			<polygon fill="#DF1000" points="384.828,20.695 382.613,18.473 385.088,16 382.613,13.521 384.826,11.306 387.305,13.784 
				389.777,11.306 391.998,13.521 389.52,16 392,18.473 389.781,20.695 387.305,18.215 			"/>
		</g>
		<g>
			<polygon fill="#E6E7E8" points="380.754,0 370.084,8.006 360,8.006 360,24.018 369.883,24.018 380.754,32 			"/>
			<g>
				
					<linearGradient id="SVGID_25_" gradientUnits="userSpaceOnUse" x1="1520.4023" y1="-1475.77" x2="1520.4023" y2="-1504.2329" gradientTransform="matrix(1 0 0 -1 -1155 -1474)">
					<stop  offset="0" style="stop-color:#6D6E71"/>
					<stop  offset="1" style="stop-color:#3C3C3C"/>
				</linearGradient>
				<rect x="360.887" y="8.886" fill="url(#SVGID_25_)" width="9.031" height="14.231"/>
				
					<linearGradient id="SVGID_26_" gradientUnits="userSpaceOnUse" x1="1530.123" y1="-1475.7656" x2="1530.123" y2="-1504.2305" gradientTransform="matrix(1 0 0 -1 -1155 -1474)">
					<stop  offset="0" style="stop-color:#6D6E71"/>
					<stop  offset="1" style="stop-color:#3C3C3C"/>
				</linearGradient>
				<path fill="url(#SVGID_26_)" d="M370.379,8.886l9.488-7.12V30.23l-9.488-6.965V8.886z"/>
			</g>
		</g>
	</g>
</g>
</svg>
