<?xml version="1.0" encoding="utf-8"?>
<!-- Generator: Adobe Illustrator 14.0.0, SVG Export Plug-In . SVG Version: 6.00 Build 43363)  -->
<!DOCTYPE svg PUBLIC "-//W3C//DTD SVG 1.1//EN" "http://www.w3.org/Graphics/SVG/1.1/DTD/svg11.dtd">
<svg version="1.1" id="Layer_1" xmlns="http://www.w3.org/2000/svg" xmlns:xlink="http://www.w3.org/1999/xlink" x="0px" y="0px"
	 width="330px" height="16px" viewBox="0 0 330 16" enable-background="new 0 0 330 16" xml:space="preserve">
<g>
	<g>
		<path fill="#E6E7E8" d="M0,16V0l16,8L0,16L0,16z"/>
	</g>
	
		<linearGradient id="SVGID_1_" gradientUnits="userSpaceOnUse" x1="931.7188" y1="1192.7344" x2="931.7188" y2="1207.2656" gradientTransform="matrix(1 0 0 1 -924 -1192)">
		<stop  offset="0" style="stop-color:#6D6E71"/>
		<stop  offset="1" style="stop-color:#3C3C3C"/>
	</linearGradient>
	<polygon fill="url(#SVGID_1_)" points="14.984,8.001 0.454,15.266 0.454,0.735 	"/>
</g>
<g>
	<g>
		<g>
			<path fill="#E6E7E8" d="M34.706,16H30V0h4.706V16L34.706,16z"/>
		</g>
		<g>
			<path fill="#E6E7E8" d="M43.49,16h-4.706V0h4.706V16L43.49,16z"/>
		</g>
	</g>
	<g>
		
			<linearGradient id="SVGID_2_" gradientUnits="userSpaceOnUse" x1="956.3535" y1="1192.4707" x2="956.3535" y2="1207.5293" gradientTransform="matrix(1 0 0 1 -924 -1192)">
			<stop  offset="0" style="stop-color:#6D6E71"/>
			<stop  offset="1" style="stop-color:#3C3C3C"/>
		</linearGradient>
		<rect x="30.471" y="0.471" fill="url(#SVGID_2_)" width="3.765" height="15.058"/>
		
			<linearGradient id="SVGID_3_" gradientUnits="userSpaceOnUse" x1="965.1367" y1="1192.4707" x2="965.1367" y2="1207.5293" gradientTransform="matrix(1 0 0 1 -924 -1192)">
			<stop  offset="0" style="stop-color:#6D6E71"/>
			<stop  offset="1" style="stop-color:#3C3C3C"/>
		</linearGradient>
		<rect x="39.254" y="0.471" fill="url(#SVGID_3_)" width="3.765" height="15.058"/>
	</g>
</g>
<g>
	<g>
		<g>
			<path fill="#E6E7E8" d="M226,16h-7.881l3.164-3.165l-2.618-2.617l1.553-1.552l2.618,2.617L226,8.118V16L226,16z"/>
		</g>
		<g>
			<path fill="#E6E7E8" d="M217.881,16H210V8.118l3.164,3.165l2.618-2.617l1.553,1.552l-2.617,2.617L217.881,16L217.881,16z"/>
		</g>
		<g>
			<path fill="#E6E7E8" d="M210,7.882V0h7.881l-3.165,3.166l2.62,2.617l-1.555,1.551l-2.618-2.616L210,7.882L210,7.882z"/>
		</g>
		<g>
			<path fill="#E6E7E8" d="M226,7.882l-3.163-3.164l-2.618,2.617l-1.554-1.552l2.619-2.617L218.119,0H226V7.882L226,7.882z"/>
		</g>
	</g>
	<g>
		
			<linearGradient id="SVGID_4_" gradientUnits="userSpaceOnUse" x1="1146.3926" y1="1192.4697" x2="1146.3926" y2="1207.5349" gradientTransform="matrix(1 0 0 1 -924 -1192)">
			<stop  offset="0" style="stop-color:#6D6E71"/>
			<stop  offset="1" style="stop-color:#3C3C3C"/>
		</linearGradient>
		<polygon fill="url(#SVGID_4_)" points="220.218,9.332 219.332,10.218 221.948,12.835 219.255,15.529 225.529,15.529 
			225.529,9.255 222.836,11.948 		"/>
		
			<linearGradient id="SVGID_5_" gradientUnits="userSpaceOnUse" x1="1137.6074" y1="1192.4697" x2="1137.6074" y2="1207.5349" gradientTransform="matrix(1 0 0 1 -924 -1192)">
			<stop  offset="0" style="stop-color:#6D6E71"/>
			<stop  offset="1" style="stop-color:#3C3C3C"/>
		</linearGradient>
		<polygon fill="url(#SVGID_5_)" points="216.669,10.218 215.782,9.332 213.164,11.948 210.471,9.255 210.471,15.529 
			216.744,15.529 214.053,12.835 		"/>
		
			<linearGradient id="SVGID_6_" gradientUnits="userSpaceOnUse" x1="1137.6074" y1="1192.4707" x2="1137.6074" y2="1207.5278" gradientTransform="matrix(1 0 0 1 -924 -1192)">
			<stop  offset="0" style="stop-color:#6D6E71"/>
			<stop  offset="1" style="stop-color:#3C3C3C"/>
		</linearGradient>
		<polygon fill="url(#SVGID_6_)" points="210.471,6.745 213.163,4.053 215.781,6.669 216.669,5.783 214.05,3.166 216.744,0.471 
			210.471,0.471 		"/>
		
			<linearGradient id="SVGID_7_" gradientUnits="userSpaceOnUse" x1="1146.3926" y1="1192.4707" x2="1146.3926" y2="1207.5278" gradientTransform="matrix(1 0 0 1 -924 -1192)">
			<stop  offset="0" style="stop-color:#6D6E71"/>
			<stop  offset="1" style="stop-color:#3C3C3C"/>
		</linearGradient>
		<polygon fill="url(#SVGID_7_)" points="219.255,0.471 221.95,3.166 219.332,5.783 220.219,6.669 222.837,4.053 225.529,6.745 
			225.529,0.471 		"/>
	</g>
</g>
<g>
	<g>
		<g>
			<path fill="#E6E7E8" d="M247.275,7.276H240l2.923-2.922l-2.419-2.416l1.436-1.433l2.418,2.415l2.92-2.92v7.276H247.275z"/>
		</g>
		<g>
			<path fill="#E6E7E8" d="M247.275,16l-2.922-2.922l-2.416,2.416l-1.437-1.434l2.417-2.416L240,8.725h7.275V16L247.275,16z"/>
		</g>
		<g>
			<path fill="#E6E7E8" d="M256,7.276h-7.275V0l2.92,2.92l2.418-2.415l1.438,1.433l-2.418,2.416L256,7.276L256,7.276z"/>
		</g>
		<g>
			<path fill="#E6E7E8" d="M248.725,16V8.725H256l-2.921,2.922l2.417,2.416l-1.436,1.436l-2.416-2.416L248.725,16L248.725,16z"/>
		</g>
	</g>
	<g>
		
			<linearGradient id="SVGID_8_" gradientUnits="userSpaceOnUse" x1="1167.9453" y1="1193.0488" x2="1167.9453" y2="1206.9517" gradientTransform="matrix(1 0 0 1 -924 -1192)">
			<stop  offset="0" style="stop-color:#6D6E71"/>
			<stop  offset="1" style="stop-color:#3C3C3C"/>
		</linearGradient>
		<polygon fill="url(#SVGID_8_)" points="241.939,1.119 241.119,1.938 243.537,4.354 241.049,6.842 246.842,6.842 246.842,1.049 
			244.355,3.534 		"/>
		
			<linearGradient id="SVGID_9_" gradientUnits="userSpaceOnUse" x1="1167.9453" y1="1193.0488" x2="1167.9453" y2="1206.9518" gradientTransform="matrix(1 0 0 1 -924 -1192)">
			<stop  offset="0" style="stop-color:#6D6E71"/>
			<stop  offset="1" style="stop-color:#3C3C3C"/>
		</linearGradient>
		<polygon fill="url(#SVGID_9_)" points="243.536,11.646 241.119,14.063 241.938,14.88 244.354,12.464 246.842,14.951 
			246.842,9.158 241.049,9.158 		"/>
		
			<linearGradient id="SVGID_10_" gradientUnits="userSpaceOnUse" x1="1176.0547" y1="1193.0488" x2="1176.0547" y2="1206.9517" gradientTransform="matrix(1 0 0 1 -924 -1192)">
			<stop  offset="0" style="stop-color:#6D6E71"/>
			<stop  offset="1" style="stop-color:#3C3C3C"/>
		</linearGradient>
		<polygon fill="url(#SVGID_10_)" points="252.463,4.354 254.882,1.938 254.063,1.119 251.645,3.534 249.159,1.049 249.159,6.842 
			254.951,6.842 		"/>
		
			<linearGradient id="SVGID_11_" gradientUnits="userSpaceOnUse" x1="1176.0547" y1="1193.0488" x2="1176.0547" y2="1206.9518" gradientTransform="matrix(1 0 0 1 -924 -1192)">
			<stop  offset="0" style="stop-color:#6D6E71"/>
			<stop  offset="1" style="stop-color:#3C3C3C"/>
		</linearGradient>
		<polygon fill="url(#SVGID_11_)" points="249.159,9.158 249.159,14.951 251.646,12.464 254.063,14.88 254.882,14.063 
			252.465,11.646 254.951,9.158 		"/>
	</g>
</g>
<g>
	<g>
		<polygon fill="#E6E7E8" points="160.377,0 155.042,4.003 150,4.003 150,12.009 154.942,12.009 160.377,16 		"/>
		<g>
			
				<linearGradient id="SVGID_12_" gradientUnits="userSpaceOnUse" x1="1076.7012" y1="1192.8848" x2="1076.7012" y2="1207.1172" gradientTransform="matrix(1 0 0 1 -924 -1192)">
				<stop  offset="0" style="stop-color:#6D6E71"/>
				<stop  offset="1" style="stop-color:#3C3C3C"/>
			</linearGradient>
			<rect x="150.444" y="4.443" fill="url(#SVGID_12_)" width="4.515" height="7.116"/>
			
				<linearGradient id="SVGID_13_" gradientUnits="userSpaceOnUse" x1="1081.5615" y1="1192.8828" x2="1081.5615" y2="1207.1152" gradientTransform="matrix(1 0 0 1 -924 -1192)">
				<stop  offset="0" style="stop-color:#6D6E71"/>
				<stop  offset="1" style="stop-color:#3C3C3C"/>
			</linearGradient>
			<path fill="url(#SVGID_13_)" d="M155.189,4.443l4.744-3.56v14.232l-4.744-3.482V4.443z"/>
		</g>
	</g>
	<g>
		<g>
			
				<linearGradient id="SVGID_14_" gradientUnits="userSpaceOnUse" x1="1086.4746" y1="1200" x2="1090" y2="1200" gradientTransform="matrix(1 0 0 1 -924 -1192)">
				<stop  offset="0" style="stop-color:#6D6E71"/>
				<stop  offset="1" style="stop-color:#3C3C3C"/>
			</linearGradient>
			<path fill="url(#SVGID_14_)" d="M162.958,13.438l-0.484-0.875C164.033,11.699,165,9.951,165,8s-0.968-3.699-2.526-4.563
				l0.484-0.875C164.834,3.602,166,5.686,166,8C166,10.314,164.834,12.398,162.958,13.438L162.958,13.438z"/>
		</g>
		<g>
			
				<linearGradient id="SVGID_15_" gradientUnits="userSpaceOnUse" x1="1085.4746" y1="1200" x2="1087.6738" y2="1200" gradientTransform="matrix(1 0 0 1 -924 -1192)">
				<stop  offset="0" style="stop-color:#6D6E71"/>
				<stop  offset="1" style="stop-color:#3C3C3C"/>
			</linearGradient>
			<path fill="url(#SVGID_15_)" d="M161.958,11.055l-0.482-0.875c0.728-0.402,1.198-1.257,1.198-2.179
				c0-0.935-0.46-1.771-1.199-2.181l0.484-0.875c1.058,0.586,1.715,1.757,1.715,3.056C163.673,9.301,163.016,10.471,161.958,11.055
				L161.958,11.055z"/>
		</g>
	</g>
</g>
<g>
	<g>
		<polygon fill="#DF1000" points="192.414,10.348 191.307,9.236 192.544,8 191.307,6.761 192.413,5.653 193.652,6.892 
			194.889,5.653 195.999,6.761 194.76,8 196,9.236 194.891,10.348 193.652,9.107 		"/>
	</g>
	<g>
		<polygon fill="#E6E7E8" points="190.377,0 185.042,4.003 180,4.003 180,12.009 184.941,12.009 190.377,16 		"/>
		<g>
			
				<linearGradient id="SVGID_16_" gradientUnits="userSpaceOnUse" x1="1106.7012" y1="1192.8848" x2="1106.7012" y2="1207.1172" gradientTransform="matrix(1 0 0 1 -924 -1192)">
				<stop  offset="0" style="stop-color:#6D6E71"/>
				<stop  offset="1" style="stop-color:#3C3C3C"/>
			</linearGradient>
			<rect x="180.443" y="4.443" fill="url(#SVGID_16_)" width="4.516" height="7.116"/>
			
				<linearGradient id="SVGID_17_" gradientUnits="userSpaceOnUse" x1="1111.5615" y1="1192.8828" x2="1111.5615" y2="1207.1152" gradientTransform="matrix(1 0 0 1 -924 -1192)">
				<stop  offset="0" style="stop-color:#6D6E71"/>
				<stop  offset="1" style="stop-color:#3C3C3C"/>
			</linearGradient>
			<path fill="url(#SVGID_17_)" d="M185.189,4.443l4.744-3.56v14.232l-4.744-3.482V4.443z"/>
		</g>
	</g>
</g>
</svg>
