<?xml version="1.0" encoding="utf-8"?>
<!-- Generator: Adobe Illustrator 14.0.0, SVG Export Plug-In . SVG Version: 6.00 Build 43363)  -->
<!DOCTYPE svg PUBLIC "-//W3C//DTD SVG 1.1//EN" "http://www.w3.org/Graphics/SVG/1.1/DTD/svg11.dtd">
<svg version="1.1" id="Layer_1" xmlns="http://www.w3.org/2000/svg" xmlns:xlink="http://www.w3.org/1999/xlink" x="0px" y="0px"
	 width="330px" height="16px" viewBox="0 0 330 16" enable-background="new 0 0 330 16" xml:space="preserve">
<g>
	<g>
		<path fill="#FFFFFF" d="M302.018,12.758V3.242h11.965v9.516H302.018z"/>
		<path fill="#E6E7E8" d="M311.811,8.2l-0.066,0.457c-0.049,0.344-0.156,0.593-0.32,0.738c-0.158,0.146-0.361,0.211-0.615,0.211
			c-0.328,0-0.572-0.103-0.77-0.332c-0.206-0.238-0.314-0.68-0.314-1.279c0-0.598,0.109-1.021,0.328-1.262
			c0.207-0.233,0.463-0.342,0.811-0.342c0.209,0,0.365,0.055,0.508,0.17c0.145,0.115,0.245,0.307,0.309,0.565l0.1,0.42l1.838-0.272
			L313.52,6.79c-0.131-0.661-0.438-1.184-0.914-1.549c-0.469-0.361-1.066-0.545-1.773-0.545c-0.555,0-1.078,0.129-1.557,0.385
			c-0.498,0.269-0.873,0.675-1.114,1.209c-0.038,0.083-0.054,0.182-0.085,0.27c-0.154-0.55-0.432-0.998-0.85-1.318
			c-0.469-0.361-1.065-0.545-1.772-0.545c-0.556,0-1.079,0.129-1.556,0.385c-0.5,0.27-0.877,0.677-1.115,1.208
			c-0.227,0.497-0.342,1.079-0.342,1.731c0,1.025,0.274,1.836,0.826,2.411c0.553,0.579,1.287,0.872,2.181,0.872
			c0.721,0,1.343-0.215,1.836-0.639c0.361-0.306,0.624-0.698,0.79-1.168c0.137,0.356,0.322,0.673,0.57,0.935
			c0.554,0.579,1.287,0.872,2.181,0.872c0.723,0,1.345-0.216,1.837-0.64c0.503-0.423,0.822-1.013,0.941-1.747l0.078-0.48
			L311.811,8.2z M306.434,8.2l-0.068,0.457c-0.049,0.344-0.156,0.593-0.316,0.736c-0.162,0.143-0.363,0.213-0.617,0.213
			c-0.328,0-0.574-0.103-0.771-0.332c-0.206-0.238-0.315-0.681-0.315-1.279c0-0.588,0.112-1.024,0.325-1.262
			c0.209-0.232,0.468-0.342,0.812-0.342c0.207,0,0.369,0.055,0.51,0.168c0.146,0.118,0.244,0.309,0.308,0.568l0.104,0.419
			l1.479-0.22c-0.032,0.225-0.064,0.449-0.064,0.693c0,0.125,0.018,0.238,0.025,0.358L306.434,8.2z"/>
		<path fill="#E6E7E8" d="M300,1.255v13.49h16V1.255H300z M302.018,12.758V3.242h11.965v9.516H302.018z"/>
	</g>
	<g>
		
			<linearGradient id="SVGID_1_" gradientUnits="userSpaceOnUse" x1="1229.3428" y1="1193.6914" x2="1229.3428" y2="1206.2422" gradientTransform="matrix(1 0 0 1 -924 -1192)">
			<stop  offset="0" style="stop-color:#6D6E71"/>
			<stop  offset="1" style="stop-color:#3C3C3C"/>
		</linearGradient>
		<path fill="url(#SVGID_1_)" d="M306.841,8.726l0.929,0.117c-0.102,0.623-0.357,1.11-0.775,1.461
			c-0.421,0.354-0.938,0.53-1.542,0.53c-0.767,0-1.378-0.242-1.843-0.727c-0.465-0.486-0.693-1.186-0.693-2.088
			c0-0.584,0.104-1.098,0.299-1.535c0.198-0.439,0.503-0.77,0.911-0.99c0.407-0.219,0.854-0.328,1.332-0.328
			c0.604,0,1.103,0.148,1.481,0.447c0.389,0.297,0.636,0.72,0.742,1.27l-0.92,0.136c-0.087-0.362-0.242-0.637-0.466-0.819
			c-0.222-0.185-0.491-0.275-0.806-0.275c-0.479,0-0.863,0.165-1.162,0.497c-0.297,0.33-0.445,0.856-0.445,1.575
			c0,0.728,0.145,1.258,0.432,1.588c0.287,0.328,0.662,0.494,1.125,0.494c0.371,0,0.684-0.109,0.933-0.33
			C306.615,9.525,306.773,9.185,306.841,8.726z"/>
		
			<linearGradient id="SVGID_2_" gradientUnits="userSpaceOnUse" x1="1234.7207" y1="1193.6914" x2="1234.7207" y2="1206.2422" gradientTransform="matrix(1 0 0 1 -924 -1192)">
			<stop  offset="0" style="stop-color:#6D6E71"/>
			<stop  offset="1" style="stop-color:#3C3C3C"/>
		</linearGradient>
		<path fill="url(#SVGID_2_)" d="M312.219,8.726l0.93,0.117c-0.102,0.623-0.359,1.11-0.777,1.461
			c-0.417,0.354-0.936,0.53-1.542,0.53c-0.765,0-1.376-0.242-1.843-0.727c-0.463-0.486-0.693-1.186-0.693-2.088
			c0-0.584,0.104-1.098,0.299-1.535c0.201-0.439,0.508-0.77,0.912-0.99c0.408-0.219,0.854-0.328,1.332-0.328
			c0.604,0,1.104,0.148,1.482,0.447c0.39,0.297,0.635,0.72,0.742,1.27l-0.922,0.136c-0.087-0.362-0.24-0.637-0.465-0.819
			c-0.222-0.185-0.49-0.275-0.807-0.275c-0.477,0-0.862,0.165-1.159,0.497c-0.299,0.33-0.446,0.856-0.446,1.575
			c0,0.728,0.146,1.258,0.43,1.588c0.289,0.328,0.662,0.494,1.125,0.494c0.369,0,0.686-0.109,0.932-0.33
			C311.994,9.525,312.15,9.185,312.219,8.726z"/>
	</g>
	<g>
		
			<linearGradient id="SVGID_3_" gradientUnits="userSpaceOnUse" x1="1232" y1="1193.7256" x2="1232" y2="1206.2754" gradientTransform="matrix(1 0 0 1 -924 -1192)">
			<stop  offset="0" style="stop-color:#6D6E71"/>
			<stop  offset="1" style="stop-color:#3C3C3C"/>
		</linearGradient>
		<path fill="url(#SVGID_3_)" d="M301.547,2.771h12.906v10.458h-12.906V2.771z M300.471,1.726v12.549h15.059V1.726H300.471z"/>
	</g>
</g>
<g>
	<g>
		<path fill="#E6E7E8" d="M0,16V0l16,8L0,16L0,16z"/>
	</g>
	
		<linearGradient id="SVGID_4_" gradientUnits="userSpaceOnUse" x1="931.7188" y1="1192.7344" x2="931.7188" y2="1207.2656" gradientTransform="matrix(1 0 0 1 -924 -1192)">
		<stop  offset="0" style="stop-color:#6D6E71"/>
		<stop  offset="1" style="stop-color:#3C3C3C"/>
	</linearGradient>
	<polygon fill="url(#SVGID_4_)" points="14.984,8.001 0.454,15.266 0.454,0.735 	"/>
</g>
<g>
	<g>
		<g>
			<path fill="#E6E7E8" d="M34.706,16H30V0h4.706V16L34.706,16z"/>
		</g>
		<g>
			<path fill="#E6E7E8" d="M43.49,16h-4.706V0h4.706V16L43.49,16z"/>
		</g>
	</g>
	<g>
		
			<linearGradient id="SVGID_5_" gradientUnits="userSpaceOnUse" x1="956.3535" y1="1192.4707" x2="956.3535" y2="1207.5293" gradientTransform="matrix(1 0 0 1 -924 -1192)">
			<stop  offset="0" style="stop-color:#6D6E71"/>
			<stop  offset="1" style="stop-color:#3C3C3C"/>
		</linearGradient>
		<rect x="30.471" y="0.471" fill="url(#SVGID_5_)" width="3.765" height="15.058"/>
		
			<linearGradient id="SVGID_6_" gradientUnits="userSpaceOnUse" x1="965.1367" y1="1192.4707" x2="965.1367" y2="1207.5293" gradientTransform="matrix(1 0 0 1 -924 -1192)">
			<stop  offset="0" style="stop-color:#6D6E71"/>
			<stop  offset="1" style="stop-color:#3C3C3C"/>
		</linearGradient>
		<rect x="39.254" y="0.471" fill="url(#SVGID_6_)" width="3.765" height="15.058"/>
	</g>
</g>
<g>
	<g>
		<g>
			<path fill="#E6E7E8" d="M226,16h-7.881l3.164-3.165l-2.618-2.617l1.553-1.552l2.618,2.617L226,8.118V16L226,16z"/>
		</g>
		<g>
			<path fill="#E6E7E8" d="M217.881,16H210V8.118l3.164,3.165l2.618-2.617l1.553,1.552l-2.617,2.617L217.881,16L217.881,16z"/>
		</g>
		<g>
			<path fill="#E6E7E8" d="M210,7.882V0h7.881l-3.165,3.166l2.62,2.617l-1.555,1.551l-2.618-2.616L210,7.882L210,7.882z"/>
		</g>
		<g>
			<path fill="#E6E7E8" d="M226,7.882l-3.163-3.164l-2.618,2.617l-1.554-1.552l2.619-2.617L218.119,0H226V7.882L226,7.882z"/>
		</g>
	</g>
	<g>
		
			<linearGradient id="SVGID_7_" gradientUnits="userSpaceOnUse" x1="1146.3926" y1="1192.4697" x2="1146.3926" y2="1207.5349" gradientTransform="matrix(1 0 0 1 -924 -1192)">
			<stop  offset="0" style="stop-color:#6D6E71"/>
			<stop  offset="1" style="stop-color:#3C3C3C"/>
		</linearGradient>
		<polygon fill="url(#SVGID_7_)" points="220.218,9.332 219.332,10.218 221.948,12.835 219.255,15.529 225.529,15.529 
			225.529,9.255 222.836,11.948 		"/>
		
			<linearGradient id="SVGID_8_" gradientUnits="userSpaceOnUse" x1="1137.6074" y1="1192.4697" x2="1137.6074" y2="1207.5349" gradientTransform="matrix(1 0 0 1 -924 -1192)">
			<stop  offset="0" style="stop-color:#6D6E71"/>
			<stop  offset="1" style="stop-color:#3C3C3C"/>
		</linearGradient>
		<polygon fill="url(#SVGID_8_)" points="216.669,10.218 215.782,9.332 213.164,11.948 210.471,9.255 210.471,15.529 
			216.744,15.529 214.053,12.835 		"/>
		
			<linearGradient id="SVGID_9_" gradientUnits="userSpaceOnUse" x1="1137.6074" y1="1192.4707" x2="1137.6074" y2="1207.5278" gradientTransform="matrix(1 0 0 1 -924 -1192)">
			<stop  offset="0" style="stop-color:#6D6E71"/>
			<stop  offset="1" style="stop-color:#3C3C3C"/>
		</linearGradient>
		<polygon fill="url(#SVGID_9_)" points="210.471,6.745 213.163,4.053 215.781,6.669 216.669,5.783 214.05,3.166 216.744,0.471 
			210.471,0.471 		"/>
		
			<linearGradient id="SVGID_10_" gradientUnits="userSpaceOnUse" x1="1146.3926" y1="1192.4707" x2="1146.3926" y2="1207.5278" gradientTransform="matrix(1 0 0 1 -924 -1192)">
			<stop  offset="0" style="stop-color:#6D6E71"/>
			<stop  offset="1" style="stop-color:#3C3C3C"/>
		</linearGradient>
		<polygon fill="url(#SVGID_10_)" points="219.255,0.471 221.95,3.166 219.332,5.783 220.219,6.669 222.837,4.053 225.529,6.745 
			225.529,0.471 		"/>
	</g>
</g>
<g>
	<g>
		<path fill="#E6E7E8" d="M76,16H60V0h16V16L76,16z"/>
	</g>
	
		<linearGradient id="SVGID_11_" gradientUnits="userSpaceOnUse" x1="992" y1="1192.4707" x2="992" y2="1207.5293" gradientTransform="matrix(1 0 0 1 -924 -1192)">
		<stop  offset="0" style="stop-color:#6D6E71"/>
		<stop  offset="1" style="stop-color:#3C3C3C"/>
	</linearGradient>
	<rect x="60.47" y="0.471" fill="url(#SVGID_11_)" width="15.059" height="15.058"/>
</g>
<g>
	<g>
		<g>
			<path fill="#E6E7E8" d="M282.302,15.205h-8.604c-2.039,0-3.697-1.658-3.697-3.697V7.206c0-2.039,1.658-3.697,3.697-3.697h2.085
				v3.093h-2.085c-0.335,0-0.605,0.271-0.605,0.604v4.302c0,0.334,0.271,0.605,0.605,0.605h8.604c0.333,0,0.606-0.271,0.606-0.605
				V7.206c0-0.334-0.273-0.604-0.606-0.604h-0.782v2.68l-5.002-4.243l5.002-4.244v2.715h0.782c2.039,0,3.698,1.658,3.698,3.697
				v4.303C286,13.547,284.341,15.205,282.302,15.205L282.302,15.205z"/>
		</g>
	</g>
	<g>
		
			<linearGradient id="SVGID_12_" gradientUnits="userSpaceOnUse" x1="1202" y1="1193.8115" x2="1202" y2="1206.7363" gradientTransform="matrix(1 0 0 1 -924 -1192)">
			<stop  offset="0" style="stop-color:#6D6E71"/>
			<stop  offset="1" style="stop-color:#3C3C3C"/>
		</linearGradient>
		<path fill="url(#SVGID_12_)" d="M282.302,3.978h-1.254V1.812l-3.803,3.227l3.803,3.227V6.129h1.254
			c0.593,0,1.077,0.481,1.077,1.076v4.302c0,0.594-0.484,1.076-1.077,1.076h-8.604c-0.593,0-1.076-0.482-1.076-1.076V7.206
			c0-0.595,0.483-1.076,1.076-1.076h1.614V3.98h-1.614c-1.779,0-3.228,1.446-3.228,3.227v4.303c0,1.779,1.444,3.227,3.228,3.227
			h8.604c1.779,0,3.228-1.443,3.228-3.227V7.206C285.529,5.426,284.081,3.978,282.302,3.978z"/>
	</g>
</g>
<g>
	<g>
		<g>
			<polygon fill="#E6E7E8" points="136,8 124.891,1.059 124.891,4.115 120,1.059 120,14.941 124.891,11.885 124.891,14.941 			"/>
		</g>
	</g>
	<g>
		<g>
			
				<linearGradient id="SVGID_13_" gradientUnits="userSpaceOnUse" x1="1049.3496" y1="1193.8848" x2="1049.3496" y2="1206.1143" gradientTransform="matrix(1 0 0 1 -924 -1192)">
				<stop  offset="0" style="stop-color:#6D6E71"/>
				<stop  offset="1" style="stop-color:#3C3C3C"/>
			</linearGradient>
			<polygon fill="url(#SVGID_13_)" points="130.242,8 120.458,14.114 120.458,1.885 			"/>
		</g>
		<g>
			
				<linearGradient id="SVGID_14_" gradientUnits="userSpaceOnUse" x1="1054.2422" y1="1193.8848" x2="1054.2422" y2="1206.1143" gradientTransform="matrix(1 0 0 1 -924 -1192)">
				<stop  offset="0" style="stop-color:#6D6E71"/>
				<stop  offset="1" style="stop-color:#3C3C3C"/>
			</linearGradient>
			<polygon fill="url(#SVGID_14_)" points="135.135,8 125.35,14.114 125.35,1.885 			"/>
		</g>
	</g>
</g>
<g>
	<g>
		<g>
			<polygon fill="#E6E7E8" points="106,1.057 101.108,4.115 101.108,1.057 90,8 101.108,14.943 101.108,11.886 106,14.943 			"/>
		</g>
	</g>
	<g>
		<g>
			
				<linearGradient id="SVGID_15_" gradientUnits="userSpaceOnUse" x1="1024.6484" y1="1193.8857" x2="1024.6484" y2="1206.1152" gradientTransform="matrix(1 0 0 1 -924 -1192)">
				<stop  offset="0" style="stop-color:#6D6E71"/>
				<stop  offset="1" style="stop-color:#3C3C3C"/>
			</linearGradient>
			<polygon fill="url(#SVGID_15_)" points="105.541,1.886 105.541,14.115 95.757,8.001 			"/>
		</g>
		<g>
			
				<linearGradient id="SVGID_16_" gradientUnits="userSpaceOnUse" x1="1019.7578" y1="1193.8857" x2="1019.7578" y2="1206.1152" gradientTransform="matrix(1 0 0 1 -924 -1192)">
				<stop  offset="0" style="stop-color:#6D6E71"/>
				<stop  offset="1" style="stop-color:#3C3C3C"/>
			</linearGradient>
			<polygon fill="url(#SVGID_16_)" points="100.649,1.886 100.649,14.115 90.865,8.001 			"/>
		</g>
	</g>
</g>
<g>
	<g>
		<g>
			<path fill="#E6E7E8" d="M247.275,7.276H240l2.923-2.922l-2.419-2.416l1.436-1.433l2.418,2.415l2.92-2.92v7.276H247.275z"/>
		</g>
		<g>
			<path fill="#E6E7E8" d="M247.275,16l-2.922-2.922l-2.416,2.416l-1.437-1.434l2.417-2.416L240,8.725h7.275V16L247.275,16z"/>
		</g>
		<g>
			<path fill="#E6E7E8" d="M256,7.276h-7.275V0l2.92,2.92l2.418-2.415l1.438,1.433l-2.418,2.416L256,7.276L256,7.276z"/>
		</g>
		<g>
			<path fill="#E6E7E8" d="M248.725,16V8.725H256l-2.921,2.922l2.417,2.416l-1.436,1.436l-2.416-2.416L248.725,16L248.725,16z"/>
		</g>
	</g>
	<g>
		
			<linearGradient id="SVGID_17_" gradientUnits="userSpaceOnUse" x1="1167.9453" y1="1193.0488" x2="1167.9453" y2="1206.9517" gradientTransform="matrix(1 0 0 1 -924 -1192)">
			<stop  offset="0" style="stop-color:#6D6E71"/>
			<stop  offset="1" style="stop-color:#3C3C3C"/>
		</linearGradient>
		<polygon fill="url(#SVGID_17_)" points="241.939,1.119 241.119,1.938 243.537,4.354 241.049,6.842 246.842,6.842 246.842,1.049 
			244.355,3.534 		"/>
		
			<linearGradient id="SVGID_18_" gradientUnits="userSpaceOnUse" x1="1167.9453" y1="1193.0488" x2="1167.9453" y2="1206.9518" gradientTransform="matrix(1 0 0 1 -924 -1192)">
			<stop  offset="0" style="stop-color:#6D6E71"/>
			<stop  offset="1" style="stop-color:#3C3C3C"/>
		</linearGradient>
		<polygon fill="url(#SVGID_18_)" points="243.536,11.646 241.119,14.063 241.938,14.88 244.354,12.464 246.842,14.951 
			246.842,9.158 241.049,9.158 		"/>
		
			<linearGradient id="SVGID_19_" gradientUnits="userSpaceOnUse" x1="1176.0547" y1="1193.0488" x2="1176.0547" y2="1206.9517" gradientTransform="matrix(1 0 0 1 -924 -1192)">
			<stop  offset="0" style="stop-color:#6D6E71"/>
			<stop  offset="1" style="stop-color:#3C3C3C"/>
		</linearGradient>
		<polygon fill="url(#SVGID_19_)" points="252.463,4.354 254.882,1.938 254.063,1.119 251.645,3.534 249.159,1.049 249.159,6.842 
			254.951,6.842 		"/>
		
			<linearGradient id="SVGID_20_" gradientUnits="userSpaceOnUse" x1="1176.0547" y1="1193.0488" x2="1176.0547" y2="1206.9518" gradientTransform="matrix(1 0 0 1 -924 -1192)">
			<stop  offset="0" style="stop-color:#6D6E71"/>
			<stop  offset="1" style="stop-color:#3C3C3C"/>
		</linearGradient>
		<polygon fill="url(#SVGID_20_)" points="249.159,9.158 249.159,14.951 251.646,12.464 254.063,14.88 254.882,14.063 
			252.465,11.646 254.951,9.158 		"/>
	</g>
</g>
<g>
	<g>
		<polygon fill="#E6E7E8" points="160.377,0 155.042,4.003 150,4.003 150,12.009 154.942,12.009 160.377,16 		"/>
		<g>
			
				<linearGradient id="SVGID_21_" gradientUnits="userSpaceOnUse" x1="1076.7012" y1="1192.8848" x2="1076.7012" y2="1207.1172" gradientTransform="matrix(1 0 0 1 -924 -1192)">
				<stop  offset="0" style="stop-color:#6D6E71"/>
				<stop  offset="1" style="stop-color:#3C3C3C"/>
			</linearGradient>
			<rect x="150.444" y="4.443" fill="url(#SVGID_21_)" width="4.515" height="7.116"/>
			
				<linearGradient id="SVGID_22_" gradientUnits="userSpaceOnUse" x1="1081.5615" y1="1192.8828" x2="1081.5615" y2="1207.1152" gradientTransform="matrix(1 0 0 1 -924 -1192)">
				<stop  offset="0" style="stop-color:#6D6E71"/>
				<stop  offset="1" style="stop-color:#3C3C3C"/>
			</linearGradient>
			<path fill="url(#SVGID_22_)" d="M155.189,4.443l4.744-3.56v14.232l-4.744-3.482V4.443z"/>
		</g>
	</g>
	<g>
		<g>
			
				<linearGradient id="SVGID_23_" gradientUnits="userSpaceOnUse" x1="1086.4746" y1="1200" x2="1090" y2="1200" gradientTransform="matrix(1 0 0 1 -924 -1192)">
				<stop  offset="0" style="stop-color:#6D6E71"/>
				<stop  offset="1" style="stop-color:#3C3C3C"/>
			</linearGradient>
			<path fill="url(#SVGID_23_)" d="M162.958,13.438l-0.484-0.875C164.033,11.699,165,9.951,165,8s-0.968-3.699-2.526-4.563
				l0.484-0.875C164.834,3.602,166,5.686,166,8C166,10.314,164.834,12.398,162.958,13.438L162.958,13.438z"/>
		</g>
		<g>
			
				<linearGradient id="SVGID_24_" gradientUnits="userSpaceOnUse" x1="1085.4746" y1="1200" x2="1087.6738" y2="1200" gradientTransform="matrix(1 0 0 1 -924 -1192)">
				<stop  offset="0" style="stop-color:#6D6E71"/>
				<stop  offset="1" style="stop-color:#3C3C3C"/>
			</linearGradient>
			<path fill="url(#SVGID_24_)" d="M161.958,11.055l-0.482-0.875c0.728-0.402,1.198-1.257,1.198-2.179
				c0-0.935-0.46-1.771-1.199-2.181l0.484-0.875c1.058,0.586,1.715,1.757,1.715,3.056C163.673,9.301,163.016,10.471,161.958,11.055
				L161.958,11.055z"/>
		</g>
	</g>
</g>
<g>
	<g>
		<polygon fill="#DF1000" points="192.414,10.348 191.307,9.236 192.544,8 191.307,6.761 192.413,5.653 193.652,6.892 
			194.889,5.653 195.999,6.761 194.76,8 196,9.236 194.891,10.348 193.652,9.107 		"/>
	</g>
	<g>
		<polygon fill="#E6E7E8" points="190.377,0 185.042,4.003 180,4.003 180,12.009 184.941,12.009 190.377,16 		"/>
		<g>
			
				<linearGradient id="SVGID_25_" gradientUnits="userSpaceOnUse" x1="1106.7012" y1="1192.8848" x2="1106.7012" y2="1207.1172" gradientTransform="matrix(1 0 0 1 -924 -1192)">
				<stop  offset="0" style="stop-color:#6D6E71"/>
				<stop  offset="1" style="stop-color:#3C3C3C"/>
			</linearGradient>
			<rect x="180.443" y="4.443" fill="url(#SVGID_25_)" width="4.516" height="7.116"/>
			
				<linearGradient id="SVGID_26_" gradientUnits="userSpaceOnUse" x1="1111.5615" y1="1192.8828" x2="1111.5615" y2="1207.1152" gradientTransform="matrix(1 0 0 1 -924 -1192)">
				<stop  offset="0" style="stop-color:#6D6E71"/>
				<stop  offset="1" style="stop-color:#3C3C3C"/>
			</linearGradient>
			<path fill="url(#SVGID_26_)" d="M185.189,4.443l4.744-3.56v14.232l-4.744-3.482V4.443z"/>
		</g>
	</g>
</g>
</svg>
