<?xml version="1.0" encoding="utf-8"?>
<!-- Generator: Adobe Illustrator 14.0.0, SVG Export Plug-In . SVG Version: 6.00 Build 43363)  -->
<!DOCTYPE svg PUBLIC "-//W3C//DTD SVG 1.1//EN" "http://www.w3.org/Graphics/SVG/1.1/DTD/svg11.dtd">
<svg version="1.1" id="Layer_1" xmlns="http://www.w3.org/2000/svg" xmlns:xlink="http://www.w3.org/1999/xlink" x="0px" y="0px"
	 width="330px" height="16px" viewBox="0 0 330 16" enable-background="new 0 0 330 16" xml:space="preserve">
<g>
	<g>
		<g>
			<path fill="#E6E7E8" d="M305.448,11.304c-0.894,0-1.628-0.293-2.181-0.872c-0.55-0.575-0.826-1.386-0.826-2.411
				c0-0.652,0.115-1.234,0.342-1.731c0.238-0.531,0.615-0.938,1.115-1.208c0.477-0.256,1-0.385,1.556-0.385
				c0.707,0,1.304,0.184,1.772,0.545c0.477,0.365,0.782,0.888,0.914,1.549l0.098,0.484l-1.834,0.272l-0.103-0.419
				c-0.063-0.26-0.163-0.45-0.308-0.568c-0.139-0.113-0.301-0.168-0.508-0.168c-0.344,0-0.603,0.109-0.812,0.342
				c-0.213,0.237-0.325,0.674-0.325,1.262c0,0.599,0.109,1.041,0.315,1.279c0.196,0.228,0.442,0.332,0.771,0.332
				c0.254,0,0.455-0.07,0.617-0.213c0.16-0.144,0.268-0.393,0.317-0.736l0.067-0.457l1.871,0.236l-0.08,0.481
				c-0.119,0.735-0.438,1.323-0.94,1.747C306.791,11.089,306.169,11.304,305.448,11.304L305.448,11.304z"/>
		</g>
		<g>
			<path fill="#E6E7E8" d="M310.825,11.304c-0.894,0-1.627-0.293-2.181-0.872c-0.547-0.577-0.826-1.388-0.826-2.411
				c0-0.647,0.115-1.23,0.343-1.73c0.241-0.534,0.616-0.94,1.114-1.209c0.479-0.256,1.002-0.385,1.557-0.385
				c0.707,0,1.305,0.184,1.773,0.545c0.477,0.365,0.783,0.888,0.914,1.549l0.098,0.484l-1.838,0.272l-0.1-0.42
				c-0.063-0.259-0.164-0.45-0.307-0.565c-0.141-0.115-0.299-0.17-0.508-0.17c-0.346,0-0.602,0.108-0.809,0.342
				c-0.219,0.24-0.328,0.664-0.328,1.262c0,0.6,0.108,1.041,0.314,1.279c0.197,0.228,0.441,0.332,0.77,0.332
				c0.254,0,0.457-0.067,0.615-0.211c0.164-0.146,0.271-0.395,0.32-0.738l0.066-0.457l1.871,0.236l-0.078,0.48
				c-0.119,0.734-0.438,1.324-0.941,1.747C312.17,11.088,311.548,11.304,310.825,11.304L310.825,11.304z"/>
		</g>
		<g>
			<path fill="#E6E7E8" d="M316,14.745h-16V1.255h16V14.745L316,14.745z M302.018,12.758h11.965V3.242h-11.965V12.758
				L302.018,12.758z"/>
		</g>
	</g>
	<g>
		<path fill="#FFFFFF" d="M306.841,8.726l0.929,0.117c-0.102,0.623-0.359,1.11-0.777,1.461c-0.42,0.354-0.936,0.53-1.542,0.53
			c-0.765,0-1.378-0.242-1.841-0.727c-0.465-0.486-0.695-1.184-0.695-2.088c0-0.584,0.102-1.098,0.299-1.535
			c0.198-0.439,0.503-0.77,0.911-0.99c0.407-0.219,0.853-0.328,1.332-0.328c0.604,0,1.101,0.148,1.483,0.447
			c0.387,0.297,0.634,0.72,0.742,1.27l-0.92,0.136c-0.087-0.362-0.242-0.637-0.466-0.819c-0.222-0.185-0.491-0.275-0.806-0.275
			c-0.479,0-0.863,0.165-1.162,0.497c-0.297,0.33-0.445,0.856-0.445,1.575c0,0.728,0.145,1.258,0.432,1.588
			c0.287,0.328,0.662,0.494,1.125,0.494c0.371,0,0.682-0.109,0.931-0.33C306.615,9.525,306.773,9.185,306.841,8.726z"/>
		<path fill="#FFFFFF" d="M312.219,8.726l0.93,0.117c-0.102,0.623-0.361,1.11-0.779,1.461c-0.417,0.354-0.934,0.53-1.542,0.53
			c-0.763,0-1.376-0.242-1.841-0.727c-0.463-0.486-0.695-1.184-0.695-2.088c0-0.584,0.104-1.098,0.299-1.535
			c0.201-0.439,0.506-0.77,0.912-0.99c0.408-0.219,0.854-0.328,1.332-0.328c0.604,0,1.102,0.148,1.484,0.447
			c0.388,0.297,0.633,0.72,0.742,1.27l-0.922,0.136c-0.087-0.362-0.24-0.637-0.465-0.819c-0.222-0.185-0.49-0.275-0.807-0.275
			c-0.477,0-0.862,0.165-1.159,0.497c-0.299,0.33-0.446,0.856-0.446,1.575c0,0.728,0.145,1.258,0.43,1.588
			c0.289,0.328,0.662,0.494,1.125,0.494c0.369,0,0.684-0.109,0.93-0.33C311.994,9.525,312.15,9.185,312.219,8.726z"/>
	</g>
	<g>
		
			<linearGradient id="SVGID_1_" gradientUnits="userSpaceOnUse" x1="539" y1="-296.2754" x2="539" y2="-283.7261" gradientTransform="matrix(1 0 0 -1 -231 -282)">
			<stop  offset="0" style="stop-color:#DEDEDE"/>
			<stop  offset="0.5028" style="stop-color:#FFFFFF"/>
		</linearGradient>
		<path fill="url(#SVGID_1_)" d="M301.547,2.771h12.906v10.458h-12.906V2.771z M300.471,1.726v12.549h15.059V1.726H300.471z"/>
	</g>
</g>
<g>
	<g>
		<path fill="#E6E7E8" d="M0,16V0l16,8L0,16L0,16z"/>
	</g>
	
		<linearGradient id="SVGID_2_" gradientUnits="userSpaceOnUse" x1="238.7188" y1="-297.3335" x2="238.7188" y2="-282.8022" gradientTransform="matrix(1 0 0 -1 -231 -282)">
		<stop  offset="0" style="stop-color:#DEDEDE"/>
		<stop  offset="0.5028" style="stop-color:#FFFFFF"/>
	</linearGradient>
	<polygon fill="url(#SVGID_2_)" points="14.984,8.001 0.454,15.266 0.454,0.734 	"/>
</g>
<g>
	<g>
		<g>
			<path fill="#E6E7E8" d="M34.706,16H30V0h4.706V16L34.706,16z"/>
		</g>
		<g>
			<path fill="#E6E7E8" d="M43.49,16h-4.706V0h4.706V16L43.49,16z"/>
		</g>
	</g>
	<g>
		
			<linearGradient id="SVGID_3_" gradientUnits="userSpaceOnUse" x1="263.3535" y1="-297.5293" x2="263.3535" y2="-282.4707" gradientTransform="matrix(1 0 0 -1 -231 -282)">
			<stop  offset="0" style="stop-color:#DEDEDE"/>
			<stop  offset="0.5028" style="stop-color:#FFFFFF"/>
		</linearGradient>
		<rect x="30.471" y="0.471" fill="url(#SVGID_3_)" width="3.765" height="15.059"/>
		
			<linearGradient id="SVGID_4_" gradientUnits="userSpaceOnUse" x1="272.1367" y1="-297.5293" x2="272.1367" y2="-282.4707" gradientTransform="matrix(1 0 0 -1 -231 -282)">
			<stop  offset="0" style="stop-color:#DEDEDE"/>
			<stop  offset="0.5028" style="stop-color:#FFFFFF"/>
		</linearGradient>
		<rect x="39.254" y="0.471" fill="url(#SVGID_4_)" width="3.765" height="15.059"/>
	</g>
</g>
<g>
	<g>
		<g>
			<path fill="#E6E7E8" d="M226,16h-7.881l3.164-3.165l-2.618-2.617l1.553-1.552l2.618,2.617L226,8.118V16L226,16z"/>
		</g>
		<g>
			<path fill="#E6E7E8" d="M217.881,16H210V8.118l3.164,3.165l2.618-2.617l1.553,1.552l-2.617,2.617L217.881,16L217.881,16z"/>
		</g>
		<g>
			<path fill="#E6E7E8" d="M210,7.882V0h7.881l-3.165,3.166l2.62,2.617l-1.555,1.551l-2.618-2.616L210,7.882L210,7.882z"/>
		</g>
		<g>
			<path fill="#E6E7E8" d="M226,7.882l-3.163-3.164l-2.618,2.617l-1.554-1.552l2.619-2.617L218.119,0H226V7.882L226,7.882z"/>
		</g>
	</g>
	<g>
		
			<linearGradient id="SVGID_5_" gradientUnits="userSpaceOnUse" x1="453.3926" y1="-297.5293" x2="453.3926" y2="-291.2549" gradientTransform="matrix(1 0 0 -1 -231 -282)">
			<stop  offset="0" style="stop-color:#DEDEDE"/>
			<stop  offset="0.5028" style="stop-color:#FFFFFF"/>
		</linearGradient>
		<polygon fill="url(#SVGID_5_)" points="220.218,9.332 219.332,10.218 221.948,12.835 219.255,15.529 225.529,15.529 
			225.529,9.255 222.836,11.948 		"/>
		
			<linearGradient id="SVGID_6_" gradientUnits="userSpaceOnUse" x1="444.6074" y1="-297.5293" x2="444.6074" y2="-291.2549" gradientTransform="matrix(1 0 0 -1 -231 -282)">
			<stop  offset="0" style="stop-color:#DEDEDE"/>
			<stop  offset="0.5028" style="stop-color:#FFFFFF"/>
		</linearGradient>
		<polygon fill="url(#SVGID_6_)" points="216.669,10.218 215.782,9.332 213.164,11.948 210.471,9.255 210.471,15.529 
			216.744,15.529 214.053,12.835 		"/>
		
			<linearGradient id="SVGID_7_" gradientUnits="userSpaceOnUse" x1="444.6074" y1="-288.7451" x2="444.6074" y2="-282.4707" gradientTransform="matrix(1 0 0 -1 -231 -282)">
			<stop  offset="0" style="stop-color:#DEDEDE"/>
			<stop  offset="0.5028" style="stop-color:#FFFFFF"/>
		</linearGradient>
		<polygon fill="url(#SVGID_7_)" points="210.471,6.745 213.163,4.053 215.781,6.669 216.669,5.783 214.05,3.166 216.744,0.471 
			210.471,0.471 		"/>
		
			<linearGradient id="SVGID_8_" gradientUnits="userSpaceOnUse" x1="453.3926" y1="-288.7451" x2="453.3926" y2="-282.4707" gradientTransform="matrix(1 0 0 -1 -231 -282)">
			<stop  offset="0" style="stop-color:#DEDEDE"/>
			<stop  offset="0.5028" style="stop-color:#FFFFFF"/>
		</linearGradient>
		<polygon fill="url(#SVGID_8_)" points="219.255,0.471 221.95,3.166 219.332,5.783 220.219,6.669 222.837,4.053 225.529,6.745 
			225.529,0.471 		"/>
	</g>
</g>
<g>
	<g>
		<path fill="#E6E7E8" d="M76,16H60V0h16V16L76,16z"/>
	</g>
	
		<linearGradient id="SVGID_9_" gradientUnits="userSpaceOnUse" x1="299" y1="-297.5293" x2="299" y2="-282.4707" gradientTransform="matrix(1 0 0 -1 -231 -282)">
		<stop  offset="0" style="stop-color:#DEDEDE"/>
		<stop  offset="0.5028" style="stop-color:#FFFFFF"/>
	</linearGradient>
	<rect x="60.47" y="0.471" fill="url(#SVGID_9_)" width="15.059" height="15.059"/>
</g>
<g>
	<g>
		<g>
			<path fill="#E6E7E8" d="M282.302,15.205h-8.604c-2.039,0-3.697-1.658-3.697-3.697V7.206c0-2.039,1.658-3.697,3.697-3.697h2.085
				v3.093h-2.085c-0.335,0-0.605,0.271-0.605,0.604v4.302c0,0.334,0.271,0.605,0.605,0.605h8.604c0.333,0,0.606-0.271,0.606-0.605
				V7.206c0-0.334-0.273-0.604-0.606-0.604h-0.782v2.68l-5.002-4.243l5.002-4.244v2.715h0.782c2.039,0,3.698,1.658,3.698,3.697
				v4.303C286,13.547,284.341,15.205,282.302,15.205L282.302,15.205z"/>
		</g>
	</g>
	<g>
		
			<linearGradient id="SVGID_10_" gradientUnits="userSpaceOnUse" x1="509" y1="-296.7188" x2="509" y2="-283.7935" gradientTransform="matrix(1 0 0 -1 -231 -282)">
			<stop  offset="0" style="stop-color:#DEDEDE"/>
			<stop  offset="0.5028" style="stop-color:#FFFFFF"/>
		</linearGradient>
		<path fill="url(#SVGID_10_)" d="M282.302,3.96h-1.254V1.793l-3.803,3.228l3.803,3.228V6.111h1.254
			c0.593,0,1.077,0.481,1.077,1.076v4.303c0,0.592-0.484,1.076-1.077,1.076h-8.604c-0.593,0-1.076-0.484-1.076-1.076V7.187
			c0-0.594,0.483-1.076,1.076-1.076h1.614V3.961h-1.614c-1.779,0-3.228,1.446-3.228,3.228v4.303c0,1.779,1.446,3.227,3.228,3.227
			h8.604c1.779,0,3.228-1.445,3.228-3.227V7.187C285.529,5.408,284.081,3.96,282.302,3.96z"/>
	</g>
</g>
<g>
	<g>
		<g>
			<polygon fill="#E6E7E8" points="136,8 124.891,1.059 124.891,4.115 120,1.059 120,14.941 124.891,11.885 124.891,14.941 			"/>
		</g>
	</g>
	<g>
		<g>
			
				<linearGradient id="SVGID_11_" gradientUnits="userSpaceOnUse" x1="356.3496" y1="-296.1152" x2="356.3496" y2="-283.8848" gradientTransform="matrix(1 0 0 -1 -231 -282)">
				<stop  offset="0" style="stop-color:#DEDEDE"/>
				<stop  offset="0.5028" style="stop-color:#FFFFFF"/>
			</linearGradient>
			<polygon fill="url(#SVGID_11_)" points="130.242,8 120.458,14.115 120.458,1.885 			"/>
		</g>
		<g>
			
				<linearGradient id="SVGID_12_" gradientUnits="userSpaceOnUse" x1="361.2422" y1="-296.1152" x2="361.2422" y2="-283.8848" gradientTransform="matrix(1 0 0 -1 -231 -282)">
				<stop  offset="0" style="stop-color:#DEDEDE"/>
				<stop  offset="0.5028" style="stop-color:#FFFFFF"/>
			</linearGradient>
			<polygon fill="url(#SVGID_12_)" points="135.135,8 125.35,14.115 125.35,1.885 			"/>
		</g>
	</g>
</g>
<g>
	<g>
		<g>
			<path fill="#E6E7E8" d="M106,1.057l-4.892,3.059V1.057L90,8l11.108,6.943v-3.058L106,14.943V1.057z"/>
		</g>
	</g>
	<g>
		<g>
			
				<linearGradient id="SVGID_13_" gradientUnits="userSpaceOnUse" x1="331.6484" y1="-296.1152" x2="331.6484" y2="-283.8848" gradientTransform="matrix(1 0 0 -1 -231 -282)">
				<stop  offset="0" style="stop-color:#DEDEDE"/>
				<stop  offset="0.5028" style="stop-color:#FFFFFF"/>
			</linearGradient>
			<polygon fill="url(#SVGID_13_)" points="105.541,1.885 105.541,14.115 95.757,8 			"/>
		</g>
		<g>
			
				<linearGradient id="SVGID_14_" gradientUnits="userSpaceOnUse" x1="326.7578" y1="-296.1152" x2="326.7578" y2="-283.8848" gradientTransform="matrix(1 0 0 -1 -231 -282)">
				<stop  offset="0" style="stop-color:#DEDEDE"/>
				<stop  offset="0.5028" style="stop-color:#FFFFFF"/>
			</linearGradient>
			<polygon fill="url(#SVGID_14_)" points="100.649,1.885 100.649,14.115 90.865,8 			"/>
		</g>
	</g>
</g>
<g>
	<g>
		<g>
			<path fill="#E6E7E8" d="M247.275,7.276H240l2.923-2.922l-2.419-2.416l1.436-1.433l2.418,2.415l2.92-2.92v7.276H247.275z"/>
		</g>
		<g>
			<path fill="#E6E7E8" d="M247.275,16l-2.922-2.922l-2.416,2.416l-1.435-1.434l2.417-2.416L240,8.725h7.275V16L247.275,16z"/>
		</g>
		<g>
			<path fill="#E6E7E8" d="M256,7.276h-7.275V0l2.92,2.92l2.418-2.415l1.436,1.433l-2.418,2.416L256,7.276L256,7.276z"/>
		</g>
		<g>
			<path fill="#E6E7E8" d="M248.725,16V8.725H256l-2.921,2.922l2.417,2.416l-1.436,1.434l-2.416-2.416L248.725,16L248.725,16z"/>
		</g>
	</g>
	<g>
		
			<linearGradient id="SVGID_15_" gradientUnits="userSpaceOnUse" x1="474.9453" y1="-288.8418" x2="474.9453" y2="-283.0488" gradientTransform="matrix(1 0 0 -1 -231 -282)">
			<stop  offset="0" style="stop-color:#DEDEDE"/>
			<stop  offset="0.5028" style="stop-color:#FFFFFF"/>
		</linearGradient>
		<polygon fill="url(#SVGID_15_)" points="241.939,1.119 241.119,1.938 243.537,4.354 241.049,6.842 246.842,6.842 246.842,1.049 
			244.355,3.534 		"/>
		
			<linearGradient id="SVGID_16_" gradientUnits="userSpaceOnUse" x1="474.9453" y1="-296.9512" x2="474.9453" y2="-291.1582" gradientTransform="matrix(1 0 0 -1 -231 -282)">
			<stop  offset="0" style="stop-color:#DEDEDE"/>
			<stop  offset="0.5028" style="stop-color:#FFFFFF"/>
		</linearGradient>
		<polygon fill="url(#SVGID_16_)" points="243.536,11.646 241.119,14.063 241.938,14.88 244.354,12.464 246.842,14.951 
			246.842,9.158 241.049,9.158 		"/>
		
			<linearGradient id="SVGID_17_" gradientUnits="userSpaceOnUse" x1="483.0547" y1="-288.8418" x2="483.0547" y2="-283.0488" gradientTransform="matrix(1 0 0 -1 -231 -282)">
			<stop  offset="0" style="stop-color:#DEDEDE"/>
			<stop  offset="0.5028" style="stop-color:#FFFFFF"/>
		</linearGradient>
		<polygon fill="url(#SVGID_17_)" points="252.463,4.354 254.882,1.938 254.063,1.119 251.645,3.534 249.159,1.049 249.159,6.842 
			254.951,6.842 		"/>
		
			<linearGradient id="SVGID_18_" gradientUnits="userSpaceOnUse" x1="483.0547" y1="-296.9512" x2="483.0547" y2="-291.1582" gradientTransform="matrix(1 0 0 -1 -231 -282)">
			<stop  offset="0" style="stop-color:#DEDEDE"/>
			<stop  offset="0.5028" style="stop-color:#FFFFFF"/>
		</linearGradient>
		<polygon fill="url(#SVGID_18_)" points="249.159,9.158 249.159,14.951 251.646,12.464 254.063,14.88 254.882,14.063 
			252.465,11.646 254.951,9.158 		"/>
	</g>
</g>
<g>
	<g>
		<polygon fill="#E6E7E8" points="160.377,0 155.042,4.003 150,4.003 150,12.009 154.942,12.009 160.377,16 		"/>
		<g>
			
				<linearGradient id="SVGID_19_" gradientUnits="userSpaceOnUse" x1="383.5137" y1="-293.5596" x2="383.5137" y2="-286.4429" gradientTransform="matrix(1 0 0 -1 -231 -282)">
				<stop  offset="0" style="stop-color:#DEDEDE"/>
				<stop  offset="0.5028" style="stop-color:#FFFFFF"/>
			</linearGradient>
			<rect x="150.444" y="4.443" fill="url(#SVGID_19_)" width="4.14" height="7.117"/>
			
				<linearGradient id="SVGID_20_" gradientUnits="userSpaceOnUse" x1="388.5615" y1="-297.1162" x2="388.5615" y2="-282.8838" gradientTransform="matrix(1 0 0 -1 -231 -282)">
				<stop  offset="0" style="stop-color:#DEDEDE"/>
				<stop  offset="0.5028" style="stop-color:#FFFFFF"/>
			</linearGradient>
			<path fill="url(#SVGID_20_)" d="M155.189,4.444l4.744-3.56v14.232l-4.744-3.482V4.444z"/>
		</g>
	</g>
	<g>
		<g>
			
				<linearGradient id="SVGID_21_" gradientUnits="userSpaceOnUse" x1="624.4746" y1="604" x2="628" y2="604" gradientTransform="matrix(1 0 0 1 -462 -596)">
				<stop  offset="0" style="stop-color:#DEDEDE"/>
				<stop  offset="0.5028" style="stop-color:#FFFFFF"/>
			</linearGradient>
			<path fill="url(#SVGID_21_)" d="M162.958,13.438l-0.484-0.875C164.033,11.699,165,9.951,165,8s-0.968-3.699-2.526-4.563
				l0.484-0.875C164.834,3.602,166,5.686,166,8C166,10.314,164.834,12.398,162.958,13.438L162.958,13.438z"/>
		</g>
		<g>
			
				<linearGradient id="SVGID_22_" gradientUnits="userSpaceOnUse" x1="623.4746" y1="604" x2="625.6738" y2="604" gradientTransform="matrix(1 0 0 1 -462 -596)">
				<stop  offset="0" style="stop-color:#DEDEDE"/>
				<stop  offset="0.5028" style="stop-color:#FFFFFF"/>
			</linearGradient>
			<path fill="url(#SVGID_22_)" d="M161.958,11.055l-0.482-0.875c0.728-0.402,1.198-1.257,1.198-2.179
				c0-0.935-0.46-1.771-1.199-2.181l0.484-0.875c1.058,0.586,1.715,1.757,1.715,3.056C163.673,9.301,163.016,10.471,161.958,11.055
				L161.958,11.055z"/>
		</g>
	</g>
</g>
<g>
	<g>
		<polygon fill="#DF1000" points="192.414,10.348 191.307,9.236 192.544,8 191.307,6.761 192.413,5.653 193.652,6.892 
			194.889,5.653 195.999,6.761 194.76,8 196,9.236 194.891,10.348 193.652,9.107 		"/>
	</g>
	<g>
		<polygon fill="#E6E7E8" points="190.377,0 185.041,4.003 180,4.003 180,12.01 184.942,12.01 190.377,16 		"/>
		<g>
			
				<linearGradient id="SVGID_23_" gradientUnits="userSpaceOnUse" x1="413.5137" y1="-293.5605" x2="413.5137" y2="-286.4434" gradientTransform="matrix(1 0 0 -1 -231 -282)">
				<stop  offset="0" style="stop-color:#DEDEDE"/>
				<stop  offset="0.5028" style="stop-color:#FFFFFF"/>
			</linearGradient>
			<rect x="180.443" y="4.443" fill="url(#SVGID_23_)" width="4.141" height="7.117"/>
			
				<linearGradient id="SVGID_24_" gradientUnits="userSpaceOnUse" x1="418.5615" y1="-297.1172" x2="418.5615" y2="-282.8838" gradientTransform="matrix(1 0 0 -1 -231 -282)">
				<stop  offset="0" style="stop-color:#DEDEDE"/>
				<stop  offset="0.5028" style="stop-color:#FFFFFF"/>
			</linearGradient>
			<path fill="url(#SVGID_24_)" d="M185.189,4.443l4.744-3.56v14.233l-4.744-3.482V4.443z"/>
		</g>
	</g>
</g>
</svg>
