<svg xmlns="http://www.w3.org/2000/svg" width="72" height="172" viewBox="0 0 72 172"><path fill="#E6E6E6" d="M36 0C16.118 0 0 16.118 0 36s16.118 36 36 36c19.881 0 36-16.118 36-36S55.881 0 36 0zm0 66C19.432 66 6 52.568 6 36S19.432 6 36 6s30 13.432 30 30-13.433 30-30 30z"/><path fill="#E6E6E6" d="M19.75 15.75v40l40-20zM36 100c-19.882 0-36 16.117-36 36s16.118 36 36 36c19.881 0 36-16.117 36-36s-16.119-36-36-36zm0 66c-16.568 0-30-13.432-30-30s13.432-30 30-30 30 13.432 30 30-13.433 30-30 30z"/><path fill="#FFF" d="M35.999 101c-19.329 0-35 15.67-35 35s15.67 35 35 35S71 155.33 71 136s-15.672-35-35.001-35zm0 66c-17.12 0-31-13.879-31-31s13.879-31 31-31S67 118.879 67 136s-13.881 31-31.001 31z"/><path fill="#E6E6E6" d="M19.75 115.75v40l40-20z"/><path fill="#FFF" d="M20.75 117.75v36l36-18z"/></svg>