<svg xmlns="http://www.w3.org/2000/svg" width="330" height="16" viewBox="0 0 330 16"><path fill="#E6E7E8" d="M305.448 11.304c-.894 0-1.628-.293-2.18-.872-.55-.575-.827-1.386-.827-2.41 0-.653.116-1.235.343-1.732.238-.53.615-.938 1.115-1.208.477-.256 1-.385 1.556-.385.707 0 1.304.184 1.772.545.477.365.782.888.914 1.55l.098.483-1.834.272-.103-.42c-.062-.26-.162-.45-.307-.567-.14-.113-.3-.168-.508-.168-.344 0-.603.11-.812.342-.213.237-.325.674-.325 1.262 0 .6.11 1.04.315 1.28.196.227.442.33.77.33.255 0 .456-.07.618-.212.16-.144.27-.393.318-.736l.067-.457 1.87.237-.08.48c-.118.736-.437 1.324-.94 1.748-.494.424-1.116.64-1.837.64zM310.825 11.304c-.894 0-1.627-.293-2.18-.872-.548-.577-.827-1.388-.827-2.41 0-.648.115-1.23.343-1.73.242-.535.617-.94 1.115-1.21.48-.256 1.002-.385 1.557-.385.707 0 1.305.184 1.773.545.477.365.783.888.914 1.55l.097.483-1.838.272-.1-.42c-.064-.26-.165-.45-.308-.565-.14-.115-.3-.17-.508-.17-.346 0-.602.108-.81.342-.218.24-.327.664-.327 1.262 0 .6.108 1.04.314 1.28.198.227.442.33.77.33.255 0 .458-.066.616-.21.164-.146.27-.395.32-.738l.066-.457 1.87.237-.077.48c-.12.734-.438 1.324-.94 1.747-.495.424-1.117.64-1.84.64zM316 14.745h-16V1.255h16v13.49zm-13.982-1.987h11.965V3.242h-11.965v9.516z"/><g fill="#fff"><path d="M306.84 8.726l.93.117c-.102.623-.36 1.11-.777 1.46-.42.355-.936.53-1.542.53-.764 0-1.377-.24-1.84-.726-.465-.486-.695-1.184-.695-2.088 0-.585.102-1.1.3-1.536.197-.44.502-.77.91-.99.407-.22.853-.328 1.332-.328.604 0 1.1.148 1.483.447.387.297.634.72.742 1.27l-.92.136c-.087-.363-.242-.638-.466-.82-.222-.185-.49-.275-.806-.275-.48 0-.863.165-1.162.497-.297.33-.445.856-.445 1.575 0 .728.145 1.258.432 1.588.287.328.662.494 1.125.494.37 0 .682-.11.93-.33.245-.225.403-.565.47-1.024zM312.22 8.726l.93.117c-.103.623-.362 1.11-.78 1.46-.417.355-.934.53-1.542.53-.763 0-1.376-.24-1.84-.726-.464-.486-.696-1.184-.696-2.088 0-.585.104-1.1.3-1.536.2-.44.505-.77.91-.99.41-.22.855-.328 1.333-.328.604 0 1.102.148 1.484.447.387.297.632.72.74 1.27l-.92.136c-.088-.363-.24-.638-.466-.82-.222-.185-.49-.275-.807-.275-.477 0-.862.165-1.16.497-.298.33-.445.856-.445 1.575 0 .728.145 1.258.43 1.588.29.328.662.494 1.125.494.37 0 .684-.11.93-.33.247-.225.403-.565.472-1.024z"/></g><linearGradient id="a" gradientUnits="userSpaceOnUse" x1="539" y1="-296.275" x2="539" y2="-283.726" gradientTransform="matrix(1 0 0 -1 -231 -282)"><stop offset="0" stop-color="#DEDEDE"/><stop offset=".503" stop-color="#fff"/></linearGradient><path fill="url(#a)" d="M301.547 2.77h12.906v10.46h-12.906V2.77zm-1.076-1.044v12.55h15.06V1.725h-15.06z"/><path fill="#E6E7E8" d="M0 16V0l16 8-16 8z"/><linearGradient id="b" gradientUnits="userSpaceOnUse" x1="238.719" y1="-297.334" x2="238.719" y2="-282.802" gradientTransform="matrix(1 0 0 -1 -231 -282)"><stop offset="0" stop-color="#DEDEDE"/><stop offset=".503" stop-color="#fff"/></linearGradient><path fill="url(#b)" d="M14.984 8L.454 15.267V.734z"/><path fill="#E6E7E8" d="M34.706 16H30V0h4.706v16zM43.49 16h-4.706V0h4.706v16z"/><linearGradient id="c" gradientUnits="userSpaceOnUse" x1="263.353" y1="-297.529" x2="263.353" y2="-282.471" gradientTransform="matrix(1 0 0 -1 -231 -282)"><stop offset="0" stop-color="#DEDEDE"/><stop offset=".503" stop-color="#fff"/></linearGradient><path fill="url(#c)" d="M30.47.47h3.766v15.06H30.47z"/><linearGradient id="d" gradientUnits="userSpaceOnUse" x1="272.137" y1="-297.529" x2="272.137" y2="-282.471" gradientTransform="matrix(1 0 0 -1 -231 -282)"><stop offset="0" stop-color="#DEDEDE"/><stop offset=".503" stop-color="#fff"/></linearGradient><path fill="url(#d)" d="M39.254.47h3.765v15.06h-3.766z"/><path fill="#E6E7E8" d="M226 16h-7.88l3.163-3.165-2.618-2.617 1.553-1.552 2.618 2.617L226 8.118V16zM217.88 16H210V8.118l3.164 3.165 2.618-2.617 1.553 1.552-2.617 2.617L217.88 16zM210 7.882V0h7.88l-3.164 3.166 2.62 2.617-1.555 1.55-2.617-2.615L210 7.882zM226 7.882l-3.163-3.164-2.618 2.617-1.555-1.552 2.62-2.617L218.118 0H226v7.882z"/><linearGradient id="e" gradientUnits="userSpaceOnUse" x1="453.393" y1="-297.529" x2="453.393" y2="-291.255" gradientTransform="matrix(1 0 0 -1 -231 -282)"><stop offset="0" stop-color="#DEDEDE"/><stop offset=".503" stop-color="#fff"/></linearGradient><path fill="url(#e)" d="M220.218 9.332l-.886.886 2.616 2.617-2.693 2.694h6.274V9.254l-2.694 2.693z"/><linearGradient id="f" gradientUnits="userSpaceOnUse" x1="444.607" y1="-297.529" x2="444.607" y2="-291.255" gradientTransform="matrix(1 0 0 -1 -231 -282)"><stop offset="0" stop-color="#DEDEDE"/><stop offset=".503" stop-color="#fff"/></linearGradient><path fill="url(#f)" d="M216.67 10.218l-.888-.886-2.618 2.616-2.693-2.693v6.274h6.274l-2.69-2.695z"/><linearGradient id="g" gradientUnits="userSpaceOnUse" x1="444.607" y1="-288.745" x2="444.607" y2="-282.471" gradientTransform="matrix(1 0 0 -1 -231 -282)"><stop offset="0" stop-color="#DEDEDE"/><stop offset=".503" stop-color="#fff"/></linearGradient><path fill="url(#g)" d="M210.47 6.745l2.693-2.692 2.618 2.616.89-.887-2.62-2.617L216.744.47h-6.273z"/><linearGradient id="h" gradientUnits="userSpaceOnUse" x1="453.393" y1="-288.745" x2="453.393" y2="-282.471" gradientTransform="matrix(1 0 0 -1 -231 -282)"><stop offset="0" stop-color="#DEDEDE"/><stop offset=".503" stop-color="#fff"/></linearGradient><path fill="url(#h)" d="M219.255.47l2.695 2.696-2.618 2.617.887.886 2.617-2.617 2.692 2.692V.47z"/><path fill="#E6E7E8" d="M76 16H60V0h16v16z"/><linearGradient id="i" gradientUnits="userSpaceOnUse" x1="299" y1="-297.529" x2="299" y2="-282.471" gradientTransform="matrix(1 0 0 -1 -231 -282)"><stop offset="0" stop-color="#DEDEDE"/><stop offset=".503" stop-color="#fff"/></linearGradient><path fill="url(#i)" d="M60.47.47h15.06v15.06H60.47z"/><path fill="#E6E7E8" d="M282.302 15.205h-8.604c-2.04 0-3.697-1.658-3.697-3.697V7.206c0-2.04 1.66-3.697 3.698-3.697h2.085V6.6h-2.085c-.335 0-.605.27-.605.604v4.302c0 .334.27.605.605.605h8.604c.333 0 .606-.27.606-.605V7.206c0-.334-.273-.604-.606-.604h-.782v2.68l-5.002-4.243L281.52.794V3.51h.782c2.04 0 3.698 1.658 3.698 3.697v4.303c0 2.037-1.66 3.695-3.698 3.695z"/><linearGradient id="j" gradientUnits="userSpaceOnUse" x1="509" y1="-296.719" x2="509" y2="-283.793" gradientTransform="matrix(1 0 0 -1 -231 -282)"><stop offset="0" stop-color="#DEDEDE"/><stop offset=".503" stop-color="#fff"/></linearGradient><path fill="url(#j)" d="M282.302 3.96h-1.254V1.793l-3.803 3.228 3.803 3.23V6.11h1.254c.593 0 1.077.482 1.077 1.077v4.303c0 .592-.485 1.076-1.078 1.076h-8.604c-.593 0-1.076-.484-1.076-1.076V7.187c0-.594.483-1.076 1.076-1.076h1.614V3.96h-1.614c-1.78 0-3.228 1.447-3.228 3.23v4.302c0 1.78 1.446 3.227 3.228 3.227h8.604c1.78 0 3.228-1.446 3.228-3.228V7.187c0-1.78-1.45-3.227-3.228-3.227z"/><path fill="#E6E7E8" d="M136 8l-11.11-6.94v3.055L120 1.06v13.88l4.89-3.055v3.056z"/><linearGradient id="k" gradientUnits="userSpaceOnUse" x1="356.35" y1="-296.115" x2="356.35" y2="-283.885" gradientTransform="matrix(1 0 0 -1 -231 -282)"><stop offset="0" stop-color="#DEDEDE"/><stop offset=".503" stop-color="#fff"/></linearGradient><path fill="url(#k)" d="M130.242 8l-9.784 6.115V1.885z"/><linearGradient id="l" gradientUnits="userSpaceOnUse" x1="361.242" y1="-296.115" x2="361.242" y2="-283.885" gradientTransform="matrix(1 0 0 -1 -231 -282)"><stop offset="0" stop-color="#DEDEDE"/><stop offset=".503" stop-color="#fff"/></linearGradient><path fill="url(#l)" d="M135.135 8l-9.785 6.115V1.885z"/><path fill="#E6E7E8" d="M106 1.057l-4.892 3.06v-3.06L90 8l11.108 6.943v-3.058L106 14.943V1.057z"/><linearGradient id="m" gradientUnits="userSpaceOnUse" x1="331.648" y1="-296.115" x2="331.648" y2="-283.885" gradientTransform="matrix(1 0 0 -1 -231 -282)"><stop offset="0" stop-color="#DEDEDE"/><stop offset=".503" stop-color="#fff"/></linearGradient><path fill="url(#m)" d="M105.54 1.885v12.23L95.758 8z"/><linearGradient id="n" gradientUnits="userSpaceOnUse" x1="326.758" y1="-296.115" x2="326.758" y2="-283.885" gradientTransform="matrix(1 0 0 -1 -231 -282)"><stop offset="0" stop-color="#DEDEDE"/><stop offset=".503" stop-color="#fff"/></linearGradient><path fill="url(#n)" d="M100.65 1.885v12.23L90.864 8z"/><path fill="#E6E7E8" d="M247.275 7.276H240l2.923-2.922-2.42-2.416L241.94.505l2.418 2.415 2.92-2.92v7.276h-.003zM247.275 16l-2.922-2.922-2.416 2.416-1.435-1.434 2.417-2.416-2.92-2.92h7.275V16zM256 7.276h-7.275V0l2.92 2.92 2.418-2.415 1.436 1.433-2.42 2.416L256 7.276zM248.725 16V8.725H256l-2.92 2.922 2.416 2.416-1.436 1.434-2.416-2.416-2.92 2.92z"/><linearGradient id="o" gradientUnits="userSpaceOnUse" x1="474.945" y1="-288.842" x2="474.945" y2="-283.049" gradientTransform="matrix(1 0 0 -1 -231 -282)"><stop offset="0" stop-color="#DEDEDE"/><stop offset=".503" stop-color="#fff"/></linearGradient><path fill="url(#o)" d="M241.94 1.12l-.82.818 2.417 2.416-2.488 2.488h5.792V1.05l-2.487 2.484z"/><linearGradient id="p" gradientUnits="userSpaceOnUse" x1="474.945" y1="-296.951" x2="474.945" y2="-291.158" gradientTransform="matrix(1 0 0 -1 -231 -282)"><stop offset="0" stop-color="#DEDEDE"/><stop offset=".503" stop-color="#fff"/></linearGradient><path fill="url(#p)" d="M243.536 11.646l-2.417 2.417.818.817 2.416-2.416 2.488 2.487V9.16h-5.793z"/><linearGradient id="q" gradientUnits="userSpaceOnUse" x1="483.055" y1="-288.842" x2="483.055" y2="-283.049" gradientTransform="matrix(1 0 0 -1 -231 -282)"><stop offset="0" stop-color="#DEDEDE"/><stop offset=".503" stop-color="#fff"/></linearGradient><path fill="url(#q)" d="M252.463 4.354l2.42-2.416-.82-.82-2.418 2.416-2.486-2.485V6.84h5.79z"/><linearGradient id="r" gradientUnits="userSpaceOnUse" x1="483.055" y1="-296.951" x2="483.055" y2="-291.158" gradientTransform="matrix(1 0 0 -1 -231 -282)"><stop offset="0" stop-color="#DEDEDE"/><stop offset=".503" stop-color="#fff"/></linearGradient><path fill="url(#r)" d="M249.16 9.158v5.793l2.486-2.486 2.417 2.416.82-.817-2.418-2.417 2.486-2.488z"/><path fill="#E6E7E8" d="M160.377 0l-5.335 4.003H150v8.006h4.942l5.435 3.99z"/><linearGradient id="s" gradientUnits="userSpaceOnUse" x1="383.514" y1="-293.56" x2="383.514" y2="-286.443" gradientTransform="matrix(1 0 0 -1 -231 -282)"><stop offset="0" stop-color="#DEDEDE"/><stop offset=".503" stop-color="#fff"/></linearGradient><path fill="url(#s)" d="M150.444 4.443h4.14v7.117h-4.14z"/><linearGradient id="t" gradientUnits="userSpaceOnUse" x1="388.562" y1="-297.116" x2="388.562" y2="-282.884" gradientTransform="matrix(1 0 0 -1 -231 -282)"><stop offset="0" stop-color="#DEDEDE"/><stop offset=".503" stop-color="#fff"/></linearGradient><path fill="url(#t)" d="M155.19 4.444l4.743-3.56v14.232l-4.744-3.482v-7.19z"/><linearGradient id="u" gradientUnits="userSpaceOnUse" x1="624.475" y1="604" x2="628" y2="604" gradientTransform="translate(-462 -596)"><stop offset="0" stop-color="#DEDEDE"/><stop offset=".503" stop-color="#fff"/></linearGradient><path fill="url(#u)" d="M162.958 13.438l-.484-.875C164.034 11.7 165 9.95 165 8s-.968-3.7-2.526-4.563l.484-.875C164.834 3.602 166 5.686 166 8c0 2.314-1.166 4.398-3.042 5.438z"/><linearGradient id="v" gradientUnits="userSpaceOnUse" x1="623.475" y1="604" x2="625.674" y2="604" gradientTransform="translate(-462 -596)"><stop offset="0" stop-color="#DEDEDE"/><stop offset=".503" stop-color="#fff"/></linearGradient><path fill="url(#v)" d="M161.958 11.055l-.482-.875c.728-.402 1.198-1.257 1.198-2.18 0-.934-.46-1.77-1.2-2.18l.485-.875c1.057.586 1.714 1.757 1.714 3.056 0 1.3-.658 2.47-1.716 3.055z"/><path fill="#DF1000" d="M192.414 10.348l-1.107-1.112L192.544 8l-1.237-1.24 1.106-1.107 1.24 1.24 1.236-1.24L196 6.76 194.76 8 196 9.236l-1.11 1.112-1.238-1.24z"/><path fill="#E6E7E8" d="M190.377 0l-5.336 4.003H180v8.007h4.942l5.435 3.99z"/><linearGradient id="w" gradientUnits="userSpaceOnUse" x1="413.514" y1="-293.56" x2="413.514" y2="-286.443" gradientTransform="matrix(1 0 0 -1 -231 -282)"><stop offset="0" stop-color="#DEDEDE"/><stop offset=".503" stop-color="#fff"/></linearGradient><path fill="url(#w)" d="M180.443 4.443h4.14v7.117h-4.14z"/><linearGradient id="x" gradientUnits="userSpaceOnUse" x1="418.562" y1="-297.117" x2="418.562" y2="-282.884" gradientTransform="matrix(1 0 0 -1 -231 -282)"><stop offset="0" stop-color="#DEDEDE"/><stop offset=".503" stop-color="#fff"/></linearGradient><path fill="url(#x)" d="M185.19 4.443l4.743-3.56v14.233l-4.744-3.482v-7.19z"/></svg>