<svg xmlns="http://www.w3.org/2000/svg" width="632" height="32" viewBox="0 0 632 32"><path fill="#fff" d="M604.035 25.516V6.484h23.93v19.03h-23.93z"/><path fill="#E6E7E8" d="M623.62 16.4l-.13.914c-.1.688-.313 1.186-.64 1.475-.315.292-.722.42-1.23.42-.656 0-1.145-.204-1.54-.663-.413-.475-.628-1.36-.628-2.557 0-1.196.217-2.042.656-2.524.414-.466.926-.684 1.62-.684.42 0 .73.11 1.017.34.29.23.49.614.617 1.13l.2.84 3.677-.544-.202-.968c-.262-1.322-.875-2.368-1.828-3.098-.938-.723-2.13-1.09-3.545-1.09-1.11 0-2.156.258-3.115.77-.996.538-1.746 1.35-2.227 2.418-.076.166-.11.364-.17.54-.31-1.1-.865-1.996-1.7-2.636-.94-.723-2.13-1.09-3.544-1.09-1.114 0-2.16.258-3.114.77-1 .54-1.754 1.354-2.23 2.416-.454.994-.685 2.158-.685 3.462 0 2.05.55 3.673 1.653 4.82 1.105 1.16 2.574 1.747 4.363 1.747 1.44 0 2.686-.433 3.672-1.28.723-.61 1.248-1.396 1.58-2.336.273.713.643 1.346 1.14 1.87 1.108 1.157 2.573 1.745 4.362 1.745 1.445 0 2.69-.435 3.674-1.282 1.006-.846 1.643-2.027 1.88-3.494l.157-.96-3.74-.474zm-10.753 0l-.135.914c-.1.688-.313 1.186-.633 1.47-.323.288-.726.427-1.233.427-.656 0-1.148-.204-1.543-.663-.412-.475-.63-1.36-.63-2.557 0-1.176.224-2.048.65-2.524.417-.464.937-.684 1.624-.684.414 0 .738.11 1.02.336.293.235.488.618.617 1.136l.207.838 2.957-.44c-.064.45-.128.898-.128 1.387 0 .25.035.475.05.715l-2.825-.355zM600 2.51v26.98h32V2.51h-32zm4.035 23.006V6.484h23.93v19.03h-23.93z"/><linearGradient id="a" gradientUnits="userSpaceOnUse" x1="1765.687" y1="-1477.383" x2="1765.687" y2="-1502.484" gradientTransform="matrix(1 0 0 -1 -1155 -1474)"><stop offset="0" stop-color="#6D6E71"/><stop offset="1" stop-color="#3C3C3C"/></linearGradient><path fill="url(#a)" d="M613.682 17.453l1.857.232c-.204 1.246-.714 2.22-1.55 2.924-.842.706-1.877 1.058-3.084 1.058-1.535 0-2.756-.484-3.688-1.453-.93-.973-1.385-2.373-1.385-4.177 0-1.168.21-2.196.598-3.07.397-.878 1.007-1.54 1.823-1.98.814-.437 1.707-.655 2.664-.655 1.207 0 2.207.296 2.96.894.78.595 1.274 1.44 1.485 2.54l-1.84.272c-.174-.725-.484-1.275-.932-1.64-.443-.37-.982-.55-1.61-.55-.958 0-1.728.33-2.325.994-.594.66-.89 1.712-.89 3.15 0 1.455.288 2.516.862 3.176.574.656 1.324.988 2.25.988.742 0 1.37-.217 1.867-.66.486-.447.803-1.127.938-2.045z"/><linearGradient id="b" gradientUnits="userSpaceOnUse" x1="1776.442" y1="-1477.383" x2="1776.442" y2="-1502.484" gradientTransform="matrix(1 0 0 -1 -1155 -1474)"><stop offset="0" stop-color="#6D6E71"/><stop offset="1" stop-color="#3C3C3C"/></linearGradient><path fill="url(#b)" d="M624.438 17.453l1.86.232c-.204 1.246-.718 2.22-1.554 2.924-.834.706-1.873 1.058-3.084 1.058-1.53 0-2.752-.484-3.688-1.453-.926-.973-1.385-2.373-1.385-4.177 0-1.168.21-2.196.598-3.07.402-.878 1.018-1.54 1.824-1.98.815-.437 1.708-.655 2.663-.655 1.21 0 2.21.296 2.963.894.78.595 1.27 1.44 1.484 2.54l-1.844.272c-.174-.725-.48-1.275-.93-1.64-.443-.37-.98-.55-1.613-.55-.953 0-1.725.33-2.318.994-.598.66-.893 1.712-.893 3.15 0 1.455.293 2.516.86 3.176.577.656 1.323.988 2.25.988.737 0 1.372-.217 1.864-.66.492-.447.805-1.127.942-2.045z"/><linearGradient id="c" gradientUnits="userSpaceOnUse" x1="1771" y1="-1477.452" x2="1771" y2="-1502.551" gradientTransform="matrix(1 0 0 -1 -1155 -1474)"><stop offset="0" stop-color="#6D6E71"/><stop offset="1" stop-color="#3C3C3C"/></linearGradient><path fill="url(#c)" d="M603.094 5.542h25.813v20.915h-25.813V5.542zm-2.153-2.09v25.1h30.118V3.45H600.94z"/><path fill="#E6E7E8" d="M0 32V0l32 16L0 32z"/><linearGradient id="d" gradientUnits="userSpaceOnUse" x1="1170.438" y1="-1475.47" x2="1170.438" y2="-1504.531" gradientTransform="matrix(1 0 0 -1 -1155 -1474)"><stop offset="0" stop-color="#6D6E71"/><stop offset="1" stop-color="#3C3C3C"/></linearGradient><path fill="url(#d)" d="M29.968 16.002L.908 30.532V1.47z"/><path fill="#E6E7E8" d="M69.412 32H60V0h9.412v32zM86.98 32h-9.412V0h9.412v32z"/><linearGradient id="e" gradientUnits="userSpaceOnUse" x1="1219.707" y1="-1474.942" x2="1219.707" y2="-1505.059" gradientTransform="matrix(1 0 0 -1 -1155 -1474)"><stop offset="0" stop-color="#6D6E71"/><stop offset="1" stop-color="#3C3C3C"/></linearGradient><path fill="url(#e)" d="M60.942.942h7.53v30.116h-7.53z"/><linearGradient id="f" gradientUnits="userSpaceOnUse" x1="1237.273" y1="-1474.942" x2="1237.273" y2="-1505.059" gradientTransform="matrix(1 0 0 -1 -1155 -1474)"><stop offset="0" stop-color="#6D6E71"/><stop offset="1" stop-color="#3C3C3C"/></linearGradient><path fill="url(#f)" d="M78.508.942h7.53v30.116h-7.53z"/><path fill="#E6E7E8" d="M452 32h-15.762l6.328-6.33-5.236-5.234 3.105-3.104 5.236 5.234 6.33-6.33V32zM435.762 32H420V16.236l6.328 6.33 5.236-5.234 3.105 3.104-5.235 5.234 6.327 6.33zM420 15.764V0h15.762l-6.33 6.332 5.24 5.234-3.11 3.102-5.235-5.232L420 15.764zM452 15.764l-6.326-6.328-5.236 5.234-3.107-3.104 5.24-5.234L436.237 0H452v15.764z"/><linearGradient id="g" gradientUnits="userSpaceOnUse" x1="1599.784" y1="-1474.938" x2="1599.784" y2="-1505.071" gradientTransform="matrix(1 0 0 -1 -1155 -1474)"><stop offset="0" stop-color="#6D6E71"/><stop offset="1" stop-color="#3C3C3C"/></linearGradient><path fill="url(#g)" d="M440.436 18.664l-1.772 1.772 5.232 5.234-5.386 5.39h12.55V18.51l-5.388 5.386z"/><linearGradient id="h" gradientUnits="userSpaceOnUse" x1="1582.215" y1="-1474.938" x2="1582.215" y2="-1505.071" gradientTransform="matrix(1 0 0 -1 -1155 -1474)"><stop offset="0" stop-color="#6D6E71"/><stop offset="1" stop-color="#3C3C3C"/></linearGradient><path fill="url(#h)" d="M433.338 20.436l-1.774-1.772-5.236 5.232-5.387-5.386v12.55h12.548l-5.383-5.39z"/><linearGradient id="i" gradientUnits="userSpaceOnUse" x1="1582.215" y1="-1474.942" x2="1582.215" y2="-1505.057" gradientTransform="matrix(1 0 0 -1 -1155 -1474)"><stop offset="0" stop-color="#6D6E71"/><stop offset="1" stop-color="#3C3C3C"/></linearGradient><path fill="url(#i)" d="M420.94 13.49l5.386-5.384 5.237 5.232 1.775-1.772-5.238-5.234 5.388-5.39H420.94z"/><linearGradient id="j" gradientUnits="userSpaceOnUse" x1="1599.784" y1="-1474.942" x2="1599.784" y2="-1505.057" gradientTransform="matrix(1 0 0 -1 -1155 -1474)"><stop offset="0" stop-color="#6D6E71"/><stop offset="1" stop-color="#3C3C3C"/></linearGradient><path fill="url(#j)" d="M438.51.942l5.39 5.39-5.236 5.234 1.774 1.772 5.236-5.232 5.385 5.384V.942z"/><path fill="#E6E7E8" d="M152 32h-32V0h32v32z"/><linearGradient id="k" gradientUnits="userSpaceOnUse" x1="1290.999" y1="-1474.942" x2="1290.999" y2="-1505.059" gradientTransform="matrix(1 0 0 -1 -1155 -1474)"><stop offset="0" stop-color="#6D6E71"/><stop offset="1" stop-color="#3C3C3C"/></linearGradient><path fill="url(#k)" d="M120.94.942h30.117v30.116H120.94z"/><path fill="#E6E7E8" d="M564.604 30.41h-17.207c-4.078 0-7.395-3.316-7.395-7.395V14.41c0-4.077 3.316-7.394 7.395-7.394h4.17v6.187h-4.17c-.67 0-1.21.542-1.21 1.208v8.605c0 .668.54 1.21 1.21 1.21h17.207c.666 0 1.213-.542 1.213-1.21V14.41c0-.667-.547-1.207-1.213-1.207h-1.564v5.36l-10.004-8.486L563.04 1.59v5.43h1.564c4.078 0 7.396 3.315 7.396 7.394v8.605c0 4.074-3.318 7.39-7.396 7.39z"/><linearGradient id="l" gradientUnits="userSpaceOnUse" x1="1711" y1="-1477.624" x2="1711" y2="-1503.473" gradientTransform="matrix(1 0 0 -1 -1155 -1474)"><stop offset="0" stop-color="#6D6E71"/><stop offset="1" stop-color="#3C3C3C"/></linearGradient><path fill="url(#l)" d="M564.604 7.956h-2.508V3.624l-7.605 6.454 7.606 6.454v-4.274h2.508c1.186 0 2.154.962 2.154 2.152v8.604c0 1.19-.97 2.152-2.154 2.152h-17.207c-1.186 0-2.152-.963-2.152-2.152v-8.602c0-1.19.967-2.152 2.152-2.152h3.23v-4.3h-3.23c-3.56 0-6.455 2.892-6.455 6.454v8.605c0 3.558 2.887 6.452 6.455 6.452h17.207c3.56 0 6.455-2.885 6.455-6.453V14.41c0-3.56-2.898-6.456-6.456-6.456z"/><path fill="#E6E7E8" d="M272 16L249.782 2.118V8.23L240 2.118v27.765l9.782-6.113v6.113z"/><linearGradient id="m" gradientUnits="userSpaceOnUse" x1="1405.7" y1="-1477.77" x2="1405.7" y2="-1502.228" gradientTransform="matrix(1 0 0 -1 -1155 -1474)"><stop offset="0" stop-color="#6D6E71"/><stop offset="1" stop-color="#3C3C3C"/></linearGradient><path fill="url(#m)" d="M260.484 16l-19.568 12.23V3.77z"/><linearGradient id="n" gradientUnits="userSpaceOnUse" x1="1415.484" y1="-1477.77" x2="1415.484" y2="-1502.228" gradientTransform="matrix(1 0 0 -1 -1155 -1474)"><stop offset="0" stop-color="#6D6E71"/><stop offset="1" stop-color="#3C3C3C"/></linearGradient><path fill="url(#n)" d="M270.27 16L250.7 28.23V3.77z"/><path fill="#E6E7E8" d="M212 2.114l-9.784 6.116V2.114L180 16l22.216 13.887V23.77L212 29.888z"/><linearGradient id="o" gradientUnits="userSpaceOnUse" x1="1356.298" y1="-1477.772" x2="1356.298" y2="-1502.23" gradientTransform="matrix(1 0 0 -1 -1155 -1474)"><stop offset="0" stop-color="#6D6E71"/><stop offset="1" stop-color="#3C3C3C"/></linearGradient><path fill="url(#o)" d="M211.082 3.77v24.46l-19.568-12.228z"/><linearGradient id="p" gradientUnits="userSpaceOnUse" x1="1346.514" y1="-1477.772" x2="1346.514" y2="-1502.23" gradientTransform="matrix(1 0 0 -1 -1155 -1474)"><stop offset="0" stop-color="#6D6E71"/><stop offset="1" stop-color="#3C3C3C"/></linearGradient><path fill="url(#p)" d="M201.298 3.77v24.46L181.73 16.002z"/><path fill="#E6E7E8" d="M494.55 14.552H480l5.846-5.844-4.838-4.832 2.87-2.866 4.837 4.83 5.84-5.84v14.552h-.004zM494.55 32l-5.843-5.844-4.832 4.832L481 28.12l4.834-4.83L480 17.45h14.55V32zM512 14.552h-14.55V0l5.84 5.84 4.835-4.83 2.877 2.866-4.836 4.832L512 14.552zM497.45 32V17.45H512l-5.842 5.843 4.834 4.832-2.87 2.873-4.833-4.832L497.45 32z"/><linearGradient id="q" gradientUnits="userSpaceOnUse" x1="1642.891" y1="-1476.098" x2="1642.891" y2="-1503.903" gradientTransform="matrix(1 0 0 -1 -1155 -1474)"><stop offset="0" stop-color="#6D6E71"/><stop offset="1" stop-color="#3C3C3C"/></linearGradient><path fill="url(#q)" d="M483.88 2.238l-1.642 1.638 4.836 4.832-4.976 4.976h11.586V2.098l-4.973 4.97z"/><linearGradient id="r" gradientUnits="userSpaceOnUse" x1="1642.891" y1="-1476.098" x2="1642.891" y2="-1503.904" gradientTransform="matrix(1 0 0 -1 -1155 -1474)"><stop offset="0" stop-color="#6D6E71"/><stop offset="1" stop-color="#3C3C3C"/></linearGradient><path fill="url(#r)" d="M487.072 23.293l-4.834 4.832 1.637 1.635 4.832-4.832 4.977 4.974V18.316h-11.586z"/><linearGradient id="s" gradientUnits="userSpaceOnUse" x1="1659.11" y1="-1476.098" x2="1659.11" y2="-1503.903" gradientTransform="matrix(1 0 0 -1 -1155 -1474)"><stop offset="0" stop-color="#6D6E71"/><stop offset="1" stop-color="#3C3C3C"/></linearGradient><path fill="url(#s)" d="M504.926 8.708l4.838-4.832-1.64-1.638-4.835 4.83-4.972-4.97v11.586h11.584z"/><linearGradient id="t" gradientUnits="userSpaceOnUse" x1="1659.11" y1="-1476.098" x2="1659.11" y2="-1503.904" gradientTransform="matrix(1 0 0 -1 -1155 -1474)"><stop offset="0" stop-color="#6D6E71"/><stop offset="1" stop-color="#3C3C3C"/></linearGradient><path fill="url(#t)" d="M498.318 18.316v11.586l4.975-4.974 4.832 4.832 1.64-1.635-4.835-4.832 4.972-4.977z"/><path fill="#E6E7E8" d="M320.754 0l-10.67 8.006H300v16.012h9.884L320.754 32z"/><linearGradient id="u" gradientUnits="userSpaceOnUse" x1="1460.402" y1="-1475.77" x2="1460.402" y2="-1504.233" gradientTransform="matrix(1 0 0 -1 -1155 -1474)"><stop offset="0" stop-color="#6D6E71"/><stop offset="1" stop-color="#3C3C3C"/></linearGradient><path fill="url(#u)" d="M300.888 8.886h9.03v14.23h-9.03z"/><linearGradient id="v" gradientUnits="userSpaceOnUse" x1="1470.122" y1="-1475.766" x2="1470.122" y2="-1504.23" gradientTransform="matrix(1 0 0 -1 -1155 -1474)"><stop offset="0" stop-color="#6D6E71"/><stop offset="1" stop-color="#3C3C3C"/></linearGradient><path fill="url(#v)" d="M310.378 8.886l9.488-7.12V30.23l-9.488-6.965V8.885z"/><linearGradient id="w" gradientUnits="userSpaceOnUse" x1="1479.948" y1="-1489.999" x2="1487" y2="-1489.999" gradientTransform="matrix(1 0 0 -1 -1155 -1474)"><stop offset="0" stop-color="#6D6E71"/><stop offset="1" stop-color="#3C3C3C"/></linearGradient><path fill="url(#w)" d="M325.916 26.875l-.968-1.75C328.066 23.398 330 19.902 330 16s-1.936-7.398-5.052-9.126l.968-1.75C329.668 7.204 332 11.372 332 16c0 4.63-2.332 8.797-6.084 10.875z"/><linearGradient id="x" gradientUnits="userSpaceOnUse" x1="1477.95" y1="-1489.999" x2="1482.348" y2="-1489.999" gradientTransform="matrix(1 0 0 -1 -1155 -1474)"><stop offset="0" stop-color="#6D6E71"/><stop offset="1" stop-color="#3C3C3C"/></linearGradient><path fill="url(#x)" d="M323.916 22.11l-.964-1.75c1.456-.806 2.396-2.515 2.396-4.358 0-1.87-.92-3.542-2.397-4.362l.97-1.75c2.115 1.173 3.43 3.515 3.43 6.112-.004 2.6-1.318 4.94-3.434 6.107z"/><path fill="#DF1000" d="M384.828 20.695l-2.215-2.222L385.088 16l-2.475-2.48 2.213-2.214 2.48 2.478 2.47-2.478L392 13.52 389.52 16l2.48 2.473-2.22 2.222-2.475-2.48z"/><path fill="#E6E7E8" d="M380.754 0l-10.67 8.006H360v16.012h9.883L380.753 32z"/><linearGradient id="y" gradientUnits="userSpaceOnUse" x1="1520.402" y1="-1475.77" x2="1520.402" y2="-1504.233" gradientTransform="matrix(1 0 0 -1 -1155 -1474)"><stop offset="0" stop-color="#6D6E71"/><stop offset="1" stop-color="#3C3C3C"/></linearGradient><path fill="url(#y)" d="M360.887 8.886h9.03v14.23h-9.03z"/><linearGradient id="z" gradientUnits="userSpaceOnUse" x1="1530.123" y1="-1475.766" x2="1530.123" y2="-1504.23" gradientTransform="matrix(1 0 0 -1 -1155 -1474)"><stop offset="0" stop-color="#6D6E71"/><stop offset="1" stop-color="#3C3C3C"/></linearGradient><path fill="url(#z)" d="M370.38 8.886l9.487-7.12V30.23l-9.488-6.965V8.885z"/></svg>