<svg xmlns="http://www.w3.org/2000/svg" width="632" height="32" viewBox="0 0 632 32"><path fill="#FFF" d="M604.035 25.516V6.484h23.93v19.031h-23.93z"/><path fill="#E6E7E8" d="M623.621 16.4l-.131.914c-.1.688-.313 1.186-.641 1.475-.314.293-.721.422-1.229.422-.656 0-1.145-.205-1.541-.664-.412-.475-.627-1.359-.627-2.557 0-1.196.217-2.042.656-2.524.414-.466.926-.684 1.621-.684.418 0 .73.109 1.016.34.289.229.49.614.617 1.13l.201.84 3.676-.544-.201-.968c-.262-1.322-.875-2.368-1.828-3.098-.938-.723-2.131-1.091-3.545-1.091a6.534 6.534 0 0 0-3.115.771c-.996.538-1.746 1.35-2.227 2.418-.076.166-.109.364-.17.54-.309-1.101-.865-1.996-1.701-2.636-.938-.723-2.129-1.091-3.543-1.091a6.509 6.509 0 0 0-3.113.771 5.007 5.007 0 0 0-2.229 2.416c-.455.994-.686 2.158-.686 3.462 0 2.05.549 3.673 1.652 4.821 1.105 1.158 2.574 1.746 4.363 1.746 1.441 0 2.686-.432 3.672-1.279.723-.611 1.248-1.396 1.58-2.336.273.713.643 1.346 1.139 1.869 1.109 1.158 2.574 1.746 4.363 1.746 1.445 0 2.689-.434 3.674-1.281 1.006-.846 1.643-2.027 1.881-3.494l.156-.96-3.74-.474zm-10.754 0l-.135.914c-.1.688-.313 1.186-.633 1.471-.322.287-.725.426-1.232.426-.656 0-1.148-.205-1.543-.664-.412-.475-.629-1.361-.629-2.557 0-1.176.223-2.048.648-2.524.418-.464.938-.684 1.625-.684.414 0 .738.109 1.02.336.293.235.488.618.617 1.136l.207.838 2.957-.439c-.063.449-.127.897-.127 1.386 0 .25.035.476.049.716l-2.824-.355z"/><path fill="#E6E7E8" d="M600 2.51v26.98h32V2.51h-32zm4.035 23.006V6.484h23.93v19.031h-23.93z"/><linearGradient id="a" gradientUnits="userSpaceOnUse" x1="1765.687" y1="-1477.383" x2="1765.687" y2="-1502.484" gradientTransform="matrix(1 0 0 -1 -1155 -1474)"><stop offset="0" stop-color="#6d6e71"/><stop offset="1" stop-color="#3c3c3c"/></linearGradient><path fill="url(#a)" d="M613.682 17.453l1.857.232c-.203 1.246-.713 2.221-1.549 2.924-.842.707-1.877 1.059-3.084 1.059-1.535 0-2.756-.484-3.688-1.453-.93-.973-1.385-2.373-1.385-4.177 0-1.168.209-2.196.598-3.07.396-.878 1.006-1.54 1.822-1.979a5.546 5.546 0 0 1 2.664-.656c1.207 0 2.207.296 2.961.894.779.595 1.273 1.44 1.484 2.54l-1.84.272c-.174-.724-.484-1.274-.932-1.638-.443-.37-.982-.551-1.611-.551-.957 0-1.727.33-2.324.994-.594.66-.891 1.712-.891 3.15 0 1.455.289 2.516.863 3.176.574.656 1.324.988 2.25.988.742 0 1.369-.217 1.867-.66.486-.447.803-1.127.938-2.045z"/><linearGradient id="b" gradientUnits="userSpaceOnUse" x1="1776.442" y1="-1477.383" x2="1776.442" y2="-1502.484" gradientTransform="matrix(1 0 0 -1 -1155 -1474)"><stop offset="0" stop-color="#6d6e71"/><stop offset="1" stop-color="#3c3c3c"/></linearGradient><path fill="url(#b)" d="M624.438 17.453l1.859.232c-.203 1.246-.717 2.221-1.553 2.924-.834.707-1.873 1.059-3.084 1.059-1.531 0-2.752-.484-3.688-1.453-.926-.973-1.385-2.373-1.385-4.177 0-1.168.209-2.196.598-3.07.402-.878 1.018-1.54 1.824-1.979a5.558 5.558 0 0 1 2.664-.656c1.209 0 2.209.296 2.963.894.781.595 1.271 1.44 1.484 2.54l-1.844.272c-.174-.724-.48-1.274-.93-1.638-.443-.37-.98-.551-1.613-.551-.953 0-1.725.33-2.318.994-.598.66-.893 1.712-.893 3.15 0 1.455.293 2.516.859 3.176.578.656 1.324.988 2.25.988.738 0 1.373-.217 1.865-.66.492-.447.805-1.127.942-2.045z"/><linearGradient id="c" gradientUnits="userSpaceOnUse" x1="1771" y1="-1477.452" x2="1771" y2="-1502.551" gradientTransform="matrix(1 0 0 -1 -1155 -1474)"><stop offset="0" stop-color="#6d6e71"/><stop offset="1" stop-color="#3c3c3c"/></linearGradient><path fill="url(#c)" d="M603.094 5.542h25.813v20.915h-25.813V5.542zm-2.153-2.09v25.099h30.117V3.452h-30.117z"/><path fill="#E6E7E8" d="M0 32V0l32 16L0 32z"/><linearGradient id="d" gradientUnits="userSpaceOnUse" x1="1170.438" y1="-1475.47" x2="1170.438" y2="-1504.531" gradientTransform="matrix(1 0 0 -1 -1155 -1474)"><stop offset="0" stop-color="#6d6e71"/><stop offset="1" stop-color="#3c3c3c"/></linearGradient><path fill="url(#d)" d="M29.968 16.002L.908 30.531V1.47z"/><g><path fill="#E6E7E8" d="M69.412 32H60V0h9.412v32zM86.98 32h-9.412V0h9.412v32z"/><g><linearGradient id="e" gradientUnits="userSpaceOnUse" x1="1219.707" y1="-1474.942" x2="1219.707" y2="-1505.059" gradientTransform="matrix(1 0 0 -1 -1155 -1474)"><stop offset="0" stop-color="#6d6e71"/><stop offset="1" stop-color="#3c3c3c"/></linearGradient><path fill="url(#e)" d="M60.942.942h7.529v30.116h-7.529z"/><linearGradient id="f" gradientUnits="userSpaceOnUse" x1="1237.273" y1="-1474.942" x2="1237.273" y2="-1505.059" gradientTransform="matrix(1 0 0 -1 -1155 -1474)"><stop offset="0" stop-color="#6d6e71"/><stop offset="1" stop-color="#3c3c3c"/></linearGradient><path fill="url(#f)" d="M78.508.942h7.53v30.116h-7.53z"/></g></g><g><path fill="#E6E7E8" d="M452 32h-15.762l6.328-6.33-5.236-5.234 3.105-3.104 5.236 5.234 6.328-6.33V32H452zM435.762 32H420V16.236l6.328 6.33 5.236-5.234 3.105 3.104-5.234 5.234 6.327 6.33zM420 15.764V0h15.762l-6.33 6.332 5.24 5.234-3.109 3.102-5.236-5.232L420 15.764zM452 15.764l-6.326-6.328-5.236 5.234-3.107-3.104 5.238-5.234L436.238 0H452v15.764z"/><g><linearGradient id="g" gradientUnits="userSpaceOnUse" x1="1599.784" y1="-1474.938" x2="1599.784" y2="-1505.071" gradientTransform="matrix(1 0 0 -1 -1155 -1474)"><stop offset="0" stop-color="#6d6e71"/><stop offset="1" stop-color="#3c3c3c"/></linearGradient><path fill="url(#g)" d="M440.436 18.664l-1.772 1.772 5.232 5.234-5.386 5.389h12.549V18.51l-5.387 5.386z"/><linearGradient id="h" gradientUnits="userSpaceOnUse" x1="1582.215" y1="-1474.938" x2="1582.215" y2="-1505.071" gradientTransform="matrix(1 0 0 -1 -1155 -1474)"><stop offset="0" stop-color="#6d6e71"/><stop offset="1" stop-color="#3c3c3c"/></linearGradient><path fill="url(#h)" d="M433.338 20.436l-1.774-1.772-5.236 5.232-5.387-5.386v12.549h12.547l-5.383-5.389z"/><linearGradient id="i" gradientUnits="userSpaceOnUse" x1="1582.215" y1="-1474.942" x2="1582.215" y2="-1505.057" gradientTransform="matrix(1 0 0 -1 -1155 -1474)"><stop offset="0" stop-color="#6d6e71"/><stop offset="1" stop-color="#3c3c3c"/></linearGradient><path fill="url(#i)" d="M420.941 13.49l5.385-5.384 5.237 5.232 1.775-1.772-5.238-5.234 5.388-5.39h-12.547z"/><linearGradient id="j" gradientUnits="userSpaceOnUse" x1="1599.784" y1="-1474.942" x2="1599.784" y2="-1505.057" gradientTransform="matrix(1 0 0 -1 -1155 -1474)"><stop offset="0" stop-color="#6d6e71"/><stop offset="1" stop-color="#3c3c3c"/></linearGradient><path fill="url(#j)" d="M438.51.942l5.39 5.39-5.236 5.234 1.774 1.772 5.236-5.232 5.385 5.384V.942z"/></g></g><g><path fill="#E6E7E8" d="M152 32h-32V0h32v32z"/><linearGradient id="k" gradientUnits="userSpaceOnUse" x1="1290.999" y1="-1474.942" x2="1290.999" y2="-1505.059" gradientTransform="matrix(1 0 0 -1 -1155 -1474)"><stop offset="0" stop-color="#6d6e71"/><stop offset="1" stop-color="#3c3c3c"/></linearGradient><path fill="url(#k)" d="M120.94.942h30.117v30.116H120.94z"/></g><g><path fill="#E6E7E8" d="M564.604 30.41h-17.207c-4.078 0-7.395-3.316-7.395-7.395v-8.604c0-4.078 3.316-7.395 7.395-7.395h4.17v6.187h-4.17a1.21 1.21 0 0 0-1.211 1.208v8.604a1.21 1.21 0 0 0 1.211 1.211h17.207c.666 0 1.213-.543 1.213-1.211v-8.604c0-.668-.547-1.208-1.213-1.208h-1.564v5.36l-10.004-8.486 10.004-8.488v5.43h1.564c4.078 0 7.396 3.316 7.396 7.395v8.605c0 4.075-3.318 7.391-7.396 7.391z"/><linearGradient id="l" gradientUnits="userSpaceOnUse" x1="1711" y1="-1477.624" x2="1711" y2="-1503.473" gradientTransform="matrix(1 0 0 -1 -1155 -1474)"><stop offset="0" stop-color="#6d6e71"/><stop offset="1" stop-color="#3c3c3c"/></linearGradient><path fill="url(#l)" d="M564.604 7.956h-2.508V3.624l-7.605 6.454 7.605 6.454v-4.274h2.508c1.186 0 2.154.962 2.154 2.152v8.604a2.156 2.156 0 0 1-2.154 2.152h-17.207a2.153 2.153 0 0 1-2.152-2.152v-8.602c0-1.19.967-2.152 2.152-2.152h3.229v-4.3h-3.229a6.46 6.46 0 0 0-6.455 6.454v8.605a6.455 6.455 0 0 0 6.455 6.453h17.207a6.455 6.455 0 0 0 6.455-6.453v-8.607a6.464 6.464 0 0 0-6.455-6.456z"/></g><g><path fill="#E6E7E8" d="M272 16L249.782 2.118V8.23L240 2.118v27.765l9.782-6.113v6.113z"/><linearGradient id="m" gradientUnits="userSpaceOnUse" x1="1405.7" y1="-1477.77" x2="1405.7" y2="-1502.228" gradientTransform="matrix(1 0 0 -1 -1155 -1474)"><stop offset="0" stop-color="#6d6e71"/><stop offset="1" stop-color="#3c3c3c"/></linearGradient><path fill="url(#m)" d="M260.484 16l-19.568 12.229V3.77z"/><g><linearGradient id="n" gradientUnits="userSpaceOnUse" x1="1415.484" y1="-1477.77" x2="1415.484" y2="-1502.228" gradientTransform="matrix(1 0 0 -1 -1155 -1474)"><stop offset="0" stop-color="#6d6e71"/><stop offset="1" stop-color="#3c3c3c"/></linearGradient><path fill="url(#n)" d="M270.27 16L250.7 28.229V3.77z"/></g></g><g><path fill="#E6E7E8" d="M212 2.114l-9.784 6.116V2.114L180 16l22.216 13.887v-6.116L212 29.887z"/><linearGradient id="o" gradientUnits="userSpaceOnUse" x1="1356.298" y1="-1477.772" x2="1356.298" y2="-1502.23" gradientTransform="matrix(1 0 0 -1 -1155 -1474)"><stop offset="0" stop-color="#6d6e71"/><stop offset="1" stop-color="#3c3c3c"/></linearGradient><path fill="url(#o)" d="M211.082 3.771V28.23l-19.568-12.228z"/><g><linearGradient id="p" gradientUnits="userSpaceOnUse" x1="1346.514" y1="-1477.772" x2="1346.514" y2="-1502.23" gradientTransform="matrix(1 0 0 -1 -1155 -1474)"><stop offset="0" stop-color="#6d6e71"/><stop offset="1" stop-color="#3c3c3c"/></linearGradient><path fill="url(#p)" d="M201.298 3.771V28.23L181.73 16.002z"/></g></g><g><path fill="#E6E7E8" d="M494.551 14.552H480l5.846-5.844-4.838-4.832 2.871-2.866 4.836 4.83 5.84-5.84v14.552h-.004zM494.551 32l-5.844-5.844-4.832 4.832L481 28.121l4.834-4.832-5.834-5.84h14.551V32zM512 14.552h-14.551V0l5.84 5.84 4.836-4.83 2.877 2.866-4.836 4.832L512 14.552zM497.449 32V17.449H512l-5.842 5.844 4.834 4.832-2.871 2.873-4.832-4.832-5.84 5.834z"/><g><linearGradient id="q" gradientUnits="userSpaceOnUse" x1="1642.891" y1="-1476.098" x2="1642.891" y2="-1503.903" gradientTransform="matrix(1 0 0 -1 -1155 -1474)"><stop offset="0" stop-color="#6d6e71"/><stop offset="1" stop-color="#3c3c3c"/></linearGradient><path fill="url(#q)" d="M483.879 2.238l-1.641 1.638 4.836 4.832-4.976 4.976h11.586V2.098l-4.973 4.97z"/><linearGradient id="r" gradientUnits="userSpaceOnUse" x1="1642.891" y1="-1476.098" x2="1642.891" y2="-1503.904" gradientTransform="matrix(1 0 0 -1 -1155 -1474)"><stop offset="0" stop-color="#6d6e71"/><stop offset="1" stop-color="#3c3c3c"/></linearGradient><path fill="url(#r)" d="M487.072 23.293l-4.834 4.832 1.637 1.635 4.832-4.832 4.977 4.974V18.316h-11.586z"/><linearGradient id="s" gradientUnits="userSpaceOnUse" x1="1659.11" y1="-1476.098" x2="1659.11" y2="-1503.903" gradientTransform="matrix(1 0 0 -1 -1155 -1474)"><stop offset="0" stop-color="#6d6e71"/><stop offset="1" stop-color="#3c3c3c"/></linearGradient><path fill="url(#s)" d="M504.926 8.708l4.838-4.832-1.639-1.638-4.836 4.83-4.971-4.97v11.586h11.584z"/><linearGradient id="t" gradientUnits="userSpaceOnUse" x1="1659.11" y1="-1476.098" x2="1659.11" y2="-1503.904" gradientTransform="matrix(1 0 0 -1 -1155 -1474)"><stop offset="0" stop-color="#6d6e71"/><stop offset="1" stop-color="#3c3c3c"/></linearGradient><path fill="url(#t)" d="M498.318 18.316v11.586l4.975-4.974 4.832 4.832 1.639-1.635-4.834-4.832 4.972-4.977z"/></g></g><g><path fill="#E6E7E8" d="M320.754 0l-10.67 8.006H300v16.012h9.884L320.754 32z"/><linearGradient id="u" gradientUnits="userSpaceOnUse" x1="1460.402" y1="-1475.77" x2="1460.402" y2="-1504.233" gradientTransform="matrix(1 0 0 -1 -1155 -1474)"><stop offset="0" stop-color="#6d6e71"/><stop offset="1" stop-color="#3c3c3c"/></linearGradient><path fill="url(#u)" d="M300.888 8.886h9.03v14.231h-9.03z"/><linearGradient id="v" gradientUnits="userSpaceOnUse" x1="1470.122" y1="-1475.766" x2="1470.122" y2="-1504.23" gradientTransform="matrix(1 0 0 -1 -1155 -1474)"><stop offset="0" stop-color="#6d6e71"/><stop offset="1" stop-color="#3c3c3c"/></linearGradient><path fill="url(#v)" d="M310.378 8.886l9.488-7.12V30.23l-9.488-6.965V8.886z"/><g><linearGradient id="w" gradientUnits="userSpaceOnUse" x1="1479.948" y1="-1489.999" x2="1487" y2="-1489.999" gradientTransform="matrix(1 0 0 -1 -1155 -1474)"><stop offset="0" stop-color="#6d6e71"/><stop offset="1" stop-color="#3c3c3c"/></linearGradient><path fill="url(#w)" d="M325.916 26.875l-.968-1.75C328.066 23.398 330 19.902 330 16s-1.936-7.398-5.052-9.126l.968-1.75C329.668 7.204 332 11.372 332 16c0 4.629-2.332 8.797-6.084 10.875z"/><g><linearGradient id="x" gradientUnits="userSpaceOnUse" x1="1477.95" y1="-1489.999" x2="1482.348" y2="-1489.999" gradientTransform="matrix(1 0 0 -1 -1155 -1474)"><stop offset="0" stop-color="#6d6e71"/><stop offset="1" stop-color="#3c3c3c"/></linearGradient><path fill="url(#x)" d="M323.916 22.109l-.964-1.75c1.456-.805 2.396-2.514 2.396-4.357 0-1.87-.92-3.542-2.397-4.362l.968-1.75c2.116 1.173 3.43 3.515 3.43 6.112-.003 2.6-1.317 4.939-3.433 6.107z"/></g></g></g><g><path fill="#DF1000" d="M384.828 20.695l-2.215-2.222L385.088 16l-2.475-2.479 2.213-2.215 2.479 2.478 2.472-2.478 2.221 2.215L389.52 16l2.48 2.473-2.219 2.222-2.476-2.48z"/><path fill="#E6E7E8" d="M380.754 0l-10.67 8.006H360v16.012h9.883L380.754 32z"/><linearGradient id="y" gradientUnits="userSpaceOnUse" x1="1520.402" y1="-1475.77" x2="1520.402" y2="-1504.233" gradientTransform="matrix(1 0 0 -1 -1155 -1474)"><stop offset="0" stop-color="#6d6e71"/><stop offset="1" stop-color="#3c3c3c"/></linearGradient><path fill="url(#y)" d="M360.887 8.886h9.031v14.231h-9.031z"/><linearGradient id="z" gradientUnits="userSpaceOnUse" x1="1530.123" y1="-1475.766" x2="1530.123" y2="-1504.23" gradientTransform="matrix(1 0 0 -1 -1155 -1474)"><stop offset="0" stop-color="#6d6e71"/><stop offset="1" stop-color="#3c3c3c"/></linearGradient><path fill="url(#z)" d="M370.379 8.886l9.488-7.12V30.23l-9.488-6.965V8.886z"/></g></svg>