<svg xmlns="http://www.w3.org/2000/svg" width="330" height="16" viewBox="0 0 330 16"><path fill="#FFF" d="M302.018 12.758V3.242h11.965v9.516h-11.965z"/><path fill="#E6E7E8" d="M311.811 8.2l-.066.457c-.049.344-.156.593-.32.738-.158.146-.361.211-.615.211-.328 0-.572-.103-.77-.332-.206-.238-.314-.68-.314-1.279 0-.598.109-1.021.328-1.262.207-.233.463-.342.811-.342a.76.76 0 0 1 .508.17c.145.115.245.307.309.565l.1.42 1.838-.272-.1-.484c-.131-.661-.438-1.184-.914-1.549-.469-.361-1.066-.545-1.773-.545-.555 0-1.078.129-1.557.385a2.513 2.513 0 0 0-1.114 1.209c-.038.083-.054.182-.085.27-.154-.55-.432-.998-.85-1.318-.469-.361-1.065-.545-1.772-.545-.556 0-1.079.129-1.556.385-.5.27-.877.677-1.115 1.208-.227.497-.342 1.079-.342 1.731 0 1.025.274 1.836.826 2.411.553.579 1.287.872 2.181.872.721 0 1.343-.215 1.836-.639.361-.306.624-.698.79-1.168.137.356.322.673.57.935.554.579 1.287.872 2.181.872.723 0 1.345-.216 1.837-.64.503-.423.822-1.013.941-1.747l.078-.48-1.871-.237zm-5.377 0l-.068.457c-.049.344-.156.593-.316.736-.162.143-.363.213-.617.213-.328 0-.574-.103-.771-.332-.206-.238-.315-.681-.315-1.279 0-.588.112-1.024.325-1.262.209-.232.468-.342.812-.342.207 0 .369.055.51.168.146.118.244.309.308.568l.104.419 1.479-.22c-.032.225-.064.449-.064.693 0 .125.018.238.025.358l-1.412-.177z"/><path fill="#E6E7E8" d="M300 1.255v13.49h16V1.255h-16zm2.018 11.503V3.242h11.965v9.516h-11.965z"/><linearGradient id="a" gradientUnits="userSpaceOnUse" x1="1229.343" y1="1193.691" x2="1229.343" y2="1206.242" gradientTransform="translate(-924 -1192)"><stop offset="0" stop-color="#6d6e71"/><stop offset="1" stop-color="#3c3c3c"/></linearGradient><path fill="url(#a)" d="M306.841 8.726l.929.117c-.102.623-.357 1.11-.775 1.461-.421.354-.938.53-1.542.53-.767 0-1.378-.242-1.843-.727-.465-.486-.693-1.186-.693-2.088 0-.584.104-1.098.299-1.535.198-.439.503-.77.911-.99a2.775 2.775 0 0 1 1.332-.328c.604 0 1.103.148 1.481.447.389.297.636.72.742 1.27l-.92.136c-.087-.362-.242-.637-.466-.819a1.216 1.216 0 0 0-.806-.275c-.479 0-.863.165-1.162.497-.297.33-.445.856-.445 1.575 0 .728.145 1.258.432 1.588.287.328.662.494 1.125.494.371 0 .684-.109.933-.33.242-.224.4-.564.468-1.023z"/><linearGradient id="b" gradientUnits="userSpaceOnUse" x1="1234.721" y1="1193.691" x2="1234.721" y2="1206.242" gradientTransform="translate(-924 -1192)"><stop offset="0" stop-color="#6d6e71"/><stop offset="1" stop-color="#3c3c3c"/></linearGradient><path fill="url(#b)" d="M312.219 8.726l.93.117c-.102.623-.359 1.11-.777 1.461-.417.354-.936.53-1.542.53-.765 0-1.376-.242-1.843-.727-.463-.486-.693-1.186-.693-2.088 0-.584.104-1.098.299-1.535.201-.439.508-.77.912-.99a2.777 2.777 0 0 1 1.332-.328c.604 0 1.104.148 1.482.447.39.297.635.72.742 1.27l-.922.136c-.087-.362-.24-.637-.465-.819a1.215 1.215 0 0 0-.807-.275c-.477 0-.862.165-1.159.497-.299.33-.446.856-.446 1.575 0 .728.146 1.258.43 1.588.289.328.662.494 1.125.494.369 0 .686-.109.932-.33.245-.224.401-.564.47-1.023z"/><linearGradient id="c" gradientUnits="userSpaceOnUse" x1="1232" y1="1193.726" x2="1232" y2="1206.275" gradientTransform="translate(-924 -1192)"><stop offset="0" stop-color="#6d6e71"/><stop offset="1" stop-color="#3c3c3c"/></linearGradient><path fill="url(#c)" d="M301.547 2.771h12.906v10.458h-12.906V2.771zm-1.076-1.045v12.549h15.059V1.726h-15.059z"/><path fill="#E6E7E8" d="M0 16V0l16 8-16 8z"/><linearGradient id="d" gradientUnits="userSpaceOnUse" x1="931.719" y1="1192.734" x2="931.719" y2="1207.266" gradientTransform="translate(-924 -1192)"><stop offset="0" stop-color="#6d6e71"/><stop offset="1" stop-color="#3c3c3c"/></linearGradient><path fill="url(#d)" d="M14.984 8.001L.454 15.266V.735z"/><g><path fill="#E6E7E8" d="M34.706 16H30V0h4.706v16zM43.49 16h-4.706V0h4.706v16z"/><g><linearGradient id="e" gradientUnits="userSpaceOnUse" x1="956.354" y1="1192.471" x2="956.354" y2="1207.529" gradientTransform="translate(-924 -1192)"><stop offset="0" stop-color="#6d6e71"/><stop offset="1" stop-color="#3c3c3c"/></linearGradient><path fill="url(#e)" d="M30.471.471h3.765v15.058h-3.765z"/><linearGradient id="f" gradientUnits="userSpaceOnUse" x1="965.137" y1="1192.471" x2="965.137" y2="1207.529" gradientTransform="translate(-924 -1192)"><stop offset="0" stop-color="#6d6e71"/><stop offset="1" stop-color="#3c3c3c"/></linearGradient><path fill="url(#f)" d="M39.254.471h3.765v15.058h-3.765z"/></g></g><g><path fill="#E6E7E8" d="M226 16h-7.881l3.164-3.165-2.618-2.617 1.553-1.552 2.618 2.617L226 8.118V16zM217.881 16H210V8.118l3.164 3.165 2.618-2.617 1.553 1.552-2.617 2.617L217.881 16zM210 7.882V0h7.881l-3.165 3.166 2.62 2.617-1.555 1.551-2.618-2.616L210 7.882zM226 7.882l-3.163-3.164-2.618 2.617-1.554-1.552 2.619-2.617L218.119 0H226v7.882z"/><g><linearGradient id="g" gradientUnits="userSpaceOnUse" x1="1146.393" y1="1192.47" x2="1146.393" y2="1207.535" gradientTransform="translate(-924 -1192)"><stop offset="0" stop-color="#6d6e71"/><stop offset="1" stop-color="#3c3c3c"/></linearGradient><path fill="url(#g)" d="M220.218 9.332l-.886.886 2.616 2.617-2.693 2.694h6.274V9.255l-2.693 2.693z"/><linearGradient id="h" gradientUnits="userSpaceOnUse" x1="1137.607" y1="1192.47" x2="1137.607" y2="1207.535" gradientTransform="translate(-924 -1192)"><stop offset="0" stop-color="#6d6e71"/><stop offset="1" stop-color="#3c3c3c"/></linearGradient><path fill="url(#h)" d="M216.669 10.218l-.887-.886-2.618 2.616-2.693-2.693v6.274h6.273l-2.691-2.694z"/><linearGradient id="i" gradientUnits="userSpaceOnUse" x1="1137.607" y1="1192.471" x2="1137.607" y2="1207.528" gradientTransform="translate(-924 -1192)"><stop offset="0" stop-color="#6d6e71"/><stop offset="1" stop-color="#3c3c3c"/></linearGradient><path fill="url(#i)" d="M210.471 6.745l2.692-2.692 2.618 2.616.888-.886-2.619-2.617 2.694-2.695h-6.273z"/><linearGradient id="j" gradientUnits="userSpaceOnUse" x1="1146.393" y1="1192.471" x2="1146.393" y2="1207.528" gradientTransform="translate(-924 -1192)"><stop offset="0" stop-color="#6d6e71"/><stop offset="1" stop-color="#3c3c3c"/></linearGradient><path fill="url(#j)" d="M219.255.471l2.695 2.695-2.618 2.617.887.886 2.618-2.616 2.692 2.692V.471z"/></g></g><g><path fill="#E6E7E8" d="M76 16H60V0h16v16z"/><linearGradient id="k" gradientUnits="userSpaceOnUse" x1="992" y1="1192.471" x2="992" y2="1207.529" gradientTransform="translate(-924 -1192)"><stop offset="0" stop-color="#6d6e71"/><stop offset="1" stop-color="#3c3c3c"/></linearGradient><path fill="url(#k)" d="M60.47.471h15.059v15.058H60.47z"/></g><g><path fill="#E6E7E8" d="M282.302 15.205h-8.604a3.7 3.7 0 0 1-3.697-3.697V7.206a3.7 3.7 0 0 1 3.697-3.697h2.085v3.093h-2.085a.604.604 0 0 0-.605.604v4.302c0 .334.271.605.605.605h8.604a.607.607 0 0 0 .606-.605V7.206a.606.606 0 0 0-.606-.604h-.782v2.68l-5.002-4.243L281.52.795V3.51h.782A3.701 3.701 0 0 1 286 7.207v4.303a3.701 3.701 0 0 1-3.698 3.695z"/><linearGradient id="l" gradientUnits="userSpaceOnUse" x1="1202" y1="1193.812" x2="1202" y2="1206.736" gradientTransform="translate(-924 -1192)"><stop offset="0" stop-color="#6d6e71"/><stop offset="1" stop-color="#3c3c3c"/></linearGradient><path fill="url(#l)" d="M282.302 3.978h-1.254V1.812l-3.803 3.227 3.803 3.227V6.129h1.254c.593 0 1.077.481 1.077 1.076v4.302c0 .594-.484 1.076-1.077 1.076h-8.604a1.077 1.077 0 0 1-1.076-1.076V7.206c0-.595.483-1.076 1.076-1.076h1.614V3.98h-1.614a3.23 3.23 0 0 0-3.228 3.227v4.303a3.229 3.229 0 0 0 3.228 3.227h8.604a3.229 3.229 0 0 0 3.228-3.227V7.206a3.233 3.233 0 0 0-3.228-3.228z"/></g><g><path fill="#E6E7E8" d="M136 8l-11.109-6.941v3.056L120 1.059v13.882l4.891-3.056v3.056z"/><linearGradient id="m" gradientUnits="userSpaceOnUse" x1="1049.35" y1="1193.885" x2="1049.35" y2="1206.114" gradientTransform="translate(-924 -1192)"><stop offset="0" stop-color="#6d6e71"/><stop offset="1" stop-color="#3c3c3c"/></linearGradient><path fill="url(#m)" d="M130.242 8l-9.784 6.114V1.885z"/><g><linearGradient id="n" gradientUnits="userSpaceOnUse" x1="1054.242" y1="1193.885" x2="1054.242" y2="1206.114" gradientTransform="translate(-924 -1192)"><stop offset="0" stop-color="#6d6e71"/><stop offset="1" stop-color="#3c3c3c"/></linearGradient><path fill="url(#n)" d="M135.135 8l-9.785 6.114V1.885z"/></g></g><g><path fill="#E6E7E8" d="M106 1.057l-4.892 3.058V1.057L90 8l11.108 6.943v-3.057L106 14.943z"/><linearGradient id="o" gradientUnits="userSpaceOnUse" x1="1024.648" y1="1193.886" x2="1024.648" y2="1206.115" gradientTransform="translate(-924 -1192)"><stop offset="0" stop-color="#6d6e71"/><stop offset="1" stop-color="#3c3c3c"/></linearGradient><path fill="url(#o)" d="M105.541 1.886v12.229l-9.784-6.114z"/><g><linearGradient id="p" gradientUnits="userSpaceOnUse" x1="1019.758" y1="1193.886" x2="1019.758" y2="1206.115" gradientTransform="translate(-924 -1192)"><stop offset="0" stop-color="#6d6e71"/><stop offset="1" stop-color="#3c3c3c"/></linearGradient><path fill="url(#p)" d="M100.649 1.886v12.229l-9.784-6.114z"/></g></g><g><path fill="#E6E7E8" d="M247.275 7.276H240l2.923-2.922-2.419-2.416L241.94.505l2.418 2.415 2.92-2.92v7.276h-.003zM247.275 16l-2.922-2.922-2.416 2.416-1.437-1.434 2.417-2.416L240 8.725h7.275V16zM256 7.276h-7.275V0l2.92 2.92 2.418-2.415 1.438 1.433-2.418 2.416L256 7.276zM248.725 16V8.725H256l-2.921 2.922 2.417 2.416-1.436 1.436-2.416-2.416L248.725 16z"/><g><linearGradient id="q" gradientUnits="userSpaceOnUse" x1="1167.945" y1="1193.049" x2="1167.945" y2="1206.952" gradientTransform="translate(-924 -1192)"><stop offset="0" stop-color="#6d6e71"/><stop offset="1" stop-color="#3c3c3c"/></linearGradient><path fill="url(#q)" d="M241.939 1.119l-.82.819 2.418 2.416-2.488 2.488h5.793V1.049l-2.487 2.485z"/><linearGradient id="r" gradientUnits="userSpaceOnUse" x1="1167.945" y1="1193.049" x2="1167.945" y2="1206.952" gradientTransform="translate(-924 -1192)"><stop offset="0" stop-color="#6d6e71"/><stop offset="1" stop-color="#3c3c3c"/></linearGradient><path fill="url(#r)" d="M243.536 11.646l-2.417 2.417.819.817 2.416-2.416 2.488 2.487V9.158h-5.793z"/><linearGradient id="s" gradientUnits="userSpaceOnUse" x1="1176.055" y1="1193.049" x2="1176.055" y2="1206.952" gradientTransform="translate(-924 -1192)"><stop offset="0" stop-color="#6d6e71"/><stop offset="1" stop-color="#3c3c3c"/></linearGradient><path fill="url(#s)" d="M252.463 4.354l2.419-2.416-.819-.819-2.418 2.415-2.486-2.485v5.793h5.792z"/><linearGradient id="t" gradientUnits="userSpaceOnUse" x1="1176.055" y1="1193.049" x2="1176.055" y2="1206.952" gradientTransform="translate(-924 -1192)"><stop offset="0" stop-color="#6d6e71"/><stop offset="1" stop-color="#3c3c3c"/></linearGradient><path fill="url(#t)" d="M249.159 9.158v5.793l2.487-2.487 2.417 2.416.819-.817-2.417-2.417 2.486-2.488z"/></g></g><g><path fill="#E6E7E8" d="M160.377 0l-5.335 4.003H150v8.006h4.942L160.377 16z"/><linearGradient id="u" gradientUnits="userSpaceOnUse" x1="1076.701" y1="1192.885" x2="1076.701" y2="1207.117" gradientTransform="translate(-924 -1192)"><stop offset="0" stop-color="#6d6e71"/><stop offset="1" stop-color="#3c3c3c"/></linearGradient><path fill="url(#u)" d="M150.444 4.443h4.515v7.116h-4.515z"/><linearGradient id="v" gradientUnits="userSpaceOnUse" x1="1081.562" y1="1192.883" x2="1081.562" y2="1207.115" gradientTransform="translate(-924 -1192)"><stop offset="0" stop-color="#6d6e71"/><stop offset="1" stop-color="#3c3c3c"/></linearGradient><path fill="url(#v)" d="M155.189 4.443l4.744-3.56v14.232l-4.744-3.482v-7.19z"/><g><linearGradient id="w" gradientUnits="userSpaceOnUse" x1="1086.475" y1="1200" x2="1090" y2="1200" gradientTransform="translate(-924 -1192)"><stop offset="0" stop-color="#6d6e71"/><stop offset="1" stop-color="#3c3c3c"/></linearGradient><path fill="url(#w)" d="M162.958 13.438l-.484-.875C164.033 11.699 165 9.951 165 8s-.968-3.699-2.526-4.563l.484-.875C164.834 3.602 166 5.686 166 8c0 2.314-1.166 4.398-3.042 5.438z"/><g><linearGradient id="x" gradientUnits="userSpaceOnUse" x1="1085.475" y1="1200" x2="1087.674" y2="1200" gradientTransform="translate(-924 -1192)"><stop offset="0" stop-color="#6d6e71"/><stop offset="1" stop-color="#3c3c3c"/></linearGradient><path fill="url(#x)" d="M161.958 11.055l-.482-.875c.728-.402 1.198-1.257 1.198-2.179 0-.935-.46-1.771-1.199-2.181l.484-.875c1.058.586 1.715 1.757 1.715 3.056-.001 1.3-.658 2.47-1.716 3.054z"/></g></g></g><g><path fill="#DF1000" d="M192.414 10.348l-1.107-1.112L192.544 8l-1.237-1.239 1.106-1.108 1.239 1.239 1.237-1.239 1.11 1.108L194.76 8 196 9.236l-1.109 1.112-1.239-1.241z"/><path fill="#E6E7E8" d="M190.377 0l-5.335 4.003H180v8.006h4.941L190.377 16z"/><linearGradient id="y" gradientUnits="userSpaceOnUse" x1="1106.701" y1="1192.885" x2="1106.701" y2="1207.117" gradientTransform="translate(-924 -1192)"><stop offset="0" stop-color="#6d6e71"/><stop offset="1" stop-color="#3c3c3c"/></linearGradient><path fill="url(#y)" d="M180.443 4.443h4.516v7.116h-4.516z"/><linearGradient id="z" gradientUnits="userSpaceOnUse" x1="1111.562" y1="1192.883" x2="1111.562" y2="1207.115" gradientTransform="translate(-924 -1192)"><stop offset="0" stop-color="#6d6e71"/><stop offset="1" stop-color="#3c3c3c"/></linearGradient><path fill="url(#z)" d="M185.189 4.443l4.744-3.56v14.232l-4.744-3.482v-7.19z"/></g></svg>