<svg xmlns="http://www.w3.org/2000/svg" width="330" height="16" viewBox="0 0 330 16"><path fill="#E6E7E8" d="M305.448 11.304c-.894 0-1.628-.293-2.181-.872-.55-.575-.826-1.386-.826-2.411 0-.652.115-1.234.342-1.731a2.507 2.507 0 0 1 1.115-1.208c.477-.256 1-.385 1.556-.385.707 0 1.304.184 1.772.545.477.365.782.888.914 1.549l.098.484-1.834.272-.103-.419c-.063-.26-.163-.45-.308-.568a.765.765 0 0 0-.508-.168c-.344 0-.603.109-.812.342-.213.237-.325.674-.325 1.262 0 .599.109 1.041.315 1.279.196.228.442.332.771.332.254 0 .455-.07.617-.213.16-.144.268-.393.317-.736l.067-.457 1.871.236-.08.481c-.119.735-.438 1.323-.94 1.747-.495.424-1.117.639-1.838.639z"/><path fill="#E6E7E8" d="M310.825 11.304c-.894 0-1.627-.293-2.181-.872-.547-.577-.826-1.388-.826-2.411 0-.647.115-1.23.343-1.73.241-.534.616-.94 1.114-1.209a3.264 3.264 0 0 1 1.557-.385c.707 0 1.305.184 1.773.545.477.365.783.888.914 1.549l.098.484-1.838.272-.1-.42c-.063-.259-.164-.45-.307-.565a.756.756 0 0 0-.508-.17c-.346 0-.602.108-.809.342-.219.24-.328.664-.328 1.262 0 .6.108 1.041.314 1.279.197.228.441.332.77.332.254 0 .457-.067.615-.211.164-.146.271-.395.32-.738l.066-.457 1.871.236-.078.48c-.119.734-.438 1.324-.941 1.747-.494.424-1.116.64-1.839.64z"/><path fill="#E6E7E8" d="M316 14.745h-16V1.255h16v13.49zm-13.982-1.987h11.965V3.242h-11.965v9.516z"/><g fill="#FFF"><path d="M306.841 8.726l.929.117c-.102.623-.359 1.11-.777 1.461-.42.354-.936.53-1.542.53-.765 0-1.378-.242-1.841-.727-.465-.486-.695-1.184-.695-2.088 0-.584.102-1.098.299-1.535.198-.439.503-.77.911-.99a2.772 2.772 0 0 1 1.332-.328c.604 0 1.101.148 1.483.447.387.297.634.72.742 1.27l-.92.136c-.087-.362-.242-.637-.466-.819a1.216 1.216 0 0 0-.806-.275c-.479 0-.863.165-1.162.497-.297.33-.445.856-.445 1.575 0 .728.145 1.258.432 1.588.287.328.662.494 1.125.494.371 0 .682-.109.931-.33.244-.224.402-.564.47-1.023zM312.219 8.726l.93.117c-.102.623-.361 1.11-.779 1.461-.417.354-.934.53-1.542.53-.763 0-1.376-.242-1.841-.727-.463-.486-.695-1.184-.695-2.088 0-.584.104-1.098.299-1.535.201-.439.506-.77.912-.99a2.777 2.777 0 0 1 1.332-.328c.604 0 1.102.148 1.484.447.388.297.633.72.742 1.27l-.922.136c-.087-.362-.24-.637-.465-.819a1.215 1.215 0 0 0-.807-.275c-.477 0-.862.165-1.159.497-.299.33-.446.856-.446 1.575 0 .728.145 1.258.43 1.588.289.328.662.494 1.125.494.369 0 .684-.109.93-.33.247-.224.403-.564.472-1.023z"/></g><linearGradient id="a" gradientUnits="userSpaceOnUse" x1="539" y1="-296.275" x2="539" y2="-283.726" gradientTransform="matrix(1 0 0 -1 -231 -282)"><stop offset="0" stop-color="#dedede"/><stop offset=".503" stop-color="#fff"/></linearGradient><path fill="url(#a)" d="M301.547 2.771h12.906v10.458h-12.906V2.771zm-1.076-1.045v12.549h15.059V1.726h-15.059z"/><path fill="#E6E7E8" d="M0 16V0l16 8-16 8z"/><linearGradient id="b" gradientUnits="userSpaceOnUse" x1="238.719" y1="-297.334" x2="238.719" y2="-282.802" gradientTransform="matrix(1 0 0 -1 -231 -282)"><stop offset="0" stop-color="#dedede"/><stop offset=".503" stop-color="#fff"/></linearGradient><path fill="url(#b)" d="M14.984 8.001L.454 15.266V.734z"/><path fill="#E6E7E8" d="M34.706 16H30V0h4.706v16zM43.49 16h-4.706V0h4.706v16z"/><g><linearGradient id="c" gradientUnits="userSpaceOnUse" x1="263.353" y1="-297.529" x2="263.353" y2="-282.471" gradientTransform="matrix(1 0 0 -1 -231 -282)"><stop offset="0" stop-color="#dedede"/><stop offset=".503" stop-color="#fff"/></linearGradient><path fill="url(#c)" d="M30.471.471h3.765V15.53h-3.765z"/><linearGradient id="d" gradientUnits="userSpaceOnUse" x1="272.137" y1="-297.529" x2="272.137" y2="-282.471" gradientTransform="matrix(1 0 0 -1 -231 -282)"><stop offset="0" stop-color="#dedede"/><stop offset=".503" stop-color="#fff"/></linearGradient><path fill="url(#d)" d="M39.254.471h3.765V15.53h-3.765z"/></g><g><path fill="#E6E7E8" d="M226 16h-7.881l3.164-3.165-2.618-2.617 1.553-1.552 2.618 2.617L226 8.118V16zM217.881 16H210V8.118l3.164 3.165 2.618-2.617 1.553 1.552-2.617 2.617L217.881 16zM210 7.882V0h7.881l-3.165 3.166 2.62 2.617-1.555 1.551-2.618-2.616L210 7.882zM226 7.882l-3.163-3.164-2.618 2.617-1.554-1.552 2.619-2.617L218.119 0H226v7.882z"/><g><linearGradient id="e" gradientUnits="userSpaceOnUse" x1="453.393" y1="-297.529" x2="453.393" y2="-291.255" gradientTransform="matrix(1 0 0 -1 -231 -282)"><stop offset="0" stop-color="#dedede"/><stop offset=".503" stop-color="#fff"/></linearGradient><path fill="url(#e)" d="M220.218 9.332l-.886.886 2.616 2.617-2.693 2.694h6.274V9.255l-2.693 2.693z"/><linearGradient id="f" gradientUnits="userSpaceOnUse" x1="444.607" y1="-297.529" x2="444.607" y2="-291.255" gradientTransform="matrix(1 0 0 -1 -231 -282)"><stop offset="0" stop-color="#dedede"/><stop offset=".503" stop-color="#fff"/></linearGradient><path fill="url(#f)" d="M216.669 10.218l-.887-.886-2.618 2.616-2.693-2.693v6.274h6.273l-2.691-2.694z"/><linearGradient id="g" gradientUnits="userSpaceOnUse" x1="444.607" y1="-288.745" x2="444.607" y2="-282.471" gradientTransform="matrix(1 0 0 -1 -231 -282)"><stop offset="0" stop-color="#dedede"/><stop offset=".503" stop-color="#fff"/></linearGradient><path fill="url(#g)" d="M210.471 6.745l2.692-2.692 2.618 2.616.888-.886-2.619-2.617 2.694-2.695h-6.273z"/><linearGradient id="h" gradientUnits="userSpaceOnUse" x1="453.393" y1="-288.745" x2="453.393" y2="-282.471" gradientTransform="matrix(1 0 0 -1 -231 -282)"><stop offset="0" stop-color="#dedede"/><stop offset=".503" stop-color="#fff"/></linearGradient><path fill="url(#h)" d="M219.255.471l2.695 2.695-2.618 2.617.887.886 2.618-2.616 2.692 2.692V.471z"/></g></g><g><path fill="#E6E7E8" d="M76 16H60V0h16v16z"/><linearGradient id="i" gradientUnits="userSpaceOnUse" x1="299" y1="-297.529" x2="299" y2="-282.471" gradientTransform="matrix(1 0 0 -1 -231 -282)"><stop offset="0" stop-color="#dedede"/><stop offset=".503" stop-color="#fff"/></linearGradient><path fill="url(#i)" d="M60.47.471h15.059V15.53H60.47z"/></g><g><path fill="#E6E7E8" d="M282.302 15.205h-8.604a3.7 3.7 0 0 1-3.697-3.697V7.206a3.7 3.7 0 0 1 3.697-3.697h2.085v3.093h-2.085a.604.604 0 0 0-.605.604v4.302c0 .334.271.605.605.605h8.604a.607.607 0 0 0 .606-.605V7.206a.606.606 0 0 0-.606-.604h-.782v2.68l-5.002-4.243L281.52.795V3.51h.782A3.701 3.701 0 0 1 286 7.207v4.303a3.701 3.701 0 0 1-3.698 3.695z"/><linearGradient id="j" gradientUnits="userSpaceOnUse" x1="509" y1="-296.719" x2="509" y2="-283.793" gradientTransform="matrix(1 0 0 -1 -231 -282)"><stop offset="0" stop-color="#dedede"/><stop offset=".503" stop-color="#fff"/></linearGradient><path fill="url(#j)" d="M282.302 3.96h-1.254V1.793l-3.803 3.228 3.803 3.228V6.111h1.254c.593 0 1.077.481 1.077 1.076v4.303a1.08 1.08 0 0 1-1.077 1.076h-8.604a1.078 1.078 0 0 1-1.076-1.076V7.187c0-.594.483-1.076 1.076-1.076h1.614v-2.15h-1.614a3.23 3.23 0 0 0-3.228 3.228v4.303a3.23 3.23 0 0 0 3.228 3.227h8.604a3.23 3.23 0 0 0 3.228-3.227V7.187a3.233 3.233 0 0 0-3.228-3.227z"/></g><g><path fill="#E6E7E8" d="M136 8l-11.109-6.941v3.056L120 1.059v13.882l4.891-3.056v3.056z"/><linearGradient id="k" gradientUnits="userSpaceOnUse" x1="356.35" y1="-296.115" x2="356.35" y2="-283.885" gradientTransform="matrix(1 0 0 -1 -231 -282)"><stop offset="0" stop-color="#dedede"/><stop offset=".503" stop-color="#fff"/></linearGradient><path fill="url(#k)" d="M130.242 8l-9.784 6.115V1.885z"/><g><linearGradient id="l" gradientUnits="userSpaceOnUse" x1="361.242" y1="-296.115" x2="361.242" y2="-283.885" gradientTransform="matrix(1 0 0 -1 -231 -282)"><stop offset="0" stop-color="#dedede"/><stop offset=".503" stop-color="#fff"/></linearGradient><path fill="url(#l)" d="M135.135 8l-9.785 6.115V1.885z"/></g></g><g><path fill="#E6E7E8" d="M106 1.057l-4.892 3.059V1.057L90 8l11.108 6.943v-3.058L106 14.943V1.057z"/><linearGradient id="m" gradientUnits="userSpaceOnUse" x1="331.648" y1="-296.115" x2="331.648" y2="-283.885" gradientTransform="matrix(1 0 0 -1 -231 -282)"><stop offset="0" stop-color="#dedede"/><stop offset=".503" stop-color="#fff"/></linearGradient><path fill="url(#m)" d="M105.541 1.885v12.23L95.757 8z"/><g><linearGradient id="n" gradientUnits="userSpaceOnUse" x1="326.758" y1="-296.115" x2="326.758" y2="-283.885" gradientTransform="matrix(1 0 0 -1 -231 -282)"><stop offset="0" stop-color="#dedede"/><stop offset=".503" stop-color="#fff"/></linearGradient><path fill="url(#n)" d="M100.649 1.885v12.23L90.865 8z"/></g></g><g><path fill="#E6E7E8" d="M247.275 7.276H240l2.923-2.922-2.419-2.416L241.94.505l2.418 2.415 2.92-2.92v7.276h-.003zM247.275 16l-2.922-2.922-2.416 2.416-1.435-1.434 2.417-2.416L240 8.725h7.275V16zM256 7.276h-7.275V0l2.92 2.92 2.418-2.415 1.436 1.433-2.418 2.416L256 7.276zM248.725 16V8.725H256l-2.921 2.922 2.417 2.416-1.436 1.434-2.416-2.416L248.725 16z"/><g><linearGradient id="o" gradientUnits="userSpaceOnUse" x1="474.945" y1="-288.842" x2="474.945" y2="-283.049" gradientTransform="matrix(1 0 0 -1 -231 -282)"><stop offset="0" stop-color="#dedede"/><stop offset=".503" stop-color="#fff"/></linearGradient><path fill="url(#o)" d="M241.939 1.119l-.82.819 2.418 2.416-2.488 2.488h5.793V1.049l-2.487 2.485z"/><linearGradient id="p" gradientUnits="userSpaceOnUse" x1="474.945" y1="-296.951" x2="474.945" y2="-291.158" gradientTransform="matrix(1 0 0 -1 -231 -282)"><stop offset="0" stop-color="#dedede"/><stop offset=".503" stop-color="#fff"/></linearGradient><path fill="url(#p)" d="M243.536 11.646l-2.417 2.417.819.817 2.416-2.416 2.488 2.487V9.158h-5.793z"/><linearGradient id="q" gradientUnits="userSpaceOnUse" x1="483.055" y1="-288.842" x2="483.055" y2="-283.049" gradientTransform="matrix(1 0 0 -1 -231 -282)"><stop offset="0" stop-color="#dedede"/><stop offset=".503" stop-color="#fff"/></linearGradient><path fill="url(#q)" d="M252.463 4.354l2.419-2.416-.819-.819-2.418 2.415-2.486-2.485v5.793h5.792z"/><linearGradient id="r" gradientUnits="userSpaceOnUse" x1="483.055" y1="-296.951" x2="483.055" y2="-291.158" gradientTransform="matrix(1 0 0 -1 -231 -282)"><stop offset="0" stop-color="#dedede"/><stop offset=".503" stop-color="#fff"/></linearGradient><path fill="url(#r)" d="M249.159 9.158v5.793l2.487-2.487 2.417 2.416.819-.817-2.417-2.417 2.486-2.488z"/></g></g><g><path fill="#E6E7E8" d="M160.377 0l-5.335 4.003H150v8.006h4.942L160.377 16z"/><linearGradient id="s" gradientUnits="userSpaceOnUse" x1="383.514" y1="-293.56" x2="383.514" y2="-286.443" gradientTransform="matrix(1 0 0 -1 -231 -282)"><stop offset="0" stop-color="#dedede"/><stop offset=".503" stop-color="#fff"/></linearGradient><path fill="url(#s)" d="M150.444 4.443h4.14v7.117h-4.14z"/><linearGradient id="t" gradientUnits="userSpaceOnUse" x1="388.562" y1="-297.116" x2="388.562" y2="-282.884" gradientTransform="matrix(1 0 0 -1 -231 -282)"><stop offset="0" stop-color="#dedede"/><stop offset=".503" stop-color="#fff"/></linearGradient><path fill="url(#t)" d="M155.189 4.444l4.744-3.56v14.232l-4.744-3.482v-7.19z"/><g><linearGradient id="u" gradientUnits="userSpaceOnUse" x1="624.475" y1="604" x2="628" y2="604" gradientTransform="translate(-462 -596)"><stop offset="0" stop-color="#dedede"/><stop offset=".503" stop-color="#fff"/></linearGradient><path fill="url(#u)" d="M162.958 13.438l-.484-.875C164.033 11.699 165 9.951 165 8s-.968-3.699-2.526-4.563l.484-.875C164.834 3.602 166 5.686 166 8c0 2.314-1.166 4.398-3.042 5.438z"/><g><linearGradient id="v" gradientUnits="userSpaceOnUse" x1="623.475" y1="604" x2="625.674" y2="604" gradientTransform="translate(-462 -596)"><stop offset="0" stop-color="#dedede"/><stop offset=".503" stop-color="#fff"/></linearGradient><path fill="url(#v)" d="M161.958 11.055l-.482-.875c.728-.402 1.198-1.257 1.198-2.179 0-.935-.46-1.771-1.199-2.181l.484-.875c1.058.586 1.715 1.757 1.715 3.056-.001 1.3-.658 2.47-1.716 3.054z"/></g></g></g><g><path fill="#DF1000" d="M192.414 10.348l-1.107-1.112L192.544 8l-1.237-1.239 1.106-1.108 1.239 1.239 1.237-1.239 1.11 1.108L194.76 8 196 9.236l-1.109 1.112-1.239-1.241z"/><path fill="#E6E7E8" d="M190.377 0l-5.336 4.003H180v8.007h4.942l5.435 3.99z"/><linearGradient id="w" gradientUnits="userSpaceOnUse" x1="413.514" y1="-293.56" x2="413.514" y2="-286.443" gradientTransform="matrix(1 0 0 -1 -231 -282)"><stop offset="0" stop-color="#dedede"/><stop offset=".503" stop-color="#fff"/></linearGradient><path fill="url(#w)" d="M180.443 4.443h4.141v7.117h-4.141z"/><linearGradient id="x" gradientUnits="userSpaceOnUse" x1="418.562" y1="-297.117" x2="418.562" y2="-282.884" gradientTransform="matrix(1 0 0 -1 -231 -282)"><stop offset="0" stop-color="#dedede"/><stop offset=".503" stop-color="#fff"/></linearGradient><path fill="url(#x)" d="M185.189 4.443l4.744-3.56v14.233l-4.744-3.482V4.443z"/></g></svg>