<svg xmlns="http://www.w3.org/2000/svg" width="632" height="32" viewBox="0 16 632 32" enable-background="new 0 16 632 32"><path fill="#E6E7E8" d="M610.896 38.61c-1.787 0-3.256-.59-4.36-1.747-1.103-1.148-1.653-2.77-1.653-4.82 0-1.305.23-2.47.684-3.463.477-1.063 1.23-1.876 2.23-2.416.953-.512 2-.77 3.11-.77 1.415 0 2.608.367 3.546 1.09.953.73 1.563 1.775 1.828 3.098l.196.968-3.668.544-.207-.838c-.124-.52-.323-.9-.614-1.136-.28-.227-.604-.336-1.018-.336-.688 0-1.205.218-1.623.684-.426.475-.65 1.35-.65 2.524 0 1.2.22 2.082.63 2.56.394.454.886.663 1.542.663.508 0 .91-.14 1.234-.426.32-.29.536-.788.636-1.474l.135-.914 3.743.472-.16.962c-.238 1.47-.877 2.646-1.88 3.494-.99.848-2.235 1.28-3.677 1.28zM621.65 38.61c-1.787 0-3.254-.59-4.36-1.747-1.095-1.152-1.653-2.775-1.653-4.82 0-1.295.23-2.46.686-3.46.482-1.07 1.232-1.88 2.23-2.42.956-.51 2.003-.77 3.112-.77 1.414 0 2.61.368 3.547 1.09.953.73 1.566 1.776 1.828 3.1l.195.967-3.676.544-.2-.84c-.127-.518-.328-.9-.615-1.13-.283-.23-.598-.34-1.016-.34-.694 0-1.206.216-1.62.684-.438.48-.656 1.328-.656 2.524 0 1.2.217 2.082.63 2.56.394.454.882.663 1.538.663.508 0 .914-.135 1.23-.422.328-.293.543-.79.64-1.477l.134-.914 3.742.472-.156.96c-.238 1.467-.877 2.648-1.883 3.494-.99.848-2.234 1.28-3.68 1.28zM632 45.49h-32V18.51h32v26.98zm-27.965-3.974h23.93V22.484h-23.93v19.032z"/><g fill="#fff"><path d="M613.682 33.453l1.857.232c-.204 1.246-.718 2.22-1.554 2.924-.842.706-1.873 1.058-3.084 1.058-1.53 0-2.756-.484-3.684-1.453-.93-.973-1.39-2.37-1.39-4.177 0-1.168.206-2.196.6-3.07.395-.878 1.005-1.54 1.82-1.98.815-.437 1.708-.655 2.665-.655 1.207 0 2.203.296 2.965.894.775.595 1.27 1.44 1.484 2.54l-1.84.272c-.174-.725-.484-1.275-.932-1.64-.443-.37-.982-.55-1.61-.55-.96 0-1.728.33-2.325.994-.594.66-.89 1.712-.89 3.15 0 1.455.288 2.516.862 3.176.574.656 1.324.988 2.25.988.742 0 1.365-.217 1.863-.66.49-.447.807-1.127.942-2.045zM624.438 33.453l1.86.232c-.204 1.246-.722 2.22-1.558 2.924-.834.706-1.87 1.058-3.084 1.058-1.527 0-2.752-.484-3.684-1.453-.926-.973-1.39-2.37-1.39-4.177 0-1.168.21-2.196.6-3.07.4-.878 1.013-1.54 1.823-1.98.816-.437 1.71-.655 2.664-.655 1.208 0 2.204.296 2.966.894.777.595 1.268 1.44 1.484 2.54l-1.844.272c-.174-.725-.48-1.275-.93-1.64-.443-.37-.98-.55-1.613-.55-.953 0-1.725.33-2.318.994-.598.66-.893 1.712-.893 3.15 0 1.455.29 2.516.86 3.176.577.656 1.323.988 2.25.988.737 0 1.368-.217 1.86-.66.496-.447.81-1.127.946-2.045z"/></g><linearGradient id="a" gradientUnits="userSpaceOnUse" x1="1078" y1="640.551" x2="1078" y2="615.452" gradientTransform="translate(-462 -596)"><stop offset="0" stop-color="#DEDEDE"/><stop offset=".503" stop-color="#fff"/></linearGradient><path fill="url(#a)" d="M603.094 21.542h25.813v20.915h-25.813V21.542zm-2.153-2.09v25.1h30.118v-25.1H600.94z"/><path fill="#E6E7E8" d="M0 48V16l32 16L0 48z"/><linearGradient id="b" gradientUnits="userSpaceOnUse" x1="477.438" y1="642.666" x2="477.438" y2="613.602" gradientTransform="translate(-462 -596)"><stop offset="0" stop-color="#DEDEDE"/><stop offset=".503" stop-color="#fff"/></linearGradient><path fill="url(#b)" d="M29.968 32.002L.908 46.532V17.467z"/><path fill="#E6E7E8" d="M69.412 48H60V16h9.412v32zM86.98 48h-9.412V16h9.412v32z"/><linearGradient id="c" gradientUnits="userSpaceOnUse" x1="526.707" y1="643.059" x2="526.707" y2="612.942" gradientTransform="translate(-462 -596)"><stop offset="0" stop-color="#DEDEDE"/><stop offset=".503" stop-color="#fff"/></linearGradient><path fill="url(#c)" d="M60.942 16.942h7.53v30.116h-7.53z"/><linearGradient id="d" gradientUnits="userSpaceOnUse" x1="544.273" y1="643.059" x2="544.273" y2="612.942" gradientTransform="translate(-462 -596)"><stop offset="0" stop-color="#DEDEDE"/><stop offset=".503" stop-color="#fff"/></linearGradient><path fill="url(#d)" d="M78.508 16.942h7.53v30.116h-7.53z"/><path fill="#E6E7E8" d="M452 48h-15.762l6.328-6.33-5.236-5.234 3.105-3.104 5.236 5.234 6.33-6.33V48zM435.762 48H420V32.236l6.328 6.33 5.236-5.234 3.105 3.104-5.235 5.234 6.327 6.33zM420 31.764V16h15.762l-6.33 6.332 5.24 5.234-3.11 3.102-5.235-5.232L420 31.764zM452 31.764l-6.326-6.328-5.236 5.234-3.107-3.104 5.24-5.234L436.237 16H452v15.764z"/><linearGradient id="e" gradientUnits="userSpaceOnUse" x1="906.784" y1="643.059" x2="906.784" y2="630.51" gradientTransform="translate(-462 -596)"><stop offset="0" stop-color="#DEDEDE"/><stop offset=".503" stop-color="#fff"/></linearGradient><path fill="url(#e)" d="M440.436 34.664l-1.772 1.772 5.232 5.234-5.386 5.39h12.55V34.51l-5.388 5.386z"/><linearGradient id="f" gradientUnits="userSpaceOnUse" x1="889.215" y1="643.059" x2="889.215" y2="630.51" gradientTransform="translate(-462 -596)"><stop offset="0" stop-color="#DEDEDE"/><stop offset=".503" stop-color="#fff"/></linearGradient><path fill="url(#f)" d="M433.338 36.436l-1.774-1.772-5.236 5.232-5.387-5.386v12.55h12.548l-5.383-5.39z"/><linearGradient id="g" gradientUnits="userSpaceOnUse" x1="889.215" y1="625.49" x2="889.215" y2="612.942" gradientTransform="translate(-462 -596)"><stop offset="0" stop-color="#DEDEDE"/><stop offset=".503" stop-color="#fff"/></linearGradient><path fill="url(#g)" d="M420.94 29.49l5.386-5.384 5.237 5.232 1.775-1.772-5.238-5.234 5.388-5.39H420.94z"/><linearGradient id="h" gradientUnits="userSpaceOnUse" x1="906.784" y1="625.49" x2="906.784" y2="612.942" gradientTransform="translate(-462 -596)"><stop offset="0" stop-color="#DEDEDE"/><stop offset=".503" stop-color="#fff"/></linearGradient><path fill="url(#h)" d="M438.51 16.942l5.39 5.39-5.236 5.234 1.774 1.772 5.236-5.232 5.385 5.384V16.942z"/><path fill="#E6E7E8" d="M152 48h-32V16h32v32z"/><linearGradient id="i" gradientUnits="userSpaceOnUse" x1="597.999" y1="643.059" x2="597.999" y2="612.942" gradientTransform="translate(-462 -596)"><stop offset="0" stop-color="#DEDEDE"/><stop offset=".503" stop-color="#fff"/></linearGradient><path fill="url(#i)" d="M120.94 16.942h30.117v30.116H120.94z"/><path fill="#E6E7E8" d="M564.604 46.41h-17.207c-4.078 0-7.395-3.316-7.395-7.395V30.41c0-4.077 3.316-7.394 7.395-7.394h4.17v6.187h-4.17c-.67 0-1.21.542-1.21 1.208v8.605c0 .668.54 1.21 1.21 1.21h17.207c.666 0 1.213-.542 1.213-1.21V30.41c0-.667-.547-1.207-1.213-1.207h-1.564v5.36l-10.004-8.486 10.004-8.488v5.43h1.564c4.078 0 7.396 3.315 7.396 7.394v8.605c0 4.074-3.318 7.39-7.396 7.39z"/><linearGradient id="j" gradientUnits="userSpaceOnUse" x1="1018" y1="641.438" x2="1018" y2="615.586" gradientTransform="translate(-462 -596)"><stop offset="0" stop-color="#DEDEDE"/><stop offset=".503" stop-color="#fff"/></linearGradient><path fill="url(#j)" d="M564.604 23.92h-2.508v-4.334l-7.605 6.456 7.606 6.456v-4.276h2.508c1.186 0 2.154.962 2.154 2.152v8.606c0 1.184-.97 2.152-2.154 2.152h-17.207c-1.186 0-2.152-.97-2.152-2.152v-8.606c0-1.188.967-2.152 2.152-2.152h3.23v-4.3h-3.23c-3.56 0-6.455 2.893-6.455 6.456v8.606c0 3.56 2.89 6.453 6.455 6.453h17.207c3.56 0 6.455-2.89 6.455-6.453v-8.61c0-3.558-2.898-6.454-6.456-6.454z"/><path fill="#E6E7E8" d="M272 32l-22.218-13.882v6.112L240 18.118v27.765l9.782-6.113v6.113z"/><linearGradient id="k" gradientUnits="userSpaceOnUse" x1="712.7" y1="640.231" x2="712.7" y2="615.769" gradientTransform="translate(-462 -596)"><stop offset="0" stop-color="#DEDEDE"/><stop offset=".503" stop-color="#fff"/></linearGradient><path fill="url(#k)" d="M260.484 32l-19.568 12.23V19.77z"/><linearGradient id="l" gradientUnits="userSpaceOnUse" x1="722.484" y1="640.231" x2="722.484" y2="615.769" gradientTransform="translate(-462 -596)"><stop offset="0" stop-color="#DEDEDE"/><stop offset=".503" stop-color="#fff"/></linearGradient><path fill="url(#l)" d="M270.27 32L250.7 44.23V19.77z"/><path fill="#E6E7E8" d="M212 18.114l-9.784 6.118v-6.118L180 32l22.216 13.887V39.77L212 45.887V18.114z"/><linearGradient id="m" gradientUnits="userSpaceOnUse" x1="663.298" y1="640.231" x2="663.298" y2="615.769" gradientTransform="translate(-462 -596)"><stop offset="0" stop-color="#DEDEDE"/><stop offset=".503" stop-color="#fff"/></linearGradient><path fill="url(#m)" d="M211.082 19.77v24.46L191.514 32z"/><linearGradient id="n" gradientUnits="userSpaceOnUse" x1="653.514" y1="640.231" x2="653.514" y2="615.769" gradientTransform="translate(-462 -596)"><stop offset="0" stop-color="#DEDEDE"/><stop offset=".503" stop-color="#fff"/></linearGradient><path fill="url(#n)" d="M201.298 19.77v24.46L181.73 32z"/><path fill="#E6E7E8" d="M494.55 30.552H480l5.846-5.844-4.838-4.832 2.87-2.866 4.837 4.83 5.84-5.84v14.552h-.004zM494.55 48l-5.843-5.844-4.832 4.832-2.87-2.867 4.833-4.83L480 33.45h14.55V48zM512 30.552h-14.55V16l5.84 5.84 4.835-4.83 2.873 2.866-4.836 4.832L512 30.552zM497.45 48V33.45H512l-5.842 5.843 4.834 4.832-2.87 2.87-4.833-4.833L497.45 48z"/><linearGradient id="o" gradientUnits="userSpaceOnUse" x1="949.891" y1="625.684" x2="949.891" y2="614.098" gradientTransform="translate(-462 -596)"><stop offset="0" stop-color="#DEDEDE"/><stop offset=".503" stop-color="#fff"/></linearGradient><path fill="url(#o)" d="M483.88 18.238l-1.642 1.638 4.836 4.832-4.976 4.976h11.586V18.098l-4.973 4.97z"/><linearGradient id="p" gradientUnits="userSpaceOnUse" x1="949.891" y1="641.902" x2="949.891" y2="630.316" gradientTransform="translate(-462 -596)"><stop offset="0" stop-color="#DEDEDE"/><stop offset=".503" stop-color="#fff"/></linearGradient><path fill="url(#p)" d="M487.072 39.293l-4.834 4.832 1.637 1.635 4.832-4.832 4.977 4.974V34.316h-11.586z"/><linearGradient id="q" gradientUnits="userSpaceOnUse" x1="966.11" y1="625.684" x2="966.11" y2="614.098" gradientTransform="translate(-462 -596)"><stop offset="0" stop-color="#DEDEDE"/><stop offset=".503" stop-color="#fff"/></linearGradient><path fill="url(#q)" d="M504.926 24.708l4.838-4.832-1.64-1.638-4.835 4.83-4.972-4.97v11.586h11.584z"/><linearGradient id="r" gradientUnits="userSpaceOnUse" x1="966.11" y1="641.902" x2="966.11" y2="630.316" gradientTransform="translate(-462 -596)"><stop offset="0" stop-color="#DEDEDE"/><stop offset=".503" stop-color="#fff"/></linearGradient><path fill="url(#r)" d="M498.318 34.316v11.586l4.975-4.974 4.832 4.832 1.64-1.635-4.835-4.832 4.972-4.977z"/><path fill="#E6E7E8" d="M320.754 16l-10.67 8.006H300v16.012h9.884L320.754 48z"/><linearGradient id="s" gradientUnits="userSpaceOnUse" x1="767.027" y1="635.121" x2="767.027" y2="620.886" gradientTransform="translate(-462 -596)"><stop offset="0" stop-color="#DEDEDE"/><stop offset=".503" stop-color="#fff"/></linearGradient><path fill="url(#s)" d="M300.888 24.886h8.28V39.12h-8.28z"/><linearGradient id="t" gradientUnits="userSpaceOnUse" x1="777.122" y1="642.232" x2="777.122" y2="613.768" gradientTransform="translate(-462 -596)"><stop offset="0" stop-color="#DEDEDE"/><stop offset=".503" stop-color="#fff"/></linearGradient><path fill="url(#t)" d="M310.378 24.888l9.488-7.12v28.465l-9.488-6.965v-14.38z"/><linearGradient id="u" gradientUnits="userSpaceOnUse" x1="1017.948" y1="-878" x2="1025" y2="-878" gradientTransform="matrix(1 0 0 -1 -693 -846)"><stop offset="0" stop-color="#DEDEDE"/><stop offset=".503" stop-color="#fff"/></linearGradient><path fill="url(#u)" d="M325.916 42.875l-.968-1.75C328.066 39.398 330 35.902 330 32s-1.936-7.398-5.052-9.126l.968-1.75C329.668 23.204 332 27.372 332 32c0 4.63-2.332 8.797-6.084 10.875z"/><linearGradient id="v" gradientUnits="userSpaceOnUse" x1="1015.95" y1="-878" x2="1020.348" y2="-878" gradientTransform="matrix(1 0 0 -1 -693 -846)"><stop offset="0" stop-color="#DEDEDE"/><stop offset=".503" stop-color="#fff"/></linearGradient><path fill="url(#v)" d="M323.916 38.11l-.964-1.75c1.456-.806 2.396-2.515 2.396-4.358 0-1.87-.92-3.542-2.397-4.362l.97-1.75c2.115 1.173 3.43 3.515 3.43 6.112-.004 2.6-1.318 4.94-3.434 6.107z"/><path fill="#DF1000" d="M384.828 36.695l-2.215-2.222L385.088 32l-2.475-2.48 2.213-2.214 2.48 2.478 2.47-2.478L392 29.52 389.52 32l2.48 2.473-2.22 2.222-2.475-2.48z"/><path fill="#E6E7E8" d="M380.754 16l-10.672 8.006H360V40.02h9.883l10.87 7.98z"/><linearGradient id="w" gradientUnits="userSpaceOnUse" x1="827.027" y1="635.121" x2="827.027" y2="620.886" gradientTransform="translate(-462 -596)"><stop offset="0" stop-color="#DEDEDE"/><stop offset=".503" stop-color="#fff"/></linearGradient><path fill="url(#w)" d="M360.887 24.886h8.28V39.12h-8.28z"/><linearGradient id="x" gradientUnits="userSpaceOnUse" x1="837.123" y1="642.232" x2="837.123" y2="613.766" gradientTransform="translate(-462 -596)"><stop offset="0" stop-color="#DEDEDE"/><stop offset=".503" stop-color="#fff"/></linearGradient><path fill="url(#x)" d="M370.38 24.886l9.487-7.12v28.467l-9.488-6.965V24.886z"/></svg>