<svg xmlns="http://www.w3.org/2000/svg" width="330" height="16" viewBox="0 0 330 16"><path fill="#E6E7E8" d="M0 16V0l16 8-16 8z"/><linearGradient id="a" gradientUnits="userSpaceOnUse" x1="931.719" y1="1192.734" x2="931.719" y2="1207.266" gradientTransform="translate(-924 -1192)"><stop offset="0" stop-color="#6d6e71"/><stop offset="1" stop-color="#3c3c3c"/></linearGradient><path fill="url(#a)" d="M14.984 8.001L.454 15.266V.735z"/><path fill="#E6E7E8" d="M34.706 16H30V0h4.706v16zM43.49 16h-4.706V0h4.706v16z"/><linearGradient id="b" gradientUnits="userSpaceOnUse" x1="956.354" y1="1192.471" x2="956.354" y2="1207.529" gradientTransform="translate(-924 -1192)"><stop offset="0" stop-color="#6d6e71"/><stop offset="1" stop-color="#3c3c3c"/></linearGradient><path fill="url(#b)" d="M30.471.471h3.765v15.058h-3.765z"/><linearGradient id="c" gradientUnits="userSpaceOnUse" x1="965.137" y1="1192.471" x2="965.137" y2="1207.529" gradientTransform="translate(-924 -1192)"><stop offset="0" stop-color="#6d6e71"/><stop offset="1" stop-color="#3c3c3c"/></linearGradient><path fill="url(#c)" d="M39.254.471h3.765v15.058h-3.765z"/><g><path fill="#E6E7E8" d="M226 16h-7.881l3.164-3.165-2.618-2.617 1.553-1.552 2.618 2.617L226 8.118V16zM217.881 16H210V8.118l3.164 3.165 2.618-2.617 1.553 1.552-2.617 2.617L217.881 16zM210 7.882V0h7.881l-3.165 3.166 2.62 2.617-1.555 1.551-2.618-2.616L210 7.882zM226 7.882l-3.163-3.164-2.618 2.617-1.554-1.552 2.619-2.617L218.119 0H226v7.882z"/><g><linearGradient id="d" gradientUnits="userSpaceOnUse" x1="1146.393" y1="1192.47" x2="1146.393" y2="1207.535" gradientTransform="translate(-924 -1192)"><stop offset="0" stop-color="#6d6e71"/><stop offset="1" stop-color="#3c3c3c"/></linearGradient><path fill="url(#d)" d="M220.218 9.332l-.886.886 2.616 2.617-2.693 2.694h6.274V9.255l-2.693 2.693z"/><linearGradient id="e" gradientUnits="userSpaceOnUse" x1="1137.607" y1="1192.47" x2="1137.607" y2="1207.535" gradientTransform="translate(-924 -1192)"><stop offset="0" stop-color="#6d6e71"/><stop offset="1" stop-color="#3c3c3c"/></linearGradient><path fill="url(#e)" d="M216.669 10.218l-.887-.886-2.618 2.616-2.693-2.693v6.274h6.273l-2.691-2.694z"/><linearGradient id="f" gradientUnits="userSpaceOnUse" x1="1137.607" y1="1192.471" x2="1137.607" y2="1207.528" gradientTransform="translate(-924 -1192)"><stop offset="0" stop-color="#6d6e71"/><stop offset="1" stop-color="#3c3c3c"/></linearGradient><path fill="url(#f)" d="M210.471 6.745l2.692-2.692 2.618 2.616.888-.886-2.619-2.617 2.694-2.695h-6.273z"/><linearGradient id="g" gradientUnits="userSpaceOnUse" x1="1146.393" y1="1192.471" x2="1146.393" y2="1207.528" gradientTransform="translate(-924 -1192)"><stop offset="0" stop-color="#6d6e71"/><stop offset="1" stop-color="#3c3c3c"/></linearGradient><path fill="url(#g)" d="M219.255.471l2.695 2.695-2.618 2.617.887.886 2.618-2.616 2.692 2.692V.471z"/></g></g><g><path fill="#E6E7E8" d="M247.275 7.276H240l2.923-2.922-2.419-2.416L241.94.505l2.418 2.415 2.92-2.92v7.276h-.003zM247.275 16l-2.922-2.922-2.416 2.416-1.437-1.434 2.417-2.416L240 8.725h7.275V16zM256 7.276h-7.275V0l2.92 2.92 2.418-2.415 1.438 1.433-2.418 2.416L256 7.276zM248.725 16V8.725H256l-2.921 2.922 2.417 2.416-1.436 1.436-2.416-2.416L248.725 16z"/><g><linearGradient id="h" gradientUnits="userSpaceOnUse" x1="1167.945" y1="1193.049" x2="1167.945" y2="1206.952" gradientTransform="translate(-924 -1192)"><stop offset="0" stop-color="#6d6e71"/><stop offset="1" stop-color="#3c3c3c"/></linearGradient><path fill="url(#h)" d="M241.939 1.119l-.82.819 2.418 2.416-2.488 2.488h5.793V1.049l-2.487 2.485z"/><linearGradient id="i" gradientUnits="userSpaceOnUse" x1="1167.945" y1="1193.049" x2="1167.945" y2="1206.952" gradientTransform="translate(-924 -1192)"><stop offset="0" stop-color="#6d6e71"/><stop offset="1" stop-color="#3c3c3c"/></linearGradient><path fill="url(#i)" d="M243.536 11.646l-2.417 2.417.819.817 2.416-2.416 2.488 2.487V9.158h-5.793z"/><linearGradient id="j" gradientUnits="userSpaceOnUse" x1="1176.055" y1="1193.049" x2="1176.055" y2="1206.952" gradientTransform="translate(-924 -1192)"><stop offset="0" stop-color="#6d6e71"/><stop offset="1" stop-color="#3c3c3c"/></linearGradient><path fill="url(#j)" d="M252.463 4.354l2.419-2.416-.819-.819-2.418 2.415-2.486-2.485v5.793h5.792z"/><linearGradient id="k" gradientUnits="userSpaceOnUse" x1="1176.055" y1="1193.049" x2="1176.055" y2="1206.952" gradientTransform="translate(-924 -1192)"><stop offset="0" stop-color="#6d6e71"/><stop offset="1" stop-color="#3c3c3c"/></linearGradient><path fill="url(#k)" d="M249.159 9.158v5.793l2.487-2.487 2.417 2.416.819-.817-2.417-2.417 2.486-2.488z"/></g></g><g><path fill="#E6E7E8" d="M160.377 0l-5.335 4.003H150v8.006h4.942L160.377 16z"/><linearGradient id="l" gradientUnits="userSpaceOnUse" x1="1076.701" y1="1192.885" x2="1076.701" y2="1207.117" gradientTransform="translate(-924 -1192)"><stop offset="0" stop-color="#6d6e71"/><stop offset="1" stop-color="#3c3c3c"/></linearGradient><path fill="url(#l)" d="M150.444 4.443h4.515v7.116h-4.515z"/><linearGradient id="m" gradientUnits="userSpaceOnUse" x1="1081.562" y1="1192.883" x2="1081.562" y2="1207.115" gradientTransform="translate(-924 -1192)"><stop offset="0" stop-color="#6d6e71"/><stop offset="1" stop-color="#3c3c3c"/></linearGradient><path fill="url(#m)" d="M155.189 4.443l4.744-3.56v14.232l-4.744-3.482v-7.19z"/><g><linearGradient id="n" gradientUnits="userSpaceOnUse" x1="1086.475" y1="1200" x2="1090" y2="1200" gradientTransform="translate(-924 -1192)"><stop offset="0" stop-color="#6d6e71"/><stop offset="1" stop-color="#3c3c3c"/></linearGradient><path fill="url(#n)" d="M162.958 13.438l-.484-.875C164.033 11.699 165 9.951 165 8s-.968-3.699-2.526-4.563l.484-.875C164.834 3.602 166 5.686 166 8c0 2.314-1.166 4.398-3.042 5.438z"/><g><linearGradient id="o" gradientUnits="userSpaceOnUse" x1="1085.475" y1="1200" x2="1087.674" y2="1200" gradientTransform="translate(-924 -1192)"><stop offset="0" stop-color="#6d6e71"/><stop offset="1" stop-color="#3c3c3c"/></linearGradient><path fill="url(#o)" d="M161.958 11.055l-.482-.875c.728-.402 1.198-1.257 1.198-2.179 0-.935-.46-1.771-1.199-2.181l.484-.875c1.058.586 1.715 1.757 1.715 3.056-.001 1.3-.658 2.47-1.716 3.054z"/></g></g></g><g><path fill="#DF1000" d="M192.414 10.348l-1.107-1.112L192.544 8l-1.237-1.239 1.106-1.108 1.239 1.239 1.237-1.239 1.11 1.108L194.76 8 196 9.236l-1.109 1.112-1.239-1.241z"/><path fill="#E6E7E8" d="M190.377 0l-5.335 4.003H180v8.006h4.941L190.377 16z"/><linearGradient id="p" gradientUnits="userSpaceOnUse" x1="1106.701" y1="1192.885" x2="1106.701" y2="1207.117" gradientTransform="translate(-924 -1192)"><stop offset="0" stop-color="#6d6e71"/><stop offset="1" stop-color="#3c3c3c"/></linearGradient><path fill="url(#p)" d="M180.443 4.443h4.516v7.116h-4.516z"/><linearGradient id="q" gradientUnits="userSpaceOnUse" x1="1111.562" y1="1192.883" x2="1111.562" y2="1207.115" gradientTransform="translate(-924 -1192)"><stop offset="0" stop-color="#6d6e71"/><stop offset="1" stop-color="#3c3c3c"/></linearGradient><path fill="url(#q)" d="M185.189 4.443l4.744-3.56v14.232l-4.744-3.482v-7.19z"/></g></svg>