<svg xmlns="http://www.w3.org/2000/svg" width="632" height="32" viewBox="0 16 632 32"><path fill="#E6E7E8" d="M610.896 38.609c-1.787 0-3.256-.588-4.361-1.746-1.102-1.148-1.652-2.771-1.652-4.821 0-1.304.23-2.468.684-3.462a5.014 5.014 0 0 1 2.23-2.416 6.5 6.5 0 0 1 3.111-.771c1.414 0 2.607.368 3.545 1.091.953.729 1.563 1.775 1.828 3.098l.195.968-3.668.544-.207-.838c-.125-.52-.324-.899-.615-1.136-.279-.227-.604-.336-1.018-.336-.688 0-1.205.218-1.623.684-.426.475-.65 1.349-.65 2.524 0 1.199.219 2.082.631 2.559.393.455.885.664 1.541.664.508 0 .91-.141 1.234-.426.32-.289.535-.787.635-1.473l.135-.914 3.742.472-.16.962c-.238 1.469-.877 2.646-1.881 3.494-.99.848-2.234 1.279-3.676 1.279z"/><path fill="#E6E7E8" d="M621.65 38.609c-1.787 0-3.254-.588-4.361-1.746-1.094-1.152-1.652-2.775-1.652-4.821 0-1.294.23-2.46.686-3.46.482-1.068 1.232-1.88 2.229-2.418a6.526 6.526 0 0 1 3.113-.771c1.414 0 2.609.368 3.547 1.091.953.729 1.566 1.775 1.828 3.098l.195.968-3.676.544-.199-.84c-.127-.518-.328-.9-.615-1.13-.283-.23-.598-.34-1.016-.34-.693 0-1.205.216-1.619.684-.438.48-.656 1.328-.656 2.524 0 1.199.217 2.082.629 2.559.395.455.883.664 1.539.664.508 0 .914-.135 1.23-.422.328-.293.543-.791.641-1.477l.133-.914 3.742.472-.156.96c-.238 1.467-.877 2.648-1.883 3.494-.989.848-2.233 1.281-3.679 1.281z"/><path fill="#E6E7E8" d="M632 45.49h-32V18.51h32v26.98zm-27.965-3.974h23.93V22.484h-23.93v19.032z"/><g fill="#FFF"><path d="M613.682 33.453l1.857.232c-.203 1.246-.717 2.221-1.553 2.924-.842.707-1.873 1.059-3.084 1.059-1.531 0-2.756-.484-3.684-1.453-.93-.973-1.389-2.369-1.389-4.177 0-1.168.205-2.196.598-3.07.396-.878 1.006-1.54 1.822-1.979a5.546 5.546 0 0 1 2.664-.656c1.207 0 2.203.296 2.965.894.775.595 1.27 1.44 1.484 2.54l-1.84.272c-.174-.724-.484-1.274-.932-1.638-.443-.37-.982-.551-1.611-.551-.959 0-1.727.33-2.324.994-.594.66-.891 1.712-.891 3.15 0 1.455.289 2.516.863 3.176.574.656 1.324.988 2.25.988.742 0 1.365-.217 1.863-.66.49-.447.807-1.127.942-2.045zM624.438 33.453l1.859.232c-.203 1.246-.721 2.221-1.557 2.924-.834.707-1.869 1.059-3.084 1.059-1.527 0-2.752-.484-3.684-1.453-.926-.973-1.389-2.369-1.389-4.177 0-1.168.209-2.196.598-3.07.402-.878 1.014-1.54 1.824-1.979a5.558 5.558 0 0 1 2.664-.656c1.209 0 2.205.296 2.967.894.777.595 1.268 1.44 1.484 2.54l-1.844.272c-.174-.724-.48-1.274-.93-1.638-.443-.37-.98-.551-1.613-.551-.953 0-1.725.33-2.318.994-.598.66-.893 1.712-.893 3.15 0 1.455.291 2.516.859 3.176.578.656 1.324.988 2.25.988.738 0 1.369-.217 1.861-.66.496-.447.809-1.127.946-2.045z"/></g><linearGradient id="a" gradientUnits="userSpaceOnUse" x1="1078" y1="640.551" x2="1078" y2="615.452" gradientTransform="translate(-462 -596)"><stop offset="0" stop-color="#dedede"/><stop offset=".503" stop-color="#fff"/></linearGradient><path fill="url(#a)" d="M603.094 21.542h25.813v20.915h-25.813V21.542zm-2.153-2.09v25.099h30.117V19.452h-30.117z"/><path fill="#E6E7E8" d="M0 48V16l32 16L0 48z"/><linearGradient id="b" gradientUnits="userSpaceOnUse" x1="477.438" y1="642.666" x2="477.438" y2="613.602" gradientTransform="translate(-462 -596)"><stop offset="0" stop-color="#dedede"/><stop offset=".503" stop-color="#fff"/></linearGradient><path fill="url(#b)" d="M29.968 32.002L.908 46.531V17.468z"/><path fill="#E6E7E8" d="M69.412 48H60V16h9.412v32zM86.98 48h-9.412V16h9.412v32z"/><g><linearGradient id="c" gradientUnits="userSpaceOnUse" x1="526.707" y1="643.059" x2="526.707" y2="612.942" gradientTransform="translate(-462 -596)"><stop offset="0" stop-color="#dedede"/><stop offset=".503" stop-color="#fff"/></linearGradient><path fill="url(#c)" d="M60.942 16.942h7.529v30.116h-7.529z"/><linearGradient id="d" gradientUnits="userSpaceOnUse" x1="544.273" y1="643.059" x2="544.273" y2="612.942" gradientTransform="translate(-462 -596)"><stop offset="0" stop-color="#dedede"/><stop offset=".503" stop-color="#fff"/></linearGradient><path fill="url(#d)" d="M78.508 16.942h7.53v30.116h-7.53z"/></g><g><path fill="#E6E7E8" d="M452 48h-15.762l6.328-6.33-5.236-5.234 3.105-3.104 5.236 5.234 6.328-6.33V48H452zM435.762 48H420V32.236l6.328 6.33 5.236-5.234 3.105 3.104-5.234 5.234 6.327 6.33zM420 31.764V16h15.762l-6.33 6.332 5.24 5.234-3.109 3.102-5.236-5.232L420 31.764zM452 31.764l-6.326-6.328-5.236 5.234-3.107-3.104 5.238-5.234L436.238 16H452v15.764z"/><g><linearGradient id="e" gradientUnits="userSpaceOnUse" x1="906.784" y1="643.059" x2="906.784" y2="630.51" gradientTransform="translate(-462 -596)"><stop offset="0" stop-color="#dedede"/><stop offset=".503" stop-color="#fff"/></linearGradient><path fill="url(#e)" d="M440.436 34.664l-1.772 1.772 5.232 5.234-5.386 5.389h12.549V34.51l-5.387 5.386z"/><linearGradient id="f" gradientUnits="userSpaceOnUse" x1="889.215" y1="643.059" x2="889.215" y2="630.51" gradientTransform="translate(-462 -596)"><stop offset="0" stop-color="#dedede"/><stop offset=".503" stop-color="#fff"/></linearGradient><path fill="url(#f)" d="M433.338 36.436l-1.774-1.772-5.236 5.232-5.387-5.386v12.549h12.547l-5.383-5.389z"/><linearGradient id="g" gradientUnits="userSpaceOnUse" x1="889.215" y1="625.49" x2="889.215" y2="612.942" gradientTransform="translate(-462 -596)"><stop offset="0" stop-color="#dedede"/><stop offset=".503" stop-color="#fff"/></linearGradient><path fill="url(#g)" d="M420.941 29.49l5.385-5.384 5.237 5.232 1.775-1.772-5.238-5.234 5.388-5.39h-12.547z"/><linearGradient id="h" gradientUnits="userSpaceOnUse" x1="906.784" y1="625.49" x2="906.784" y2="612.942" gradientTransform="translate(-462 -596)"><stop offset="0" stop-color="#dedede"/><stop offset=".503" stop-color="#fff"/></linearGradient><path fill="url(#h)" d="M438.51 16.942l5.39 5.39-5.236 5.234 1.774 1.772 5.236-5.232 5.385 5.384V16.942z"/></g></g><g><path fill="#E6E7E8" d="M152 48h-32V16h32v32z"/><linearGradient id="i" gradientUnits="userSpaceOnUse" x1="597.999" y1="643.059" x2="597.999" y2="612.942" gradientTransform="translate(-462 -596)"><stop offset="0" stop-color="#dedede"/><stop offset=".503" stop-color="#fff"/></linearGradient><path fill="url(#i)" d="M120.94 16.942h30.117v30.116H120.94z"/></g><g><path fill="#E6E7E8" d="M564.604 46.41h-17.207c-4.078 0-7.395-3.316-7.395-7.395v-8.604c0-4.078 3.316-7.395 7.395-7.395h4.17v6.187h-4.17a1.21 1.21 0 0 0-1.211 1.208v8.604a1.21 1.21 0 0 0 1.211 1.211h17.207c.666 0 1.213-.543 1.213-1.211v-8.604c0-.668-.547-1.208-1.213-1.208h-1.564v5.36l-10.004-8.486 10.004-8.488v5.43h1.564c4.078 0 7.396 3.316 7.396 7.395v8.605c0 4.075-3.318 7.391-7.396 7.391z"/><linearGradient id="j" gradientUnits="userSpaceOnUse" x1="1018" y1="641.438" x2="1018" y2="615.586" gradientTransform="translate(-462 -596)"><stop offset="0" stop-color="#dedede"/><stop offset=".503" stop-color="#fff"/></linearGradient><path fill="url(#j)" d="M564.604 23.92h-2.508v-4.334l-7.605 6.456 7.605 6.456v-4.276h2.508c1.186 0 2.154.962 2.154 2.152v8.606a2.159 2.159 0 0 1-2.154 2.152h-17.207a2.157 2.157 0 0 1-2.152-2.152v-8.606c0-1.188.967-2.152 2.152-2.152h3.229v-4.3h-3.229a6.461 6.461 0 0 0-6.455 6.456v8.606a6.458 6.458 0 0 0 6.455 6.453h17.207a6.46 6.46 0 0 0 6.455-6.453v-8.61a6.463 6.463 0 0 0-6.455-6.454z"/></g><g><path fill="#E6E7E8" d="M272 32l-22.218-13.882v6.112L240 18.118v27.765l9.782-6.113v6.113z"/><linearGradient id="k" gradientUnits="userSpaceOnUse" x1="712.7" y1="640.231" x2="712.7" y2="615.769" gradientTransform="translate(-462 -596)"><stop offset="0" stop-color="#dedede"/><stop offset=".503" stop-color="#fff"/></linearGradient><path fill="url(#k)" d="M260.484 32l-19.568 12.23V19.77z"/><g><linearGradient id="l" gradientUnits="userSpaceOnUse" x1="722.484" y1="640.231" x2="722.484" y2="615.769" gradientTransform="translate(-462 -596)"><stop offset="0" stop-color="#dedede"/><stop offset=".503" stop-color="#fff"/></linearGradient><path fill="url(#l)" d="M270.27 32L250.7 44.23V19.77z"/></g></g><g><path fill="#E6E7E8" d="M212 18.114l-9.784 6.118v-6.118L180 32l22.216 13.887V39.77L212 45.887V18.114z"/><linearGradient id="m" gradientUnits="userSpaceOnUse" x1="663.298" y1="640.231" x2="663.298" y2="615.769" gradientTransform="translate(-462 -596)"><stop offset="0" stop-color="#dedede"/><stop offset=".503" stop-color="#fff"/></linearGradient><path fill="url(#m)" d="M211.082 19.77v24.46L191.514 32z"/><g><linearGradient id="n" gradientUnits="userSpaceOnUse" x1="653.514" y1="640.231" x2="653.514" y2="615.769" gradientTransform="translate(-462 -596)"><stop offset="0" stop-color="#dedede"/><stop offset=".503" stop-color="#fff"/></linearGradient><path fill="url(#n)" d="M201.298 19.77v24.46L181.73 32z"/></g></g><g><path fill="#E6E7E8" d="M494.551 30.552H480l5.846-5.844-4.838-4.832 2.871-2.866 4.836 4.83 5.84-5.84v14.552h-.004zM494.551 48l-5.844-5.844-4.832 4.832-2.871-2.867 4.834-4.832-5.838-5.84h14.551V48zM512 30.552h-14.551V16l5.84 5.84 4.836-4.83 2.873 2.866-4.836 4.832L512 30.552zM497.449 48V33.449H512l-5.842 5.844 4.834 4.832-2.871 2.869-4.832-4.832-5.84 5.838z"/><g><linearGradient id="o" gradientUnits="userSpaceOnUse" x1="949.891" y1="625.684" x2="949.891" y2="614.098" gradientTransform="translate(-462 -596)"><stop offset="0" stop-color="#dedede"/><stop offset=".503" stop-color="#fff"/></linearGradient><path fill="url(#o)" d="M483.879 18.238l-1.641 1.638 4.836 4.832-4.976 4.976h11.586V18.098l-4.973 4.97z"/><linearGradient id="p" gradientUnits="userSpaceOnUse" x1="949.891" y1="641.902" x2="949.891" y2="630.316" gradientTransform="translate(-462 -596)"><stop offset="0" stop-color="#dedede"/><stop offset=".503" stop-color="#fff"/></linearGradient><path fill="url(#p)" d="M487.072 39.293l-4.834 4.832 1.637 1.635 4.832-4.832 4.977 4.974V34.316h-11.586z"/><linearGradient id="q" gradientUnits="userSpaceOnUse" x1="966.11" y1="625.684" x2="966.11" y2="614.098" gradientTransform="translate(-462 -596)"><stop offset="0" stop-color="#dedede"/><stop offset=".503" stop-color="#fff"/></linearGradient><path fill="url(#q)" d="M504.926 24.708l4.838-4.832-1.639-1.638-4.836 4.83-4.971-4.97v11.586h11.584z"/><linearGradient id="r" gradientUnits="userSpaceOnUse" x1="966.11" y1="641.902" x2="966.11" y2="630.316" gradientTransform="translate(-462 -596)"><stop offset="0" stop-color="#dedede"/><stop offset=".503" stop-color="#fff"/></linearGradient><path fill="url(#r)" d="M498.318 34.316v11.586l4.975-4.974 4.832 4.832 1.639-1.635-4.834-4.832 4.972-4.977z"/></g></g><g><path fill="#E6E7E8" d="M320.754 16l-10.67 8.006H300v16.012h9.884L320.754 48z"/><linearGradient id="s" gradientUnits="userSpaceOnUse" x1="767.027" y1="635.121" x2="767.027" y2="620.886" gradientTransform="translate(-462 -596)"><stop offset="0" stop-color="#dedede"/><stop offset=".503" stop-color="#fff"/></linearGradient><path fill="url(#s)" d="M300.888 24.886h8.28v14.235h-8.28z"/><linearGradient id="t" gradientUnits="userSpaceOnUse" x1="777.122" y1="642.232" x2="777.122" y2="613.768" gradientTransform="translate(-462 -596)"><stop offset="0" stop-color="#dedede"/><stop offset=".503" stop-color="#fff"/></linearGradient><path fill="url(#t)" d="M310.378 24.888l9.488-7.12v28.465l-9.488-6.965v-14.38z"/><g><linearGradient id="u" gradientUnits="userSpaceOnUse" x1="1017.948" y1="-878" x2="1025" y2="-878" gradientTransform="matrix(1 0 0 -1 -693 -846)"><stop offset="0" stop-color="#dedede"/><stop offset=".503" stop-color="#fff"/></linearGradient><path fill="url(#u)" d="M325.916 42.875l-.968-1.75C328.066 39.398 330 35.902 330 32s-1.936-7.398-5.052-9.126l.968-1.75C329.668 23.204 332 27.372 332 32c0 4.629-2.332 8.797-6.084 10.875z"/><g><linearGradient id="v" gradientUnits="userSpaceOnUse" x1="1015.95" y1="-878" x2="1020.348" y2="-878" gradientTransform="matrix(1 0 0 -1 -693 -846)"><stop offset="0" stop-color="#dedede"/><stop offset=".503" stop-color="#fff"/></linearGradient><path fill="url(#v)" d="M323.916 38.109l-.964-1.75c1.456-.805 2.396-2.514 2.396-4.357 0-1.87-.92-3.542-2.397-4.362l.968-1.75c2.116 1.173 3.43 3.515 3.43 6.112-.003 2.6-1.317 4.939-3.433 6.107z"/></g></g></g><g><path fill="#DF1000" d="M384.828 36.695l-2.215-2.222L385.088 32l-2.475-2.479 2.213-2.215 2.479 2.478 2.472-2.478 2.221 2.215L389.52 32l2.48 2.473-2.219 2.222-2.476-2.48z"/><path fill="#E6E7E8" d="M380.754 16l-10.672 8.006H360V40.02h9.883L380.754 48z"/><linearGradient id="w" gradientUnits="userSpaceOnUse" x1="827.027" y1="635.121" x2="827.027" y2="620.886" gradientTransform="translate(-462 -596)"><stop offset="0" stop-color="#dedede"/><stop offset=".503" stop-color="#fff"/></linearGradient><path fill="url(#w)" d="M360.887 24.886h8.281v14.235h-8.281z"/><linearGradient id="x" gradientUnits="userSpaceOnUse" x1="837.123" y1="642.232" x2="837.123" y2="613.766" gradientTransform="translate(-462 -596)"><stop offset="0" stop-color="#dedede"/><stop offset=".503" stop-color="#fff"/></linearGradient><path fill="url(#x)" d="M370.379 24.886l9.488-7.12v28.467l-9.488-6.965V24.886z"/></g></svg>