<svg xmlns="http://www.w3.org/2000/svg" width="330" height="16" viewBox="0 0 330 16"><path fill="#E6E7E8" d="M0 16V0l16 8-16 8z"/><linearGradient id="a" gradientUnits="userSpaceOnUse" x1="238.719" y1="-297.334" x2="238.719" y2="-282.802" gradientTransform="matrix(1 0 0 -1 -231 -282)"><stop offset="0" stop-color="#DEDEDE"/><stop offset=".503" stop-color="#fff"/></linearGradient><path fill="url(#a)" d="M14.984 8L.454 15.267V.734z"/><path fill="#E6E7E8" d="M34.706 16H30V0h4.706v16zM43.49 16h-4.706V0h4.706v16z"/><linearGradient id="b" gradientUnits="userSpaceOnUse" x1="263.353" y1="-297.529" x2="263.353" y2="-282.471" gradientTransform="matrix(1 0 0 -1 -231 -282)"><stop offset="0" stop-color="#DEDEDE"/><stop offset=".503" stop-color="#fff"/></linearGradient><path fill="url(#b)" d="M30.47.47h3.766v15.06H30.47z"/><linearGradient id="c" gradientUnits="userSpaceOnUse" x1="272.137" y1="-297.529" x2="272.137" y2="-282.471" gradientTransform="matrix(1 0 0 -1 -231 -282)"><stop offset="0" stop-color="#DEDEDE"/><stop offset=".503" stop-color="#fff"/></linearGradient><path fill="url(#c)" d="M39.254.47h3.765v15.06h-3.766z"/><path fill="#E6E7E8" d="M226 16h-7.88l3.163-3.165-2.618-2.617 1.553-1.552 2.618 2.617L226 8.118V16zM217.88 16H210V8.118l3.164 3.165 2.618-2.617 1.553 1.552-2.617 2.617L217.88 16zM210 7.882V0h7.88l-3.164 3.166 2.62 2.617-1.555 1.55-2.617-2.615L210 7.882zM226 7.882l-3.163-3.164-2.618 2.617-1.555-1.552 2.62-2.617L218.118 0H226v7.882z"/><linearGradient id="d" gradientUnits="userSpaceOnUse" x1="453.393" y1="-297.529" x2="453.393" y2="-291.255" gradientTransform="matrix(1 0 0 -1 -231 -282)"><stop offset="0" stop-color="#DEDEDE"/><stop offset=".503" stop-color="#fff"/></linearGradient><path fill="url(#d)" d="M220.218 9.332l-.886.886 2.616 2.617-2.693 2.694h6.274V9.254l-2.694 2.693z"/><linearGradient id="e" gradientUnits="userSpaceOnUse" x1="444.607" y1="-297.529" x2="444.607" y2="-291.255" gradientTransform="matrix(1 0 0 -1 -231 -282)"><stop offset="0" stop-color="#DEDEDE"/><stop offset=".503" stop-color="#fff"/></linearGradient><path fill="url(#e)" d="M216.67 10.218l-.888-.886-2.618 2.616-2.693-2.693v6.274h6.274l-2.69-2.695z"/><linearGradient id="f" gradientUnits="userSpaceOnUse" x1="444.607" y1="-288.745" x2="444.607" y2="-282.471" gradientTransform="matrix(1 0 0 -1 -231 -282)"><stop offset="0" stop-color="#DEDEDE"/><stop offset=".503" stop-color="#fff"/></linearGradient><path fill="url(#f)" d="M210.47 6.745l2.693-2.692 2.618 2.616.89-.887-2.62-2.617L216.744.47h-6.273z"/><linearGradient id="g" gradientUnits="userSpaceOnUse" x1="453.393" y1="-288.745" x2="453.393" y2="-282.471" gradientTransform="matrix(1 0 0 -1 -231 -282)"><stop offset="0" stop-color="#DEDEDE"/><stop offset=".503" stop-color="#fff"/></linearGradient><path fill="url(#g)" d="M219.255.47l2.695 2.696-2.618 2.617.887.886 2.617-2.617 2.692 2.692V.47z"/><path fill="#E6E7E8" d="M247.275 7.276H240l2.923-2.922-2.42-2.416L241.94.505l2.418 2.415 2.92-2.92v7.276h-.003zM247.275 16l-2.922-2.922-2.416 2.416-1.435-1.434 2.417-2.416-2.92-2.92h7.275V16zM256 7.276h-7.275V0l2.92 2.92 2.418-2.415 1.436 1.433-2.42 2.416L256 7.276zM248.725 16V8.725H256l-2.92 2.922 2.416 2.416-1.436 1.434-2.416-2.416-2.92 2.92z"/><linearGradient id="h" gradientUnits="userSpaceOnUse" x1="474.945" y1="-288.842" x2="474.945" y2="-283.049" gradientTransform="matrix(1 0 0 -1 -231 -282)"><stop offset="0" stop-color="#DEDEDE"/><stop offset=".503" stop-color="#fff"/></linearGradient><path fill="url(#h)" d="M241.94 1.12l-.82.818 2.417 2.416-2.488 2.488h5.792V1.05l-2.487 2.484z"/><linearGradient id="i" gradientUnits="userSpaceOnUse" x1="474.945" y1="-296.951" x2="474.945" y2="-291.158" gradientTransform="matrix(1 0 0 -1 -231 -282)"><stop offset="0" stop-color="#DEDEDE"/><stop offset=".503" stop-color="#fff"/></linearGradient><path fill="url(#i)" d="M243.536 11.646l-2.417 2.417.818.817 2.416-2.416 2.488 2.487V9.16h-5.793z"/><linearGradient id="j" gradientUnits="userSpaceOnUse" x1="483.055" y1="-288.842" x2="483.055" y2="-283.049" gradientTransform="matrix(1 0 0 -1 -231 -282)"><stop offset="0" stop-color="#DEDEDE"/><stop offset=".503" stop-color="#fff"/></linearGradient><path fill="url(#j)" d="M252.463 4.354l2.42-2.416-.82-.82-2.418 2.416-2.486-2.485V6.84h5.79z"/><linearGradient id="k" gradientUnits="userSpaceOnUse" x1="483.055" y1="-296.951" x2="483.055" y2="-291.158" gradientTransform="matrix(1 0 0 -1 -231 -282)"><stop offset="0" stop-color="#DEDEDE"/><stop offset=".503" stop-color="#fff"/></linearGradient><path fill="url(#k)" d="M249.16 9.158v5.793l2.486-2.486 2.417 2.416.82-.817-2.418-2.417 2.486-2.488z"/><path fill="#E6E7E8" d="M160.377 0l-5.335 4.003H150v8.006h4.942l5.435 3.99z"/><linearGradient id="l" gradientUnits="userSpaceOnUse" x1="383.514" y1="-293.56" x2="383.514" y2="-286.443" gradientTransform="matrix(1 0 0 -1 -231 -282)"><stop offset="0" stop-color="#DEDEDE"/><stop offset=".503" stop-color="#fff"/></linearGradient><path fill="url(#l)" d="M150.444 4.443h4.14v7.117h-4.14z"/><linearGradient id="m" gradientUnits="userSpaceOnUse" x1="388.562" y1="-297.116" x2="388.562" y2="-282.884" gradientTransform="matrix(1 0 0 -1 -231 -282)"><stop offset="0" stop-color="#DEDEDE"/><stop offset=".503" stop-color="#fff"/></linearGradient><path fill="url(#m)" d="M155.19 4.444l4.743-3.56v14.232l-4.744-3.482v-7.19z"/><linearGradient id="n" gradientUnits="userSpaceOnUse" x1="624.475" y1="604" x2="628" y2="604" gradientTransform="translate(-462 -596)"><stop offset="0" stop-color="#DEDEDE"/><stop offset=".503" stop-color="#fff"/></linearGradient><path fill="url(#n)" d="M162.958 13.438l-.484-.875C164.034 11.7 165 9.95 165 8s-.968-3.7-2.526-4.563l.484-.875C164.834 3.602 166 5.686 166 8c0 2.314-1.166 4.398-3.042 5.438z"/><linearGradient id="o" gradientUnits="userSpaceOnUse" x1="623.475" y1="604" x2="625.674" y2="604" gradientTransform="translate(-462 -596)"><stop offset="0" stop-color="#DEDEDE"/><stop offset=".503" stop-color="#fff"/></linearGradient><path fill="url(#o)" d="M161.958 11.055l-.482-.875c.728-.402 1.198-1.257 1.198-2.18 0-.934-.46-1.77-1.2-2.18l.485-.875c1.057.586 1.714 1.757 1.714 3.056 0 1.3-.658 2.47-1.716 3.055z"/><path fill="#DF1000" d="M192.414 10.348l-1.107-1.112L192.544 8l-1.237-1.24 1.106-1.107 1.24 1.24 1.236-1.24L196 6.76 194.76 8 196 9.236l-1.11 1.112-1.238-1.24z"/><path fill="#E6E7E8" d="M190.377 0l-5.336 4.003H180v8.007h4.942l5.435 3.99z"/><linearGradient id="p" gradientUnits="userSpaceOnUse" x1="413.514" y1="-293.56" x2="413.514" y2="-286.443" gradientTransform="matrix(1 0 0 -1 -231 -282)"><stop offset="0" stop-color="#DEDEDE"/><stop offset=".503" stop-color="#fff"/></linearGradient><path fill="url(#p)" d="M180.443 4.443h4.14v7.117h-4.14z"/><linearGradient id="q" gradientUnits="userSpaceOnUse" x1="418.562" y1="-297.117" x2="418.562" y2="-282.884" gradientTransform="matrix(1 0 0 -1 -231 -282)"><stop offset="0" stop-color="#DEDEDE"/><stop offset=".503" stop-color="#fff"/></linearGradient><path fill="url(#q)" d="M185.19 4.443l4.743-3.56v14.233l-4.744-3.482v-7.19z"/></svg>