<svg xmlns="http://www.w3.org/2000/svg" width="330" height="16" viewBox="0 0 330 16"><path fill="#fff" d="M302.018 12.758V3.242h11.965v9.516h-11.965z"/><path fill="#E6E7E8" d="M311.81 8.2l-.065.457c-.05.344-.156.593-.32.738-.158.146-.36.21-.615.21-.328 0-.572-.102-.77-.33-.206-.24-.314-.68-.314-1.28 0-.598.11-1.02.328-1.262.207-.233.463-.342.81-.342.21 0 .366.056.51.17.144.116.244.308.308.566l.1.42 1.838-.272-.1-.484c-.13-.66-.438-1.184-.914-1.55-.47-.36-1.066-.544-1.773-.544-.555 0-1.078.13-1.557.385-.498.27-.873.676-1.114 1.21-.038.083-.054.182-.085.27-.154-.55-.432-.998-.85-1.318-.47-.36-1.065-.545-1.772-.545-.556 0-1.08.13-1.556.385-.5.27-.878.677-1.116 1.208-.227.497-.342 1.08-.342 1.73 0 1.026.274 1.837.826 2.412.553.58 1.287.872 2.18.872.722 0 1.344-.215 1.837-.64.36-.305.624-.697.79-1.167.137.356.322.673.57.935.554.58 1.287.872 2.18.872.724 0 1.346-.216 1.838-.64.503-.423.822-1.013.94-1.747l.08-.48-1.872-.237zm-5.376 0l-.068.457c-.05.344-.156.593-.316.736-.162.143-.363.213-.617.213-.328 0-.574-.103-.77-.332-.207-.238-.316-.68-.316-1.28 0-.587.112-1.023.325-1.26.21-.233.468-.343.812-.343.207 0 .37.056.51.17.146.117.244.308.308.567l.104.42 1.48-.22c-.033.224-.065.448-.065.692 0 .124.02.237.026.357l-1.412-.177zM300 1.255v13.49h16V1.255h-16zm2.018 11.503V3.242h11.965v9.516h-11.965z"/><linearGradient id="a" gradientUnits="userSpaceOnUse" x1="1229.343" y1="1193.691" x2="1229.343" y2="1206.242" gradientTransform="translate(-924 -1192)"><stop offset="0" stop-color="#6D6E71"/><stop offset="1" stop-color="#3C3C3C"/></linearGradient><path fill="url(#a)" d="M306.84 8.726l.93.117c-.102.623-.357 1.11-.775 1.46-.42.355-.938.53-1.542.53-.767 0-1.378-.24-1.843-.726-.465-.486-.693-1.186-.693-2.088 0-.585.104-1.1.3-1.536.197-.44.502-.77.91-.99.407-.22.854-.328 1.332-.328.603 0 1.102.148 1.48.447.39.297.636.72.742 1.27l-.92.136c-.087-.363-.242-.638-.466-.82-.222-.185-.49-.275-.806-.275-.48 0-.863.165-1.162.497-.297.33-.445.856-.445 1.575 0 .728.145 1.258.432 1.588.287.328.662.494 1.125.494.37 0 .684-.11.933-.33.242-.225.4-.565.468-1.024z"/><linearGradient id="b" gradientUnits="userSpaceOnUse" x1="1234.721" y1="1193.691" x2="1234.721" y2="1206.242" gradientTransform="translate(-924 -1192)"><stop offset="0" stop-color="#6D6E71"/><stop offset="1" stop-color="#3C3C3C"/></linearGradient><path fill="url(#b)" d="M312.22 8.726l.93.117c-.103.623-.36 1.11-.778 1.46-.417.355-.936.53-1.542.53-.765 0-1.376-.24-1.843-.726-.463-.486-.693-1.186-.693-2.088 0-.585.104-1.1.3-1.536.2-.44.507-.77.91-.99.41-.22.855-.328 1.333-.328.604 0 1.104.148 1.482.447.39.297.634.72.74 1.27l-.92.136c-.088-.363-.24-.638-.466-.82-.222-.185-.49-.275-.807-.275-.477 0-.862.165-1.16.497-.298.33-.445.856-.445 1.575 0 .728.146 1.258.43 1.588.29.328.662.494 1.125.494.37 0 .686-.11.932-.33.244-.225.4-.565.47-1.024z"/><linearGradient id="c" gradientUnits="userSpaceOnUse" x1="1232" y1="1193.726" x2="1232" y2="1206.275" gradientTransform="translate(-924 -1192)"><stop offset="0" stop-color="#6D6E71"/><stop offset="1" stop-color="#3C3C3C"/></linearGradient><path fill="url(#c)" d="M301.547 2.77h12.906v10.46h-12.906V2.77zm-1.076-1.044v12.55h15.06V1.725h-15.06z"/><path fill="#E6E7E8" d="M0 16V0l16 8-16 8z"/><linearGradient id="d" gradientUnits="userSpaceOnUse" x1="931.719" y1="1192.734" x2="931.719" y2="1207.266" gradientTransform="translate(-924 -1192)"><stop offset="0" stop-color="#6D6E71"/><stop offset="1" stop-color="#3C3C3C"/></linearGradient><path fill="url(#d)" d="M14.984 8L.454 15.267V.736z"/><path fill="#E6E7E8" d="M34.706 16H30V0h4.706v16zM43.49 16h-4.706V0h4.706v16z"/><linearGradient id="e" gradientUnits="userSpaceOnUse" x1="956.354" y1="1192.471" x2="956.354" y2="1207.529" gradientTransform="translate(-924 -1192)"><stop offset="0" stop-color="#6D6E71"/><stop offset="1" stop-color="#3C3C3C"/></linearGradient><path fill="url(#e)" d="M30.47.47h3.766v15.06H30.47z"/><linearGradient id="f" gradientUnits="userSpaceOnUse" x1="965.137" y1="1192.471" x2="965.137" y2="1207.529" gradientTransform="translate(-924 -1192)"><stop offset="0" stop-color="#6D6E71"/><stop offset="1" stop-color="#3C3C3C"/></linearGradient><path fill="url(#f)" d="M39.254.47h3.765v15.06h-3.766z"/><path fill="#E6E7E8" d="M226 16h-7.88l3.163-3.165-2.618-2.617 1.553-1.552 2.618 2.617L226 8.118V16zM217.88 16H210V8.118l3.164 3.165 2.618-2.617 1.553 1.552-2.617 2.617L217.88 16zM210 7.882V0h7.88l-3.164 3.166 2.62 2.617-1.555 1.55-2.617-2.615L210 7.882zM226 7.882l-3.163-3.164-2.618 2.617-1.555-1.552 2.62-2.617L218.118 0H226v7.882z"/><linearGradient id="g" gradientUnits="userSpaceOnUse" x1="1146.393" y1="1192.47" x2="1146.393" y2="1207.535" gradientTransform="translate(-924 -1192)"><stop offset="0" stop-color="#6D6E71"/><stop offset="1" stop-color="#3C3C3C"/></linearGradient><path fill="url(#g)" d="M220.218 9.332l-.886.886 2.616 2.617-2.693 2.694h6.274V9.254l-2.694 2.693z"/><linearGradient id="h" gradientUnits="userSpaceOnUse" x1="1137.607" y1="1192.47" x2="1137.607" y2="1207.535" gradientTransform="translate(-924 -1192)"><stop offset="0" stop-color="#6D6E71"/><stop offset="1" stop-color="#3C3C3C"/></linearGradient><path fill="url(#h)" d="M216.67 10.218l-.888-.886-2.618 2.616-2.693-2.693v6.274h6.274l-2.69-2.695z"/><linearGradient id="i" gradientUnits="userSpaceOnUse" x1="1137.607" y1="1192.471" x2="1137.607" y2="1207.528" gradientTransform="translate(-924 -1192)"><stop offset="0" stop-color="#6D6E71"/><stop offset="1" stop-color="#3C3C3C"/></linearGradient><path fill="url(#i)" d="M210.47 6.745l2.693-2.692 2.618 2.616.89-.887-2.62-2.617L216.744.47h-6.273z"/><linearGradient id="j" gradientUnits="userSpaceOnUse" x1="1146.393" y1="1192.471" x2="1146.393" y2="1207.528" gradientTransform="translate(-924 -1192)"><stop offset="0" stop-color="#6D6E71"/><stop offset="1" stop-color="#3C3C3C"/></linearGradient><path fill="url(#j)" d="M219.255.47l2.695 2.696-2.618 2.617.887.886 2.617-2.617 2.692 2.692V.47z"/><path fill="#E6E7E8" d="M76 16H60V0h16v16z"/><linearGradient id="k" gradientUnits="userSpaceOnUse" x1="992" y1="1192.471" x2="992" y2="1207.529" gradientTransform="translate(-924 -1192)"><stop offset="0" stop-color="#6D6E71"/><stop offset="1" stop-color="#3C3C3C"/></linearGradient><path fill="url(#k)" d="M60.47.47h15.06v15.06H60.47z"/><path fill="#E6E7E8" d="M282.302 15.205h-8.604c-2.04 0-3.697-1.658-3.697-3.697V7.206c0-2.04 1.66-3.697 3.698-3.697h2.085V6.6h-2.085c-.335 0-.605.27-.605.604v4.302c0 .334.27.605.605.605h8.604c.333 0 .606-.27.606-.605V7.206c0-.334-.273-.604-.606-.604h-.782v2.68l-5.002-4.243L281.52.794V3.51h.782c2.04 0 3.698 1.658 3.698 3.697v4.303c0 2.037-1.66 3.695-3.698 3.695z"/><linearGradient id="l" gradientUnits="userSpaceOnUse" x1="1202" y1="1193.812" x2="1202" y2="1206.736" gradientTransform="translate(-924 -1192)"><stop offset="0" stop-color="#6D6E71"/><stop offset="1" stop-color="#3C3C3C"/></linearGradient><path fill="url(#l)" d="M282.302 3.978h-1.254V1.812l-3.803 3.227 3.803 3.226V6.13h1.254c.593 0 1.077.48 1.077 1.075v4.302c0 .594-.485 1.076-1.078 1.076h-8.604c-.593 0-1.076-.482-1.076-1.076v-4.3c0-.596.483-1.077 1.076-1.077h1.614V3.98h-1.614c-1.78 0-3.228 1.446-3.228 3.227v4.303c0 1.78 1.444 3.227 3.228 3.227h8.604c1.78 0 3.228-1.443 3.228-3.227V7.206c0-1.78-1.45-3.228-3.228-3.228z"/><path fill="#E6E7E8" d="M136 8l-11.11-6.94v3.055L120 1.06v13.88l4.89-3.055v3.056z"/><linearGradient id="m" gradientUnits="userSpaceOnUse" x1="1049.35" y1="1193.885" x2="1049.35" y2="1206.114" gradientTransform="translate(-924 -1192)"><stop offset="0" stop-color="#6D6E71"/><stop offset="1" stop-color="#3C3C3C"/></linearGradient><path fill="url(#m)" d="M130.242 8l-9.784 6.114V1.884z"/><linearGradient id="n" gradientUnits="userSpaceOnUse" x1="1054.242" y1="1193.885" x2="1054.242" y2="1206.114" gradientTransform="translate(-924 -1192)"><stop offset="0" stop-color="#6D6E71"/><stop offset="1" stop-color="#3C3C3C"/></linearGradient><path fill="url(#n)" d="M135.135 8l-9.785 6.114V1.884z"/><path fill="#E6E7E8" d="M106 1.057l-4.892 3.058V1.057L90 8l11.108 6.943v-3.057L106 14.943z"/><linearGradient id="o" gradientUnits="userSpaceOnUse" x1="1024.648" y1="1193.886" x2="1024.648" y2="1206.115" gradientTransform="translate(-924 -1192)"><stop offset="0" stop-color="#6D6E71"/><stop offset="1" stop-color="#3C3C3C"/></linearGradient><path fill="url(#o)" d="M105.54 1.886v12.23L95.758 8z"/><linearGradient id="p" gradientUnits="userSpaceOnUse" x1="1019.758" y1="1193.886" x2="1019.758" y2="1206.115" gradientTransform="translate(-924 -1192)"><stop offset="0" stop-color="#6D6E71"/><stop offset="1" stop-color="#3C3C3C"/></linearGradient><path fill="url(#p)" d="M100.65 1.886v12.23L90.864 8z"/><path fill="#E6E7E8" d="M247.275 7.276H240l2.923-2.922-2.42-2.416L241.94.505l2.418 2.415 2.92-2.92v7.276h-.003zM247.275 16l-2.922-2.922-2.416 2.416-1.437-1.434 2.417-2.416L240 8.724h7.275V16zM256 7.276h-7.275V0l2.92 2.92 2.418-2.415 1.438 1.433-2.417 2.416L256 7.276zM248.725 16V8.725H256l-2.92 2.922 2.416 2.416-1.436 1.436-2.416-2.417-2.92 2.917z"/><linearGradient id="q" gradientUnits="userSpaceOnUse" x1="1167.945" y1="1193.049" x2="1167.945" y2="1206.952" gradientTransform="translate(-924 -1192)"><stop offset="0" stop-color="#6D6E71"/><stop offset="1" stop-color="#3C3C3C"/></linearGradient><path fill="url(#q)" d="M241.94 1.12l-.82.818 2.417 2.416-2.488 2.488h5.792V1.05l-2.487 2.484z"/><linearGradient id="r" gradientUnits="userSpaceOnUse" x1="1167.945" y1="1193.049" x2="1167.945" y2="1206.952" gradientTransform="translate(-924 -1192)"><stop offset="0" stop-color="#6D6E71"/><stop offset="1" stop-color="#3C3C3C"/></linearGradient><path fill="url(#r)" d="M243.536 11.646l-2.417 2.417.818.817 2.416-2.416 2.488 2.487V9.16h-5.793z"/><linearGradient id="s" gradientUnits="userSpaceOnUse" x1="1176.055" y1="1193.049" x2="1176.055" y2="1206.952" gradientTransform="translate(-924 -1192)"><stop offset="0" stop-color="#6D6E71"/><stop offset="1" stop-color="#3C3C3C"/></linearGradient><path fill="url(#s)" d="M252.463 4.354l2.42-2.416-.82-.82-2.418 2.416-2.486-2.485V6.84h5.79z"/><linearGradient id="t" gradientUnits="userSpaceOnUse" x1="1176.055" y1="1193.049" x2="1176.055" y2="1206.952" gradientTransform="translate(-924 -1192)"><stop offset="0" stop-color="#6D6E71"/><stop offset="1" stop-color="#3C3C3C"/></linearGradient><path fill="url(#t)" d="M249.16 9.158v5.793l2.486-2.486 2.417 2.416.82-.817-2.418-2.417 2.486-2.488z"/><path fill="#E6E7E8" d="M160.377 0l-5.335 4.003H150v8.006h4.942l5.435 3.99z"/><linearGradient id="u" gradientUnits="userSpaceOnUse" x1="1076.701" y1="1192.885" x2="1076.701" y2="1207.117" gradientTransform="translate(-924 -1192)"><stop offset="0" stop-color="#6D6E71"/><stop offset="1" stop-color="#3C3C3C"/></linearGradient><path fill="url(#u)" d="M150.444 4.443h4.515v7.116h-4.516z"/><linearGradient id="v" gradientUnits="userSpaceOnUse" x1="1081.562" y1="1192.883" x2="1081.562" y2="1207.115" gradientTransform="translate(-924 -1192)"><stop offset="0" stop-color="#6D6E71"/><stop offset="1" stop-color="#3C3C3C"/></linearGradient><path fill="url(#v)" d="M155.19 4.443l4.743-3.56v14.232l-4.744-3.482v-7.19z"/><linearGradient id="w" gradientUnits="userSpaceOnUse" x1="1086.475" y1="1200" x2="1090" y2="1200" gradientTransform="translate(-924 -1192)"><stop offset="0" stop-color="#6D6E71"/><stop offset="1" stop-color="#3C3C3C"/></linearGradient><path fill="url(#w)" d="M162.958 13.438l-.484-.875C164.034 11.7 165 9.95 165 8s-.968-3.7-2.526-4.563l.484-.875C164.834 3.602 166 5.686 166 8c0 2.314-1.166 4.398-3.042 5.438z"/><linearGradient id="x" gradientUnits="userSpaceOnUse" x1="1085.475" y1="1200" x2="1087.674" y2="1200" gradientTransform="translate(-924 -1192)"><stop offset="0" stop-color="#6D6E71"/><stop offset="1" stop-color="#3C3C3C"/></linearGradient><path fill="url(#x)" d="M161.958 11.055l-.482-.875c.728-.402 1.198-1.257 1.198-2.18 0-.934-.46-1.77-1.2-2.18l.485-.875c1.057.586 1.714 1.757 1.714 3.056 0 1.3-.658 2.47-1.716 3.055z"/><path fill="#DF1000" d="M192.414 10.348l-1.107-1.112L192.544 8l-1.237-1.24 1.106-1.107 1.24 1.24 1.236-1.24L196 6.76 194.76 8 196 9.236l-1.11 1.112-1.238-1.24z"/><path fill="#E6E7E8" d="M190.377 0l-5.335 4.003H180v8.006h4.94l5.437 3.99z"/><linearGradient id="y" gradientUnits="userSpaceOnUse" x1="1106.701" y1="1192.885" x2="1106.701" y2="1207.117" gradientTransform="translate(-924 -1192)"><stop offset="0" stop-color="#6D6E71"/><stop offset="1" stop-color="#3C3C3C"/></linearGradient><path fill="url(#y)" d="M180.443 4.443h4.516v7.116h-4.517z"/><linearGradient id="z" gradientUnits="userSpaceOnUse" x1="1111.562" y1="1192.883" x2="1111.562" y2="1207.115" gradientTransform="translate(-924 -1192)"><stop offset="0" stop-color="#6D6E71"/><stop offset="1" stop-color="#3C3C3C"/></linearGradient><path fill="url(#z)" d="M185.19 4.443l4.743-3.56v14.232l-4.744-3.482v-7.19z"/></svg>