<svg xmlns="http://www.w3.org/2000/svg" width="330" height="16" viewBox="0 0 330 16"><path fill="#E6E7E8" d="M0 16V0l16 8-16 8z"/><linearGradient id="a" gradientUnits="userSpaceOnUse" x1="931.719" y1="1192.734" x2="931.719" y2="1207.266" gradientTransform="translate(-924 -1192)"><stop offset="0" stop-color="#6D6E71"/><stop offset="1" stop-color="#3C3C3C"/></linearGradient><path fill="url(#a)" d="M14.984 8L.454 15.267V.736z"/><path fill="#E6E7E8" d="M34.706 16H30V0h4.706v16zM43.49 16h-4.706V0h4.706v16z"/><linearGradient id="b" gradientUnits="userSpaceOnUse" x1="956.354" y1="1192.471" x2="956.354" y2="1207.529" gradientTransform="translate(-924 -1192)"><stop offset="0" stop-color="#6D6E71"/><stop offset="1" stop-color="#3C3C3C"/></linearGradient><path fill="url(#b)" d="M30.47.47h3.766v15.06H30.47z"/><linearGradient id="c" gradientUnits="userSpaceOnUse" x1="965.137" y1="1192.471" x2="965.137" y2="1207.529" gradientTransform="translate(-924 -1192)"><stop offset="0" stop-color="#6D6E71"/><stop offset="1" stop-color="#3C3C3C"/></linearGradient><path fill="url(#c)" d="M39.254.47h3.765v15.06h-3.766z"/><path fill="#E6E7E8" d="M226 16h-7.88l3.163-3.165-2.618-2.617 1.553-1.552 2.618 2.617L226 8.118V16zM217.88 16H210V8.118l3.164 3.165 2.618-2.617 1.553 1.552-2.617 2.617L217.88 16zM210 7.882V0h7.88l-3.164 3.166 2.62 2.617-1.555 1.55-2.617-2.615L210 7.882zM226 7.882l-3.163-3.164-2.618 2.617-1.555-1.552 2.62-2.617L218.118 0H226v7.882z"/><linearGradient id="d" gradientUnits="userSpaceOnUse" x1="1146.393" y1="1192.47" x2="1146.393" y2="1207.535" gradientTransform="translate(-924 -1192)"><stop offset="0" stop-color="#6D6E71"/><stop offset="1" stop-color="#3C3C3C"/></linearGradient><path fill="url(#d)" d="M220.218 9.332l-.886.886 2.616 2.617-2.693 2.694h6.274V9.254l-2.694 2.693z"/><linearGradient id="e" gradientUnits="userSpaceOnUse" x1="1137.607" y1="1192.47" x2="1137.607" y2="1207.535" gradientTransform="translate(-924 -1192)"><stop offset="0" stop-color="#6D6E71"/><stop offset="1" stop-color="#3C3C3C"/></linearGradient><path fill="url(#e)" d="M216.67 10.218l-.888-.886-2.618 2.616-2.693-2.693v6.274h6.274l-2.69-2.695z"/><linearGradient id="f" gradientUnits="userSpaceOnUse" x1="1137.607" y1="1192.471" x2="1137.607" y2="1207.528" gradientTransform="translate(-924 -1192)"><stop offset="0" stop-color="#6D6E71"/><stop offset="1" stop-color="#3C3C3C"/></linearGradient><path fill="url(#f)" d="M210.47 6.745l2.693-2.692 2.618 2.616.89-.887-2.62-2.617L216.744.47h-6.273z"/><linearGradient id="g" gradientUnits="userSpaceOnUse" x1="1146.393" y1="1192.471" x2="1146.393" y2="1207.528" gradientTransform="translate(-924 -1192)"><stop offset="0" stop-color="#6D6E71"/><stop offset="1" stop-color="#3C3C3C"/></linearGradient><path fill="url(#g)" d="M219.255.47l2.695 2.696-2.618 2.617.887.886 2.617-2.617 2.692 2.692V.47z"/><path fill="#E6E7E8" d="M247.275 7.276H240l2.923-2.922-2.42-2.416L241.94.505l2.418 2.415 2.92-2.92v7.276h-.003zM247.275 16l-2.922-2.922-2.416 2.416-1.437-1.434 2.417-2.416L240 8.724h7.275V16zM256 7.276h-7.275V0l2.92 2.92 2.418-2.415 1.438 1.433-2.417 2.416L256 7.276zM248.725 16V8.725H256l-2.92 2.922 2.416 2.416-1.436 1.436-2.416-2.417-2.92 2.917z"/><linearGradient id="h" gradientUnits="userSpaceOnUse" x1="1167.945" y1="1193.049" x2="1167.945" y2="1206.952" gradientTransform="translate(-924 -1192)"><stop offset="0" stop-color="#6D6E71"/><stop offset="1" stop-color="#3C3C3C"/></linearGradient><path fill="url(#h)" d="M241.94 1.12l-.82.818 2.417 2.416-2.488 2.488h5.792V1.05l-2.487 2.484z"/><linearGradient id="i" gradientUnits="userSpaceOnUse" x1="1167.945" y1="1193.049" x2="1167.945" y2="1206.952" gradientTransform="translate(-924 -1192)"><stop offset="0" stop-color="#6D6E71"/><stop offset="1" stop-color="#3C3C3C"/></linearGradient><path fill="url(#i)" d="M243.536 11.646l-2.417 2.417.818.817 2.416-2.416 2.488 2.487V9.16h-5.793z"/><linearGradient id="j" gradientUnits="userSpaceOnUse" x1="1176.055" y1="1193.049" x2="1176.055" y2="1206.952" gradientTransform="translate(-924 -1192)"><stop offset="0" stop-color="#6D6E71"/><stop offset="1" stop-color="#3C3C3C"/></linearGradient><path fill="url(#j)" d="M252.463 4.354l2.42-2.416-.82-.82-2.418 2.416-2.486-2.485V6.84h5.79z"/><linearGradient id="k" gradientUnits="userSpaceOnUse" x1="1176.055" y1="1193.049" x2="1176.055" y2="1206.952" gradientTransform="translate(-924 -1192)"><stop offset="0" stop-color="#6D6E71"/><stop offset="1" stop-color="#3C3C3C"/></linearGradient><path fill="url(#k)" d="M249.16 9.158v5.793l2.486-2.486 2.417 2.416.82-.817-2.418-2.417 2.486-2.488z"/><path fill="#E6E7E8" d="M160.377 0l-5.335 4.003H150v8.006h4.942l5.435 3.99z"/><linearGradient id="l" gradientUnits="userSpaceOnUse" x1="1076.701" y1="1192.885" x2="1076.701" y2="1207.117" gradientTransform="translate(-924 -1192)"><stop offset="0" stop-color="#6D6E71"/><stop offset="1" stop-color="#3C3C3C"/></linearGradient><path fill="url(#l)" d="M150.444 4.443h4.515v7.116h-4.516z"/><linearGradient id="m" gradientUnits="userSpaceOnUse" x1="1081.562" y1="1192.883" x2="1081.562" y2="1207.115" gradientTransform="translate(-924 -1192)"><stop offset="0" stop-color="#6D6E71"/><stop offset="1" stop-color="#3C3C3C"/></linearGradient><path fill="url(#m)" d="M155.19 4.443l4.743-3.56v14.232l-4.744-3.482v-7.19z"/><linearGradient id="n" gradientUnits="userSpaceOnUse" x1="1086.475" y1="1200" x2="1090" y2="1200" gradientTransform="translate(-924 -1192)"><stop offset="0" stop-color="#6D6E71"/><stop offset="1" stop-color="#3C3C3C"/></linearGradient><path fill="url(#n)" d="M162.958 13.438l-.484-.875C164.034 11.7 165 9.95 165 8s-.968-3.7-2.526-4.563l.484-.875C164.834 3.602 166 5.686 166 8c0 2.314-1.166 4.398-3.042 5.438z"/><linearGradient id="o" gradientUnits="userSpaceOnUse" x1="1085.475" y1="1200" x2="1087.674" y2="1200" gradientTransform="translate(-924 -1192)"><stop offset="0" stop-color="#6D6E71"/><stop offset="1" stop-color="#3C3C3C"/></linearGradient><path fill="url(#o)" d="M161.958 11.055l-.482-.875c.728-.402 1.198-1.257 1.198-2.18 0-.934-.46-1.77-1.2-2.18l.485-.875c1.057.586 1.714 1.757 1.714 3.056 0 1.3-.658 2.47-1.716 3.055z"/><path fill="#DF1000" d="M192.414 10.348l-1.107-1.112L192.544 8l-1.237-1.24 1.106-1.107 1.24 1.24 1.236-1.24L196 6.76 194.76 8 196 9.236l-1.11 1.112-1.238-1.24z"/><path fill="#E6E7E8" d="M190.377 0l-5.335 4.003H180v8.006h4.94l5.437 3.99z"/><linearGradient id="p" gradientUnits="userSpaceOnUse" x1="1106.701" y1="1192.885" x2="1106.701" y2="1207.117" gradientTransform="translate(-924 -1192)"><stop offset="0" stop-color="#6D6E71"/><stop offset="1" stop-color="#3C3C3C"/></linearGradient><path fill="url(#p)" d="M180.443 4.443h4.516v7.116h-4.517z"/><linearGradient id="q" gradientUnits="userSpaceOnUse" x1="1111.562" y1="1192.883" x2="1111.562" y2="1207.115" gradientTransform="translate(-924 -1192)"><stop offset="0" stop-color="#6D6E71"/><stop offset="1" stop-color="#3C3C3C"/></linearGradient><path fill="url(#q)" d="M185.19 4.443l4.743-3.56v14.232l-4.744-3.482v-7.19z"/></svg>