<?xml version="1.0" encoding="UTF-8"?>
<svg xmlns="http://www.w3.org/2000/svg" width="200" height="54.32" viewBox="0 0 574.02 155.91"><path d="M271.01 121.44a31.45 31.45 0 0 1-23.07-9.38c-8.64-8.65-8.42-19.34-8.42-34.1s-.23-25.46 8.42-34.12a31.5 31.5 0 0 1 23.07-9.38c16 0 28.47 9.13 31.48 27h-17c-1.68-6.85-6-12.12-14.41-12.12a13.84 13.84 0 0 0-10.68 4.41c-3.25 3.64-4.22 7.7-4.22 24.17s1 20.51 4.22 24.14a13.83 13.83 0 0 0 10.68 4.43c8.41 0 12.73-5.28 14.41-12.12h17c-3.01 17.93-15.62 27.07-31.48 27.07zm82.28-7.69c-3.84 4.09-10.21 7.69-19.46 7.69s-15.5-3.61-19.35-7.69c-5.64-5.88-7.08-13-7.08-24.38s1.44-18.38 7.08-24.28c3.85-4.08 10.1-7.66 19.35-7.66s15.61 3.58 19.46 7.66c5.65 5.89 7.09 13 7.09 24.28s-1.43 18.49-7.08 24.37zm-12.14-39.52a9.86 9.86 0 0 0-7.32-2.76 9.63 9.63 0 0 0-7.22 2.76c-3.23 3.25-3.6 8.64-3.6 15.14s.37 12 3.6 15.23a9.6 9.6 0 0 0 7.22 2.79 9.83 9.83 0 0 0 7.32-2.79c3.25-3.24 3.61-8.76 3.61-15.23s-.35-11.89-3.6-15.14zm63.41 46.49V82.87c0-8.53-5.4-11.4-10.33-11.4s-10.44 2.87-10.44 11.4v37.84h-15.63V58.12h15.28v5.78a21.33 21.33 0 0 1 15.6-6.48c6.26 0 11.3 2 14.78 5.53 5.06 5 6.37 10.9 6.37 17.76v40zm45.16 0c-12.73 0-18.15-9-18.15-17.91v-31h-6.56V59.95h6.6v-18.5c6.53 0 15.63-3.43 15.63-3.43v21.93h11v11.89h-11v30c0 3.6 1.69 5.65 5.42 5.65h5.63v13.21zm49 0v-5.4c-4.2 4.22-8.16 6-15.37 6s-12.25-1.79-16-5.54a20.08 20.08 0 0 1-5.16-14.06c0-10 6.84-18.12 21.38-18.12h14.76v-3.13c0-6.83-3.34-9.86-11.63-9.86-6 0-8.77 1.45-12 5.18l-10-9.73c6.13-6.73 12.14-8.63 22.59-8.63 17.54 0 26.66 7.43 26.66 22.09v41.2zm-.37-26.41h-12.34c-5.65 0-8.77 2.63-8.77 7.06s2.88 7.21 9 7.21c4.31 0 7.09-.34 9.84-3 1.67-1.57 2.27-4.07 2.27-7.93zm68.63 19.45c-3.84 4.09-10.21 7.69-19.47 7.69s-15.5-3.61-19.34-7.69c-5.65-5.88-7.08-13-7.08-24.38s1.43-18.38 7.08-24.28c3.84-4.08 10.09-7.66 19.34-7.66s15.63 3.58 19.47 7.66c5.64 5.89 7.07 13 7.07 24.28s-1.46 18.48-7.1 24.36zm-12.13-39.52a9.91 9.91 0 0 0-7.34-2.76 9.56 9.56 0 0 0-7.2 2.76c-3.25 3.25-3.62 8.64-3.62 15.14s.37 12 3.62 15.23a9.53 9.53 0 0 0 7.2 2.79 9.88 9.88 0 0 0 7.34-2.79c3.23-3.24 3.59-8.76 3.59-15.23s-.43-11.9-3.62-15.15z" fill="#f47c00"/><path d="M11.82-.05A11.81 11.81 0 0 0 .01 11.74v132.42a11.81 11.81 0 0 0 11.81 11.79h154.95a11.81 11.81 0 0 0 11.82-11.74V11.74A11.81 11.81 0 0 0 166.77-.05z" fill="#fff"/><path d="M15.88 94.55c5 23.26 9.16 45.41 23.73 61.35H11.82A11.81 11.81 0 0 1 .01 144.16V11.74A11.81 11.81 0 0 1 11.82-.05H31.9a76.8 76.8 0 0 0-12.78 15.1c-15.89 24.35-9.36 50.9-3.24 79.5zM166.77-.05h-31.51c7.46 7.46 13.75 17.12 18.5 29.13l-47.9 10.11c-5.25-10.06-13.23-18.43-28.84-15.14-8.61 1.82-14.32 6.65-16.85 11.94-3.11 6.52-4.64 13.83 2.8 48.57s11.82 40.8 17.32 45.5c4.47 3.8 11.68 5.91 20.29 4.09 15.62-3.29 19.47-14.16 20.15-25.47l47.9-10.12c1.13 24.78-6.54 44-20.08 57.29h18.22a11.81 11.81 0 0 0 11.82-11.74V11.74A11.81 11.81 0 0 0 166.77-.05z" fill="#f47c00"/></svg>