<?xml version="1.0" encoding="UTF-8" standalone="no"?>
<svg width="81px" height="53px" viewBox="0 0 81 53" version="1.1" xmlns="http://www.w3.org/2000/svg" xmlns:xlink="http://www.w3.org/1999/xlink">
    <!-- Generator: Sketch 41.2 (35397) - http://www.bohemiancoding.com/sketch -->
    <title>Logo-black</title>
    <desc>Created with Sketch.</desc>
    <defs></defs>
    <g id="Welcome" stroke="none" stroke-width="1" fill="none" fill-rule="evenodd">
        <g id="Tablet-Portrait" transform="translate(-303.000000, -178.000000)" fill="#000000">
            <path d="M305.521527,229.579 C304.510194,230.1365 303.695164,229.644 303.695164,228.4965 L303.695164,180.1815 C303.695164,179.0315 304.510194,178.539 305.521527,179.0965 L348.844861,203.3215 C349.856194,203.879 349.856194,204.799 348.844861,205.3565 L305.521527,229.579 Z M373.714218,230.609 C373.406097,230.609 373.095491,230.514 372.827127,230.319 C372.151248,229.824 372.002158,228.874 372.491673,228.194 C377.530945,221.219 380.192218,212.969 380.192218,204.339 C380.192218,195.7065 377.530945,187.4565 372.491673,180.4815 C372.002158,179.8015 372.151248,178.8515 372.827127,178.359 C373.503006,177.864 374.447248,178.014 374.939248,178.694 C380.353733,186.194 383.216279,195.0615 383.216279,204.339 C383.216279,213.6165 380.353733,222.484 374.939248,229.9815 C374.641067,230.3915 374.18137,230.609 373.714218,230.609 Z M354.506091,219.86875 C354.133364,219.86875 353.760636,219.73125 353.467424,219.45125 C352.861121,218.87375 352.836273,217.91125 353.410273,217.30375 C356.722576,213.78375 358.546455,209.17875 358.546455,204.33875 C358.546455,199.49875 356.722576,194.89375 353.410273,191.37375 C352.836273,190.76375 352.861121,189.80125 353.467424,189.22375 C354.073727,188.64625 355.030394,188.67375 355.604394,189.28375 C359.450939,193.36875 361.56803,198.71625 361.56803,204.33875 C361.56803,209.96125 359.450939,215.30625 355.604394,219.39375 C355.306212,219.70875 354.906152,219.86875 354.506091,219.86875 Z M364.362739,225.38025 C364.034739,225.38025 363.704255,225.27275 363.425952,225.05275 C362.772436,224.53025 362.660618,223.57525 363.177467,222.91525 C367.379345,217.57275 369.598315,211.15025 369.598315,204.33775 C369.598315,197.52775 367.379345,191.10275 363.177467,185.76025 C362.660618,185.10025 362.772436,184.14525 363.425952,183.62525 C364.081952,183.10275 365.031164,183.21525 365.550497,183.87275 C370.1748,189.75775 372.619891,196.83525 372.619891,204.33775 C372.619891,211.84025 370.1748,218.91775 365.550497,224.80275 C365.24983,225.18275 364.810012,225.38025 364.362739,225.38025 Z" id="Logo-black"></path>
        </g>
    </g>
</svg>