<?xml version="1.0" encoding="UTF-8" standalone="no"?>
<svg width="81px" height="53px" viewBox="0 0 81 53" version="1.1" xmlns="http://www.w3.org/2000/svg" xmlns:xlink="http://www.w3.org/1999/xlink">
    <!-- Generator: Sketch 41.2 (35397) - http://www.bohemiancoding.com/sketch -->
    <title>Logo-orange</title>
    <desc>Created with Sketch.</desc>
    <defs>
        <linearGradient x1="50%" y1="0%" x2="50%" y2="100%" id="linearGradient-1">
            <stop stop-color="#FF5D01" offset="0%"></stop>
            <stop stop-color="#F2AD39" offset="100%"></stop>
        </linearGradient>
    </defs>
    <g id="Welcome" stroke="none" stroke-width="1" fill="none" fill-rule="evenodd">
        <g id="Tablet-Portrait" transform="translate(-166.000000, -178.000000)" fill="url(#linearGradient-1)">
            <path d="M168.521527,229.579 C167.510194,230.1365 166.695164,229.644 166.695164,228.4965 L166.695164,180.1815 C166.695164,179.0315 167.510194,178.539 168.521527,179.0965 L211.844861,203.3215 C212.856194,203.879 212.856194,204.799 211.844861,205.3565 L168.521527,229.579 Z M236.714218,230.609 C236.406097,230.609 236.095491,230.514 235.827127,230.319 C235.151248,229.824 235.002158,228.874 235.491673,228.194 C240.530945,221.219 243.192218,212.969 243.192218,204.339 C243.192218,195.7065 240.530945,187.4565 235.491673,180.4815 C235.002158,179.8015 235.151248,178.8515 235.827127,178.359 C236.503006,177.864 237.447248,178.014 237.939248,178.694 C243.353733,186.194 246.216279,195.0615 246.216279,204.339 C246.216279,213.6165 243.353733,222.484 237.939248,229.9815 C237.641067,230.3915 237.18137,230.609 236.714218,230.609 Z M217.506091,219.86875 C217.133364,219.86875 216.760636,219.73125 216.467424,219.45125 C215.861121,218.87375 215.836273,217.91125 216.410273,217.30375 C219.722576,213.78375 221.546455,209.17875 221.546455,204.33875 C221.546455,199.49875 219.722576,194.89375 216.410273,191.37375 C215.836273,190.76375 215.861121,189.80125 216.467424,189.22375 C217.073727,188.64625 218.030394,188.67375 218.604394,189.28375 C222.450939,193.36875 224.56803,198.71625 224.56803,204.33875 C224.56803,209.96125 222.450939,215.30625 218.604394,219.39375 C218.306212,219.70875 217.906152,219.86875 217.506091,219.86875 Z M227.362739,225.38025 C227.034739,225.38025 226.704255,225.27275 226.425952,225.05275 C225.772436,224.53025 225.660618,223.57525 226.177467,222.91525 C230.379345,217.57275 232.598315,211.15025 232.598315,204.33775 C232.598315,197.52775 230.379345,191.10275 226.177467,185.76025 C225.660618,185.10025 225.772436,184.14525 226.425952,183.62525 C227.081952,183.10275 228.031164,183.21525 228.550497,183.87275 C233.1748,189.75775 235.619891,196.83525 235.619891,204.33775 C235.619891,211.84025 233.1748,218.91775 228.550497,224.80275 C228.24983,225.18275 227.810012,225.38025 227.362739,225.38025 Z" id="Logo-orange"></path>
        </g>
    </g>
</svg>