<?xml version="1.0" encoding="UTF-8"?>
<svg width="249px" height="34px" viewBox="0 0 249 34" version="1.1" xmlns="http://www.w3.org/2000/svg" xmlns:xlink="http://www.w3.org/1999/xlink">
    <!-- Generator: Sketch 42 (36781) - http://www.bohemiancoding.com/sketch -->
    <title>MediaElement.js</title>
    <desc>Created with Sketch.</desc>
    <defs>
        <linearGradient x1="50%" y1="0%" x2="50%" y2="100%" id="linearGradient-1">
            <stop stop-color="#FF6409" offset="0%"></stop>
            <stop stop-color="#F3AA37" offset="100%"></stop>
        </linearGradient>
    </defs>
    <g id="Welcome" stroke="none" stroke-width="1" fill="none" fill-rule="evenodd">
        <g id="Tablet-Portrait" transform="translate(-238.000000, -481.000000)" fill="url(#linearGradient-1)">
            <path d="M251.85,497.596 C251.958001,497.908002 252.054,498.225998 252.138,498.55 C252.222,498.874002 252.306,499.203998 252.39,499.54 C252.534001,499.203998 252.689999,498.874002 252.858,498.55 C253.026001,498.225998 253.205999,497.908002 253.398,497.596 L262.434,482.728 C262.542001,482.547999 262.652999,482.407001 262.767,482.305 C262.881001,482.202999 263.000999,482.128 263.127,482.08 C263.253001,482.032 263.393999,482.002 263.55,481.99 C263.706001,481.978 263.885999,481.972 264.09,481.972 L267.636,481.972 L264.432,508 L260.328,508 L262.416,491.044 C262.452,490.731998 262.506,490.390002 262.578,490.018 C262.65,489.645998 262.728,489.268002 262.812,488.884 L253.866,503.752 C253.661999,504.088002 253.407002,504.339999 253.101,504.508 C252.794998,504.676001 252.462002,504.76 252.102,504.76 L251.454,504.76 C251.093998,504.76 250.779001,504.676001 250.509,504.508 C250.238999,504.339999 250.044001,504.088002 249.924,503.752 L244.56,488.938 C244.548,489.310002 244.533,489.669998 244.515,490.018 C244.497,490.366002 244.47,490.683999 244.434,490.972 L242.382,508 L238.26,508 L241.464,481.972 L244.974,481.972 C245.178001,481.972 245.357999,481.978 245.514,481.99 C245.670001,482.002 245.807999,482.032 245.928,482.08 C246.048001,482.128 246.15,482.202999 246.234,482.305 C246.318,482.407001 246.396,482.547999 246.468,482.728 L251.85,497.596 Z M284.394,493.816 C284.394,494.644004 284.229002,495.399997 283.899,496.084 C283.568998,496.768003 282.978004,497.379997 282.126,497.92 C281.273996,498.460003 280.119007,498.924998 278.661,499.315 C277.202993,499.705002 275.346011,500.013999 273.09,500.242 L273.09,500.476 C273.09,503.380015 274.319988,504.832 276.78,504.832 C277.308003,504.832 277.775998,504.781001 278.184,504.679 C278.592002,504.576999 278.948998,504.454001 279.255,504.31 C279.561002,504.165999 279.836999,504.004001 280.083,503.824 C280.329001,503.643999 280.556999,503.482001 280.767,503.338 C280.977001,503.193999 281.183999,503.071001 281.388,502.969 C281.592001,502.866999 281.813999,502.816 282.054,502.816 C282.198001,502.816 282.341999,502.849 282.486,502.915 C282.630001,502.981 282.75,503.079999 282.846,503.212 L283.98,504.58 C283.343997,505.216003 282.720003,505.767998 282.108,506.236 C281.495997,506.704002 280.872003,507.087999 280.236,507.388 C279.599997,507.688001 278.928004,507.909999 278.22,508.054 C277.511996,508.198001 276.738004,508.27 275.898,508.27 C274.817995,508.27 273.840004,508.087002 272.964,507.721 C272.087996,507.354998 271.338003,506.839003 270.714,506.173 C270.089997,505.506997 269.607002,504.703005 269.265,503.761 C268.922998,502.818995 268.752,501.766006 268.752,500.602 C268.752,499.629995 268.856999,498.676005 269.067,497.74 C269.277001,496.803995 269.579998,495.916004 269.976,495.076 C270.372002,494.235996 270.857997,493.462004 271.434,492.754 C272.010003,492.045996 272.660996,491.434003 273.387,490.918 C274.113004,490.401997 274.910996,490.000001 275.781,489.712 C276.651004,489.423999 277.583995,489.28 278.58,489.28 C279.552005,489.28 280.400996,489.417999 281.127,489.694 C281.853004,489.970001 282.458998,490.326998 282.945,490.765 C283.431002,491.203002 283.793999,491.691997 284.034,492.232 C284.274001,492.772003 284.394,493.299997 284.394,493.816 Z M278.328,492.376 C277.727997,492.376 277.170003,492.498999 276.654,492.745 C276.137997,492.991001 275.673002,493.335998 275.259,493.78 C274.844998,494.224002 274.485002,494.754997 274.179,495.373 C273.872998,495.991003 273.630001,496.665996 273.45,497.398 C274.938007,497.193999 276.134995,496.972001 277.041,496.732 C277.947005,496.491999 278.648998,496.228001 279.147,495.94 C279.645002,495.651999 279.974999,495.346002 280.137,495.022 C280.299001,494.697998 280.38,494.350002 280.38,493.978 C280.38,493.797999 280.341,493.612001 280.263,493.42 C280.185,493.227999 280.065001,493.057001 279.903,492.907 C279.740999,492.756999 279.531001,492.631001 279.273,492.529 C279.014999,492.426999 278.700002,492.376 278.328,492.376 Z M298.596,508 C298.055997,508 297.678001,507.874001 297.462,507.622 C297.245999,507.369999 297.138,507.052002 297.138,506.668 L297.282,503.968 C296.393996,505.288007 295.398006,506.334996 294.294,507.109 C293.189994,507.883004 292.014006,508.27 290.766,508.27 C289.997996,508.27 289.299003,508.129001 288.669,507.847 C288.038997,507.564999 287.502002,507.142003 287.058,506.578 C286.613998,506.013997 286.272001,505.300004 286.032,504.436 C285.791999,503.571996 285.672,502.552006 285.672,501.376 C285.672,500.331995 285.779999,499.309005 285.996,498.307 C286.212001,497.304995 286.517998,496.354004 286.914,495.454 C287.310002,494.553995 287.780997,493.726004 288.327,492.97 C288.873003,492.213996 289.481997,491.560003 290.154,491.008 C290.826003,490.455997 291.542996,490.024002 292.305,489.712 C293.067004,489.399998 293.855996,489.244 294.672,489.244 C295.500004,489.244 296.249997,489.393999 296.922,489.694 C297.594003,489.994002 298.181997,490.401997 298.686,490.918 L299.892,481.252 L304.248,481.252 L300.954,508 L298.596,508 Z M292.494,504.778 C292.974002,504.778 293.465997,504.613002 293.97,504.283 C294.474003,503.952998 294.959998,503.497003 295.428,502.915 C295.896002,502.332997 296.330998,501.649004 296.733,500.863 C297.135002,500.076996 297.479999,499.228005 297.768,498.316 L298.326,493.834 C297.917998,493.389998 297.450003,493.078001 296.922,492.898 C296.393997,492.717999 295.878003,492.628 295.374,492.628 C294.581996,492.628 293.862003,492.873998 293.214,493.366 C292.565997,493.858002 292.011002,494.499996 291.549,495.292 C291.086998,496.084004 290.730001,496.974995 290.478,497.965 C290.225999,498.955005 290.1,499.947995 290.1,500.944 C290.1,502.240006 290.309998,503.202997 290.73,503.833 C291.150002,504.463003 291.737996,504.778 292.494,504.778 Z M312.24,489.532 L310.026,508 L305.634,508 L307.848,489.532 L312.24,489.532 Z M313.356,484.15 C313.356,484.534002 313.275001,484.893998 313.113,485.23 C312.950999,485.566002 312.741001,485.859999 312.483,486.112 C312.224999,486.364001 311.928002,486.564999 311.592,486.715 C311.255998,486.865001 310.908002,486.94 310.548,486.94 C310.199998,486.94 309.861002,486.865001 309.531,486.715 C309.200998,486.564999 308.910001,486.364001 308.658,486.112 C308.405999,485.859999 308.205001,485.566002 308.055,485.23 C307.904999,484.893998 307.83,484.534002 307.83,484.15 C307.83,483.765998 307.907999,483.400002 308.064,483.052 C308.220001,482.703998 308.423999,482.401001 308.676,482.143 C308.928001,481.884999 309.218998,481.681001 309.549,481.531 C309.879002,481.380999 310.217998,481.306 310.566,481.306 C310.926002,481.306 311.273998,481.380999 311.61,481.531 C311.946002,481.681001 312.242999,481.881999 312.501,482.134 C312.759001,482.386001 312.965999,482.685998 313.122,483.034 C313.278001,483.382002 313.356,483.753998 313.356,484.15 Z M329.016,508 L326.676,508 C326.135997,508 325.758001,507.874001 325.542,507.622 C325.325999,507.369999 325.218,507.052002 325.218,506.668 L325.362,504.148 C324.545996,505.420006 323.628005,506.424996 322.608,507.163 C321.587995,507.901004 320.466006,508.27 319.242,508.27 C318.545997,508.27 317.895003,508.132001 317.289,507.856 C316.682997,507.579999 316.155002,507.169003 315.705,506.623 C315.254998,506.076997 314.901001,505.393004 314.643,504.571 C314.384999,503.748996 314.256,502.786006 314.256,501.682 C314.256,500.577994 314.393999,499.504005 314.67,498.46 C314.946001,497.415995 315.338997,496.435005 315.849,495.517 C316.359003,494.598995 316.973996,493.756004 317.694,492.988 C318.414004,492.219996 319.220996,491.560003 320.115,491.008 C321.009004,490.455997 321.974995,490.027002 323.013,489.721 C324.051005,489.414998 325.145994,489.262 326.298,489.262 C327.126004,489.262 327.956996,489.321999 328.791,489.442 C329.625004,489.562001 330.443996,489.777998 331.248,490.09 L329.016,508 Z M320.988,504.634 C321.480002,504.634 321.962998,504.466002 322.437,504.13 C322.911002,503.793998 323.357998,503.329003 323.778,502.735 C324.198002,502.140997 324.587998,501.442004 324.948,500.638 C325.308002,499.833996 325.619999,498.970005 325.884,498.046 L326.586,492.466 C326.261998,492.43 325.962001,492.412 325.686,492.412 C324.689995,492.412 323.766004,492.639998 322.914,493.096 C322.061996,493.552002 321.324003,494.166996 320.7,494.941 C320.075997,495.715004 319.587002,496.614995 319.233,497.641 C318.878998,498.667005 318.702,499.749994 318.702,500.89 C318.702,502.186006 318.905998,503.133997 319.314,503.734 C319.722002,504.334003 320.279996,504.634 320.988,504.634 Z M351.84,481.972 L351.372,485.698 L340.896,485.698 L339.996,493.096 L348.222,493.096 L347.772,496.678 L339.546,496.678 L338.61,504.274 L349.122,504.274 L348.654,508 L333.462,508 L336.666,481.972 L351.84,481.972 Z M352.344,508 L355.584,481.252 L359.958,481.252 L356.718,508 L352.344,508 Z M376.68,493.816 C376.68,494.644004 376.515002,495.399997 376.185,496.084 C375.854998,496.768003 375.264004,497.379997 374.412,497.92 C373.559996,498.460003 372.405007,498.924998 370.947,499.315 C369.488993,499.705002 367.632011,500.013999 365.376,500.242 L365.376,500.476 C365.376,503.380015 366.605988,504.832 369.066,504.832 C369.594003,504.832 370.061998,504.781001 370.47,504.679 C370.878002,504.576999 371.234998,504.454001 371.541,504.31 C371.847002,504.165999 372.122999,504.004001 372.369,503.824 C372.615001,503.643999 372.842999,503.482001 373.053,503.338 C373.263001,503.193999 373.469999,503.071001 373.674,502.969 C373.878001,502.866999 374.099999,502.816 374.34,502.816 C374.484001,502.816 374.627999,502.849 374.772,502.915 C374.916001,502.981 375.036,503.079999 375.132,503.212 L376.266,504.58 C375.629997,505.216003 375.006003,505.767998 374.394,506.236 C373.781997,506.704002 373.158003,507.087999 372.522,507.388 C371.885997,507.688001 371.214004,507.909999 370.506,508.054 C369.797996,508.198001 369.024004,508.27 368.184,508.27 C367.103995,508.27 366.126004,508.087002 365.25,507.721 C364.373996,507.354998 363.624003,506.839003 363,506.173 C362.375997,505.506997 361.893002,504.703005 361.551,503.761 C361.208998,502.818995 361.038,501.766006 361.038,500.602 C361.038,499.629995 361.142999,498.676005 361.353,497.74 C361.563001,496.803995 361.865998,495.916004 362.262,495.076 C362.658002,494.235996 363.143997,493.462004 363.72,492.754 C364.296003,492.045996 364.946996,491.434003 365.673,490.918 C366.399004,490.401997 367.196996,490.000001 368.067,489.712 C368.937004,489.423999 369.869995,489.28 370.866,489.28 C371.838005,489.28 372.686996,489.417999 373.413,489.694 C374.139004,489.970001 374.744998,490.326998 375.231,490.765 C375.717002,491.203002 376.079999,491.691997 376.32,492.232 C376.560001,492.772003 376.68,493.299997 376.68,493.816 Z M370.614,492.376 C370.013997,492.376 369.456003,492.498999 368.94,492.745 C368.423997,492.991001 367.959002,493.335998 367.545,493.78 C367.130998,494.224002 366.771002,494.754997 366.465,495.373 C366.158998,495.991003 365.916001,496.665996 365.736,497.398 C367.224007,497.193999 368.420995,496.972001 369.327,496.732 C370.233005,496.491999 370.934998,496.228001 371.433,495.94 C371.931002,495.651999 372.260999,495.346002 372.423,495.022 C372.585001,494.697998 372.666,494.350002 372.666,493.978 C372.666,493.797999 372.627,493.612001 372.549,493.42 C372.471,493.227999 372.351001,493.057001 372.189,492.907 C372.026999,492.756999 371.817001,492.631001 371.559,492.529 C371.300999,492.426999 370.986002,492.376 370.614,492.376 Z M378.12,508 L380.37,489.514 L382.62,489.514 C383.076002,489.514 383.435999,489.621999 383.7,489.838 C383.964001,490.054001 384.096,490.395998 384.096,490.864 L384.096,490.918 C384.096,490.942 384.093,491.022999 384.087,491.161 C384.081,491.299001 384.072,491.508999 384.06,491.791 C384.048,492.073001 384.03,492.471997 384.006,492.988 C384.834004,491.727994 385.733995,490.789003 386.706,490.171 C387.678005,489.552997 388.691995,489.244 389.748,489.244 C390.888006,489.244 391.784997,489.621996 392.439,490.378 C393.093003,491.134004 393.473999,492.225993 393.582,493.654 C394.446004,492.141992 395.402995,491.029004 396.453,490.315 C397.503005,489.600996 398.645994,489.244 399.882,489.244 C401.262007,489.244 402.326996,489.708995 403.077,490.639 C403.827004,491.569005 404.202,492.909991 404.202,494.662 C404.202,494.902001 404.196,495.156999 404.184,495.427 C404.172,495.697001 404.148,495.969999 404.112,496.246 L402.726,508 L398.334,508 C398.574001,505.95999 398.777999,504.229007 398.946,502.807 C399.114001,501.384993 399.251999,500.197005 399.36,499.243 C399.468001,498.288995 399.552,497.542003 399.612,497.002 C399.672,496.461997 399.717,496.045001 399.747,495.751 C399.777,495.456999 399.795,495.259001 399.801,495.157 C399.807,495.054999 399.81,494.974 399.81,494.914 C399.81,494.193996 399.690001,493.675002 399.45,493.357 C399.209999,493.038998 398.820003,492.88 398.28,492.88 C397.823998,492.88 397.380002,492.999999 396.948,493.24 C396.515998,493.480001 396.105002,493.827998 395.715,494.284 C395.324998,494.740002 394.965002,495.297997 394.635,495.958 C394.304998,496.618003 394.014001,497.361996 393.762,498.19 L392.61,508 L388.236,508 L389.622,496.246 C389.646,495.993999 389.667,495.757001 389.685,495.535 C389.703,495.312999 389.712,495.106001 389.712,494.914 C389.712,494.193996 389.595001,493.675002 389.361,493.357 C389.126999,493.038998 388.740003,492.88 388.2,492.88 C387.731998,492.88 387.276002,493.005999 386.832,493.258 C386.387998,493.510001 385.971002,493.872998 385.581,494.347 C385.190998,494.821002 384.831002,495.396997 384.501,496.075 C384.170998,496.753003 383.880001,497.511996 383.628,498.352 L382.476,508 L378.12,508 Z M422.166,493.816 C422.166,494.644004 422.001002,495.399997 421.671,496.084 C421.340998,496.768003 420.750004,497.379997 419.898,497.92 C419.045996,498.460003 417.891007,498.924998 416.433,499.315 C414.974993,499.705002 413.118011,500.013999 410.862,500.242 L410.862,500.476 C410.862,503.380015 412.091988,504.832 414.552,504.832 C415.080003,504.832 415.547998,504.781001 415.956,504.679 C416.364002,504.576999 416.720998,504.454001 417.027,504.31 C417.333002,504.165999 417.608999,504.004001 417.855,503.824 C418.101001,503.643999 418.328999,503.482001 418.539,503.338 C418.749001,503.193999 418.955999,503.071001 419.16,502.969 C419.364001,502.866999 419.585999,502.816 419.826,502.816 C419.970001,502.816 420.113999,502.849 420.258,502.915 C420.402001,502.981 420.522,503.079999 420.618,503.212 L421.752,504.58 C421.115997,505.216003 420.492003,505.767998 419.88,506.236 C419.267997,506.704002 418.644003,507.087999 418.008,507.388 C417.371997,507.688001 416.700004,507.909999 415.992,508.054 C415.283996,508.198001 414.510004,508.27 413.67,508.27 C412.589995,508.27 411.612004,508.087002 410.736,507.721 C409.859996,507.354998 409.110003,506.839003 408.486,506.173 C407.861997,505.506997 407.379002,504.703005 407.037,503.761 C406.694998,502.818995 406.524,501.766006 406.524,500.602 C406.524,499.629995 406.628999,498.676005 406.839,497.74 C407.049001,496.803995 407.351998,495.916004 407.748,495.076 C408.144002,494.235996 408.629997,493.462004 409.206,492.754 C409.782003,492.045996 410.432996,491.434003 411.159,490.918 C411.885004,490.401997 412.682996,490.000001 413.553,489.712 C414.423004,489.423999 415.355995,489.28 416.352,489.28 C417.324005,489.28 418.172996,489.417999 418.899,489.694 C419.625004,489.970001 420.230998,490.326998 420.717,490.765 C421.203002,491.203002 421.565999,491.691997 421.806,492.232 C422.046001,492.772003 422.166,493.299997 422.166,493.816 Z M416.1,492.376 C415.499997,492.376 414.942003,492.498999 414.426,492.745 C413.909997,492.991001 413.445002,493.335998 413.031,493.78 C412.616998,494.224002 412.257002,494.754997 411.951,495.373 C411.644998,495.991003 411.402001,496.665996 411.222,497.398 C412.710007,497.193999 413.906995,496.972001 414.813,496.732 C415.719005,496.491999 416.420998,496.228001 416.919,495.94 C417.417002,495.651999 417.746999,495.346002 417.909,495.022 C418.071001,494.697998 418.152,494.350002 418.152,493.978 C418.152,493.797999 418.113,493.612001 418.035,493.42 C417.957,493.227999 417.837001,493.057001 417.675,492.907 C417.512999,492.756999 417.303001,492.631001 417.045,492.529 C416.786999,492.426999 416.472002,492.376 416.1,492.376 Z M423.606,508 L425.82,489.514 L428.088,489.514 C428.556002,489.514 428.918999,489.627999 429.177,489.856 C429.435001,490.084001 429.564,490.449997 429.564,490.954 L429.438,493.348 C430.374005,491.967993 431.411994,490.939003 432.552,490.261 C433.692006,489.582997 434.867994,489.244 436.08,489.244 C436.764003,489.244 437.384997,489.366999 437.943,489.613 C438.501003,489.859001 438.977998,490.218998 439.374,490.693 C439.770002,491.167002 440.075999,491.748997 440.292,492.439 C440.508001,493.129003 440.616,493.923995 440.616,494.824 C440.616,495.052001 440.607,495.282999 440.589,495.517 C440.571,495.751001 440.55,495.993999 440.526,496.246 L439.14,508 L434.694,508 C434.934001,505.97199 435.137999,504.253007 435.306,502.843 C435.474001,501.432993 435.611999,500.260005 435.72,499.324 C435.828001,498.387995 435.912,497.653003 435.972,497.119 C436.032,496.584997 436.077,496.180001 436.107,495.904 C436.137,495.627999 436.155,495.445 436.161,495.355 C436.167,495.265 436.17,495.19 436.17,495.13 C436.17,494.337996 436.026001,493.765002 435.738,493.411 C435.449999,493.056998 435.000003,492.88 434.388,492.88 C433.895998,492.88 433.386003,493.023999 432.858,493.312 C432.329997,493.600001 431.826002,494.007997 431.346,494.536 C430.865998,495.064003 430.428002,495.699996 430.032,496.444 C429.635998,497.188004 429.312001,498.015995 429.06,498.928 L428.052,508 L423.606,508 Z M444.702,504.238 L444.702,503.941 C444.702,503.826999 444.711,503.659001 444.729,503.437 C444.747,503.214999 444.777,502.921002 444.819,502.555 C444.861,502.188998 444.918,501.718003 444.99,501.142 L446.016,492.862 L444.27,492.862 C444.065999,492.862 443.901001,492.799001 443.775,492.673 C443.648999,492.546999 443.586,492.358001 443.586,492.106 C443.586,492.094 443.589,492.07 443.595,492.034 C443.601,491.998 443.61,491.917001 443.622,491.791 C443.634,491.664999 443.655,491.476001 443.685,491.224 C443.715,490.971999 443.754,490.618002 443.802,490.162 L446.61,489.676 L448.086,484.636 C448.158,484.395999 448.280999,484.210001 448.455,484.078 C448.629001,483.945999 448.841999,483.88 449.094,483.88 L451.47,483.88 L450.75,489.694 L455.214,489.694 L454.836,492.862 L450.354,492.862 L449.364,500.908 C449.304,501.400002 449.259,501.789999 449.229,502.078 C449.199,502.366001 449.175,502.590999 449.157,502.753 C449.139,502.915001 449.127,503.029 449.121,503.095 C449.115,503.161 449.112,503.206 449.112,503.23 C449.112,503.686002 449.222999,504.045999 449.445,504.31 C449.667001,504.574001 449.981998,504.706 450.39,504.706 C450.642001,504.706 450.857999,504.673 451.038,504.607 C451.218001,504.541 451.373999,504.472 451.506,504.4 C451.638001,504.328 451.754999,504.259 451.857,504.193 C451.959001,504.127 452.058,504.094 452.154,504.094 C452.286001,504.094 452.391,504.127 452.469,504.193 C452.547,504.259 452.616,504.357999 452.676,504.49 L453.63,506.65 C452.969997,507.190003 452.238004,507.597999 451.434,507.874 C450.629996,508.150001 449.820004,508.288 449.004,508.288 C447.695993,508.288 446.661004,507.934004 445.899,507.226 C445.136996,506.517996 444.738,505.522006 444.702,504.238 Z M455.43,505.552 C455.43,505.179998 455.498999,504.826002 455.637,504.49 C455.775001,504.153998 455.966999,503.866001 456.213,503.626 C456.459001,503.385999 456.746998,503.194001 457.077,503.05 C457.407002,502.905999 457.763998,502.834 458.148,502.834 C458.532002,502.834 458.888998,502.905999 459.219,503.05 C459.549002,503.194001 459.836999,503.385999 460.083,503.626 C460.329001,503.866001 460.523999,504.153998 460.668,504.49 C460.812001,504.826002 460.884,505.179998 460.884,505.552 C460.884,505.936002 460.812001,506.292998 460.668,506.623 C460.523999,506.953002 460.329001,507.237999 460.083,507.478 C459.836999,507.718001 459.549002,507.906999 459.219,508.045 C458.888998,508.183001 458.532002,508.252 458.148,508.252 C457.763998,508.252 457.407002,508.183001 457.077,508.045 C456.746998,507.906999 456.459001,507.718001 456.213,507.478 C455.966999,507.237999 455.775001,506.953002 455.637,506.623 C455.498999,506.292998 455.43,505.936002 455.43,505.552 Z M470.856,489.532 L468.516,508.63 C468.42,509.434004 468.219002,510.189996 467.913,510.898 C467.606998,511.606004 467.199003,512.226997 466.689,512.761 C466.178997,513.295003 465.561004,513.714998 464.835,514.021 C464.108996,514.327002 463.272005,514.48 462.324,514.48 C461.855998,514.48 461.451002,514.453 461.109,514.399 C460.766998,514.345 460.428002,514.258001 460.092,514.138 L460.524,511.744 C460.596,511.503999 460.709999,511.351 460.866,511.285 C461.022001,511.219 461.303998,511.186 461.712,511.186 C462.120002,511.186 462.464999,511.141 462.747,511.051 C463.029001,510.961 463.265999,510.817001 463.458,510.619 C463.650001,510.420999 463.799999,510.160002 463.908,509.836 C464.016001,509.511998 464.1,509.110002 464.16,508.63 L466.5,489.532 L470.856,489.532 Z M471.828,484.15 C471.828,484.534002 471.747001,484.893998 471.585,485.23 C471.422999,485.566002 471.213001,485.859999 470.955,486.112 C470.696999,486.364001 470.400002,486.564999 470.064,486.715 C469.727998,486.865001 469.380002,486.94 469.02,486.94 C468.671998,486.94 468.333002,486.865001 468.003,486.715 C467.672998,486.564999 467.382001,486.364001 467.13,486.112 C466.877999,485.859999 466.677001,485.566002 466.527,485.23 C466.376999,484.893998 466.302,484.534002 466.302,484.15 C466.302,483.765998 466.379999,483.400002 466.536,483.052 C466.692001,482.703998 466.895999,482.401001 467.148,482.143 C467.400001,481.884999 467.690998,481.681001 468.021,481.531 C468.351002,481.380999 468.689998,481.306 469.038,481.306 C469.398002,481.306 469.745998,481.380999 470.082,481.531 C470.418002,481.681001 470.714999,481.881999 470.973,482.134 C471.231001,482.386001 471.437999,482.685998 471.594,483.034 C471.750001,483.382002 471.828,483.753998 471.828,484.15 Z M485.22,493.006 C485.087999,493.198001 484.962001,493.333 484.842,493.411 C484.721999,493.489 484.566001,493.528 484.374,493.528 C484.169999,493.528 483.960001,493.468001 483.744,493.348 C483.527999,493.227999 483.279001,493.093001 482.997,492.943 C482.714999,492.792999 482.391002,492.658001 482.025,492.538 C481.658998,492.417999 481.218003,492.358 480.702,492.358 C479.753995,492.358 479.028003,492.570998 478.524,492.997 C478.019997,493.423002 477.768,493.953997 477.768,494.59 C477.768,494.962002 477.872999,495.276999 478.083,495.535 C478.293001,495.793001 478.565998,496.017999 478.902,496.21 C479.238002,496.402001 479.621998,496.578999 480.054,496.741 C480.486002,496.903001 480.929998,497.076999 481.386,497.263 C481.842002,497.449001 482.285998,497.658999 482.718,497.893 C483.150002,498.127001 483.533998,498.411998 483.87,498.748 C484.206002,499.084002 484.478999,499.488998 484.689,499.963 C484.899001,500.437002 485.004,501.003997 485.004,501.664 C485.004,502.552004 484.827002,503.397996 484.473,504.202 C484.118998,505.006004 483.612003,505.710997 482.952,506.317 C482.291997,506.923003 481.494005,507.402998 480.558,507.757 C479.621995,508.111002 478.578006,508.288 477.426,508.288 C476.837997,508.288 476.271003,508.231001 475.725,508.117 C475.178997,508.002999 474.666002,507.844001 474.186,507.64 C473.705998,507.435999 473.271002,507.196001 472.881,506.92 C472.490998,506.643999 472.158001,506.344002 471.882,506.02 L472.962,504.328 C473.094001,504.123999 473.252999,503.968001 473.439,503.86 C473.625001,503.751999 473.843999,503.698 474.096,503.698 C474.348001,503.698 474.575999,503.775999 474.78,503.932 C474.984001,504.088001 475.223999,504.258999 475.5,504.445 C475.776001,504.631001 476.108998,504.801999 476.499,504.958 C476.889002,505.114001 477.389997,505.192 478.002,505.192 C478.494002,505.192 478.928998,505.126001 479.307,504.994 C479.685002,504.861999 480.002999,504.682001 480.261,504.454 C480.519001,504.225999 480.713999,503.962001 480.846,503.662 C480.978001,503.361999 481.044,503.044002 481.044,502.708 C481.044,502.299998 480.942001,501.961001 480.738,501.691 C480.533999,501.420999 480.261002,501.187001 479.919,500.989 C479.576998,500.790999 479.190002,500.617001 478.758,500.467 C478.325998,500.316999 477.885002,500.158001 477.435,499.99 C476.984998,499.821999 476.547002,499.630001 476.121,499.414 C475.694998,499.197999 475.311002,498.925002 474.969,498.595 C474.626998,498.264998 474.354001,497.863002 474.15,497.389 C473.945999,496.914998 473.844,496.336003 473.844,495.652 C473.844,494.835996 473.999998,494.041004 474.312,493.267 C474.624002,492.492996 475.082997,491.809003 475.689,491.215 C476.295003,490.620997 477.038996,490.144002 477.921,489.784 C478.803004,489.423998 479.813994,489.244 480.954,489.244 C482.130006,489.244 483.170995,489.444998 484.077,489.847 C484.983005,490.249002 485.747997,490.761997 486.372,491.386 L485.22,493.006 Z" id="MediaElement.js"></path>
        </g>
    </g>
</svg>