<?xml version="1.0" encoding="UTF-8" standalone="no"?>
<svg
   xmlns:dc="http://purl.org/dc/elements/1.1/"
   xmlns:cc="http://creativecommons.org/ns#"
   xmlns:rdf="http://www.w3.org/1999/02/22-rdf-syntax-ns#"
   xmlns:svg="http://www.w3.org/2000/svg"
   xmlns="http://www.w3.org/2000/svg"
   viewBox="0 0 606.15002 250.925"
   xml:space="preserve"
   version="1.1"
   id="svg2"><metadata
     id="metadata8"><rdf:RDF><cc:Work
         rdf:about=""><dc:format>image/svg+xml</dc:format><dc:type
           rdf:resource="http://purl.org/dc/dcmitype/StillImage" /></cc:Work></rdf:RDF></metadata><defs
     id="defs6" /><g
     transform="matrix(1.25,0,0,-1.25,0,250.925)"
     id="g10"><g
       transform="scale(0.1,0.1)"
       id="g12"><path
         id="path14"
         style="fill:#3973c2;fill-opacity:1;fill-rule:nonzero;stroke:none"
         d="m 2258.01,2007.35 754.56,-143.14 0,-1161.312 -754.56,-84.437 0,1388.889" /><path
         id="path16"
         style="fill:#ffffff;fill-opacity:1;fill-rule:nonzero;stroke:none"
         d="m 2383.26,1045.05 c 51.49,-30.37 131.92,-56.761 215.13,-56.761 102.88,0 160.93,48.851 160.93,121.431 0,67.31 -44.9,106.84 -157.03,147.79 -147.78,52.73 -241.5,130.63 -241.5,258.58 0,146.51 121.42,256.02 315.44,256.02 96.31,0 166.26,-21.12 212.39,-44.87 l -38.27,-130.65 c -32.94,17.18 -95.05,42.22 -178.08,42.22 -102.96,0 -146.51,-54.13 -146.51,-106.85 0,-68.6 51.46,-100.32 170.21,-146.51 154.38,-58 228.28,-135.84 228.28,-263.85 0,-143.819 -108.22,-267.889 -336.49,-267.889 -95.05,0 -192.62,26.379 -241.44,56.738 l 36.94,134.601" /><path
         id="path18"
         style="fill:#7a7e82;fill-opacity:1;fill-rule:nonzero;stroke:none"
         d="m 778.457,1249.35 c -6.66,124.88 -14.598,276.32 -14.598,386.58 l -2.687,0 C 729.285,1532.32 693.438,1419.41 648.281,1295.86 l -158.093,-434.399 -87.668,0 -146.137,426.419 c -42.512,127.53 -77.047,241.78 -102.313,348.05 l -2.644,0 c -2.645,-111.59 -9.301,-260.38 -17.274,-395.88 L 110.25,856.129 0,856.129 62.4414,1751.5 l 147.4416,0 152.773,-433.07 c 37.18,-110.25 66.414,-208.56 90.313,-301.55 l 2.687,0 c 23.907,90.33 55.782,188.64 95.645,301.55 l 159.414,433.07 147.449,0 55.801,-895.371 -114.258,0 -21.25,393.221" /><path
         id="path20"
         style="fill:#7a7e82;fill-opacity:1;fill-rule:nonzero;stroke:none"
         d="m 1414.72,1240.05 c 1.32,73.08 -30.55,188.65 -162.06,188.65 -119.57,0 -170.05,-107.62 -179.34,-188.65 l 341.4,0 z m -342.73,-83.69 c 2.66,-158.079 102.28,-223.169 220.5,-223.169 83.68,0 135.52,14.618 178.03,33.2 l 21.24,-83.68 c -41.18,-18.609 -112.93,-41.18 -215.18,-41.18 -197.97,0 -316.189,131.489 -316.189,325.469 0,193.93 114.259,345.38 301.519,345.38 211.24,0 265.72,-183.32 265.72,-301.56 0,-23.91 -1.34,-41.18 -3.98,-54.46 l -451.66,0" /><path
         id="path22"
         style="fill:#7a7e82;fill-opacity:1;fill-rule:nonzero;stroke:none"
         d="m 2044.86,1237.4 c 0,14.62 -1.35,34.55 -5.34,49.15 -17.27,73.06 -81.02,134.17 -168.72,134.17 -120.89,0 -192.61,-106.26 -192.61,-247.1 0,-130.18 65.08,-237.768 189.97,-237.768 78.35,0 150.1,53.136 171.36,139.488 3.99,15.93 5.34,31.87 5.34,50.46 l 0,111.6 z m 115.54,561.93 0,-777.14 c 0,-57.131 2.69,-122.202 5.32,-166.061 l -103.62,0 -5.3,111.601 -4.01,0 c -34.53,-71.761 -111.57,-126.199 -216.53,-126.199 -155.43,0 -276.29,131.489 -276.29,326.779 -1.33,213.87 132.82,344.07 288.25,344.07 99.64,0 164.74,-46.49 193.94,-96.97 l 2.7,0 0,383.92 115.54,0" /><path
         id="path24"
         style="fill:#7a7e82;fill-opacity:1;fill-rule:nonzero;stroke:none"
         d="m 3111.49,856.129 0,642.961 116.92,0 0,-642.961 -116.92,0 z m 130.19,823.631 c 0,-39.85 -27.91,-71.73 -74.39,-71.73 -42.52,0 -70.43,31.88 -70.43,71.73 0,39.87 29.23,73.08 73.07,73.08 42.51,0 71.75,-31.91 71.75,-73.08" /><path
         id="path26"
         style="fill:#7a7e82;fill-opacity:1;fill-rule:nonzero;stroke:none"
         d="m 3339.17,1325.07 c 0,67.74 -2.64,120.88 -5.29,174.02 l 102.27,0 5.33,-104.93 3.97,0 c 35.89,61.09 95.65,118.22 203.24,118.22 86.39,0 152.8,-53.14 180.67,-128.85 l 2.7,0 c 19.93,37.19 46.47,63.77 73.06,83.68 38.49,29.22 79.69,45.17 140.81,45.17 86.35,0 212.54,-55.79 212.54,-278.98 l 0,-377.271 -114.26,0 0,362.671 c 0,124.88 -46.47,197.93 -139.46,197.93 -67.74,0 -118.25,-49.14 -139.49,-104.95 -5.34,-17.25 -9.3,-37.19 -9.3,-58.43 l 0,-397.221 -114.26,0 0,385.251 c 0,102.3 -45.17,175.35 -134.14,175.35 -71.76,0 -126.22,-58.45 -144.84,-116.89 -6.64,-15.95 -9.29,-37.2 -9.29,-57.13 l 0,-386.581 -114.26,0 0,468.941" /><path
         id="path28"
         style="fill:#7a7e82;fill-opacity:1;fill-rule:nonzero;stroke:none"
         d="m 4341.19,974.371 c 35.84,-21.262 96.96,-45.16 155.39,-45.16 83.71,0 123.57,41.18 123.57,95.619 0,55.82 -33.21,85.04 -118.23,116.91 -116.89,42.51 -171.36,104.96 -171.36,182.03 0,103.6 85.02,188.61 221.84,188.61 65.11,0 122.22,-17.25 156.75,-39.86 l -27.89,-85 c -25.25,15.92 -71.73,38.52 -131.53,38.52 -69.05,0 -106.28,-39.85 -106.28,-87.68 0,-53.14 37.23,-77.05 120.91,-110.25 110.26,-41.2 168.71,-97 168.71,-192.65 0,-114.23 -89.03,-193.929 -239.12,-193.929 -70.4,0 -135.52,18.578 -180.67,45.149 l 27.91,87.691" /><path
         id="path30"
         style="fill:#95979a;fill-opacity:1;fill-rule:nonzero;stroke:none"
         d="m 4798.89,1570.37 c -28.16,0 -50.62,21.86 -50.62,49.41 0,27.57 22.46,49.13 50.92,49.13 27.85,0 50.03,-21.56 50.03,-49.13 0,-27.55 -22.18,-49.41 -50.33,-49.41 m -0.31,88.65 c -21.27,0 -37.73,-17.67 -37.73,-39.24 0,-21.85 16.46,-39.23 38.34,-39.23 0.18,0 0.36,0 0.54,0 20.99,0 36.9,17.56 36.9,38.93 0,21.87 -16.18,39.54 -38.05,39.54 m -0.89,-22.46 c -2.99,0 -5.09,-0.29 -6.28,-0.6 l 0,-14.08 5.38,0 c 6.29,0 11.38,2.09 11.38,7.19 0,4.49 -3.29,7.49 -10.48,7.49 m 24.86,-42.23 -11.98,0 c -1.5,1.79 -2.4,5.98 -3.9,11.97 -0.89,5.1 -3.89,7.49 -10.19,7.49 l -5.39,0 0,-19.46 -11.37,0 0,49.11 c 4.49,0.61 10.79,1.51 18.86,1.51 9.29,0 13.49,-1.51 16.79,-3.9 2.99,-2.1 5.08,-5.69 5.08,-10.48 0,-5.99 -4.49,-9.89 -10.19,-11.68 l 0,-0.6 c 4.8,-1.5 7.2,-5.4 8.69,-11.99 1.5,-7.48 2.7,-10.18 3.6,-11.97" /><path
         id="path32"
         style="fill:#1b1918;fill-opacity:1;fill-rule:nonzero;stroke:none"
         d="m 1257.8,227.211 0,131.277 -21.41,0 0,21.114 21.41,0 0,7.226 c 0,21.402 4.72,40.922 17.63,53.203 10.39,10.071 24.25,14.18 37.15,14.18 9.74,0 18.26,-2.211 23.61,-4.41 l -3.78,-21.43 c -4.1,1.91 -9.75,3.481 -17.62,3.481 -23.63,0 -29.6,-20.774 -29.6,-44.071 l 0,-8.179 36.83,0 0,-21.114 -36.83,0 0,-131.277 -27.39,0" /><path
         id="path34"
         style="fill:#1b1918;fill-opacity:1;fill-rule:nonzero;stroke:none"
         d="m 1343.45,332.07 c 0,17.918 -0.31,33.36 -1.25,47.532 l 24.23,0 0.94,-29.922 1.25,0 c 6.94,20.449 23.64,33.371 42.2,33.371 3.15,0 5.36,-0.301 7.86,-0.949 l 0,-26.133 c -2.82,0.652 -5.65,0.953 -9.43,0.953 -19.52,0 -33.37,-14.801 -37.15,-35.57 -0.63,-3.782 -1.27,-8.18 -1.27,-12.922 l 0,-81.219 -27.38,0 0,104.859" /><path
         id="path36"
         style="fill:#1b1918;fill-opacity:1;fill-rule:nonzero;stroke:none"
         d="m 1456.32,303.078 c 0,-33.367 19.22,-58.539 46.28,-58.539 26.44,0 46.27,24.852 46.27,59.172 0,25.828 -12.89,58.559 -45.63,58.559 -32.76,0 -46.92,-30.2 -46.92,-59.192 z m 120.89,1.57 c 0,-56.328 -39.03,-80.878 -75.87,-80.878 -41.24,0 -73.04,30.199 -73.04,78.378 0,50.993 33.37,80.903 75.57,80.903 43.75,0 73.34,-31.789 73.34,-78.403" /><path
         id="path38"
         style="fill:#1b1918;fill-opacity:1;fill-rule:nonzero;stroke:none"
         d="m 1606.91,338.352 c 0,15.738 -0.3,28.648 -1.26,41.25 l 24.24,0 1.27,-24.571 0.93,0 c 8.51,14.481 22.68,28.02 47.86,28.02 20.77,0 36.51,-12.59 43.15,-30.531 l 0.62,0 c 4.71,8.5 10.69,15.109 16.99,19.839 9.14,6.911 19.2,10.692 33.69,10.692 20.15,0 50.06,-13.223 50.06,-66.102 l 0,-89.738 -27.08,0 0,86.258 c 0,29.281 -10.71,46.929 -33.06,46.929 -15.75,0 -28.01,-11.66 -32.74,-25.207 -1.25,-3.781 -2.2,-8.812 -2.2,-13.839 l 0,-94.141 -27.09,0 0,91.309 c 0,24.23 -10.68,41.878 -31.78,41.878 -17.32,0 -29.91,-13.867 -34.32,-27.707 -1.57,-4.101 -2.2,-8.839 -2.2,-13.543 l 0,-91.937 -27.08,0 0,111.141" /><path
         id="path40"
         style="fill:#100f0d;fill-opacity:1;fill-rule:nonzero;stroke:none"
         d="m 4233.08,285.41 0.03,0 c 0.15,4.699 -1.36,7.121 -5.02,6.899 l -1.15,-0.27 c -2.69,-0.66 -3.83,-4.859 -4.51,-6.82 l 0.03,0 -0.64,-2.297 -0.05,0 -0.28,-0.852 c -9.57,-29.558 -31.46,-48.621 -54.5,-47.398 -19.32,1.16 -32.28,8.887 -38.51,22.988 -0.35,0.789 -8.37,20.5 -8.37,49.379 0,60.02 12.91,82.34 47.64,82.34 9.91,0 33.1,-4.949 33.1,-14.539 0,-1 -1.46,-2.192 -3.14,-3.559 -3.9,-3.25 -9.79,-8.121 -9.79,-19.32 0,-12.242 8.3,-20.789 20.19,-20.789 12.6,0 19.39,12 19.39,23.289 0,33.57 -38.62,45.75 -64.59,45.75 -21.27,0 -81.99,-17.121 -81.99,-93.172 0,-23.258 14.86,-83.59 82.77,-83.59 45.26,1.781 60.43,31.84 68.59,57.832 l 0.51,1.641 -0.07,0 c 0.23,0.93 0.36,1.769 0.36,2.488" /><path
         id="path42"
         style="fill:#100f0d;fill-opacity:1;fill-rule:nonzero;stroke:none"
         d="m 4623.04,364.27 c 1.11,3.98 12.19,25.332 34.78,25.332 16.4,0 35.94,-6.633 35.94,-38.262 l 0,-12.871 -74.57,0 c 0.5,10.531 1.75,19.293 3.85,25.801 m 109.99,-79.09 0.03,0 c 0.17,4.851 -1.42,7.351 -5.2,7.129 l -1.17,-0.289 c -2.78,-0.692 -3.96,-5.02 -4.67,-7.032 l 0.03,0 -0.52,-1.828 -0.08,0 -0.21,-1.012 c -5.72,-27.828 -33.33,-47.238 -54.52,-47.238 -40.18,0 -48.05,26.82 -48.05,73.18 l 0,15.801 c 0,0 99.58,0 104.36,0 4.78,0 10.98,-1.321 9.2,12.14 -5.11,38.41 -33.7,64.41 -73.2,64.41 -50.55,0 -80.78,-48.421 -80.78,-95.25 0,-48.769 42.4,-81.519 81.99,-81.519 38.23,0 64.57,21.117 72.25,57.957 l 0.33,1.531 -0.04,0 0.25,2.02" /><path
         id="path44"
         style="fill:#100f0d;fill-opacity:1;fill-rule:nonzero;stroke:none"
         d="m 4339.27,278.559 c 0,-15.887 -4.78,-20.68 -7.92,-23.848 l -0.63,-0.609 c -9.45,-8.524 -17.65,-11.711 -30.21,-11.711 -18.16,0 -29.88,12.418 -29.88,31.597 0,26.903 23.14,40.981 68.64,41.934 l 0,-37.363 z m 63.48,-17.719 c -0.47,4.801 -1.78,6.441 -5.04,5.922 -2.75,-0.434 -3.61,-4.692 -4.14,-6.633 l 0.04,0 -0.22,-0.75 c -3.38,-12 -7.61,-17.828 -12.94,-17.828 -6.92,0 -7.28,4.609 -7.28,17.879 l 0,98.992 c 0,16.726 0,42.019 -56.11,42.019 -47.96,0 -65.84,-25.261 -65.84,-41.179 0,-12.903 7.15,-21.223 18.18,-21.223 10.65,0 17.79,7.52 17.79,18.723 0,9.847 -5.97,14.199 -9.54,16.816 -1.04,0.742 -2.57,1.863 -2.57,2.32 0,10.454 26.64,13.704 36.33,13.704 8.37,0 27.86,-2.34 27.86,-24.114 l 0,-38.308 c -63.18,-0.301 -100.13,-22.621 -101.35,-61.461 0,-27.141 17.2,-42.047 48.46,-42.047 21.89,0 40.88,8.738 53.95,24.308 3.58,-15.539 12.9,-24.308 26.79,-24.308 19,0 34.28,15.156 35.53,35.269 l 0.08,1.34 0.02,0.559" /><path
         id="path46"
         style="fill:#100f0d;fill-opacity:1;fill-rule:evenodd;stroke:none"
         d="m 3955.99,288.238 0.14,0 -0.15,-0.039 0.01,0.031 m 116.15,-6.339 c 0,28.019 -12.45,42.121 -42.96,48.66 -61.31,12.781 -64.03,18.738 -64.03,29.949 0,2.77 1.64,12.301 8.92,19.621 6.57,6.59 15.91,9.789 27.79,9.481 27.16,-1.391 38.3,-23.321 42.84,-41.473 l 0.23,-0.938 c 1.19,-6.57 11.08,-7.043 11.08,0 0,7.028 0,47.11 0,47.11 l -0.09,0.019 c -0.06,2.969 -1.31,4.551 -3.88,4.891 l -0.58,-0.039 -0.1,0.039 c -2.77,0.32 -4.64,-3.582 -5.65,-5.301 -1.78,-2.781 -4.64,-7.191 -5.41,-8.359 -12.17,9.82 -24.67,14.89 -37.2,14.89 -43.99,0 -55.74,-32.953 -55.74,-52.421 0,-35.27 21.72,-40.598 46.85,-46.758 l 4.15,-1.032 c 31.05,-8.089 54.79,-15.519 54.79,-31.23 0,-7.621 -2.84,-14.352 -7.29,-19.809 l -0.02,0.02 -0.69,-0.801 c -7.65,-8.43 -19.33,-13.719 -30.49,-13.719 -27.89,0 -49.58,19.731 -58.03,52.731 l -0.22,0.91 -0.04,-0.012 c -0.53,1.942 -1.34,6.129 -4.08,6.559 l -1.51,-0.051 c -2.52,-0.078 -3.53,-2.199 -3.94,-6.59 l 0.02,0 c -0.3,-1.937 -0.18,-2.687 -0.18,-2.687 l 0,-53.821 0.02,-0.011 c -0.1,-4.739 0.9,-6.938 4.33,-7.059 2.05,-0.058 3.95,3.02 4.94,5.039 1.23,2.071 7.47,12.59 8.57,14.43 11.8,-12.719 29.41,-20.367 47.6,-20.367 17,0 32.47,5.789 43.55,16.316 l 0.84,0.981 -0.02,0.011 c 9.85,10.192 15.63,24.258 15.63,40.821" /><path
         id="path48"
         style="fill:#3973c2;fill-opacity:1;fill-rule:nonzero;stroke:none"
         d="m 3608.59,236.922 c -7.4,2.66 -13.04,11.656 -13.19,16.258 -0.15,4.629 -4.69,209.082 -4.69,209.082 -0.2,10.59 0.28,18.277 -2.49,19.328 -3.32,1.289 -17.35,0.98 -21.05,0.98 -8.96,0 -15.59,0.27 -17.21,-1.699 -1.72,-2.062 -4.97,-9.391 -8.62,-19.301 l -18.17,-41.64 c -4.69,-9.442 -12.69,-25.489 -17.41,-34.879 l -27.56,-55 c -4.71,-9.422 -12.57,-9.512 -17.51,-0.211 l -28.78,54.379 c -4.92,9.293 -12.96,24.519 -17.88,33.812 l -20.19,43.918 c -4.08,9.723 -6.05,17.262 -8.04,19.071 -1.71,1.57 -8.9,1.57 -19.16,1.511 l -24.16,0 c -11.99,0 -17.41,-0.133 -16.62,-5.351 0.41,-2.86 4.58,-3.692 6.43,-4.219 7.44,-2.152 10.16,-11.512 10.16,-16.133 0,-4.609 -0.15,-190.867 -1.01,-199.019 -0.14,-1.379 -0.4,-2.778 -0.67,-4.231 l -0.29,-0.398 c -1.42,-7.942 -5.73,-14.121 -13.19,-16.258 -1.83,-0.543 -6.02,-1.371 -6.43,-4.231 -0.77,-5.203 4.78,-5.39 16.78,-5.39 l 8.11,0.039 2.09,-0.129 0.18,0.129 9.49,0 19.86,-0.039 c 11.99,0 17.57,0.187 16.8,5.39 -0.42,2.86 -4.6,3.688 -6.45,4.231 -7.43,2.137 -10.46,6.969 -13.19,16.258 l -0.03,0.152 c -1.31,5.969 -1.92,14.109 -1.92,14.109 -0.39,10.59 -0.64,27.911 -0.53,38.481 l 0.02,3.269 c 0.12,10.598 0.39,27.911 0.63,38.5 l 0.96,41.739 c 0.24,10.57 4.41,11.621 9.27,2.289 l 26.74,-51.129 c 4.87,-9.328 30.49,-59.25 35.07,-68.699 3.89,-8.032 4.69,-11.051 16.71,-11.211 13.45,-0.18 13.45,3.679 18.98,15.89 4.05,8.981 61.37,125.141 61.37,125.141 4.66,9.449 8.71,8.5 8.98,-2.09 0,0 0.72,-141.652 -0.22,-148 -0.17,-0.973 -0.31,-1.652 -0.37,-2.133 -1.98,-6.117 -6,-10.769 -12.22,-12.566 -1.87,-0.543 -6.01,-1.371 -6.46,-4.231 -0.75,-5.203 4.79,-5.39 16.78,-5.39 l 24.98,0.051 11.17,-0.012 5.82,-0.059 0.4,0.059 7.57,-0.039 c 12.03,0 17.56,0.187 16.8,5.39 -0.43,2.86 -4.62,3.571 -6.44,4.231" /><path
         id="path50"
         style="fill:#3973c2;fill-opacity:1;fill-rule:evenodd;stroke:none"
         d="m 3861.15,245.289 c -5.21,-4.527 -17.11,-10.961 -27.19,-10.961 -31.22,0 -39.76,18.16 -39.76,84.453 0,34.367 2.92,71.059 37.73,71.059 23,0 39.56,-15.11 46.61,-42.551 2.7,-9.309 2.9,-30.57 2.9,-36.879 0,-42.808 -4.96,-50.98 -20.29,-65.121 m 79.19,-12.719 c -0.31,2.051 -3.09,2.871 -5.11,3.481 l -1.22,0.379 c -5.91,2.148 -11.32,9.832 -13.5,14.781 -0.79,2.301 -1.15,5.668 -1.32,8.07 -0.16,6.731 -0.52,22.668 -0.98,42.957 l -0.1,165.422 0,2.711 c 0,12.277 1.18,11.649 -13.8,12.129 l -25.75,0.031 -0.77,0 c -10.91,0 -15.94,-0.152 -15.25,-4.941 0.4,-2.57 4.16,-3.32 5.85,-3.809 8.14,-2.34 12.09,-10.031 12.35,-19.422 l -0.11,-82.187 -0.82,0 c -10.99,22.019 -35.6,27.316 -48.58,27.316 -48.32,0 -75.5,-40.148 -75.5,-86.968 0,-4.34 0.26,-8.598 0.82,-12.782 0.88,-6.386 3.5,-17.386 3.36,-16.879 9.87,-34.007 35.17,-58.668 67.25,-58.558 18.79,0.07 42.56,8.539 53.02,27.008 l 0.83,0 c 0,0 0.72,-3.821 0.72,-12.258 0,-11.551 -0.83,-11.41 11.62,-11.41 13.27,0 25.45,0 25.45,0 l 0,0.031 4.63,-0.024 c 9.01,0 14.62,0.114 16.35,2.192 l 0.63,1.89 -0.07,0.84" /><path
         id="path52"
         style="fill:#3973c2;fill-opacity:1;fill-rule:nonzero;stroke:none"
         d="m 3709.18,387.5 c 9.36,0 14.77,-6.309 14.77,-15.93 0,-40.41 -43.55,-58.179 -76.67,-60.429 5.78,24.461 34.21,76.359 61.9,76.359 z m 57.55,-57.82 c -4.63,-12.008 -13.9,-29.559 -21.19,-39.328 -1.66,-2.243 -36.57,-45.903 -73.43,-45.903 -16.91,0 -29.49,10 -29.49,28.52 0,9.652 0.67,18 2.84,27.66 38.49,3.711 107.27,22.012 107.27,72.402 0,20.379 -19.07,26.328 -35.27,26.328 -52.18,0 -103.62,-65.589 -103.62,-124.898 0,-24.84 11.13,-50.031 44.26,-50.031 51.28,0 83.27,42.531 93.98,58.621 2.3,3.429 6.28,10.75 8.37,14.758" /><path
         id="path54"
         style="fill:#11100e;fill-opacity:1;fill-rule:nonzero;stroke:none"
         d="m 4487.99,238.422 c -11.05,0 -28.29,9.808 -34.84,22.918 -6.2,11.93 -7.75,18.5 -7.75,45.351 l -0.01,5 c -0.05,10.219 -0.1,20.77 1.54,32.18 5.5,36.481 32.37,44.469 42.23,44.469 29.13,0 39.42,-20 39.42,-76.379 0,-73.539 -21.56,-73.539 -40.59,-73.539 z m 4.34,162.129 c -19.67,0 -37.23,-11.223 -47.72,-29.821 l -0.07,11.18 0,2.641 c 0,11.988 1.16,11.371 -13.49,11.84 l -20.93,0.039 -0.74,0 c -10.67,0 -15.59,-0.129 -14.9,-4.828 0.38,-2.512 4.06,-3.231 5.71,-3.704 7.95,-2.308 11.81,-9.82 12.07,-19 l 0,-4.628 -0.02,-193.192 c 0.07,-12.457 0.46,-11.75 12.5,-11.75 l 22.61,-0.019 0.74,0 c 10.63,0 15.5,0.152 14.83,4.769 -0.38,2.531 -4.04,3.231 -5.68,3.711 -7.91,2.281 -11.74,9.742 -12.01,18.883 0,0 0.12,48.648 0.2,66.988 10.51,-17.199 25.27,-25.801 45.32,-25.801 49.45,0 76.13,42.692 76.13,82.86 0,65.922 -44.59,89.832 -74.55,89.832" /><path
         id="path56"
         style="fill:#211c1d;fill-opacity:1;fill-rule:nonzero;stroke:none"
         d="m 3052.6,459.621 c -32.89,25.949 -95.35,24.617 -95.35,24.617 -10.87,-0.027 -35.39,0.09 -46.13,0.012 l -33.62,0.031 -0.34,0.047 -27.7,0.043 c -12.56,0 -16.87,-0.883 -16.08,-6.18 0.44,-2.89 4.81,-3.73 6.76,-4.281 7.76,-2.18 13.44,-6.351 13.78,-14.07 0.4,-8.91 1.38,-36.899 1.38,-46.621 l 0,-79.528 c 0,-10.73 -0.05,-28.332 -0.08,-39.07 l -0.18,-49.441 c -0.02,-10.739 8.73,-19.539 19.46,-19.559 l 24.96,-0.051 c 10.75,-0.019 28.33,-0.031 39.08,-0.031 0,0 46.03,-0.059 79.48,15.402 50.12,22.739 78.84,66.579 78.84,120.27 0,40.07 -16.55,76.84 -44.26,98.41 m -108.33,-211.269 -2.45,-0.012 c -14.94,-0.008 -30.37,-0.039 -38.37,7.93 -4.14,4.152 -6.17,10.269 -6.17,18.718 l 0,118.981 c 0,24.5 -0.59,36.062 0.23,63.531 19.17,2.379 28.84,3.031 44.49,3.031 28.26,0 57.82,-3.801 82.52,-31.242 16.88,-19.019 25.09,-42.777 25.09,-72.578 0,-65.82 -41.37,-108.359 -105.34,-108.359 M 2833.53,235.41 c -7.73,2.699 -13.64,11.82 -13.79,16.5 -0.15,4.699 -4.9,212.192 -4.9,212.192 -0.22,10.738 0.28,18.546 -2.59,19.617 -3.48,1.312 -18.15,1 -22.03,1 -9.35,0 -16.28,0.261 -17.98,-1.731 -1.8,-2.09 -5.2,-9.527 -9.02,-19.59 l -18.98,-42.269 c -4.91,-9.57 -13.28,-25.848 -18.21,-35.391 l -28.8,-55.816 c -4.94,-9.563 -13.16,-9.652 -18.31,-0.223 l -30.09,55.199 c -5.14,9.422 -13.57,24.872 -18.7,34.313 l -21.11,44.57 c -4.25,9.867 -6.31,17.52 -8.39,19.36 -1.78,1.597 -9.3,1.597 -20.04,1.531 l -25.26,0 c -12.54,0 -18.18,-0.121 -17.37,-5.442 0.43,-2.89 4.8,-3.73 6.73,-4.261 7.77,-2.188 10.61,-11.68 10.61,-16.379 0,-4.68 -0.14,-193.711 -1.05,-201.981 -0.15,-1.398 -0.41,-2.828 -0.7,-4.3 l -0.31,-0.399 c -1.48,-8.058 -5.99,-14.34 -13.77,-16.5 -1.93,-0.551 -6.31,-1.39 -6.74,-4.289 -0.81,-5.289 5.01,-5.48 17.54,-5.48 l 8.48,0.039 2.19,-0.129 0.19,0.129 9.91,0 20.78,-0.039 c 12.53,0 18.36,0.191 17.54,5.48 -0.43,2.899 -4.79,3.738 -6.72,4.289 -7.77,2.16 -10.94,7.078 -13.79,16.5 l -0.04,0.141 c -1.37,6.078 -2,14.308 -2,14.308 -0.42,10.762 -0.68,28.34 -0.55,39.082 l 0.01,3.321 c 0.12,10.75 0.41,28.328 0.67,39.058 l 0.99,42.36 c 0.25,10.73 4.61,11.789 9.7,2.34 l 27.95,-51.911 c 5.09,-9.461 31.86,-60.129 36.65,-69.718 4.08,-8.141 4.92,-11.211 17.48,-11.371 14.06,-0.168 14.06,3.742 19.84,16.128 4.24,9.122 64.15,127 64.15,127 4.88,9.582 9.11,8.633 9.4,-2.117 0,0 0.76,-143.761 -0.25,-150.211 -0.15,-0.992 -0.29,-1.672 -0.37,-2.172 -2.06,-6.207 -6.28,-10.918 -12.78,-12.738 -1.95,-0.551 -6.28,-1.39 -6.74,-4.289 -0.78,-5.289 5,-5.48 17.54,-5.48 l 26.1,0.05 11.68,-0.011 6.1,-0.059 0.41,0.059 7.91,-0.039 c 12.58,0 18.37,0.191 17.56,5.48 -0.44,2.899 -4.83,3.609 -6.73,4.289" /><path
         id="path58"
         style="fill:#3973c2;fill-opacity:1;fill-rule:nonzero;stroke:none"
         d="m 2270.43,458.309 c 1.74,4.601 5.67,13.429 11.17,16.273 2.83,1.477 8.38,1.398 9.31,5.289 0.94,3.867 -2.49,4.899 -16.14,4.899 l -40.96,0 c -12.53,0 -18.34,-0.168 -17.55,-5.481 0.43,-2.891 4.81,-3.73 6.74,-4.269 11.86,-3.329 19.84,-9.391 16.11,-21.801 -3.71,-12.41 -55.46,-164.75 -55.46,-164.75 -2.01,-5.469 -7.03,-7.028 -8.62,1.121 l -27.24,128.09 c -2.23,10.519 -4.79,23.992 -5.68,29.922 0,0 -1.91,8.41 -11.54,8.41 -7.56,0 -10.56,-5.383 -11.29,-6.922 -3.47,-7.199 -10.29,-20.93 -15.15,-30.52 l -68.25,-131.019 c -2.79,-4.871 -6.36,-3.422 -6.79,2.418 l -8.46,132.832 c -0.05,10.48 -1.01,30.828 -0.98,34.34 0.03,8.73 5.81,15.437 13.98,17.738 1.95,0.543 6.58,1.633 7.02,4.519 0.8,5.293 -5.27,5.223 -17.83,5.223 l -1.81,0 c -1.86,0.02 -43.53,0 -43.53,0 -2.35,0.051 -4.42,0.051 -6.21,-0.039 -8.46,-0.172 -12.34,-1.051 -11.69,-5.434 0.44,-2.886 4.81,-3.726 6.75,-4.269 5.67,-1.59 9.57,-5.399 11.86,-10.469 1.11,-2.941 1.74,-5.469 1.74,-5.469 l 0.21,-0.98 0.16,-0.82 0.24,-1.039 c 2.22,-10.571 4.44,-25.891 5.09,-35.672 l 10.99,-162.34 c 0.7,-10.711 0.36,-26.281 3.58,-33.02 3.24,-6.738 18.33,-6.351 24.29,2.692 1.7,2.547 86.83,162.558 86.83,162.558 4.96,9.539 10.77,8.711 12.91,-1.82 l 26.82,-131.922 c 2.11,-10.539 4.37,-22.226 6.99,-29.008 3.67,-9.55 21.88,-7.859 26.73,1.442 4.26,8.136 8.75,19.258 12.4,29.359 0,0 70.1,191.527 73.26,199.938 m 224.63,-62.571 c -33.27,0 -63.62,-30.34 -83.61,-53.277 -0.41,0.41 1.78,9.16 4.84,19.437 l 31.02,104 c 3.08,10.313 -3.2,18.743 -13.94,18.75 l -26.21,0.043 c -12.56,0 -18.35,-0.171 -17.56,-5.48 0.44,-2.891 4.81,-3.731 6.75,-4.262 12.43,-3.488 16.54,-17.437 13.25,-32.5 0.13,1.231 -31.02,-122.98 -31.02,-122.98 -2.57,-10.438 -11.86,-25.098 -19.6,-32.571 0,0 -37.6,-45.82 -75.52,-45.82 -17.39,0 -30.33,9.981 -30.33,28.481 0,9.632 0.71,17.972 2.91,27.613 39.6,3.699 110.34,21.969 110.34,72.289 0,20.348 -19.61,26.277 -36.28,26.277 -53.65,0 -106.56,-65.488 -106.56,-124.707 0,-24.781 11.45,-49.941 45.51,-49.941 63.99,0 98.75,62.469 100.71,64.539 0,0 -3.09,-15.688 -3.09,-24.969 0,-27 19.63,-39.57 44.06,-39.57 17.84,0 36.55,6.379 54.18,16.93 13.62,8.32 26.39,19 37.25,31.562 20.74,23.43 34.73,52.258 34.73,79.188 0,28.089 -12.21,46.968 -41.83,46.968 m -173.48,-11.847 c 9.64,0 15.19,-6.301 15.19,-15.903 0,-40.347 -44.78,-58.09 -78.84,-60.328 5.94,24.422 35.18,76.231 63.65,76.231 m 168.61,-87.832 c -8.39,-16.489 -19.35,-32.231 -31.51,-44.278 -12.99,-12.73 -27.51,-21.062 -42.04,-21.062 -17.01,0 -22.58,16.261 -22.58,31.441 0,41.449 45.15,118.418 91.04,118.418 17.01,0 22.19,-11.84 22.19,-25.93 0,-16.027 -6.55,-37.757 -17.1,-58.589" /><path
         id="path60"
         style="fill:#211c1d;fill-opacity:1;fill-rule:nonzero;stroke:none"
         d="m 3068.87,463.711 c 0,5.008 3.79,8.789 8.62,8.789 4.78,0 8.54,-3.781 8.54,-8.789 0,-5.09 -3.76,-8.84 -8.54,-8.84 -4.83,0 -8.62,3.75 -8.62,8.84 m 8.62,-10.602 c 5.75,0 10.67,4.469 10.67,10.602 0,6.07 -4.92,10.539 -10.67,10.539 -5.84,0 -10.74,-4.469 -10.74,-10.539 0,-6.133 4.9,-10.602 10.74,-10.602 m -2.24,9.762 2.12,0 3.23,-5.293 2.07,0 -3.47,5.383 c 1.78,0.219 3.14,1.168 3.14,3.34 0,2.418 -1.42,3.48 -4.3,3.48 l -4.64,0 0,-12.203 1.85,0 0,5.293 z m 0,1.559 0,3.781 2.5,0 c 1.3,0 2.67,-0.27 2.67,-1.789 0,-1.863 -1.41,-1.992 -2.97,-1.992 l -2.2,0" /><path
         id="path62"
         style="fill:#11100e;fill-opacity:1;fill-rule:nonzero;stroke:none"
         d="m 3190.96,179.309 22.5,0 0,345.613 -22.5,0 0,-345.613 z" /></g></g></svg>
