<?xml version="1.0" encoding="iso-8859-1"?>
<!-- Generator: Adobe Illustrator 21.0.0, SVG Export Plug-In . SVG Version: 6.00 Build 0)  -->
<svg version="1.1" id="Layer_1" xmlns="http://www.w3.org/2000/svg" xmlns:xlink="http://www.w3.org/1999/xlink" x="0px" y="0px"
	 viewBox="0 0 110 80" style="enable-background:new 0 0 110 80;" xml:space="preserve">
<g>
	<path style="fill:#EE6135;" d="M58.163,41.907c2.382-1.375,2.382-3.625,0-5L9.677,8.913c-2.382-1.375-4.33-0.25-4.33,2.5V67.4
		c0,2.75,1.949,3.875,4.33,2.5L58.163,41.907z"/>
</g>
<path style="fill:none;stroke:#EE6135;stroke-width:5;stroke-linecap:round;stroke-miterlimit:10;" d="M68.291,57.938
	c4.97-5.283,7.856-11.535,7.856-18.243s-2.887-12.959-7.856-18.243"/>
<path style="fill:none;stroke:#EE6135;stroke-width:5;stroke-linecap:round;stroke-miterlimit:10;" d="M80.901,64.39
	c6.283-7.152,9.932-15.615,9.932-24.695S87.184,22.152,80.901,15"/>
<path style="fill:none;stroke:#EE6135;stroke-width:5;stroke-linecap:round;stroke-miterlimit:10;" d="M93.555,71.057
	c6.587-9.083,10.412-19.831,10.412-31.362s-3.826-22.279-10.412-31.362"/>
</svg>
