<?xml version="1.0" encoding="utf-8"?>
<!-- Generator: Adobe Illustrator 15.0.2, SVG Export Plug-In . SVG Version: 6.00 Build 0)  -->
<!DOCTYPE svg PUBLIC "-//W3C//DTD SVG 1.1//EN" "http://www.w3.org/Graphics/SVG/1.1/DTD/svg11.dtd">
<svg version="1.1" id="Layer_1" xmlns="http://www.w3.org/2000/svg" xmlns:xlink="http://www.w3.org/1999/xlink" x="0px" y="0px"
	 width="329.902px" height="86.458px" viewBox="126.98 351.792 329.902 86.458"
	 enable-background="new 126.98 351.792 329.902 86.458" xml:space="preserve">
<g>
	<path fill="#00C0FF" d="M159.915,379.795h-23.99v7.87h22.846c3.582,0,6.003,0.613,7.263,1.837c1.259,1.225,1.889,3.501,1.889,6.83
		v5.027c0,3.328-0.63,5.604-1.889,6.829c-1.26,1.226-3.681,1.838-7.263,1.838h-22.638c-3.583,0-6.003-0.612-7.263-1.838
		c-1.26-1.226-1.89-3.501-1.89-6.829v-1.006l7.523-1.561v4.334H160.4v-8.354h-22.846c-3.56,0-5.963-0.612-7.211-1.838
		c-1.248-1.225-1.872-3.501-1.872-6.829v-4.057c0-3.328,0.624-5.604,1.872-6.83c1.248-1.225,3.651-1.837,7.211-1.837h20.801
		c3.443,0,5.818,0.589,7.125,1.769c1.305,1.179,1.958,3.271,1.958,6.274v0.764l-7.523,1.768V379.795z"/>
	<path fill="#00C0FF" d="M200.823,385.376v24.649h-7.315v-24.649h-14.491v-5.374h36.332v5.374H200.823z"/>
	<path fill="#00C0FF" d="M224.813,410.025v-30.022h27.041c2.473,0,4.265,0.457,5.374,1.369c1.109,0.914,1.664,2.397,1.664,4.455
		v7.072c0,2.033-0.555,3.501-1.664,4.402c-1.109,0.9-2.901,1.353-5.374,1.353h-4.126l14.283,11.371h-10.504l-12.584-11.371h-6.899
		v11.371H224.813L224.813,410.025z M248.734,385.168h-16.71v8.32h16.71c1.271,0,2.144-0.186,2.617-0.556
		c0.474-0.369,0.711-0.993,0.711-1.872v-3.467c0-0.878-0.237-1.502-0.711-1.872C250.878,385.354,250.005,385.168,248.734,385.168z"
		/>
	<path fill="#00C0FF" d="M270.957,410.025v-30.022h32.206v5.304h-24.822v6.553h14.456v5.166h-14.456v7.384h25.204v5.616H270.957
		L270.957,410.025z"/>
	<path fill="#00C0FF" d="M309.543,410.025l17.818-30.022h7.037l18.098,30.022h-8.217l-3.778-6.588h-19.864l-3.779,6.588H309.543z
		 M323.756,397.961h13.764l-7.002-12.515L323.756,397.961z"/>
	<path fill="#00C0FF" d="M359.984,410.025v-30.022h5.857l14.699,17.819l14.63-17.819h5.895v30.022h-6.796v-20.662l-13.416,17.057
		h-1.422l-13.59-16.571v20.178L359.984,410.025L359.984,410.025z"/>
	<path fill="#00C0FF" d="M448.872,379.795h-23.99v7.87h22.847c3.582,0,6.004,0.613,7.264,1.837c1.259,1.225,1.89,3.501,1.89,6.83
		v5.027c0,3.328-0.631,5.604-1.89,6.829c-1.26,1.226-3.682,1.838-7.264,1.838H425.09c-3.583,0-6.004-0.612-7.263-1.838
		c-1.26-1.226-1.89-3.501-1.89-6.829v-1.006l7.522-1.561v4.334h25.896v-8.354H426.51c-3.56,0-5.963-0.612-7.211-1.838
		c-1.248-1.225-1.873-3.501-1.873-6.829v-4.057c0-3.328,0.625-5.604,1.873-6.83c1.248-1.225,3.651-1.837,7.211-1.837h20.801
		c3.443,0,5.817,0.589,7.124,1.769c1.307,1.179,1.958,3.271,1.958,6.274v0.764l-7.521,1.768L448.872,379.795L448.872,379.795z"/>
</g>
<rect x="127" y="416.649" fill="#646464" width="329.896" height="21.601"/>
<g>
	<path fill="#FFFFFF" d="M186.097,433.643v-12.387h12.68v2.109h-9.797v2.766h5.719v2.109h-5.719v3.069h9.914v2.332L186.097,433.643
		L186.097,433.643z"/>
	<path fill="#FFFFFF" d="M212.446,433.643v-12.387h1.969l8.719,7.301c0.297,0.242,0.559,0.472,0.785,0.687s0.434,0.436,0.621,0.662
		c-0.047-0.695-0.078-1.188-0.094-1.478c-0.016-0.289-0.023-0.512-0.023-0.668v-6.504h2.59v12.387h-1.969l-9.094-7.651
		c-0.219-0.195-0.41-0.371-0.574-0.527s-0.316-0.315-0.457-0.479c0.039,0.383,0.068,0.743,0.088,1.084
		c0.02,0.34,0.029,0.635,0.029,0.885v6.69L212.446,433.643L212.446,433.643z"/>
	<path fill="#FFFFFF" d="M251.98,423.471h-7.77v7.84h7.77v-2.659l2.883,0.598v1.465c0,1.133-0.213,1.904-0.639,2.314
		c-0.426,0.409-1.236,0.614-2.432,0.614h-7.395c-1.203,0-2.016-0.205-2.438-0.614c-0.422-0.41-0.633-1.183-0.633-2.314v-6.527
		c0-1.125,0.211-1.895,0.633-2.309s1.234-0.621,2.438-0.621h7.395c1.195,0,2.006,0.207,2.432,0.621
		c0.426,0.414,0.639,1.184,0.639,2.309v1.173l-2.883,0.457V423.471z"/>
	<path fill="#FFFFFF" d="M268.802,424.186c0-1.125,0.211-1.895,0.633-2.309s1.234-0.621,2.438-0.621h9.117
		c1.203,0,2.015,0.207,2.437,0.621c0.422,0.414,0.633,1.184,0.633,2.309v6.527c0,1.133-0.211,1.904-0.633,2.314
		c-0.422,0.41-1.234,0.614-2.437,0.614h-9.117c-1.203,0-2.016-0.204-2.438-0.614s-0.633-1.183-0.633-2.314V424.186z
		 M271.685,431.311h9.504v-7.84h-9.504V431.311z"/>
	<path fill="#FFFFFF" d="M298.387,433.643v-12.387h7.969c2.273,0,4.021,0.531,5.244,1.594c1.224,1.063,1.834,2.57,1.834,4.523
		c0,1.156-0.238,2.197-0.715,3.123s-1.148,1.654-2.016,2.186c-0.539,0.336-1.209,0.58-2.01,0.732s-1.826,0.229-3.076,0.229H298.387z
		 M301.27,431.311h3.727c1.983,0,3.391-0.309,4.219-0.926s1.242-1.637,1.242-3.059c0-1.267-0.344-2.226-1.031-2.877
		c-0.687-0.652-1.702-0.979-3.047-0.979h-5.109L301.27,431.311L301.27,431.311z"/>
	<path fill="#FFFFFF" d="M326.975,433.643v-12.387h12.681v2.109h-9.798v2.766h5.72v2.109h-5.72v3.069h9.914v2.332L326.975,433.643
		L326.975,433.643z"/>
	<path fill="#FFFFFF" d="M353.348,433.643v-12.387h10.594c0.984,0,1.697,0.189,2.14,0.568s0.662,0.99,0.662,1.834v2.906
		c0,0.836-0.222,1.444-0.662,1.827c-0.44,0.384-1.154,0.574-2.14,0.574h-1.616l5.719,4.676h-4.137l-4.992-4.676h-2.729v4.676
		L353.348,433.643L353.348,433.643z M362.664,423.4h-6.48v3.444h6.48c0.5,0,0.842-0.071,1.025-0.217
		c0.183-0.145,0.274-0.4,0.274-0.768v-1.488c0-0.359-0.092-0.611-0.274-0.756C363.506,423.471,363.164,423.4,362.664,423.4z"/>
	<path fill="#FFFFFF" d="M391.58,423.424h-8.109v2.66h7.723c1.211,0,2.029,0.207,2.455,0.621c0.427,0.414,0.64,1.184,0.64,2.309
		v1.699c0,1.125-0.213,1.896-0.64,2.31c-0.426,0.413-1.244,0.62-2.455,0.62h-7.651c-1.211,0-2.029-0.207-2.455-0.62
		c-0.426-0.414-0.639-1.185-0.639-2.31v-0.34l2.543-0.527v1.465h8.754v-2.823h-7.724c-1.203,0-2.016-0.207-2.438-0.621
		s-0.633-1.185-0.633-2.31v-1.371c0-1.125,0.211-1.895,0.633-2.309s1.234-0.621,2.438-0.621h7.031c1.164,0,1.967,0.199,2.408,0.598
		c0.441,0.399,0.662,1.105,0.662,2.121v0.259l-2.543,0.598V423.424z"/>
</g>
<polygon fill="#646464" points="456.879,351.792 126.982,351.792 126.982,366.768 177.465,366.768 179.017,373.375 179.017,373.392 
	401.083,373.392 402.64,366.768 456.879,366.768 "/>
<g>
	<path fill="#FFFFFF" d="M186.597,368.785v-12.387h2.883v4.805h9v-4.805h2.906v12.387h-2.906v-5.332h-9v5.332H186.597z"/>
	<path fill="#FFFFFF" d="M214.107,368.785v-10.148h2.461v10.148H214.107z"/>
	<path fill="#FFFFFF" d="M229.29,368.785v-12.387h12.527v2.168h-9.645v3.258h5.215v2.262h-5.215v4.699H229.29z"/>
	<path fill="#FFFFFF" d="M250.473,368.785v-10.148h2.461v10.148H250.473z"/>
	<path fill="#FFFFFF" d="M279.877,368.785l7.008-12.387h2.777l7.102,12.387h-3.234l-1.488-2.707h-7.852l-1.441,2.707H279.877z
		 M285.421,363.84h5.426l-2.672-5.039L285.421,363.84z"/>
	<path fill="#FFFFFF" d="M310.4,356.398v10.055h8.215v-10.055h2.871v9.457c0,1.133-0.211,1.903-0.633,2.313
		s-1.234,0.615-2.438,0.615h-7.828c-1.194,0-2.006-0.205-2.432-0.615c-0.427-0.41-0.64-1.182-0.64-2.313v-9.457H310.4z"/>
	<path fill="#FFFFFF" d="M335.122,368.785v-12.387h7.969c2.273,0,4.021,0.53,5.244,1.594c1.224,1.063,1.834,2.57,1.834,4.522
		c0,1.156-0.237,2.197-0.715,3.123c-0.478,0.927-1.147,1.654-2.017,2.187c-0.539,0.336-1.209,0.58-2.01,0.731
		c-0.801,0.152-1.826,0.229-3.076,0.229H335.122z M338.005,366.453h3.728c1.983,0,3.391-0.31,4.219-0.926
		c0.828-0.617,1.242-1.638,1.242-3.06c0-1.266-0.344-2.225-1.031-2.877c-0.688-0.651-1.703-0.979-3.047-0.979h-5.109
		L338.005,366.453L338.005,366.453z"/>
	<path fill="#FFFFFF" d="M362.75,368.785v-12.387h2.883v12.387H362.75z"/>
	<path fill="#FFFFFF" d="M378.999,359.328c0-1.125,0.211-1.896,0.633-2.31c0.422-0.413,1.234-0.62,2.438-0.62h9.117
		c1.203,0,2.016,0.207,2.438,0.62c0.422,0.414,0.633,1.185,0.633,2.31v6.527c0,1.133-0.211,1.903-0.633,2.313
		s-1.234,0.615-2.438,0.615h-9.117c-1.203,0-2.017-0.205-2.438-0.615s-0.633-1.182-0.633-2.313V359.328z M381.882,366.453h9.504
		v-7.84h-9.504V366.453z"/>
</g>
</svg>
