<?xml version="1.0" standalone="no"?><!-- Generator: Adobe Fireworks CS6, Export SVG Extension by Aaron Beall (http://fireworks.abeall.com) . Version: 0.6.1  --><!DOCTYPE svg PUBLIC "-//W3C//DTD SVG 1.1//EN" "http://www.w3.org/Graphics/SVG/1.1/DTD/svg11.dtd"><svg id="bigplay.fw-Page%201" viewBox="0 0 100 200" style="background-color:#ffffff00" version="1.1"	xmlns="http://www.w3.org/2000/svg" xmlns:xlink="http://www.w3.org/1999/xlink" xml:space="preserve"	x="0px" y="0px" width="100px" height="200px">	<defs>		<filter id="filter1" x="-100%" y="-100%" width="300%" height="300%">			<!-- Glow -->			<feColorMatrix result="out" in="SourceGraphic" type="matrix" values="0 0 0 0 0  0 0 0 0 0  0 0 0 0 0  0 0 0 0.251 0"/>			<feMorphology result="out" in="out" operator="dilate" radius="3"/>			<feGaussianBlur result="out" in="out" stdDeviation="1.5"/>			<feBlend in="SourceGraphic" in2="out" mode="normal" result="Glow1"/>		</filter>		<filter id="filter2" x="-100%" y="-100%" width="300%" height="300%">			<!-- Glow -->			<feColorMatrix result="out" in="SourceGraphic" type="matrix" values="0 0 0 0 0  0 0 0 0 0  0 0 0 0 0  0 0 0 0.251 0"/>			<feMorphology result="out" in="out" operator="dilate" radius="3"/>			<feGaussianBlur result="out" in="out" stdDeviation="1.5"/>			<feBlend in="SourceGraphic" in2="out" mode="normal" result="Glow2"/>		</filter>		<filter id="filter3" x="-100%" y="-100%" width="300%" height="300%">			<!-- Glow -->			<feColorMatrix result="out" in="SourceGraphic" type="matrix" values="0 0 0 1 0  0 0 0 1 0  0 0 0 1 0  0 0 0 0.251 0"/>			<feMorphology result="out" in="out" operator="dilate" radius="3"/>			<feGaussianBlur result="out" in="out" stdDeviation="1.5"/>			<feBlend in="SourceGraphic" in2="out" mode="normal" result="Glow3"/>		</filter>		<filter id="filter4" x="-100%" y="-100%" width="300%" height="300%">			<!-- Glow -->			<feColorMatrix result="out" in="SourceGraphic" type="matrix" values="0 0 0 1 0  0 0 0 1 0  0 0 0 1 0  0 0 0 0.251 0"/>			<feMorphology result="out" in="out" operator="dilate" radius="3"/>			<feGaussianBlur result="out" in="out" stdDeviation="1.5"/>			<feBlend in="SourceGraphic" in2="out" mode="normal" result="Glow4"/>		</filter>	</defs>	<g id="Background">		<image visibility="hidden" x="6" y="5" width="88" height="188" xlink:href="bigplay.svg.images/image1.png"/>	</g>	<g id="dark">		<path id="Polygon" filter="url(#filter1)" d="M 70.5 47.5 L 36.75 66.9856 L 36.75 28.0144 L 70.5 47.5 Z" fill="#ffffff"/>		<path id="Ellipse" filter="url(#filter2)" d="M 11 48 C 11 27.5652 27.5652 11 48 11 C 68.4348 11 85 27.5652 85 48 C 85 68.4348 68.4348 85 48 85 C 27.5652 85 11 68.4348 11 48 Z" stroke="#ffffff" stroke-width="4" fill="none"/>	</g>	<g id="dark2">		<path id="Polygon2" filter="url(#filter3)" d="M 70.5 147.5 L 36.75 166.9856 L 36.75 128.0144 L 70.5 147.5 Z" fill="#ffffff"/>		<path id="Ellipse2" filter="url(#filter4)" d="M 11 148 C 11 127.5652 27.5652 111 48 111 C 68.4348 111 85 127.5652 85 148 C 85 168.4348 68.4348 185 48 185 C 27.5652 185 11 168.4348 11 148 Z" stroke="#ffffff" stroke-width="4" fill="none"/>	</g></svg>