<svg xmlns="http://www.w3.org/2000/svg" xmlns:xlink="http://www.w3.org/1999/xlink" width="100px" height="200px">
	<path id="Polygon"  d="M 72.5 49.5 L 38.75 68.9856 L 38.75 30.0144 L 72.5 49.5 Z" fill="#ffffff" opacity="0.75" />
	<path id="Ellipse" d="M 13 50.5 C 13 29.7891 29.7891 13 50.5 13 C 71.2109 13 88 29.7891 88 50.5 C 88 71.2109 71.2109 88 50.5 88 C 29.7891 88 13 71.2109 13 50.5 Z" stroke="#ffffff" stroke-width="5" fill="none" opacity="0.75"/>
	<path id="Polygon2"  d="M 72.5 149.5 L 38.75 168.9856 L 38.75 130.0144 L 72.5 149.5 Z" fill="#ffffff" opacity="1.0" />
	<path id="Ellipse2" d="M 13 150.5 C 13 129.7891 29.7891 113 50.5 113 C 71.2109 113 88 129.7891 88 150.5 C 88 171.211 71.2109 188 50.5 188 C 29.7891 188 13 171.211 13 150.5 Z" stroke="#ffffff" stroke-width="5" fill="none" opacity="1.0"/>
</svg>
