<?xml version="1.0" standalone="no"?><!-- Generator: Adobe Fireworks CS6, Export SVG Extension by Aaron Beall (http://fireworks.abeall.com) . Version: 0.6.1  --><!DOCTYPE svg PUBLIC "-//W3C//DTD SVG 1.1//EN" "http://www.w3.org/Graphics/SVG/1.1/DTD/svg11.dtd"><svg id="Untitled-Page%201" viewBox="0 0 128 32" style="background-color:#ffffff00" version="1.1"	xmlns="http://www.w3.org/2000/svg" xmlns:xlink="http://www.w3.org/1999/xlink" xml:space="preserve"	x="0px" y="0px" width="128px" height="32px">	<defs>		<linearGradient id="gradient1" x1="50%" y1="0%" x2="50%" y2="100%">			<stop stop-color="#ffffff" stop-opacity="1" offset="0%"/>			<stop stop-color="#c8c8c8" stop-opacity="1" offset="100%"/>		</linearGradient>		<linearGradient id="gradient2" x1="50%" y1="-33.3333%" x2="50%" y2="152.0833%">			<stop stop-color="#ffffff" stop-opacity="1" offset="0%"/>			<stop stop-color="#c8c8c8" stop-opacity="1" offset="100%"/>		</linearGradient>		<linearGradient id="gradient3" x1="50%" y1="0%" x2="50%" y2="100%">			<stop stop-color="#ffffff" stop-opacity="1" offset="0%"/>			<stop stop-color="#c8c8c8" stop-opacity="1" offset="100%"/>		</linearGradient>		<linearGradient id="gradient4" x1="50%" y1="-33.3333%" x2="50%" y2="152.0833%">			<stop stop-color="#ffffff" stop-opacity="1" offset="0%"/>			<stop stop-color="#c8c8c8" stop-opacity="1" offset="100%"/>		</linearGradient>		<linearGradient id="gradient5" x1="50%" y1="0%" x2="50%" y2="100%">			<stop stop-color="#ffffff" stop-opacity="1" offset="0%"/>			<stop stop-color="#c8c8c8" stop-opacity="1" offset="100%"/>		</linearGradient>		<linearGradient id="gradient6" x1="50%" y1="0%" x2="50%" y2="100%">			<stop stop-color="#ffffff" stop-opacity="1" offset="0%"/>			<stop stop-color="#c8c8c8" stop-opacity="1" offset="100%"/>		</linearGradient>		<linearGradient id="gradient7" x1="50%" y1="0%" x2="50%" y2="100%">			<stop stop-color="#ffffff" stop-opacity="1" offset="0%"/>			<stop stop-color="#c8c8c8" stop-opacity="1" offset="100%"/>		</linearGradient>		<linearGradient id="gradient8" x1="50%" y1="0%" x2="50%" y2="100%">			<stop stop-color="#ffffff" stop-opacity="1" offset="0%"/>			<stop stop-color="#c8c8c8" stop-opacity="1" offset="100%"/>		</linearGradient>	</defs>	<g id="bg">	</g>	<g id="cc">		<rect visibility="hidden" x="49" y="2" width="14" height="12" stroke="#b0b0b0" stroke-width="1" fill="none"/>		<text visibility="hidden" x="49" y="17" width="14" fill="#ffffff" style="font-size: 10px; color: #ffffff; font-family: Arial; text-align: center; "><tspan><![CDATA[cc]]></tspan></text>		<path d="M 55 7 C 50.2813 3.7813 50.063 12.9405 55 10 " stroke="#ffffff" stroke-width="1" fill="none"/>		<path d="M 60 7 C 55.2813 3.7813 55.063 12.9405 60 10 " stroke="#ffffff" stroke-width="1" fill="none"/>		<path d="M 50 3 L 62 3 L 62 13 L 50 13 L 50 3 ZM 49 2 L 49 14 L 63 14 L 63 2 L 49 2 Z" fill="url(#gradient1)"/>	</g>	<g id="volume">		<g id="no%20sound">			<rect x="17" y="5" width="5" height="6" fill="url(#gradient2)"/>			<path d="M 21 5 L 25 2 L 25 14 L 21 11.0625 L 21 5 Z" fill="url(#gradient3)"/>		</g>		<g id="sound%20bars">			<rect x="17" y="21" width="5" height="6" fill="url(#gradient4)"/>			<path d="M 21 21 L 25 18 L 25 30 L 21 27.0625 L 21 21 Z" fill="url(#gradient5)"/>			<path d="M 27 18 C 27 18 30.0625 17.375 30 24 C 29.9375 30.625 27 30 27 30 " stroke="#ffffff" stroke-width="1" fill="none"/>			<path d="M 26 21.0079 C 26 21.0079 28.041 20.6962 27.9994 24 C 27.9577 27.3038 26 26.9921 26 26.9921 " stroke="#ffffff" stroke-width="1" fill="none"/>		</g>	</g>	<g id="play/pause">		<g id="play">			<path id="Polygon" d="M 14 8.5 L 3 14 L 3 3 L 14 8.5 Z" fill="url(#gradient6)"/>		</g>		<g id="pause">			<rect x="3" y="18" width="3" height="12" fill="url(#gradient7)"/>			<rect x="10" y="18" width="3" height="12" fill="url(#gradient8)"/>		</g>	</g>	<g id="fullscreen">		<g id="enter%201">			<path d="M 34 2 L 39 2 L 34 7 L 34 2 Z" fill="#ffffff"/>			<path d="M 34 14 L 39 14 L 34 9 L 34 14 Z" fill="#ffffff"/>			<path d="M 46 2 L 41 2 L 46 7 L 46 2 Z" fill="#ffffff"/>			<path d="M 46 14 L 41 14 L 46 9 L 46 14 Z" fill="#ffffff"/>		</g>		<g id="exit">			<path d="M 42 22 L 46 22 L 42 18 L 42 22 Z" fill="#ffffff"/>			<path d="M 38 22 L 38 18 L 34 22 L 38 22 Z" fill="#ffffff"/>			<path d="M 38 26 L 34 26 L 38 30 L 38 26 Z" fill="#ffffff"/>			<path d="M 42 26 L 42 30 L 46 26 L 42 26 Z" fill="#ffffff"/>		</g>	</g></svg>