<?xml version="1.0" encoding="iso-8859-1"?>
<!-- Generator: Adobe Illustrator 21.0.0, SVG Export Plug-In . SVG Version: 6.00 Build 0)  -->
<svg version="1.1" xmlns="http://www.w3.org/2000/svg" xmlns:xlink="http://www.w3.org/1999/xlink" x="0px" y="0px" width="300px" height="120px"
	 viewBox="0 0 300 120" style="enable-background:new 0 0 300 120;" xml:space="preserve">
<g id="controls">
	<g id="play_x2F_pause_6_">
		<g>
			<g id="play_11_">
				<g id="Polygon_14_">
					<path style="fill:#FFFFFF;" d="M16.313,9.478c0.469,0.287,0.469,0.756,0,1.043L4.936,17.478C4.467,17.765,4.083,17.55,4.083,17
						V3c0-0.55,0.384-0.765,0.853-0.478L16.313,9.478z"/>
				</g>
			</g>
		</g>
	</g>
	<g id="pause_2_">
		<g>
			<g>
				<path style="fill:#FFFFFF;" d="M22.833,3c0-0.55,0.45-1,1-1h2.2c0.55,0,1,0.45,1,1v14c0,0.55-0.45,1-1,1h-2.2
					c-0.55,0-1-0.45-1-1V3z"/>
			</g>
			<g>
				<path style="fill:#FFFFFF;" d="M32.633,3c0-0.55,0.45-1,1-1h2.2c0.55,0,1,0.45,1,1v14c0,0.55-0.45,1-1,1h-2.2
					c-0.55,0-1-0.45-1-1V3z"/>
			</g>
		</g>
	</g>
	<g id="fullscreen_2_">
		<g>
			<g id="enter_8_">
				<g>
					<path style="fill:#FFFFFF;" d="M80.833,2.375c0-0.55,0.45-1,1-1h5.413c0.55,0,0.682,0.318,0.293,0.707L81.54,8.081
						c-0.389,0.389-0.707,0.257-0.707-0.293V2.375z"/>
				</g>
				<g>
					<path style="fill:#FFFFFF;" d="M80.833,18.167c0,0.55,0.45,1,1,1h5.413c0.55,0,0.682-0.318,0.293-0.707l-5.999-5.999
						c-0.389-0.389-0.707-0.257-0.707,0.293V18.167z"/>
				</g>
				<g>
					<path style="fill:#FFFFFF;" d="M98.625,2.375c0-0.55-0.45-1-1-1h-5.413c-0.55,0-0.682,0.318-0.293,0.707l5.999,5.999
						c0.389,0.389,0.707,0.257,0.707-0.293V2.375z"/>
				</g>
				<g>
					<path style="fill:#FFFFFF;" d="M98.625,18.167c0,0.55-0.45,1-1,1h-5.413c-0.55,0-0.682-0.318-0.293-0.707l5.999-5.999
						c0.389-0.389,0.707-0.257,0.707,0.293V18.167z"/>
				</g>
			</g>
		</g>
	</g>
	<g id="exit_2_">
		<g>
			<g>
				<path style="fill:#FFFFFF;" d="M112.528,5.972c0,0.55,0.45,1,1,1h4.097c0.55,0,0.682-0.318,0.293-0.707l-4.683-4.683
					c-0.389-0.389-0.707-0.257-0.707,0.293V5.972z"/>
			</g>
			<g>
				<path style="fill:#FFFFFF;" d="M105.431,6.972c0.55,0,1-0.45,1-1V1.875c0-0.55-0.318-0.682-0.707-0.293l-4.683,4.683
					c-0.389,0.389-0.257,0.707,0.293,0.707H105.431z"/>
			</g>
			<g>
				<path style="fill:#FFFFFF;" d="M106.431,14.069c0-0.55-0.45-1-1-1h-4.097c-0.55,0-0.682,0.318-0.293,0.707l4.683,4.683
					c0.389,0.389,0.707,0.257,0.707-0.293V14.069z"/>
			</g>
			<g>
				<path style="fill:#FFFFFF;" d="M113.528,13.069c-0.55,0-1,0.45-1,1v4.097c0,0.55,0.318,0.682,0.707,0.293l4.683-4.683
					c0.389-0.389,0.257-0.707-0.293-0.707H113.528z"/>
			</g>
		</g>
	</g>
	<g id="volume">
		<g>
			<path style="fill:#FFFFFF;" d="M66.8,6.77c-0.44,0.33-1.25,0.6-1.8,0.6h-3.154c-0.55,0-1,0.45-1,1v5.73c0,0.55,0.45,1,1,1H65
				c0.55,0,1,0.018,1,0.04c0,0.022,0.363,0.307,0.806,0.632l3.542,2.601c0.443,0.326,0.806,0.142,0.806-0.408V4.505
				c0-0.55-0.36-0.73-0.8-0.4L66.8,6.77z"/>
		</g>
		<g id="volume_1_">
			<g id="soundbars_1_">
				<path style="fill:none;stroke:#FFFFFF;stroke-width:1.5;stroke-linecap:round;" d="M73.717,3.505c0,0,3.946-0.805,3.865,7.73
					c-0.081,8.536-3.865,7.73-3.865,7.73"/>
				<path style="fill:none;stroke:#FFFFFF;stroke-width:1.5;stroke-linecap:round;" d="M72.428,7.38c0,0,2.63-0.402,2.576,3.855
					c-0.054,4.257-2.576,3.855-2.576,3.855"/>
			</g>
		</g>
	</g>
	<g id="closed_captions">
		<path style="fill:none;stroke:#FFFFFF;" d="M128.525,9.579c-6.172-4.21-6.457,7.77,0,3.924"/>
		<path style="fill:none;stroke:#FFFFFF;" d="M135.065,9.579c-6.172-4.21-6.457,7.77,0,3.924"/>
		<path style="fill:#FFFFFF;" d="M121.986,4.347h15.695v13.079h-15.695V4.347z M120.678,3.039v15.695h18.311V3.039H120.678z"/>
	</g>
	<g id="muted">
		<g>
			<path style="fill:#FFFFFF;" d="M46.8,6.77c-0.44,0.33-1.25,0.6-1.8,0.6h-3.154c-0.55,0-1,0.45-1,1v5.73c0,0.55,0.45,1,1,1H45
				c0.55,0,1,0.018,1,0.04s0.363,0.307,0.806,0.632l3.542,2.601c0.443,0.326,0.806,0.142,0.806-0.408V4.505
				c0-0.55-0.36-0.73-0.8-0.4L46.8,6.77z"/>
		</g>
		<line style="fill:none;stroke:#FFFFFF;stroke-width:2;stroke-linecap:round;" x1="52.667" y1="7.972" x2="58.049" y2="13.354"/>
		<line style="fill:none;stroke:#FFFFFF;stroke-width:2;stroke-linecap:round;" x1="52.667" y1="13.354" x2="58.049" y2="7.972"/>
	</g>
	<g id="skip_forward">
		<g id="play_x2F_pause_11_">
			<g id="play_10_">
				<path id="Polygon_12_" style="fill:#FFFFFF;" d="M191.998,3.155l-4.327,2.164V0.992L191.998,3.155z"/>
			</g>
		</g>
		<g id="play_x2F_pause_10_">
			<g id="play_9_">
				<path id="Polygon_11_" style="fill:#FFFFFF;" d="M194.726,3.155l-4.327,2.164V0.992L194.726,3.155z"/>
			</g>
		</g>
		<path style="fill:none;stroke:#FFFFFF;stroke-width:2;" d="M189.834,3.155c-4.509,0-8.158,3.649-8.158,8.158"/>
		<path style="fill:none;stroke:#FFFFFF;stroke-width:2;" d="M181.676,10.834c0,4.509,3.649,8.158,8.158,8.158"/>
		<path style="fill:none;stroke:#FFFFFF;stroke-width:2;" d="M189.458,18.992c4.509,0,8.158-3.649,8.158-8.158"/>
	</g>
	<g id="skipback">
		<path style="fill:none;stroke:#FFFFFF;stroke-width:2;" d="M162.522,10.646c0,4.509,3.649,8.158,8.158,8.158"/>
		<path style="fill:none;stroke:#FFFFFF;stroke-width:2;" d="M170.2,18.804c4.509,0,8.158-3.649,8.158-8.158"/>
		<path style="fill:none;stroke:#FFFFFF;stroke-width:2;" d="M178.358,11.022c0-4.509-3.649-8.158-8.158-8.158"/>
		<g id="play_x2F_pause_9_">
			<g id="play_8_">
				<path id="Polygon_10_" style="fill:#FFFFFF;" d="M166.42,3.155l4.317,2.164V0.992L166.42,3.155z"/>
			</g>
		</g>
		<g id="play_x2F_pause_7_">
			<g id="play_7_">
				<path id="Polygon_8_" style="fill:#FFFFFF;" d="M163.698,3.155l4.317,2.164V0.992L163.698,3.155z"/>
			</g>
		</g>
	</g>
	<g id="close_captions">
		<g>
			<path style="fill:#FFFFFF;" d="M159,16c0,1.1-0.9,2-2,2h-14c-1.1,0-2-0.9-2-2V6c0-1.1,0.9-2,2-2h14c1.1,0,2,0.9,2,2V16z"/>
		</g>
		<path d="M146.186,14.777c-1.154,0-1.833-0.62-2.139-0.997c-1.066-1.312-1.01-3.543,0.122-4.773
			c0.511-0.556,1.984-1.653,4.639,0.158l-0.563,0.826c-1.435-0.979-2.62-1.089-3.339-0.307c-0.791,0.859-0.83,2.543-0.081,3.465
			c0.696,0.858,1.921,0.831,3.446-0.078l0.512,0.859C147.733,14.557,146.875,14.777,146.186,14.777z"/>
		<path d="M153.725,14.777c-1.154,0-1.833-0.62-2.139-0.997c-1.066-1.312-1.01-3.543,0.122-4.773
			c0.51-0.556,1.985-1.653,4.639,0.158l-0.563,0.826c-1.435-0.979-2.62-1.089-3.339-0.307c-0.791,0.859-0.83,2.543-0.081,3.465
			c0.696,0.858,1.921,0.831,3.446-0.078l0.512,0.859C155.272,14.557,154.414,14.777,153.725,14.777z"/>
	</g>
	<g id="options">
		<path style="fill:#FFFFFF;" d="M218.458,10.375c0-0.55-0.437-1.109-0.97-1.243l-1.855-0.464c-0.534-0.133-0.739-0.628-0.456-1.1
			l0.984-1.64c0.283-0.472,0.196-1.176-0.193-1.565v0c-0.389-0.389-1.093-0.476-1.565-0.193l-1.64,0.984
			c-0.472,0.283-0.967,0.078-1.1-0.456l-0.464-1.855c-0.133-0.534-0.693-0.97-1.243-0.97l0,0c-0.55,0-1.109,0.437-1.243,0.97
			L208.252,4.7c-0.133,0.534-0.628,0.739-1.1,0.456l-1.64-0.984c-0.472-0.283-1.176-0.196-1.565,0.193l0,0
			c-0.389,0.389-0.476,1.093-0.193,1.565l0.984,1.64c0.283,0.472,0.078,0.967-0.456,1.1l-1.855,0.464
			c-0.534,0.133-0.97,0.693-0.97,1.243l0,0c0,0.55,0.437,1.109,0.97,1.243l1.855,0.464c0.534,0.133,0.739,0.628,0.456,1.1
			l-0.984,1.64c-0.283,0.472-0.196,1.176,0.193,1.565l0,0c0.389,0.389,1.093,0.476,1.565,0.193l1.64-0.984
			c0.472-0.283,0.967-0.078,1.1,0.456l0.464,1.855c0.133,0.534,0.693,0.97,1.243,0.97l0,0c0.55,0,1.109-0.437,1.243-0.97
			l0.464-1.855c0.133-0.534,0.628-0.739,1.1-0.456l1.639,0.984c0.472,0.283,1.176,0.196,1.565-0.193l0,0
			c0.389-0.389,0.476-1.093,0.193-1.565l-0.984-1.64c-0.283-0.472-0.078-0.967,0.456-1.1l1.855-0.464
			C218.022,11.484,218.458,10.925,218.458,10.375L218.458,10.375z M212.778,10.359c0,1.557-1.262,2.82-2.82,2.82
			s-2.82-1.262-2.82-2.82c0-1.557,1.262-2.82,2.82-2.82S212.778,8.802,212.778,10.359z"/>
	</g>
	<g id="stop">
		<path style="fill:#FFFFFF;" d="M236.833,15.834c0,1.1-0.9,2-2,2h-10c-1.1,0-2-0.9-2-2v-10c0-1.1,0.9-2,2-2h10c1.1,0,2,0.9,2,2
			V15.834z"/>
	</g>
	<g id="loop">
		<path style="fill:#FFFFFF;" d="M254.051,7.516c0.778,0.977,1.247,2.21,1.247,3.553c0,3.151-2.563,5.714-5.714,5.714
			s-5.714-2.563-5.714-5.714c0-1.47,0.563-2.808,1.479-3.822l-1.615-1.615c-1.329,1.429-2.149,3.337-2.149,5.437
			c0,4.411,3.589,8,8,8s8-3.589,8-8c0-1.973-0.722-3.779-1.911-5.176L254.051,7.516z"/>
		<g id="play_x2F_pause_1_">
			<g>
				<g id="play_13_">
					<g id="Polygon_17_">
						<path style="fill:#FFFFFF;" d="M251.132,4.36c-0.076-0.545,0.308-0.929,0.853-0.853l5.519,0.767
							c0.545,0.076,0.672,0.456,0.283,0.845l-5.044,5.044c-0.389,0.389-0.769,0.261-0.845-0.283L251.132,4.36z"/>
					</g>
				</g>
			</g>
		</g>
	</g>
	<g id="loop_off" style="opacity:0.5;">
		<path style="fill:#FFFFFF;" d="M274.212,7.769c0.778,0.977,1.247,2.21,1.247,3.553c0,3.151-2.563,5.714-5.714,5.714
			s-5.714-2.563-5.714-5.714c0-1.47,0.563-2.808,1.479-3.822l-1.615-1.615c-1.329,1.429-2.149,3.337-2.149,5.437
			c0,4.411,3.589,8,8,8s8-3.589,8-8c0-1.973-0.722-3.779-1.911-5.176L274.212,7.769z"/>
		<g id="play_x2F_pause_3_">
			<g>
				<g id="play_15_">
					<g id="Polygon_20_">
						<path style="fill:#FFFFFF;" d="M271.293,4.613c-0.076-0.545,0.308-0.929,0.853-0.853l5.519,0.767
							c0.545,0.076,0.672,0.456,0.283,0.845l-5.044,5.044c-0.389,0.389-0.769,0.261-0.845-0.283L271.293,4.613z"/>
					</g>
				</g>
			</g>
		</g>
	</g>
</g>
<g id="big_play">
	<g id="big_play_-_light">
		<g id="Polygon_1_" style="opacity:0.75;enable-background:new    ;">
			<path style="fill:#FFFFFF;" d="M60.101,78c0.953,0.55,0.953,1.45,0,2L29.815,97.486c-0.953,0.55-1.732,0.1-1.732-1V61.514
				c0-1.1,0.779-1.55,1.732-1L60.101,78z"/>
		</g>
		<path id="Ellipse" style="opacity:0.75;fill:none;stroke:#FFFFFF;stroke-width:5;enable-background:new    ;" d="M2.333,80
			c0-20.711,16.789-37.5,37.5-37.5s37.5,16.789,37.5,37.5s-16.789,37.5-37.5,37.5S2.333,100.711,2.333,80z"/>
	</g>
	<g id="big_play_hover">
		<g id="Polygon2">
			<path style="fill:#FFFFFF;" d="M140.101,78c0.953,0.55,0.953,1.45,0,2l-30.286,17.486c-0.953,0.55-1.732,0.1-1.732-1V61.514
				c0-1.1,0.779-1.55,1.732-1L140.101,78z"/>
		</g>
		<path id="Ellipse2" style="fill:none;stroke:#FFFFFF;stroke-width:5;" d="M82.333,80c0-20.711,16.789-37.5,37.5-37.5
			s37.5,16.789,37.5,37.5c0,20.711-16.789,37.5-37.5,37.5S82.333,100.711,82.333,80z"/>
	</g>
	<g id="Loading">
		<circle style="fill:#FFFFFF;" cx="201.708" cy="48.125" r="8.125"/>
		<circle style="opacity:0.4;fill:#FFFFFF;" cx="233.708" cy="80" r="5"/>
		<circle style="opacity:0.6;fill:#FFFFFF;" cx="201.708" cy="111.875" r="6"/>
		<circle style="opacity:0.8;fill:#FFFFFF;" cx="169.958" cy="80" r="7"/>
		<circle style="opacity:0.9;fill:#FFFFFF;" cx="178.083" cy="57.333" r="7.5"/>
		<circle style="opacity:0.3;fill:#FFFFFF;" cx="226.167" cy="57.083" r="4.5"/>
		<circle style="opacity:0.5;fill:#FFFFFF;" cx="225.583" cy="103.75" r="5.5"/>
		<circle style="opacity:0.7;fill:#FFFFFF;" cx="178.083" cy="103.75" r="6.5"/>
	</g>
</g>
<g id="Guides">
</g>
</svg>
