<svg xmlns="http://www.w3.org/2000/svg" width="300px" height="120px" viewBox="0 0 300 120"><defs><style>.cls-1,.cls-10,.cls-11,.cls-12,.cls-13,.cls-14,.cls-15,.cls-16{fill:#fff;}.cls-2,.cls-3,.cls-4,.cls-5,.cls-6,.cls-8,.cls-9{fill:none;}.cls-2,.cls-3,.cls-4,.cls-5,.cls-8,.cls-9{stroke:#fff;}.cls-2,.cls-4{stroke-linecap:round;}.cls-2{stroke-width:1.5px;}.cls-4,.cls-5{stroke-width:2px;}.cls-6{stroke:#231f20;}.cls-7,.cls-8{opacity:0.75;isolation:isolate;}.cls-8,.cls-9{stroke-width:5px;}.cls-10{opacity:0.4;}.cls-11{opacity:0.6;}.cls-12{opacity:0.8;}.cls-13{opacity:0.9;}.cls-14{opacity:0.3;}.cls-15{opacity:0.5;}.cls-16{opacity:0.7;}</style></defs><title>mejs-controls</title><g id="controls"><g id="play_pause" data-name="play/pause"><g id="play"><g id="Polygon"><path class="cls-1" d="M16.31,9.48a.56.56,0,0,1,0,1l-11.38,7c-.47.29-.85.07-.85-.48V3c0-.55.38-.77.85-.48Z"/></g></g></g><g id="pause"><rect class="cls-1" x="22.83" y="2" width="4.2" height="16" rx="1" ry="1"/><rect class="cls-1" x="32.63" y="2" width="4.2" height="16" rx="1" ry="1"/></g><g id="fullscreen"><g id="enter"><path class="cls-1" d="M80.83,2.38a1,1,0,0,1,1-1h5.41c.55,0,.68.32.29.71l-6,6c-.39.39-.71.26-.71-.29Z"/><path class="cls-1" d="M80.83,18.17a1,1,0,0,0,1,1h5.41c.55,0,.68-.32.29-.71l-6-6c-.39-.39-.71-.26-.71.29Z"/><path class="cls-1" d="M98.63,2.38a1,1,0,0,0-1-1H92.21c-.55,0-.68.32-.29.71l6,6c.39.39.71.26.71-.29Z"/><path class="cls-1" d="M98.63,18.17a1,1,0,0,1-1,1H92.21c-.55,0-.68-.32-.29-.71l6-6c.39-.39.71-.26.71.29Z"/></g></g><g id="exit"><path class="cls-1" d="M112.53,6a1,1,0,0,0,1,1h4.1c.55,0,.68-.32.29-.71l-4.68-4.68c-.39-.39-.71-.26-.71.29Z"/><path class="cls-1" d="M105.43,7a1,1,0,0,0,1-1V1.88c0-.55-.32-.68-.71-.29L101,6.27c-.39.39-.26.71.29.71Z"/><path class="cls-1" d="M106.43,14.07a1,1,0,0,0-1-1h-4.1c-.55,0-.68.32-.29.71l4.68,4.68c.39.39.71.26.71-.29Z"/><path class="cls-1" d="M113.53,13.07a1,1,0,0,0-1,1v4.1c0,.55.32.68.71.29l4.68-4.68c.39-.39.26-.71-.29-.71Z"/></g><g id="volume"><path class="cls-1" d="M66.8,6.77a3.51,3.51,0,0,1-1.8.6H61.85a1,1,0,0,0-1,1V14.1a1,1,0,0,0,1,1H65a6.28,6.28,0,0,1,1,0,8.5,8.5,0,0,0,.81.63l3.54,2.6c.44.33.81.14.81-.41V4.5c0-.55-.36-.73-.8-.4Z"/><g id="volume-2" data-name="volume"><g id="soundbars"><path class="cls-2" d="M73.72,3.5s3.95-.81,3.87,7.73S73.72,19,73.72,19"/><path class="cls-2" d="M72.43,7.38S75.06,7,75,11.23s-2.58,3.86-2.58,3.86"/></g></g></g><g id="closed_captions" data-name="closed captions"><path class="cls-3" d="M128.53,9.58c-6.17-4.21-6.46,7.77,0,3.92"/><path class="cls-3" d="M135.06,9.58c-6.17-4.21-6.46,7.77,0,3.92"/><path class="cls-1" d="M122,4.35h15.69V17.43H122ZM120.68,3V18.73H139V3Z"/></g><g id="muted"><path class="cls-1" d="M46.8,6.77a3.51,3.51,0,0,1-1.8.6H41.85a1,1,0,0,0-1,1V14.1a1,1,0,0,0,1,1H45a6.28,6.28,0,0,1,1,0,8.5,8.5,0,0,0,.81.63l3.54,2.6c.44.33.81.14.81-.41V4.5c0-.55-.36-.73-.8-.4Z"/><line class="cls-4" x1="52.67" y1="7.97" x2="58.05" y2="13.35"/><line class="cls-4" x1="52.67" y1="13.35" x2="58.05" y2="7.97"/></g><g id="skip_forward" data-name="skip forward"><g id="play_pause-2" data-name="play/pause"><g id="play-2" data-name="play"><path id="Polygon-2" data-name="Polygon" class="cls-1" d="M192,3.16l-4.33,2.16V1Z"/></g></g><g id="play_pause-3" data-name="play/pause"><g id="play-3" data-name="play"><path id="Polygon-3" data-name="Polygon" class="cls-1" d="M194.73,3.16,190.4,5.32V1Z"/></g></g><path class="cls-5" d="M189.83,3.16a8.15,8.15,0,0,0-8.16,8.16"/><path class="cls-5" d="M181.68,10.83A8.15,8.15,0,0,0,189.83,19"/><path class="cls-5" d="M189.46,19a8.15,8.15,0,0,0,8.16-8.16"/></g><g id="skipback"><path class="cls-5" d="M162.52,10.65a8.15,8.15,0,0,0,8.16,8.16"/><path class="cls-5" d="M170.2,18.8a8.15,8.15,0,0,0,8.16-8.16"/><path class="cls-5" d="M178.36,11a8.15,8.15,0,0,0-8.16-8.16"/><g id="play_pause-4" data-name="play/pause"><g id="play-4" data-name="play"><path id="Polygon-4" data-name="Polygon" class="cls-1" d="M166.42,3.16l4.32,2.16V1Z"/></g></g><g id="play_pause-5" data-name="play/pause"><g id="play-5" data-name="play"><path id="Polygon-5" data-name="Polygon" class="cls-1" d="M163.7,3.16,168,5.32V1Z"/></g></g></g><g id="close_captions" data-name="close captions"><rect class="cls-1" x="141" y="4" width="18" height="14" rx="2" ry="2"/><path class="cls-6" d="M148.53,9.58c-6.17-4.21-6.46,7.77,0,3.92"/><path class="cls-6" d="M156.06,9.58c-6.17-4.21-6.46,7.77,0,3.92"/></g><path class="cls-1" d="M218.46,10.38a1.35,1.35,0,0,0-1-1.24l-1.85-.46a.7.7,0,0,1-.46-1.1l1-1.64A1.35,1.35,0,0,0,216,4.36h0a1.35,1.35,0,0,0-1.56-.19l-1.64,1a.7.7,0,0,1-1.1-.46l-.46-1.85a1.35,1.35,0,0,0-1.24-1h0a1.35,1.35,0,0,0-1.24,1l-.46,1.85a.7.7,0,0,1-1.1.46l-1.64-1a1.35,1.35,0,0,0-1.56.19h0a1.35,1.35,0,0,0-.19,1.56l1,1.64a.7.7,0,0,1-.46,1.1l-1.85.46a1.35,1.35,0,0,0-1,1.24h0a1.35,1.35,0,0,0,1,1.24l1.85.46a.7.7,0,0,1,.46,1.1l-1,1.64a1.35,1.35,0,0,0,.19,1.56h0a1.35,1.35,0,0,0,1.56.19l1.64-1a.7.7,0,0,1,1.1.46l.46,1.85a1.35,1.35,0,0,0,1.24,1h0a1.35,1.35,0,0,0,1.24-1l.46-1.85a.7.7,0,0,1,1.1-.46l1.64,1a1.35,1.35,0,0,0,1.56-.19h0a1.35,1.35,0,0,0,.19-1.56l-1-1.64a.7.7,0,0,1,.46-1.1l1.85-.46a1.35,1.35,0,0,0,1-1.24Zm-5.68,0A2.82,2.82,0,1,1,210,7.54,2.82,2.82,0,0,1,212.78,10.36Z"/></g><g id="big_play" data-name="big play"><g id="big_play_-_light" data-name="big play - light"><g id="Polygon-6" data-name="Polygon" class="cls-7"><path class="cls-1" d="M60.1,78a1.06,1.06,0,0,1,0,2L29.82,97.49c-1,.55-1.73.1-1.73-1v-35c0-1.1.78-1.55,1.73-1Z"/></g><path id="Ellipse" class="cls-8" d="M2.33,80a37.5,37.5,0,1,1,37.5,37.5A37.5,37.5,0,0,1,2.33,80Z"/></g><g id="big_play_hover" data-name="big play hover"><g id="Polygon2"><path class="cls-1" d="M140.1,78a1.06,1.06,0,0,1,0,2L109.82,97.49c-1,.55-1.73.1-1.73-1v-35c0-1.1.78-1.55,1.73-1Z"/></g><path id="Ellipse2" class="cls-9" d="M82.33,80a37.5,37.5,0,1,1,37.5,37.5A37.5,37.5,0,0,1,82.33,80Z"/></g><g id="Loading"><circle class="cls-1" cx="201.71" cy="48.13" r="8.13"/><circle class="cls-10" cx="233.71" cy="80" r="5"/><circle class="cls-11" cx="201.71" cy="111.88" r="6"/><circle class="cls-12" cx="169.96" cy="80" r="7"/><circle class="cls-13" cx="178.08" cy="57.33" r="7.5"/><circle class="cls-14" cx="226.17" cy="57.08" r="4.5"/><circle class="cls-15" cx="225.58" cy="103.75" r="5.5"/><circle class="cls-16" cx="178.08" cy="103.75" r="6.5"/></g></g></svg>