<?xml version="1.0" encoding="iso-8859-1"?>
<!-- Generator: Adobe Illustrator 21.0.0, SVG Export Plug-In . SVG Version: 6.00 Build 0)  -->
<svg version="1.1" id="Layer_1" xmlns="http://www.w3.org/2000/svg" xmlns:xlink="http://www.w3.org/1999/xlink" x="0px" y="0px"
	 viewBox="0 0 400 20" style="enable-background:new 0 0 400 20;" xml:space="preserve">
<g id="jumpforward">
	<path style="fill:#FFFFFF;" d="M32.079,2.333l-4.33,2.16v-4.32L32.079,2.333z"/>
	<path style="fill:#FFFFFF;" d="M34.809,2.333l-4.33,2.16v-4.32L34.809,2.333z"/>
	<path style="fill:none;stroke:#FFFFFF;stroke-width:2;" d="M29.909,2.333c-4.501-0.006-8.154,3.639-8.16,8.14
		c0,0.007,0,0.013,0,0.02"/>
	<path style="fill:none;stroke:#FFFFFF;stroke-width:2;" d="M21.759,10.003c-0.011,4.501,3.629,8.159,8.13,8.17
		c0.007,0,0.013,0,0.02,0"/>
	<path style="fill:none;stroke:#FFFFFF;stroke-width:2;" d="M29.539,18.173c4.501,0.006,8.154-3.639,8.16-8.14
		c0-0.007,0-0.013,0-0.02"/>
</g>
<g id="skipback">
	<path style="fill:none;stroke:#FFFFFF;stroke-width:2;" d="M2.599,9.823c-0.006,4.501,3.639,8.154,8.14,8.16
		c0.007,0,0.013,0,0.02,0"/>
	<path style="fill:none;stroke:#FFFFFF;stroke-width:2;" d="M10.279,17.973c4.501,0.006,8.154-3.639,8.16-8.14
		c0-0.007,0-0.013,0-0.02"/>
	<path style="fill:none;stroke:#FFFFFF;stroke-width:2;" d="M18.439,10.173c0.006-4.501-3.639-8.154-8.14-8.16
		c-0.007,0-0.013,0-0.02,0"/>
	<path style="fill:#FFFFFF;" d="M6.499,2.333l4.32,2.16v-4.32L6.499,2.333z"/>
	<path style="fill:#FFFFFF;" d="M3.779,2.333l4.3,2.16v-4.32L3.779,2.333z"/>
</g>
<g id="settings">
	<path style="fill:#FFFFFF;" d="M58.539,9.553c-0.028-0.587-0.432-1.088-1-1.24l-1.85-0.46c-0.382-0.06-0.643-0.418-0.583-0.8
		c0.017-0.108,0.059-0.211,0.123-0.3l1-1.64c0.298-0.504,0.237-1.141-0.15-1.58l0,0c-0.426-0.391-1.053-0.467-1.56-0.19l-1.64,1
		c-0.314,0.226-0.751,0.154-0.977-0.16c-0.064-0.089-0.106-0.192-0.123-0.3l-0.46-1.85c-0.152-0.568-0.653-0.972-1.24-1l0,0
		c-0.587,0.028-1.088,0.432-1.24,1l-0.46,1.85c-0.06,0.382-0.418,0.643-0.8,0.583c-0.108-0.017-0.211-0.059-0.3-0.123l-1.64-1
		c-0.507-0.277-1.134-0.201-1.56,0.19l0,0c-0.391,0.426-0.467,1.053-0.19,1.56l1,1.64c0.226,0.314,0.154,0.751-0.16,0.977
		c-0.089,0.064-0.192,0.106-0.3,0.123l-1.85,0.46c-0.568,0.152-0.972,0.653-1,1.24l0,0c0.028,0.587,0.432,1.088,1,1.24l1.85,0.46
		c0.382,0.06,0.643,0.418,0.583,0.8c-0.017,0.108-0.059,0.211-0.123,0.3l-1,1.64c-0.277,0.507-0.201,1.134,0.19,1.56l0,0
		c0.426,0.391,1.053,0.467,1.56,0.19l1.64-1c0.314-0.226,0.751-0.154,0.977,0.16c0.064,0.089,0.106,0.192,0.123,0.3l0.46,1.85
		c0.152,0.568,0.653,0.972,1.24,1l0,0c0.587-0.028,1.088-0.432,1.24-1l0.46-1.85c0.06-0.382,0.418-0.643,0.8-0.583
		c0.108,0.017,0.211,0.059,0.3,0.123l1.64,1c0.507,0.277,1.134,0.201,1.56-0.19l0,0c0.391-0.426,0.467-1.053,0.19-1.56l-1-1.64
		c-0.226-0.314-0.154-0.751,0.16-0.977c0.089-0.064,0.192-0.106,0.3-0.123l1.85-0.46c0.568-0.152,0.972-0.653,1-1.24L58.539,9.553z
		 M52.859,9.553c-0.011,1.557-1.283,2.811-2.84,2.8s-2.811-1.283-2.8-2.84c0.011-1.557,1.283-2.811,2.84-2.8c0.007,0,0.013,0,0.02,0
		c1.542,0.022,2.78,1.278,2.78,2.82L52.859,9.553z"/>
</g>
<g id="stop">
	<path style="fill:#FFFFFF;" d="M64.909,3.003h10c1.105,0,2,0.895,2,2v10c0,1.105-0.895,2-2,2h-10c-1.105,0-2-0.895-2-2v-10
		C62.909,3.898,63.805,3.003,64.909,3.003z"/>
</g>
<g id="loop">
	<g id="loop_on">
		<path style="fill:#FFFFFF;" d="M94.129,6.693c1.974,2.466,1.576,6.066-0.89,8.04c-2.466,1.974-6.066,1.576-8.04-0.89
			c-1.757-2.194-1.659-5.339,0.23-7.42l-1.62-1.62c-3.011,3.233-2.832,8.295,0.402,11.307c3.233,3.011,8.295,2.832,11.307-0.402
			c2.77-2.974,2.87-7.553,0.232-10.645L94.129,6.693z"/>
		<path style="fill:#FFFFFF;" d="M91.209,3.533c-0.08-0.39,0.171-0.77,0.561-0.85c0.095-0.02,0.194-0.02,0.289,0l5.52,0.77
			c0.54,0.08,0.67,0.46,0.28,0.84l-5,5c-0.39,0.39-0.77,0.26-0.84-0.28L91.209,3.533z"/>
	</g>
	<g id="loop_off" style="opacity:0.5;">
		<path style="fill:#FFFFFF;" d="M114.289,6.943c1.974,2.466,1.576,6.066-0.89,8.04s-6.066,1.576-8.04-0.89
			c-1.757-2.194-1.659-5.339,0.23-7.42l-1.62-1.62c-3.011,3.233-2.832,8.295,0.402,11.307c3.233,3.011,8.295,2.832,11.307-0.402
			c2.77-2.974,2.87-7.553,0.232-10.645L114.289,6.943z"/>
		<path style="fill:#FFFFFF;" d="M111.369,3.783c-0.08-0.39,0.171-0.77,0.561-0.85c0.095-0.02,0.194-0.02,0.289,0l5.52,0.77
			c0.54,0.08,0.67,0.46,0.28,0.84l-5,5c-0.39,0.39-0.77,0.26-0.84-0.28L111.369,3.783z"/>
	</g>
</g>
<g id="replay">
	<path style="fill:#FFFFFF;" d="M137.719,9.713c-0.047,0.434-0.436,0.748-0.87,0.701c-0.079-0.009-0.157-0.029-0.23-0.061
		l-4.86-1.82c-0.51-0.19-0.55-0.58-0.07-0.85l6.18-3.57c0.48-0.27,0.79-0.06,0.7,0.49L137.719,9.713z"/>
	<path style="fill:#FFFFFF;" d="M129.079,16.253c-1.01,0.002-2.005-0.241-2.9-0.71c-1.957-1.017-3.189-3.035-3.2-5.24
		c0.079-3.374,2.878-6.044,6.252-5.965c2.537,0.06,4.773,1.682,5.618,4.075l0.1-0.15l2.13,1.06c-0.623-4.43-4.72-7.516-9.149-6.893
		c-3.95,0.556-6.907,3.904-6.971,7.893c0.011,2.943,1.651,5.638,4.26,7c1.181,0.623,2.495,0.949,3.83,0.95
		c2.594,0.005,5.035-1.228,6.57-3.32l-1.8-0.93C132.651,15.437,130.913,16.255,129.079,16.253z"/>
</g>
<g id="chapters">
	<path style="fill:#FFFFFF;" d="M143.409,3.173L143.409,3.173c0.828,0,1.5,0.672,1.5,1.5l0,0c0,0.828-0.672,1.5-1.5,1.5l0,0
		c-0.828,0-1.5-0.672-1.5-1.5l0,0C141.909,3.844,142.581,3.173,143.409,3.173z"/>
	<path style="fill:#FFFFFF;" d="M148.455,3.173h8.5c0.854,0,1.545,0.672,1.545,1.5l0,0c0,0.828-0.692,1.5-1.545,1.5h-8.5
		c-0.854,0-1.545-0.672-1.545-1.5l0,0C146.909,3.844,147.601,3.173,148.455,3.173z"/>
	<path style="fill:#FFFFFF;" d="M143.409,8.173L143.409,8.173c0.828,0,1.5,0.672,1.5,1.5l0,0c0,0.828-0.672,1.5-1.5,1.5l0,0
		c-0.828,0-1.5-0.672-1.5-1.5l0,0C141.909,8.844,142.581,8.173,143.409,8.173z"/>
	<path style="fill:#FFFFFF;" d="M148.455,8.173h8.5c0.854,0,1.545,0.672,1.545,1.5l0,0c0,0.828-0.692,1.5-1.545,1.5h-8.5
		c-0.854,0-1.545-0.672-1.545-1.5l0,0C146.909,8.844,147.601,8.173,148.455,8.173z"/>
	<path style="fill:#FFFFFF;" d="M143.409,13.173L143.409,13.173c0.828,0,1.5,0.672,1.5,1.5l0,0c0,0.828-0.672,1.5-1.5,1.5l0,0
		c-0.828,0-1.5-0.672-1.5-1.5l0,0C141.909,13.844,142.581,13.173,143.409,13.173z"/>
	<path style="fill:#FFFFFF;" d="M148.455,13.173h8.5c0.854,0,1.545,0.672,1.545,1.5l0,0c0,0.828-0.692,1.5-1.545,1.5h-8.5
		c-0.854,0-1.545-0.672-1.545-1.5l0,0C146.909,13.844,147.601,13.173,148.455,13.173z"/>
</g>
<path id="chromecast" style="fill:#FFFFFF;" d="M161.994,13.98v2.201h2.201C164.194,14.97,163.204,13.98,161.994,13.98z
	 M161.994,11.064v1.485c2.035,0,3.686,1.65,3.686,3.686h1.485C167.109,13.375,164.799,11.064,161.994,11.064L161.994,11.064z
	 M175.251,5.893h-10.342v1.21c2.916,0.935,5.226,3.245,6.161,6.161h4.126V5.893L175.251,5.893L175.251,5.893z M161.994,8.094v1.485
	c3.686,0,6.656,2.97,6.656,6.656h1.43C170.08,11.724,166.449,8.094,161.994,8.094L161.994,8.094z M176.736,2.923h-13.312
	c-0.826,0-1.485,0.66-1.485,1.485v2.201h1.485V4.408h13.257v10.287h-5.171v1.485h5.171c0.825,0,1.485-0.66,1.485-1.485V4.408
	C178.166,3.583,177.506,2.923,176.736,2.923z"/>
<path id="cardboard" style="fill:#FFFFFF;" d="M197.828,3.929h-15.5c-0.574,0-1.06,0.504-1.06,1.122v9.243
	c0,0.619,0.486,1.122,1.087,1.122h4.215c0.477,0,0.884-0.283,1.025-0.698l1.228-3.066c0.212-0.513,0.707-0.875,1.281-0.875
	s1.069,0.362,1.281,0.875l1.228,3.066c0.168,0.415,0.548,0.698,0.981,0.698h4.233c0.627,0,1.113-0.504,1.113-1.122V5.051
	C198.942,4.433,198.456,3.929,197.828,3.929 M185.881,11.511c-1.078,0-1.962-0.91-1.962-2.024c0-1.14,0.884-2.024,1.962-2.024
	s1.953,0.884,1.953,2.024C187.834,10.601,186.959,11.511,185.881,11.511 M194.329,11.511c-1.078,0-1.953-0.91-1.953-2.024
	s0.875-2.024,1.953-2.024s1.962,0.91,1.962,2.024S195.407,11.511,194.329,11.511z"/>
<g id="airplay">
	<polygon style="fill:#FFFFFF;" points="201.753,3.237 218.708,3.237 218.708,13.641 215.047,13.641 213.699,12.099 217.167,12.099 
		217.167,4.778 203.295,4.778 203.295,12.099 206.763,12.099 205.414,13.641 201.753,13.641 	"/>
	<polygon style="fill:#FFFFFF;" points="204.451,17.109 210.231,10.173 216.011,17.109 	"/>
</g>
<g>
	<path style="fill:#FFFFFF;" d="M235.631,4.11H225.03c-1.642,0-2.972,2.714-2.972,6.061c0,3.35,1.33,6.064,2.972,6.064h10.601
		c1.642,0,2.972-2.714,2.972-6.064C238.603,6.824,237.273,4.11,235.631,4.11z M228.612,12.847h-1.169v-0.706h-1.958l-0.45,0.706
		h-1.716l3.833-5.341h1.46V12.847z M230.802,12.844v0.002h-1.638V7.507h1.634h0.016c1.473,0,2.658,1.194,2.658,2.67
		C233.472,11.648,232.274,12.844,230.802,12.844z M233.952,12.826h-0.285h-0.169c0.589-0.706,0.923-1.596,0.923-2.528
		c0-1.049-0.423-2.059-1.165-2.796h0.165h0.322h0.165c0.665,0.774,1.037,1.766,1.037,2.796c0,0.915-0.291,1.803-0.822,2.528H233.952
		z M235.466,12.826h-0.167h-0.289h-0.169c0.593-0.706,0.927-1.596,0.927-2.528c0-1.049-0.427-2.059-1.169-2.796h0.169h0.318h0.169
		c0.661,0.774,1.037,1.766,1.037,2.796C236.292,11.213,235.997,12.102,235.466,12.826z M236.814,12.826h-0.171h-0.289h-0.169
		c0.593-0.706,0.927-1.596,0.927-2.528c0-1.049-0.427-2.059-1.169-2.796h0.169h0.318h0.169c0.661,0.774,1.037,1.766,1.037,2.796
		C237.636,11.213,237.34,12.102,236.814,12.826z"/>
	<path style="fill:#FFFFFF;" d="M230.657,8.757h-0.372v2.844h0.372c0.787,0,1.421-0.638,1.421-1.423
		C232.078,9.395,231.444,8.757,230.657,8.757z"/>
	<polygon style="fill:#FFFFFF;" points="227.451,11.028 227.451,9.115 226.22,11.028 	"/>
</g>
</svg>
