<?xml version="1.0" encoding="utf-8"?>
<!-- Generator: Adobe Illustrator 21.0.0, SVG Export Plug-In . SVG Version: 6.00 Build 0)  -->
<svg version="1.1" id="Layer_1" xmlns="http://www.w3.org/2000/svg" xmlns:xlink="http://www.w3.org/1999/xlink" x="0px" y="0px"
	 viewBox="0 0 400 20" style="enable-background:new 0 0 400 20;" xml:space="preserve">
<style type="text/css">
	.st0{fill:#FFFFFF;}
	.st1{fill:none;stroke:#FFFFFF;stroke-width:2;}
	.st2{opacity:0.5;}
</style>
<g id="jumpforward">
	<path class="st0" d="M32.1,2.3l-4.3,2.2V0.2L32.1,2.3z"/>
	<path class="st0" d="M34.8,2.3l-4.3,2.2V0.2L34.8,2.3z"/>
	<path class="st1" d="M29.9,2.3c-4.5,0-8.2,3.6-8.2,8.1c0,0,0,0,0,0"/>
	<path class="st1" d="M21.8,10c0,4.5,3.6,8.2,8.1,8.2c0,0,0,0,0,0"/>
	<path class="st1" d="M29.5,18.2c4.5,0,8.2-3.6,8.2-8.1c0,0,0,0,0,0"/>
</g>
<g id="skipback">
	<path class="st1" d="M2.6,9.8c0,4.5,3.6,8.2,8.1,8.2c0,0,0,0,0,0"/>
	<path class="st1" d="M10.3,18c4.5,0,8.2-3.6,8.2-8.1c0,0,0,0,0,0"/>
	<path class="st1" d="M18.4,10.2c0-4.5-3.6-8.2-8.1-8.2c0,0,0,0,0,0"/>
	<path class="st0" d="M6.5,2.3l4.3,2.2V0.2L6.5,2.3z"/>
	<path class="st0" d="M3.8,2.3l4.3,2.2V0.2L3.8,2.3z"/>
</g>
<g id="settings">
	<path class="st0" d="M58.5,9.6c0-0.6-0.4-1.1-1-1.2l-1.8-0.5c-0.4-0.1-0.6-0.4-0.6-0.8c0-0.1,0.1-0.2,0.1-0.3l1-1.6
		c0.3-0.5,0.2-1.1-0.2-1.6l0,0c-0.4-0.4-1.1-0.5-1.6-0.2l-1.6,1c-0.3,0.2-0.8,0.2-1-0.2c-0.1-0.1-0.1-0.2-0.1-0.3L51.3,2
		c-0.2-0.6-0.7-1-1.2-1l0,0c-0.6,0-1.1,0.4-1.2,1l-0.5,1.8c-0.1,0.4-0.4,0.6-0.8,0.6c-0.1,0-0.2-0.1-0.3-0.1l-1.6-1
		c-0.5-0.3-1.1-0.2-1.6,0.2l0,0c-0.4,0.4-0.5,1.1-0.2,1.6l1,1.6c0.2,0.3,0.2,0.8-0.2,1c-0.1,0.1-0.2,0.1-0.3,0.1l-1.8,0.5
		c-0.6,0.2-1,0.7-1,1.2l0,0c0,0.6,0.4,1.1,1,1.2l1.8,0.5c0.4,0.1,0.6,0.4,0.6,0.8c0,0.1-0.1,0.2-0.1,0.3l-1,1.6
		c-0.3,0.5-0.2,1.1,0.2,1.6l0,0c0.4,0.4,1.1,0.5,1.6,0.2l1.6-1c0.3-0.2,0.8-0.2,1,0.2c0.1,0.1,0.1,0.2,0.1,0.3l0.5,1.9
		c0.2,0.6,0.7,1,1.2,1l0,0c0.6,0,1.1-0.4,1.2-1l0.5-1.9c0.1-0.4,0.4-0.6,0.8-0.6c0.1,0,0.2,0.1,0.3,0.1l1.6,1
		c0.5,0.3,1.1,0.2,1.6-0.2l0,0c0.4-0.4,0.5-1.1,0.2-1.6l-1-1.6c-0.2-0.3-0.2-0.8,0.2-1c0.1-0.1,0.2-0.1,0.3-0.1l1.8-0.5
		C58.1,10.6,58.6,10.1,58.5,9.6L58.5,9.6z M52.9,9.6c0,1.6-1.3,2.8-2.8,2.8s-2.8-1.3-2.8-2.8s1.3-2.8,2.8-2.8c0,0,0,0,0,0
		C51.6,6.7,52.9,8,52.9,9.6L52.9,9.6z"/>
</g>
<g id="stop">
	<path class="st0" d="M64.9,3h10c1.1,0,2,0.9,2,2v10c0,1.1-0.9,2-2,2h-10c-1.1,0-2-0.9-2-2V5C62.9,3.9,63.8,3,64.9,3z"/>
</g>
<g id="loop">
	<g id="loop_on">
		<path class="st0" d="M94.1,6.7c2,2.5,1.6,6.1-0.9,8c-2.5,2-6.1,1.6-8-0.9c-1.8-2.2-1.7-5.3,0.2-7.4l-1.6-1.6
			c-3,3.2-2.8,8.3,0.4,11.3c3.2,3,8.3,2.8,11.3-0.4c2.8-3,2.9-7.6,0.2-10.6L94.1,6.7z"/>
		<path class="st0" d="M91.2,3.5c-0.1-0.4,0.2-0.8,0.6-0.8c0.1,0,0.2,0,0.3,0l5.5,0.8c0.5,0.1,0.7,0.5,0.3,0.8l-5,5
			C92.5,9.7,92.1,9.6,92,9L91.2,3.5z"/>
	</g>
	<g id="loop_off" class="st2">
		<path class="st0" d="M114.3,6.9c2,2.5,1.6,6.1-0.9,8s-6.1,1.6-8-0.9c-1.8-2.2-1.7-5.3,0.2-7.4L104,5.1c-3,3.2-2.8,8.3,0.4,11.3
			c3.2,3,8.3,2.8,11.3-0.4c2.8-3,2.9-7.6,0.2-10.6L114.3,6.9z"/>
		<path class="st0" d="M111.4,3.8c-0.1-0.4,0.2-0.8,0.6-0.8c0.1,0,0.2,0,0.3,0l5.5,0.8c0.5,0.1,0.7,0.5,0.3,0.8l-5,5
			c-0.4,0.4-0.8,0.3-0.8-0.3L111.4,3.8z"/>
	</g>
</g>
<path id="chromecast" class="st0" d="M122,14v2.2h2.2C124.2,15,123.2,14,122,14z M122,11.1v1.5c2,0,3.7,1.6,3.7,3.7h1.5
	C127.1,13.4,124.8,11.1,122,11.1L122,11.1z M135.3,5.9h-10.3v1.2c2.9,0.9,5.2,3.2,6.2,6.2h4.1L135.3,5.9L135.3,5.9L135.3,5.9z
	 M122,8.1v1.5c3.7,0,6.7,3,6.7,6.7h1.4C130.1,11.7,126.4,8.1,122,8.1L122,8.1z M136.7,2.9h-13.3c-0.8,0-1.5,0.7-1.5,1.5v2.2h1.5V4.4
	h13.3v10.3h-5.2v1.5h5.2c0.8,0,1.5-0.7,1.5-1.5V4.4C138.2,3.6,137.5,2.9,136.7,2.9z"/>
<path id="cardboard" class="st0" d="M157.8,3.9h-15.5c-0.6,0-1.1,0.5-1.1,1.1v9.2c0,0.6,0.5,1.1,1.1,1.1h4.2c0.5,0,0.9-0.3,1-0.7
	l1.2-3.1c0.2-0.5,0.7-0.9,1.3-0.9s1.1,0.4,1.3,0.9l1.2,3.1c0.2,0.4,0.5,0.7,1,0.7h4.2c0.6,0,1.1-0.5,1.1-1.1V5.1
	C158.9,4.4,158.5,3.9,157.8,3.9 M145.9,11.5c-1.1,0-2-0.9-2-2c0-1.1,0.9-2,2-2s2,0.9,2,2C147.8,10.6,147,11.5,145.9,11.5
	 M154.3,11.5c-1.1,0-2-0.9-2-2s0.9-2,2-2s2,0.9,2,2S155.4,11.5,154.3,11.5z"/>
<g id="airplay">
	<polygon class="st0" points="161.8,3.2 178.7,3.2 178.7,13.6 175,13.6 173.7,12.1 177.2,12.1 177.2,4.8 163.3,4.8 163.3,12.1 
		166.8,12.1 165.4,13.6 161.8,13.6 	"/>
	<polygon class="st0" points="164.5,17.1 170.2,10.2 176,17.1 	"/>
</g>
<g>
	<path class="st0" d="M195.6,4.1H185c-1.6,0-3,2.7-3,6.1c0,3.4,1.3,6.1,3,6.1h10.6c1.6,0,3-2.7,3-6.1C198.6,6.8,197.3,4.1,195.6,4.1
		z M188.6,12.8h-1.2v-0.7h-2l-0.4,0.7h-1.7l3.8-5.3h1.5V12.8z M190.8,12.8L190.8,12.8l-1.6,0V7.5h1.6h0c1.5,0,2.7,1.2,2.7,2.7
		C193.5,11.6,192.3,12.8,190.8,12.8z M194,12.8h-0.3h-0.2c0.6-0.7,0.9-1.6,0.9-2.5c0-1-0.4-2.1-1.2-2.8h0.2h0.3h0.2
		c0.7,0.8,1,1.8,1,2.8c0,0.9-0.3,1.8-0.8,2.5H194z M195.5,12.8h-0.2H195h-0.2c0.6-0.7,0.9-1.6,0.9-2.5c0-1-0.4-2.1-1.2-2.8h0.2h0.3
		h0.2c0.7,0.8,1,1.8,1,2.8C196.3,11.2,196,12.1,195.5,12.8z M196.8,12.8h-0.2h-0.3h-0.2c0.6-0.7,0.9-1.6,0.9-2.5
		c0-1-0.4-2.1-1.2-2.8h0.2h0.3h0.2c0.7,0.8,1,1.8,1,2.8C197.6,11.2,197.3,12.1,196.8,12.8z"/>
	<path class="st0" d="M190.7,8.8h-0.4v2.8h0.4c0.8,0,1.4-0.6,1.4-1.4C192.1,9.4,191.4,8.8,190.7,8.8z"/>
	<polygon class="st0" points="187.5,11 187.5,9.1 186.2,11 	"/>
</g>
</svg>
