<?xml version="1.0" encoding="utf-8"?>
<!-- Generator: Adobe Illustrator 14.0.0, SVG Export Plug-In . SVG Version: 6.00 Build 43363)  -->
<!DOCTYPE svg PUBLIC "-//W3C//DTD SVG 1.1//EN" "http://www.w3.org/Graphics/SVG/1.1/DTD/svg11.dtd">
<svg version="1.1" id="SVG_1" xmlns="http://www.w3.org/2000/svg" xmlns:xlink="http://www.w3.org/1999/xlink" x="0px" y="0px"
	 width="192px" height="16px" viewBox="0 0 192 16" enable-background="new 0 0 192 16" xml:space="preserve">
<path fill="none" stroke="#FFFFFF" d="M8.411,10.001"/>
<path fill="none" stroke="#FFFFFF" d="M8.411,7"/>
<path fill="none" stroke="#FFFFFF" d="M13.411,10.001"/>
<path fill="none" stroke="#FFFFFF" d="M13.411,7"/>
<linearGradient id="SVGID_1_" gradientUnits="userSpaceOnUse" x1="155.7871" y1="56.666" x2="155.7871" y2="57.666" gradientTransform="matrix(14 0 0 12 -2164 -678)">
	<stop  offset="0" style="stop-color:#FFFFFF"/>
	<stop  offset="1" style="stop-color:#C8C8C8"/>
</linearGradient>
<path fill="url(#SVGID_1_)" d="M3,3h28v10H3V3z M2,2v12h30V2H2z"/>
<polygon fill="none" points="2.411,2 32,2.053 32,14.054 2.411,14.001 "/>
<g transform="matrix(1,0,0,1,-64.5,0)" xmlns="http://www.w3.org/2000/svg">
	<path fill="#F2F2F2" d="M72.314,11.667h-0.879V6.066c-0.211,0.202-0.489,0.404-0.833,0.605c-0.344,0.201-0.652,0.353-0.925,0.454
		v-0.85c0.492-0.231,0.921-0.511,1.289-0.84c0.368-0.329,0.628-0.648,0.781-0.957h0.566L72.314,11.667L72.314,11.667z" />
	<path fill="#F2F2F2" d="M75.059,11.667v-1.001h1.001v1.001H75.059z" />
	<path fill="#F2F2F2" d="M37.724,8.137c0-0.846,0.087-1.527,0.261-2.043c0.174-0.516,0.433-0.914,0.776-1.194
		c0.343-0.28,0.775-0.42,1.296-0.42c0.384,0,0.721,0.077,1.011,0.232c0.29,0.155,0.529,0.377,0.718,0.669s0.337,0.646,0.444,1.064
		s0.161,0.982,0.161,1.692c0,0.84-0.086,1.518-0.259,2.034c-0.173,0.516-0.431,0.915-0.774,1.196
		c-0.343,0.281-0.777,0.422-1.301,0.422c-0.69,0-1.232-0.248-1.626-0.742C37.959,10.451,37.724,9.481,37.724,8.137z M38.627,8.137
		c0,1.175,0.138,1.957,0.413,2.346c0.275,0.389,0.614,0.583,1.018,0.583c0.404,0,0.743-0.195,1.018-0.586
		c0.275-0.391,0.413-1.172,0.413-2.344c0-1.178-0.138-1.961-0.413-2.349c-0.275-0.388-0.618-0.581-1.028-0.581
		c-0.404,0-0.726,0.171-0.967,0.513C38.778,6.156,38.627,6.961,38.627,8.137z" transform="matrix(1,0,0,1,39,0)" xmlns="http://www.w3.org/2000/svg" />
	<path fill="#F2F2F2" d="M37.724,8.137c0-0.846,0.087-1.527,0.261-2.043c0.174-0.516,0.433-0.914,0.776-1.194
		c0.343-0.28,0.775-0.42,1.296-0.42c0.384,0,0.721,0.077,1.011,0.232c0.29,0.155,0.529,0.377,0.718,0.669s0.337,0.646,0.444,1.064
		s0.161,0.982,0.161,1.692c0,0.84-0.086,1.518-0.259,2.034c-0.173,0.516-0.431,0.915-0.774,1.196
		c-0.343,0.281-0.777,0.422-1.301,0.422c-0.69,0-1.232-0.248-1.626-0.742C37.959,10.451,37.724,9.481,37.724,8.137z M38.627,8.137
		c0,1.175,0.138,1.957,0.413,2.346c0.275,0.389,0.614,0.583,1.018,0.583c0.404,0,0.743-0.195,1.018-0.586
		c0.275-0.391,0.413-1.172,0.413-2.344c0-1.178-0.138-1.961-0.413-2.349c-0.275-0.388-0.618-0.581-1.028-0.581
		c-0.404,0-0.726,0.171-0.967,0.513C38.778,6.156,38.627,6.961,38.627,8.137z" transform="matrix(1,0,0,1,45,0)" xmlns="http://www.w3.org/2000/svg" />
	<path fill="#F2F2F2" d="M88.125,11.667l1.895-2.695l-1.753-2.49h1.099l0.796,1.216c0.15,0.231,0.27,0.425,0.361,0.581
		c0.143-0.215,0.275-0.405,0.396-0.571l0.874-1.226h1.05L91.05,8.923l1.929,2.744H91.9l-1.064-1.611l-0.283-0.435l-1.362,2.046
		H88.125z" />
</g>
<path fill="none" stroke="#FFFFFF" d="M39.527,10.306"/>
<path fill="none" stroke="#FFFFFF" d="M39.527,7.305"/>
<path fill="none" stroke="#FFFFFF" d="M44.527,10.306"/>
<path fill="none" stroke="#FFFFFF" d="M44.527,7.305"/>
<linearGradient id="SVGID_2_" gradientUnits="userSpaceOnUse" x1="158.0723" y1="56.666" x2="158.0723" y2="57.666" gradientTransform="matrix(14 0 0 12 -2164 -678)">
	<stop  offset="0" style="stop-color:#FFFFFF"/>
	<stop  offset="1" style="stop-color:#C8C8C8"/>
</linearGradient>
<path fill="url(#SVGID_2_)" d="M35,3h28v10.001H35V3z M34,2v12.001h30V2H34z"/>
<polygon fill="none" points="33.527,2.305 63.116,2.357 63.116,14.358 33.527,14.306 "/>
<g transform="matrix(1,0,0,1,-0.5,0)" xmlns="http://www.w3.org/2000/svg">
	<path fill="#F2F2F2" d="M37.724,8.137c0-0.846,0.087-1.527,0.261-2.043c0.174-0.516,0.433-0.914,0.776-1.194
		c0.343-0.28,0.775-0.42,1.296-0.42c0.384,0,0.721,0.077,1.011,0.232c0.29,0.155,0.529,0.377,0.718,0.669s0.337,0.646,0.444,1.064
		s0.161,0.982,0.161,1.692c0,0.84-0.086,1.518-0.259,2.034c-0.173,0.516-0.431,0.915-0.774,1.196
		c-0.343,0.281-0.777,0.422-1.301,0.422c-0.69,0-1.232-0.248-1.626-0.742C37.959,10.451,37.724,9.481,37.724,8.137z M38.627,8.137
		c0,1.175,0.138,1.957,0.413,2.346c0.275,0.389,0.614,0.583,1.018,0.583c0.404,0,0.743-0.195,1.018-0.586
		c0.275-0.391,0.413-1.172,0.413-2.344c0-1.178-0.138-1.961-0.413-2.349c-0.275-0.388-0.618-0.581-1.028-0.581
		c-0.404,0-0.726,0.171-0.967,0.513C38.778,6.156,38.627,6.961,38.627,8.137z" />
	<path fill="#F2F2F2" d="M43.778,11.667v-1.001h1.001v1.001H43.778z" />
	<path fill="#F2F2F2" d="M46.122,5.446V4.602h4.634v0.684C50.3,5.77,49.849,6.415,49.401,7.219c-0.448,0.804-0.793,1.631-1.038,2.48
		c-0.176,0.599-0.288,1.255-0.337,1.968h-0.903c0.01-0.563,0.121-1.244,0.332-2.041s0.515-1.566,0.911-2.307
		c0.396-0.741,0.816-1.365,1.262-1.873H46.122L46.122,5.446z" />
	<path fill="#F2F2F2" d="M51.625,9.792l0.923-0.078c0.068,0.449,0.227,0.787,0.476,1.013s0.549,0.339,0.901,0.339
		c0.423,0,0.781-0.16,1.074-0.479s0.439-0.742,0.439-1.27c0-0.501-0.141-0.897-0.422-1.187c-0.281-0.29-0.65-0.435-1.106-0.435
		c-0.283,0-0.539,0.064-0.767,0.193c-0.228,0.129-0.407,0.295-0.537,0.5l-0.825-0.107l0.693-3.677h3.56v0.84h-2.856L52.792,7.37
		c0.43-0.299,0.88-0.449,1.353-0.449c0.625,0,1.152,0.216,1.582,0.649c0.43,0.433,0.645,0.99,0.645,1.67
		c0,0.648-0.189,1.208-0.566,1.68c-0.459,0.58-1.085,0.869-1.88,0.869c-0.651,0-1.183-0.182-1.594-0.547
		C51.921,10.877,51.684,10.394,51.625,9.792z" />
	<path fill="#F2F2F2" d="M56.845,11.667l1.895-2.695l-1.753-2.49h1.099l0.796,1.216c0.15,0.231,0.27,0.425,0.361,0.581
		c0.143-0.215,0.275-0.405,0.396-0.571l0.874-1.226h1.05L59.77,8.923l1.929,2.744H60.62l-1.064-1.611l-0.283-0.435l-1.362,2.046
		H56.845z" />
</g>
<path fill="none" stroke="#FFFFFF" d="M70.807,9.808"/>
<path fill="none" stroke="#FFFFFF" d="M70.807,6.807"/>
<path fill="none" stroke="#FFFFFF" d="M75.807,9.808"/>
<path fill="none" stroke="#FFFFFF" d="M75.807,6.807"/>
<linearGradient id="SVGID_3_" gradientUnits="userSpaceOnUse" x1="160.3574" y1="56.666" x2="160.3574" y2="57.666" gradientTransform="matrix(14 0 0 12 -2164 -678)">
	<stop  offset="0" style="stop-color:#FFFFFF"/>
	<stop  offset="1" style="stop-color:#C8C8C8"/>
</linearGradient>
<path fill="url(#SVGID_3_)" d="M67,3h28v10.001H67V3z M66,2v12.001h30V2H66z"/>
<g>
	<path fill="#F2F2F2" d="M72.314,11.667h-0.879V6.066c-0.211,0.202-0.489,0.404-0.833,0.605c-0.344,0.201-0.652,0.353-0.925,0.454
		v-0.85c0.492-0.231,0.921-0.511,1.289-0.84c0.368-0.329,0.628-0.648,0.781-0.957h0.566L72.314,11.667L72.314,11.667z"/>
	<path fill="#F2F2F2" d="M75.059,11.667v-1.001h1.001v1.001H75.059z"/>
	<path fill="#F2F2F2" d="M81.963,10.822v0.845h-4.731c-0.006-0.211,0.028-0.415,0.103-0.61c0.121-0.322,0.313-0.64,0.579-0.952
		s0.648-0.674,1.15-1.084c0.778-0.638,1.304-1.144,1.577-1.516s0.41-0.725,0.41-1.057c0-0.348-0.125-0.642-0.374-0.881
		c-0.249-0.239-0.574-0.359-0.974-0.359c-0.423,0-0.762,0.127-1.016,0.381s-0.382,0.605-0.386,1.055L77.397,6.55
		c0.062-0.674,0.294-1.188,0.698-1.541c0.404-0.353,0.946-0.53,1.626-0.53c0.687,0,1.23,0.19,1.631,0.571
		c0.401,0.381,0.601,0.853,0.601,1.416c0,0.287-0.059,0.568-0.176,0.845c-0.117,0.277-0.312,0.568-0.583,0.874
		s-0.724,0.726-1.355,1.26c-0.527,0.443-0.866,0.743-1.016,0.901c-0.15,0.158-0.273,0.316-0.371,0.476H81.963z"/>
	<path fill="#F2F2F2" d="M82.905,9.792l0.923-0.078c0.068,0.449,0.227,0.787,0.476,1.013s0.549,0.339,0.901,0.339
		c0.423,0,0.781-0.16,1.074-0.479s0.439-0.742,0.439-1.27c0-0.501-0.141-0.897-0.422-1.187c-0.281-0.29-0.65-0.435-1.106-0.435
		c-0.283,0-0.539,0.064-0.767,0.193c-0.228,0.129-0.407,0.295-0.537,0.5l-0.825-0.107l0.693-3.677h3.56v0.84h-2.856L84.072,7.37
		c0.43-0.299,0.88-0.449,1.353-0.449c0.625,0,1.152,0.216,1.582,0.649c0.43,0.433,0.645,0.99,0.645,1.67
		c0,0.648-0.189,1.208-0.566,1.68c-0.459,0.58-1.085,0.869-1.88,0.869c-0.651,0-1.183-0.182-1.594-0.547
		C83.201,10.877,82.964,10.394,82.905,9.792z"/>
	<path fill="#F2F2F2" d="M88.125,11.667l1.895-2.695l-1.753-2.49h1.099l0.796,1.216c0.15,0.231,0.27,0.425,0.361,0.581
		c0.143-0.215,0.275-0.405,0.396-0.571l0.874-1.226h1.05L91.05,8.923l1.929,2.744H91.9l-1.064-1.611l-0.283-0.435l-1.362,2.046
		H88.125z"/>
</g>
<path fill="none" stroke="#FFFFFF" d="M102.807,9.808"/>
<path fill="none" stroke="#FFFFFF" d="M102.807,6.807"/>
<path fill="none" stroke="#FFFFFF" d="M107.807,9.808"/>
<path fill="none" stroke="#FFFFFF" d="M107.807,6.807"/>
<linearGradient id="SVGID_4_" gradientUnits="userSpaceOnUse" x1="162.6436" y1="56.666" x2="162.6436" y2="57.666" gradientTransform="matrix(14 0 0 12 -2164 -678)">
	<stop  offset="0" style="stop-color:#FFFFFF"/>
	<stop  offset="1" style="stop-color:#C8C8C8"/>
</linearGradient>
<path fill="url(#SVGID_4_)" d="M99,3h28v10.001H99V3z M98,2v12.001h30V2H98z"/>
<g>
	<path fill="#F2F2F2" d="M106.729,11.667h-0.879V6.066c-0.213,0.202-0.49,0.404-0.834,0.605c-0.343,0.202-0.65,0.353-0.925,0.454
		v-0.85c0.491-0.231,0.921-0.511,1.289-0.84s0.628-0.648,0.781-0.957h0.565v7.189H106.729z" transform="matrix(1,0,0,1,-2,0)" xmlns="http://www.w3.org/2000/svg" />
	<path fill="#F2F2F2" d="M109.473,11.667v-1.001h1v1.001H109.473z" transform="matrix(1,0,0,1,-2,0)" xmlns="http://www.w3.org/2000/svg" />
	<path fill="#F2F2F2" d="M111.757,9.792l0.923-0.078c0.068,0.449,0.228,0.787,0.478,1.013c0.247,0.226,0.549,0.339,0.899,0.339
		c0.424,0,0.781-0.16,1.074-0.479s0.439-0.742,0.439-1.27c0-0.501-0.141-0.897-0.422-1.187c-0.282-0.29-0.65-0.435-1.106-0.435
		c-0.283,0-0.538,0.064-0.767,0.193c-0.229,0.129-0.406,0.295-0.537,0.5l-0.825-0.107l0.692-3.677h3.561v0.84h-2.855l-0.387,1.924
		c0.43-0.299,0.881-0.449,1.354-0.449c0.625,0,1.152,0.216,1.582,0.649c0.43,0.433,0.645,0.99,0.645,1.67
		c0,0.648-0.188,1.208-0.566,1.68c-0.459,0.58-1.084,0.869-1.879,0.869c-0.65,0-1.184-0.182-1.595-0.547
		C112.051,10.877,111.814,10.394,111.757,9.792z" transform="matrix(1,0,0,1,-2.25,0)" xmlns="http://www.w3.org/2000/svg" />
	<path fill="#F2F2F2" d="M37.724,8.137c0-0.846,0.087-1.527,0.261-2.043c0.174-0.516,0.433-0.914,0.776-1.194
		c0.343-0.28,0.775-0.42,1.296-0.42c0.384,0,0.721,0.077,1.011,0.232c0.29,0.155,0.529,0.377,0.718,0.669s0.337,0.646,0.444,1.064
		s0.161,0.982,0.161,1.692c0,0.84-0.086,1.518-0.259,2.034c-0.173,0.516-0.431,0.915-0.774,1.196
		c-0.343,0.281-0.777,0.422-1.301,0.422c-0.69,0-1.232-0.248-1.626-0.742C37.959,10.451,37.724,9.481,37.724,8.137z M38.627,8.137
		c0,1.175,0.138,1.957,0.413,2.346c0.275,0.389,0.614,0.583,1.018,0.583c0.404,0,0.743-0.195,1.018-0.586
		c0.275-0.391,0.413-1.172,0.413-2.344c0-1.178-0.138-1.961-0.413-2.349c-0.275-0.388-0.618-0.581-1.028-0.581
		c-0.404,0-0.726,0.171-0.967,0.513C38.778,6.156,38.627,6.961,38.627,8.137z" transform="matrix(1,0,0,1,77.25,0.0625)" xmlns="http://www.w3.org/2000/svg" />
	<path fill="#F2F2F2" d="M116.977,11.667l1.896-2.695l-1.753-2.49h1.099l0.796,1.216c0.149,0.231,0.271,0.425,0.361,0.581
		c0.145-0.215,0.273-0.405,0.396-0.571l0.873-1.226h1.051l-1.793,2.441l1.93,2.744h-1.079l-1.063-1.611l-0.283-0.435l-1.362,2.046
		H116.977z" transform="matrix(1,0,0,1,3,0)" xmlns="http://www.w3.org/2000/svg" />
</g>
<path fill="none" stroke="#FFFFFF" d="M134.807,9.808"/>
<path fill="none" stroke="#FFFFFF" d="M134.807,6.807"/>
<path fill="none" stroke="#FFFFFF" d="M139.807,9.808"/>
<path fill="none" stroke="#FFFFFF" d="M139.807,6.807"/>
<linearGradient id="SVGID_5_" gradientUnits="userSpaceOnUse" x1="164.9297" y1="56.666" x2="164.9297" y2="57.666" gradientTransform="matrix(14 0 0 12 -2164 -678)">
	<stop  offset="0" style="stop-color:#FFFFFF"/>
	<stop  offset="1" style="stop-color:#C8C8C8"/>
</linearGradient>
<path fill="url(#SVGID_5_)" d="M131,3h28v10.001h-28V3z M130,2v12.001h30V2H130z"/>
<polygon fill="none" points="128.807,1.807 158.396,1.859 158.396,13.86 128.807,13.808 "/>
<g>
	<path fill="#F2F2F2" d="M135.729,11.667h-0.879V6.066c-0.213,0.202-0.49,0.404-0.834,0.605c-0.343,0.202-0.65,0.353-0.925,0.454
		v-0.85c0.491-0.231,0.921-0.511,1.289-0.84s0.628-0.648,0.781-0.957h0.565v7.189H135.729z"/>
	<path fill="#F2F2F2" d="M138.473,11.667v-1.001h1v1.001H138.473z"/>
	<path fill="#F2F2F2" d="M140.814,5.446V4.602h4.635v0.684c-0.455,0.485-0.907,1.129-1.355,1.934
		c-0.447,0.804-0.793,1.631-1.037,2.48c-0.176,0.599-0.287,1.255-0.336,1.968h-0.904c0.011-0.563,0.121-1.244,0.332-2.041
		s0.517-1.566,0.91-2.307c0.396-0.741,0.816-1.365,1.264-1.873L140.814,5.446L140.814,5.446z"/>
	<path fill="#F2F2F2" d="M146.318,9.792l0.923-0.078c0.067,0.449,0.228,0.787,0.476,1.013c0.25,0.226,0.551,0.339,0.901,0.339
		c0.423,0,0.78-0.16,1.073-0.479s0.439-0.742,0.439-1.27c0-0.501-0.141-0.897-0.423-1.187c-0.281-0.29-0.649-0.435-1.104-0.435
		c-0.283,0-0.539,0.064-0.768,0.193c-0.229,0.129-0.406,0.295-0.537,0.5l-0.824-0.107l0.692-3.677h3.56v0.84h-2.855l-0.387,1.924
		c0.431-0.299,0.881-0.449,1.354-0.449c0.625,0,1.152,0.216,1.582,0.649c0.43,0.433,0.645,0.99,0.645,1.67
		c0,0.648-0.188,1.208-0.565,1.68c-0.459,0.58-1.086,0.869-1.88,0.869c-0.651,0-1.184-0.182-1.596-0.547
		C146.611,10.877,146.377,10.394,146.318,9.792z"/>
	<path fill="#F2F2F2" d="M151.538,11.667l1.896-2.695l-1.754-2.49h1.1l0.796,1.216c0.149,0.231,0.271,0.425,0.36,0.581
		c0.144-0.215,0.275-0.405,0.396-0.571l0.874-1.226h1.05l-1.792,2.441l1.929,2.744h-1.078l-1.064-1.611l-0.283-0.435l-1.361,2.046
		H151.538z"/>
</g>
<path fill="none" stroke="#FFFFFF" d="M166.41,10.001"/>
<path fill="none" stroke="#FFFFFF" d="M166.41,7"/>
<path fill="none" stroke="#FFFFFF" d="M171.41,10.001"/>
<path fill="none" stroke="#FFFFFF" d="M171.41,7"/>
<linearGradient id="SVGID_6_" gradientUnits="userSpaceOnUse" x1="167.2148" y1="56.666" x2="167.2148" y2="57.666" gradientTransform="matrix(14 0 0 12 -2164 -678)">
	<stop  offset="0" style="stop-color:#FFFFFF"/>
	<stop  offset="1" style="stop-color:#C8C8C8"/>
</linearGradient>
<path fill="url(#SVGID_6_)" d="M163,3h28v10.001h-28V3z M162,2v12.001h30V2H162z"/>
<polygon fill="none" points="160.41,2 190,2.053 190,14.054 160.41,14.001 "/>
<g transform="matrix(1,0,0,1,96.24,0)" xmlns="http://www.w3.org/2000/svg">
	<path fill="#F2F2F2" d="M175.658,10.822v0.845h-4.73c-0.008-0.211,0.027-0.415,0.102-0.61c0.121-0.322,0.313-0.64,0.578-0.952
		c0.267-0.313,0.648-0.674,1.15-1.084c0.777-0.638,1.305-1.144,1.577-1.516s0.41-0.725,0.41-1.057c0-0.348-0.124-0.642-0.374-0.881
		c-0.248-0.239-0.573-0.359-0.975-0.359c-0.422,0-0.762,0.127-1.016,0.381S172,6.193,171.996,6.643l-0.903-0.093
		c0.062-0.674,0.294-1.188,0.698-1.541s0.945-0.53,1.626-0.53c0.687,0,1.229,0.19,1.631,0.571c0.401,0.381,0.601,0.853,0.601,1.416
		c0,0.287-0.059,0.568-0.176,0.845s-0.312,0.568-0.584,0.874c-0.271,0.306-0.723,0.726-1.354,1.26
		c-0.527,0.443-0.866,0.743-1.016,0.901c-0.15,0.158-0.273,0.316-0.371,0.476H175.658z" transform="matrix(0.9999999,0,0,0.9999999,-102.14,-0.16)" xmlns="http://www.w3.org/2000/svg" />
	<path fill="#F2F2F2" d="M75.059,11.667v-1.001h1.001v1.001H75.059z" />
	<path fill="#F2F2F2" d="M37.724,8.137c0-0.846,0.087-1.527,0.261-2.043c0.174-0.516,0.433-0.914,0.776-1.194
		c0.343-0.28,0.775-0.42,1.296-0.42c0.384,0,0.721,0.077,1.011,0.232c0.29,0.155,0.529,0.377,0.718,0.669s0.337,0.646,0.444,1.064
		s0.161,0.982,0.161,1.692c0,0.84-0.086,1.518-0.259,2.034c-0.173,0.516-0.431,0.915-0.774,1.196
		c-0.343,0.281-0.777,0.422-1.301,0.422c-0.69,0-1.232-0.248-1.626-0.742C37.959,10.451,37.724,9.481,37.724,8.137z M38.627,8.137
		c0,1.175,0.138,1.957,0.413,2.346c0.275,0.389,0.614,0.583,1.018,0.583c0.404,0,0.743-0.195,1.018-0.586
		c0.275-0.391,0.413-1.172,0.413-2.344c0-1.178-0.138-1.961-0.413-2.349c-0.275-0.388-0.618-0.581-1.028-0.581
		c-0.404,0-0.726,0.171-0.967,0.513C38.778,6.156,38.627,6.961,38.627,8.137z" transform="matrix(1,0,0,1,39,0)" />
	<path fill="#F2F2F2" d="M37.724,8.137c0-0.846,0.087-1.527,0.261-2.043c0.174-0.516,0.433-0.914,0.776-1.194
		c0.343-0.28,0.775-0.42,1.296-0.42c0.384,0,0.721,0.077,1.011,0.232c0.29,0.155,0.529,0.377,0.718,0.669s0.337,0.646,0.444,1.064
		s0.161,0.982,0.161,1.692c0,0.84-0.086,1.518-0.259,2.034c-0.173,0.516-0.431,0.915-0.774,1.196
		c-0.343,0.281-0.777,0.422-1.301,0.422c-0.69,0-1.232-0.248-1.626-0.742C37.959,10.451,37.724,9.481,37.724,8.137z M38.627,8.137
		c0,1.175,0.138,1.957,0.413,2.346c0.275,0.389,0.614,0.583,1.018,0.583c0.404,0,0.743-0.195,1.018-0.586
		c0.275-0.391,0.413-1.172,0.413-2.344c0-1.178-0.138-1.961-0.413-2.349c-0.275-0.388-0.618-0.581-1.028-0.581
		c-0.404,0-0.726,0.171-0.967,0.513C38.778,6.156,38.627,6.961,38.627,8.137z" transform="matrix(1,0,0,1,45,0)" />
	<path fill="#F2F2F2" d="M88.125,11.667l1.895-2.695l-1.753-2.49h1.099l0.796,1.216c0.15,0.231,0.27,0.425,0.361,0.581
		c0.143-0.215,0.275-0.405,0.396-0.571l0.874-1.226h1.05L91.05,8.923l1.929,2.744H91.9l-1.064-1.611l-0.283-0.435l-1.362,2.046
		H88.125z" />
</g>
<path fill="none" stroke="#FFFFFF" d="M32.411,25.001"/>
<path fill="none" stroke="#FFFFFF" d="M32.411,22"/>
<path fill="none" stroke="#FFFFFF" d="M37.411,25.001"/>
<path fill="none" stroke="#FFFFFF" d="M37.411,22"/>
</svg>
